<svg width="32" height="24" viewBox="0 0 32 24" fill="none" xmlns="http://www.w3.org/2000/svg">
<rect width="32" height="24" rx="2" fill="white"/>
<mask id="mask0_67_1693" style="mask-type:luminance" maskUnits="userSpaceOnUse" x="0" y="0" width="32" height="24">
<rect width="32" height="24" rx="2" fill="white"/>
</mask>
<g mask="url(#mask0_67_1693)">
<rect width="32" height="24" fill="#E2243B"/>
<path fill-rule="evenodd" clip-rule="evenodd" d="M0 0H32L16 24L0 0Z" fill="#262626"/>
<mask id="mask1_67_1693" style="mask-type:luminance" maskUnits="userSpaceOnUse" x="0" y="0" width="32" height="24">
<path fill-rule="evenodd" clip-rule="evenodd" d="M0 0H32L16 24L0 0Z" fill="white"/>
</mask>
<g mask="url(#mask1_67_1693)">
<g filter="url(#filter0_d_67_1693)">
<path fill-rule="evenodd" clip-rule="evenodd" d="M16 13.1999L13.3759 16.2518L13.5756 12.1455L9.66483 12.3552L12.5714 9.5999L9.14286 6.3999L13.5756 7.1999L12.9524 2.3999L16 6.3999L19.0476 2.3999L18.4244 7.1999L22.8571 6.3999L19.4286 9.5999L22.3352 12.3552L18.4244 12.1455L18.6241 16.2518L16 13.1999Z" fill="#FFCF3C"/>
</g>
<g filter="url(#filter1_d_67_1693)">
<path fill-rule="evenodd" clip-rule="evenodd" d="M0 16.0001H32V9.6001H0V16.0001Z" fill="#1984D8"/>
</g>
<path fill-rule="evenodd" clip-rule="evenodd" d="M0 24H32V16H0V24Z" fill="white"/>
</g>
</g>
<defs>
<filter id="filter0_d_67_1693" x="9.14286" y="2.3999" width="13.7143" height="13.8521" filterUnits="userSpaceOnUse" color-interpolation-filters="sRGB">
<feFlood flood-opacity="0" result="BackgroundImageFix"/>
<feColorMatrix in="SourceAlpha" type="matrix" values="0 0 0 0 0 0 0 0 0 0 0 0 0 0 0 0 0 0 127 0" result="hardAlpha"/>
<feOffset/>
<feColorMatrix type="matrix" values="0 0 0 0 0 0 0 0 0 0 0 0 0 0 0 0 0 0 0.06 0"/>
<feBlend mode="normal" in2="BackgroundImageFix" result="effect1_dropShadow_67_1693"/>
<feBlend mode="normal" in="SourceGraphic" in2="effect1_dropShadow_67_1693" result="shape"/>
</filter>
<filter id="filter1_d_67_1693" x="0" y="9.6001" width="32" height="6.3999" filterUnits="userSpaceOnUse" color-interpolation-filters="sRGB">
<feFlood flood-opacity="0" result="BackgroundImageFix"/>
<feColorMatrix in="SourceAlpha" type="matrix" values="0 0 0 0 0 0 0 0 0 0 0 0 0 0 0 0 0 0 127 0" result="hardAlpha"/>
<feOffset/>
<feColorMatrix type="matrix" values="0 0 0 0 0 0 0 0 0 0 0 0 0 0 0 0 0 0 0.06 0"/>
<feBlend mode="normal" in2="BackgroundImageFix" result="effect1_dropShadow_67_1693"/>
<feBlend mode="normal" in="SourceGraphic" in2="effect1_dropShadow_67_1693" result="shape"/>
</filter>
</defs>
</svg>
