<svg width="32" height="24" viewBox="0 0 32 24" fill="none" xmlns="http://www.w3.org/2000/svg">
<mask id="mask0_67_1663" style="mask-type:luminance" maskUnits="userSpaceOnUse" x="0" y="0" width="32" height="24">
<rect width="32" height="24" rx="2" fill="white"/>
</mask>
<g mask="url(#mask0_67_1663)">
<rect width="32" height="24" fill="#EE343C"/>
<path fill-rule="evenodd" clip-rule="evenodd" d="M14.1096 5.21496C13.8822 4.97626 13.5146 4.93954 13.2445 5.12858L12.3251 5.77215C11.916 6.05852 11.9554 6.67644 12.3976 6.90857L14.1193 7.81249C14.3387 7.92766 14.4761 8.15499 14.4761 8.40276V8.93313C14.4761 9.30132 14.1776 9.5998 13.8094 9.5998H13.1167C13.0087 9.5998 12.9023 9.57358 12.8068 9.5234L10.3502 8.23373C10.0865 8.09529 9.763 8.14855 9.5576 8.36423L8.98993 8.96028C8.6846 9.28087 8.77082 9.80453 9.1628 10.0103L10.4594 10.691C10.9016 10.9232 10.9409 11.5411 10.5318 11.8275L10.4033 11.9174C9.92518 12.2521 10.0774 12.9961 10.6486 13.116L11.5557 13.3065C12.1095 13.4228 12.2757 14.1326 11.8311 14.4827L11.0506 15.0974C10.6737 15.3941 10.8836 15.9998 11.3633 15.9998C11.4066 15.9998 11.4497 15.9942 11.4916 15.9832L12.8723 15.6208C13.4447 15.4705 13.9045 16.1 13.5873 16.5996C13.3121 17.0331 13.6235 17.5998 14.137 17.5998H14.7633C15.046 17.5998 15.2961 17.7828 15.3816 18.0522C15.5731 18.6554 16.4267 18.6554 16.6182 18.0522C16.7037 17.7828 16.9538 17.5998 17.2365 17.5998H17.8628C18.3763 17.5998 18.6877 17.0331 18.4125 16.5996C18.0953 16.1 18.5551 15.4705 19.1275 15.6208L20.5082 15.9832C20.5501 15.9942 20.5933 15.9998 20.6366 15.9998C21.1162 15.9998 21.3261 15.3941 20.9492 15.0974L20.1687 14.4827C19.7241 14.1326 19.8904 13.4228 20.4441 13.3065L21.3512 13.116C21.9224 12.9961 22.0746 12.2521 21.5965 11.9174L21.468 11.8275C21.0589 11.5411 21.0983 10.9232 21.5404 10.691L22.837 10.0103C23.229 9.80453 23.3152 9.28087 23.0099 8.96028L22.4422 8.36422C22.2368 8.14855 21.9133 8.09529 21.6496 8.23373L19.1931 9.5234C19.0975 9.57358 18.9911 9.5998 18.8832 9.5998H18.1904C17.8222 9.5998 17.5237 9.30132 17.5237 8.93313V8.40276C17.5237 8.15499 17.6606 7.92792 17.88 7.81275C18.4071 7.53603 19.0678 7.18913 19.6027 6.90832C20.0449 6.67619 20.0838 6.05852 19.6747 5.77215L18.7553 5.12858C18.4852 4.93954 18.1176 4.97626 17.8902 5.21496L16.4827 6.69291C16.2199 6.96877 15.7799 6.96877 15.5171 6.69291L14.1096 5.21496Z" fill="#262626"/>
</g>
</svg>
