<svg width="32" height="24" viewBox="0 0 32 24" fill="none" xmlns="http://www.w3.org/2000/svg">
<rect width="32" height="24" rx="2" fill="white"/>
<mask id="mask0_67_1733" style="mask-type:luminance" maskUnits="userSpaceOnUse" x="0" y="0" width="32" height="24">
<rect width="32" height="24" rx="2" fill="white"/>
</mask>
<g mask="url(#mask0_67_1733)">
<path fill-rule="evenodd" clip-rule="evenodd" d="M0 8.00001H32V0H0V8.00001Z" fill="#24AAD5"/>
<path fill-rule="evenodd" clip-rule="evenodd" d="M0 24H32V16H0V24Z" fill="#21BF75"/>
<path fill-rule="evenodd" clip-rule="evenodd" d="M0 16H32V8H0V16Z" fill="#ED1845"/>
<g filter="url(#filter0_d_67_1733)">
<path fill-rule="evenodd" clip-rule="evenodd" d="M16 14.4001C16.4701 14.4001 16.9071 14.2511 17.2704 13.9956C17.2282 13.9985 17.1856 14 17.1428 14C16.0908 14 15.238 13.1046 15.238 12C15.238 10.8954 16.0908 10 17.1428 10C17.1855 10 17.228 10.0015 17.2701 10.0044C16.9068 9.74903 16.47 9.6001 16 9.6001C14.7376 9.6001 13.7143 10.6746 13.7143 12.0001C13.7143 13.3256 14.7376 14.4001 16 14.4001ZM18.2857 12.0001C18.2857 12.4419 17.9446 12.8001 17.5238 12.8001C17.103 12.8001 16.7619 12.4419 16.7619 12.0001C16.7619 11.5583 17.103 11.2001 17.5238 11.2001C17.9446 11.2001 18.2857 11.5583 18.2857 12.0001Z" fill="white"/>
</g>
</g>
<defs>
<filter id="filter0_d_67_1733" x="13.7143" y="9.6001" width="4.57143" height="5.80005" filterUnits="userSpaceOnUse" color-interpolation-filters="sRGB">
<feFlood flood-opacity="0" result="BackgroundImageFix"/>
<feColorMatrix in="SourceAlpha" type="matrix" values="0 0 0 0 0 0 0 0 0 0 0 0 0 0 0 0 0 0 127 0" result="hardAlpha"/>
<feOffset dy="1"/>
<feColorMatrix type="matrix" values="0 0 0 0 0 0 0 0 0 0 0 0 0 0 0 0 0 0 0.06 0"/>
<feBlend mode="normal" in2="BackgroundImageFix" result="effect1_dropShadow_67_1733"/>
<feBlend mode="normal" in="SourceGraphic" in2="effect1_dropShadow_67_1733" result="shape"/>
</filter>
</defs>
</svg>
