<svg width="32" height="24" viewBox="0 0 32 24" fill="none" xmlns="http://www.w3.org/2000/svg">
<rect width="32" height="24" rx="2" fill="white"/>
<mask id="mask0_67_1816" style="mask-type:luminance" maskUnits="userSpaceOnUse" x="0" y="0" width="32" height="24">
<rect width="32" height="24" rx="2" fill="white"/>
</mask>
<g mask="url(#mask0_67_1816)">
<rect width="32" height="24" fill="#0B36B2"/>
<g filter="url(#filter0_d_67_1816)">
<path fill-rule="evenodd" clip-rule="evenodd" d="M25.9048 24V0H9.90476L25.9048 24Z" fill="#FFD045"/>
</g>
<path fill-rule="evenodd" clip-rule="evenodd" d="M19.8095 22.4L18.732 22.7314L19.0476 21.6L18.732 20.4686L19.8095 20.8L20.887 20.4686L20.5714 21.6L20.887 22.7314L19.8095 22.4Z" fill="white"/>
<path fill-rule="evenodd" clip-rule="evenodd" d="M16.7618 17.6002L15.6843 17.9315L15.9999 16.8002L15.6843 15.6688L16.7618 16.0002L17.8393 15.6688L17.5237 16.8002L17.8393 17.9315L16.7618 17.6002Z" fill="white"/>
<path fill-rule="evenodd" clip-rule="evenodd" d="M13.7143 12.7999L12.6368 13.1313L12.9524 11.9999L12.6368 10.8685L13.7143 11.1999L14.7918 10.8685L14.4762 11.9999L14.7918 13.1313L13.7143 12.7999Z" fill="white"/>
<path fill-rule="evenodd" clip-rule="evenodd" d="M10.6667 8.0001L9.58917 8.33147L9.90477 7.2001L9.58917 6.06873L10.6667 6.4001L11.7442 6.06873L11.4286 7.2001L11.7442 8.33147L10.6667 8.0001Z" fill="white"/>
<path fill-rule="evenodd" clip-rule="evenodd" d="M7.61896 3.1998L6.54146 3.53117L6.85705 2.3998L6.54146 1.26843L7.61896 1.5998L8.69645 1.26843L8.38086 2.3998L8.69645 3.53117L7.61896 3.1998Z" fill="white"/>
</g>
<defs>
<filter id="filter0_d_67_1816" x="9.90476" y="0" width="16" height="24" filterUnits="userSpaceOnUse" color-interpolation-filters="sRGB">
<feFlood flood-opacity="0" result="BackgroundImageFix"/>
<feColorMatrix in="SourceAlpha" type="matrix" values="0 0 0 0 0 0 0 0 0 0 0 0 0 0 0 0 0 0 127 0" result="hardAlpha"/>
<feOffset/>
<feColorMatrix type="matrix" values="0 0 0 0 0 0 0 0 0 0 0 0 0 0 0 0 0 0 0.06 0"/>
<feBlend mode="normal" in2="BackgroundImageFix" result="effect1_dropShadow_67_1816"/>
<feBlend mode="normal" in="SourceGraphic" in2="effect1_dropShadow_67_1816" result="shape"/>
</filter>
</defs>
</svg>
