<svg width="32" height="24" viewBox="0 0 32 24" fill="none" xmlns="http://www.w3.org/2000/svg">
<rect width="32" height="24" rx="2" fill="white"/>
<mask id="mask0_67_1777" style="mask-type:luminance" maskUnits="userSpaceOnUse" x="0" y="0" width="32" height="24">
<rect width="32" height="24" rx="2" fill="white"/>
</mask>
<g mask="url(#mask0_67_1777)">
<rect width="32" height="24" fill="url(#paint0_linear_67_1777)"/>
<rect x="15.2381" width="16.7619" height="24" fill="#08379D"/>
<path fill-rule="evenodd" clip-rule="evenodd" d="M0 24H10.6667V0H0V24Z" fill="#08379D"/>
<path fill-rule="evenodd" clip-rule="evenodd" d="M10.6667 24H21.3333V0H10.6667V24Z" fill="#FFCC50"/>
<path fill-rule="evenodd" clip-rule="evenodd" d="M15.7452 7.64065C15.878 7.43561 16.179 7.43835 16.308 7.64577L17.2069 9.09053C17.345 9.31257 17.1853 9.59995 16.9238 9.59995H16.7475C16.551 9.59995 16.3971 9.76919 16.4157 9.96488L16.7332 13.2982C16.7495 13.4693 16.8931 13.5999 17.065 13.5999H17.382C17.4726 13.5999 17.5593 13.5631 17.6221 13.4978L18.1925 12.9053C18.2523 12.8432 18.2857 12.7604 18.2857 12.6742V11.3333C18.2857 11.2477 18.2528 11.1654 18.1938 11.1034L17.8799 10.7739C17.713 10.5986 17.7827 10.3093 18.0112 10.2294L19.273 9.78773C19.5133 9.70362 19.7554 9.90908 19.7114 10.1599L19.1269 13.4971C19.1152 13.564 19.0833 13.6258 19.0354 13.6742L17.6216 15.1012C17.559 15.1644 17.4738 15.1999 17.3848 15.1999H17.0952C16.9111 15.1999 16.7619 15.3492 16.7619 15.5333V16.4666C16.7619 16.6507 16.6127 16.7999 16.4286 16.7999H15.5714C15.3873 16.7999 15.2381 16.6507 15.2381 16.4666V15.5333C15.2381 15.3492 15.0888 15.1999 14.9048 15.1999H14.619C14.5278 15.1999 14.4406 15.1626 14.3777 15.0965L13.0201 13.671C12.9759 13.6246 12.946 13.5665 12.934 13.5035L12.2987 10.168C12.2506 9.9157 12.4938 9.70613 12.7362 9.79096L13.9888 10.2294C14.2173 10.3093 14.287 10.5986 14.1201 10.7739L13.8062 11.1034C13.7472 11.1654 13.7143 11.2477 13.7143 11.3333V12.6742C13.7143 12.7604 13.7477 12.8432 13.8075 12.9053L14.3778 13.4978C14.4407 13.5631 14.5274 13.5999 14.618 13.5999H14.935C15.1068 13.5999 15.2505 13.4693 15.2668 13.2982L15.5843 9.96488C15.6029 9.76919 15.449 9.59995 15.2525 9.59995H15.0892C14.825 9.59995 14.6658 9.30719 14.8094 9.08541L15.7452 7.64065Z" fill="#262626"/>
</g>
<defs>
<linearGradient id="paint0_linear_67_1777" x1="0" y1="0" x2="0" y2="24" gradientUnits="userSpaceOnUse">
<stop stop-color="#1132C7"/>
<stop offset="1" stop-color="#0522A5"/>
</linearGradient>
</defs>
</svg>
