<svg width="32" height="24" viewBox="0 0 32 24" fill="none" xmlns="http://www.w3.org/2000/svg">
<rect width="32" height="24" rx="2" fill="white"/>
<mask id="mask0_67_1785" style="mask-type:luminance" maskUnits="userSpaceOnUse" x="0" y="0" width="32" height="24">
<rect width="32" height="24" rx="2" fill="white"/>
</mask>
<g mask="url(#mask0_67_1785)">
<rect width="32" height="24" fill="#E4233B"/>
<path fill-rule="evenodd" clip-rule="evenodd" d="M0 0L13.7143 12L0 24V0Z" fill="#34CD4E"/>
<path fill-rule="evenodd" clip-rule="evenodd" d="M32 0L18.2857 12L32 24V0Z" fill="#34CD4E"/>
<path fill-rule="evenodd" clip-rule="evenodd" d="M19.3852 7.6725C18.4643 6.87733 17.2852 6.3999 15.9998 6.3999C14.7145 6.3999 13.5353 6.87733 12.6145 7.67251L-1.46607 -2.2998L-3.17027 0.353116L10.9092 10.3247C10.7515 10.8536 10.6665 11.4163 10.6665 11.9999C10.6665 12.5836 10.7515 13.1464 10.9093 13.6754L-3.17017 23.647L-1.46596 26.2999L12.6147 16.3275C13.5355 17.1226 14.7146 17.5999 15.9998 17.5999C17.2851 17.5999 18.4641 17.1226 19.385 16.3275L33.4653 26.2997L35.1695 23.6467L21.0903 13.6754C21.2481 13.1464 21.3332 12.5836 21.3332 11.9999C21.3332 11.4163 21.2482 10.8536 21.0904 10.3247L35.1696 0.353346L33.4654 -2.29957L19.3852 7.6725Z" fill="white"/>
<path fill-rule="evenodd" clip-rule="evenodd" d="M15.9999 10.4001L14.9224 10.7315L15.238 9.60012L14.9224 8.46875L15.9999 8.80012L17.0774 8.46875L16.7618 9.60012L17.0774 10.7315L15.9999 10.4001ZM13.7142 14.4001L12.6367 14.7315L12.9523 13.6001L12.6367 12.4688L13.7142 12.8001L14.7917 12.4688L14.4761 13.6001L14.7917 14.7315L13.7142 14.4001ZM17.208 14.7315L18.2855 14.4001L19.363 14.7315L19.0474 13.6001L19.363 12.4688L18.2855 12.8001L17.208 12.4688L17.5236 13.6001L17.208 14.7315Z" fill="#DF2239"/>
</g>
</svg>
