<svg width="32" height="24" viewBox="0 0 32 24" fill="none" xmlns="http://www.w3.org/2000/svg">
<rect width="32" height="24" rx="2" fill="white"/>
<mask id="mask0_67_1834" style="mask-type:luminance" maskUnits="userSpaceOnUse" x="0" y="0" width="32" height="24">
<rect width="32" height="24" rx="2" fill="white"/>
</mask>
<g mask="url(#mask0_67_1834)">
<path fill-rule="evenodd" clip-rule="evenodd" d="M0 16H32V0H0V16Z" fill="#E54252"/>
<path fill-rule="evenodd" clip-rule="evenodd" d="M0 24H32V16H0V24Z" fill="#5CBE6B"/>
<path fill-rule="evenodd" clip-rule="evenodd" d="M0 0H4.57143V3.6L3.80952 4.8L4.57143 6V8.39988L3.80933 9.60019L4.57143 10.8005V13.2L3.80952 14.4L4.57143 15.6V17.9995L3.80933 19.1998L4.57143 20.4001V24H0V0Z" fill="white"/>
<path fill-rule="evenodd" clip-rule="evenodd" d="M-0.761911 2.3999L-2.28572 4.7999L-0.761973 7.1998L-2.28572 9.59971L-0.761911 11.9997L0.761899 9.59971L-0.761849 7.1998L0.761899 4.7999L-0.761911 2.3999ZM-2.28572 14.3999L-0.761911 11.9999L0.761899 14.3999L-0.761911 16.7999L-2.28572 14.3999ZM-0.761911 16.7999L0.761899 19.1999L-0.761911 21.5999L-2.28572 19.1999L-0.761911 16.7999Z" fill="#E54252"/>
<path fill-rule="evenodd" clip-rule="evenodd" d="M0.761902 2.4L2.28571 0L3.80952 2.4L2.28577 4.7999L3.80952 7.1998L2.28571 9.5998L0.761902 7.1998L2.28565 4.7999L0.761902 2.4ZM2.28571 9.6L0.761902 12L2.28571 14.4L0.761902 16.8L2.28571 19.2L3.80952 16.8L2.28571 14.4L3.80952 12L2.28571 9.6ZM2.28571 19.2002L0.761902 21.6002L2.28571 24.0002L3.80952 21.6002L2.28571 19.2002Z" fill="#E54252"/>
</g>
</svg>
