<svg width="32" height="24" viewBox="0 0 32 24" fill="none" xmlns="http://www.w3.org/2000/svg">
<rect x="0.25" y="0.25" width="31.5" height="23.5" rx="1.75" fill="white" stroke="#F5F5F5" stroke-width="0.5"/>
<mask id="mask0_67_1927" style="mask-type:luminance" maskUnits="userSpaceOnUse" x="0" y="0" width="32" height="24">
<rect x="0.25" y="0.25" width="31.5" height="23.5" rx="1.75" fill="white" stroke="white" stroke-width="0.5"/>
</mask>
<g mask="url(#mask0_67_1927)">
<rect x="22.8571" width="9.14286" height="24" fill="#FF3131"/>
<path fill-rule="evenodd" clip-rule="evenodd" d="M0 24H9.14286V0H0V24Z" fill="#FF3131"/>
<path fill-rule="evenodd" clip-rule="evenodd" d="M18.3044 11.1803C18.0752 11.421 17.6734 11.2146 17.7356 10.888L18.2857 7.9999L16.7619 8.7999L16 6.3999L15.2381 8.7999L13.7143 7.9999L14.2644 10.888C14.3266 11.2146 13.9248 11.421 13.6956 11.1803L13.1937 10.6533C13.0624 10.5154 12.8424 10.5154 12.711 10.6533L12.1905 11.1999L10.6667 10.3999L11.4286 11.9999L10.8856 12.57C10.763 12.6988 10.763 12.901 10.8856 13.0298L12.9524 15.1999H15.2381L15.619 17.5999H16.3809L16.7619 15.1999H19.0476L21.1144 13.0298C21.237 12.901 21.237 12.6988 21.1144 12.57L20.5714 11.9999L21.3333 10.3999L19.8095 11.1999L19.289 10.6533C19.1576 10.5154 18.9376 10.5154 18.8062 10.6533L18.3044 11.1803Z" fill="#FF3131"/>
</g>
</svg>
