<svg width="32" height="24" viewBox="0 0 32 24" fill="none" xmlns="http://www.w3.org/2000/svg">
<rect x="0.25" y="0.25" width="31.5" height="23.5" rx="1.75" fill="white" stroke="#F5F5F5" stroke-width="0.5"/>
<mask id="mask0_67_1919" style="mask-type:luminance" maskUnits="userSpaceOnUse" x="0" y="0" width="32" height="24">
<rect x="0.25" y="0.25" width="31.5" height="23.5" rx="1.75" fill="white" stroke="white" stroke-width="0.5"/>
</mask>
<g mask="url(#mask0_67_1919)">
<path fill-rule="evenodd" clip-rule="evenodd" d="M0 6.4H32V0H0V6.4Z" fill="#083D96"/>
<path fill-rule="evenodd" clip-rule="evenodd" d="M0 17.6002H32V11.2002H0V17.6002Z" fill="#37AE39"/>
<path fill-rule="evenodd" clip-rule="evenodd" d="M0 24.0001H32V17.6001H0V24.0001Z" fill="#FFD13F"/>
<path fill-rule="evenodd" clip-rule="evenodd" d="M12.1905 24H19.8095V0H12.1905V24Z" fill="#E42346"/>
<path fill-rule="evenodd" clip-rule="evenodd" d="M5.33332 4.13581L3.98981 5.14145L4.48552 3.48905L3.15948 2.45816L4.80935 2.44257L5.33332 0.799805L5.85729 2.44257L7.50716 2.45816L6.18112 3.48905L6.67683 5.14145L5.33332 4.13581Z" fill="#FFD03B"/>
</g>
</svg>
