<svg width="32" height="24" viewBox="0 0 32 24" fill="none" xmlns="http://www.w3.org/2000/svg">
<rect x="0.25" y="0.25" width="31.5" height="23.5" rx="1.75" fill="white" stroke="#F5F5F5" stroke-width="0.5"/>
<mask id="mask0_67_2022" style="mask-type:luminance" maskUnits="userSpaceOnUse" x="0" y="0" width="32" height="24">
<rect x="0.25" y="0.25" width="31.5" height="23.5" rx="1.75" fill="white" stroke="white" stroke-width="0.5"/>
</mask>
<g mask="url(#mask0_67_2022)">
<path fill-rule="evenodd" clip-rule="evenodd" d="M22.857 4.0002C23.2736 3.78152 23.7105 4.25597 23.4584 4.65312L22.9284 5.48776C22.8813 5.56198 22.82 5.62615 22.7479 5.67657L20.6259 7.16202C20.5896 7.18741 20.556 7.21635 20.5254 7.24841L20.2473 7.54043C20.0021 7.7979 20.0021 8.2025 20.2473 8.45997L20.8954 9.14043C21.1406 9.3979 21.1406 9.8025 20.8954 10.06L20.1565 10.8358C19.9511 11.0515 19.6276 11.1047 19.3639 10.9663L18.8994 10.7224C18.5644 10.5465 18.1503 10.6844 17.9876 11.0261L17.6432 11.7494C17.5667 11.9099 17.4293 12.0332 17.2615 12.092L15.3449 12.7628C15.2742 12.7875 15.1997 12.8002 15.1247 12.8002H14.1351C13.878 12.8002 13.6438 12.9481 13.5332 13.1802L13.2503 13.7743C13.0876 14.116 12.6736 14.2539 12.3385 14.078L10.0018 12.8512C9.93749 12.8174 9.8791 12.7734 9.82898 12.7207L8.56477 11.3933C8.44671 11.2693 8.38086 11.1047 8.38086 10.9335V10.1335C8.38086 9.83898 8.61964 9.6002 8.91419 9.6002C9.06015 9.6002 9.19974 9.54038 9.3004 9.43468L10.4695 8.2071C10.5954 8.07498 10.7698 8.0002 10.9523 8.0002H11.7026C11.993 8.0002 12.2501 7.81211 12.338 7.53525L12.7699 6.17482C12.8734 5.84855 13.2073 5.65375 13.5423 5.7241L16.6078 6.36785C16.7091 6.38912 16.8139 6.38652 16.9141 6.36023L19.736 5.61947C19.7848 5.60666 19.832 5.58836 19.8766 5.56491L21.3332 4.8002L22.857 4.0002Z" fill="#E7832C"/>
<path fill-rule="evenodd" clip-rule="evenodd" d="M16 19.2001C16.4208 19.2001 16.7619 18.8419 16.7619 18.4001C16.7619 17.9583 16.4208 17.6001 16 17.6001C15.5792 17.6001 15.2381 17.9583 15.2381 18.4001C15.2381 18.8419 15.5792 19.2001 16 19.2001Z" fill="#445128"/>
<path opacity="0.75" d="M18.2857 17.6002C18.2857 17.6002 20.5714 16.8002 21.3333 15.2002" stroke="#445128" stroke-width="1.33333" stroke-linecap="round"/>
<path opacity="0.75" d="M13.7143 17.6002C13.7143 17.6002 11.4286 16.8002 10.6667 15.2002" stroke="#445128" stroke-width="1.33333" stroke-linecap="round"/>
</g>
</svg>
