<svg width="32" height="24" viewBox="0 0 32 24" fill="none" xmlns="http://www.w3.org/2000/svg">
<rect x="0.25" y="0.25" width="31.5" height="23.5" rx="1.75" fill="white" stroke="#F5F5F5" stroke-width="0.5"/>
<mask id="mask0_67_2098" style="mask-type:luminance" maskUnits="userSpaceOnUse" x="0" y="0" width="32" height="24">
<rect x="0.25" y="0.25" width="31.5" height="23.5" rx="1.75" fill="white" stroke="white" stroke-width="0.5"/>
</mask>
<g mask="url(#mask0_67_2098)">
<path fill-rule="evenodd" clip-rule="evenodd" d="M0 8.00001H32V0H0V8.00001Z" fill="#E41D33"/>
<path fill-rule="evenodd" clip-rule="evenodd" d="M0 24H32V16H0V24Z" fill="#262626"/>
<path d="M12.8575 9.93311H13.504L14.1749 11.3433L14.462 11.9458L14.7715 11.355V11.354C14.7718 11.3535 14.7729 11.3531 14.7735 11.3521C14.7748 11.3496 14.7766 11.3455 14.7793 11.3403C14.785 11.3298 14.7933 11.3131 14.8047 11.2925C14.8275 11.2513 14.8618 11.1922 14.9043 11.1206C14.99 10.9766 15.1101 10.7865 15.2491 10.5981C15.3896 10.4076 15.5416 10.2297 15.6895 10.103C15.8467 9.96837 15.9503 9.93311 16 9.93311C16.0757 9.93312 16.1911 9.97599 16.3448 10.105C16.4932 10.2297 16.6416 10.4055 16.7764 10.5942C16.9096 10.7808 17.0222 10.9689 17.1016 11.1118C17.1411 11.1828 17.1716 11.242 17.1924 11.2827C17.2028 11.3031 17.2108 11.3192 17.2159 11.3296C17.2183 11.3345 17.2206 11.338 17.2217 11.3403L17.2227 11.3433L17.5235 11.9751L17.8252 11.3433L18.4961 9.93311H19.1426C19.3267 9.93311 19.4766 10.083 19.4766 10.2671V13.1196C19.4766 13.3893 19.1721 13.5477 18.9512 13.3931L17.7149 12.5269L17.629 12.4663H16.4288V13.7339C16.4285 13.9178 16.2787 14.0669 16.0948 14.0669H15.9043C15.7206 14.0667 15.5716 13.9176 15.5713 13.7339V12.4663H14.3711L14.2852 12.5269L13.0479 13.3931C12.827 13.5472 12.5235 13.3891 12.5235 13.1196V10.2671C12.5235 10.083 12.6734 9.93311 12.8575 9.93311Z" fill="#F4B32E" fill-opacity="0.25" stroke="#C6A846" stroke-width="0.666667"/>
</g>
</svg>
