<svg width="32" height="24" viewBox="0 0 32 24" fill="none" xmlns="http://www.w3.org/2000/svg">
<rect width="32" height="24" rx="2" fill="white"/>
<mask id="mask0_67_2104" style="mask-type:luminance" maskUnits="userSpaceOnUse" x="0" y="0" width="32" height="24">
<rect width="32" height="24" rx="2" fill="white"/>
</mask>
<g mask="url(#mask0_67_2104)">
<path fill-rule="evenodd" clip-rule="evenodd" d="M32 0V12H0V0H32Z" fill="#29C53F"/>
<path fill-rule="evenodd" clip-rule="evenodd" d="M32 12V24.8H0V12H32Z" fill="#579DED"/>
<path fill-rule="evenodd" clip-rule="evenodd" d="M0 24L32 12L0 0V24Z" fill="#F42D56"/>
<path d="M9.90454 7.06689C12.4515 7.06689 14.5713 9.24407 14.5715 11.9995C14.5715 14.7551 12.4516 16.9331 9.90454 16.9331C7.35763 16.9329 5.23853 14.755 5.23853 11.9995C5.23872 9.24418 7.35775 7.06708 9.90454 7.06689Z" stroke="#FFC63C" stroke-width="1.33333"/>
<path fill-rule="evenodd" clip-rule="evenodd" d="M9.14286 11.2001C9.56364 11.2001 9.90476 10.8419 9.90476 10.4001C9.90476 9.95827 9.56364 9.6001 9.14286 9.6001C8.72207 9.6001 8.38095 9.95827 8.38095 10.4001C8.38095 10.8419 8.72207 11.2001 9.14286 11.2001Z" fill="#FFC63C"/>
<path fill-rule="evenodd" clip-rule="evenodd" d="M10.6667 11.9999C11.0874 11.9999 11.4286 11.6417 11.4286 11.1999C11.4286 10.7581 11.0874 10.3999 10.6667 10.3999C10.2459 10.3999 9.90475 10.7581 9.90475 11.1999C9.90475 11.6417 10.2459 11.9999 10.6667 11.9999Z" fill="#FFC63C"/>
<path fill-rule="evenodd" clip-rule="evenodd" d="M9.90476 10.3998C10.3255 10.3998 10.6667 10.0416 10.6667 9.5998C10.6667 9.15798 10.3255 8.7998 9.90476 8.7998C9.48397 8.7998 9.14285 9.15798 9.14285 9.5998C9.14285 10.0416 9.48397 10.3998 9.90476 10.3998Z" fill="#FFC63C"/>
<path fill-rule="evenodd" clip-rule="evenodd" d="M9.14276 12.8002C9.56355 12.8002 9.90467 12.442 9.90467 12.0002C9.90467 11.5584 9.56355 11.2002 9.14276 11.2002C8.72198 11.2002 8.38086 11.5584 8.38086 12.0002C8.38086 12.442 8.72198 12.8002 9.14276 12.8002Z" fill="#FFC63C"/>
<path fill-rule="evenodd" clip-rule="evenodd" d="M10.6667 13.6C11.0874 13.6 11.4286 13.2418 11.4286 12.8C11.4286 12.3582 11.0874 12 10.6667 12C10.2459 12 9.90475 12.3582 9.90475 12.8C9.90475 13.2418 10.2459 13.6 10.6667 13.6Z" fill="#FFC63C"/>
<path fill-rule="evenodd" clip-rule="evenodd" d="M9.14276 14.3998C9.56355 14.3998 9.90467 14.0416 9.90467 13.5998C9.90467 13.158 9.56355 12.7998 9.14276 12.7998C8.72198 12.7998 8.38086 13.158 8.38086 13.5998C8.38086 14.0416 8.72198 14.3998 9.14276 14.3998Z" fill="#FFC63C"/>
<path fill-rule="evenodd" clip-rule="evenodd" d="M10.6667 15.2001C11.0874 15.2001 11.4286 14.8419 11.4286 14.4001C11.4286 13.9583 11.0874 13.6001 10.6667 13.6001C10.2459 13.6001 9.90475 13.9583 9.90475 14.4001C9.90475 14.8419 10.2459 15.2001 10.6667 15.2001Z" fill="#FFC63C"/>
</g>
</svg>
