<svg width="32" height="24" viewBox="0 0 32 24" fill="none" xmlns="http://www.w3.org/2000/svg">
<rect width="32" height="24" rx="2" fill="white"/>
<mask id="mask0_67_2176" style="mask-type:luminance" maskUnits="userSpaceOnUse" x="0" y="0" width="32" height="24">
<rect width="32" height="24" rx="2" fill="white"/>
</mask>
<g mask="url(#mask0_67_2176)">
<rect width="32" height="24" fill="#95CEF5"/>
<path fill-rule="evenodd" clip-rule="evenodd" d="M14.2086 8.18876L16 6.9119L17.7913 8.18876L17.1884 6.00533L18.8984 4.61105L16.7344 4.53847L16 2.3999L15.2655 4.53847L13.1015 4.61105L14.8116 6.00533L14.2086 8.18876ZM14.2086 20.9886L16 19.7117L17.7913 20.9886L17.1883 18.8051L18.8984 17.4109L16.7344 17.3383L16 15.1997L15.2655 17.3383L13.1015 17.4109L14.8116 18.8051L14.2086 20.9886ZM22.0952 13.3119L20.3039 14.5888L20.9069 12.4053L19.1968 11.0111L21.3608 10.9385L22.0952 8.7999L22.8297 10.9385L24.9937 11.0111L23.2836 12.4053L23.8866 14.5888L22.0952 13.3119ZM8.1134 14.5888L9.90474 13.3119L11.6961 14.5888L11.0931 12.4053L12.8032 11.0111L10.6392 10.9385L9.90474 8.7999L9.17029 10.9385L7.00629 11.0111L8.71638 12.4053L8.1134 14.5888Z" fill="white"/>
</g>
</svg>
