<svg width="32" height="24" viewBox="0 0 32 24" fill="none" xmlns="http://www.w3.org/2000/svg">
<rect width="32" height="24" rx="2" fill="white"/>
<mask id="mask0_67_2198" style="mask-type:luminance" maskUnits="userSpaceOnUse" x="0" y="0" width="32" height="24">
<rect width="32" height="24" rx="2" fill="white"/>
</mask>
<g mask="url(#mask0_67_2198)">
<rect width="32" height="24" fill="#0A17A7"/>
<path fill-rule="evenodd" clip-rule="evenodd" d="M-1.46607 -2.2998L12.1905 7.37222V-1.6001H19.8095V7.37198L33.4654 -2.29957L35.1696 0.353346L24.3729 7.9999H32V15.9999H24.3724L35.1695 23.6467L33.4653 26.2997L19.8095 16.6282V25.5999H12.1905V16.6279L-1.46596 26.2999L-3.17017 23.647L7.62721 15.9999H-1.19209e-06V7.9999H7.62671L-3.17027 0.353116L-1.46607 -2.2998Z" fill="white"/>
<path d="M21.3347 7.59873L35.8094 -2.3999" stroke="#DB1F35" stroke-width="0.666667" stroke-linecap="round"/>
<path d="M22.8717 16.4372L35.8475 25.6206" stroke="#DB1F35" stroke-width="0.666667" stroke-linecap="round"/>
<path d="M9.14938 7.57236L-4.3855 -2.00537" stroke="#DB1F35" stroke-width="0.666667" stroke-linecap="round"/>
<path d="M10.6172 16.3258L-4.3857 26.7725" stroke="#DB1F35" stroke-width="0.666667" stroke-linecap="round"/>
<path fill-rule="evenodd" clip-rule="evenodd" d="M0 14.4H13.7143V24H18.2857V14.4H32V9.6H18.2857V0H13.7143V9.6H0V14.4Z" fill="#E6273E"/>
</g>
</svg>
