<svg width="32" height="24" viewBox="0 0 32 24" fill="none" xmlns="http://www.w3.org/2000/svg">
<rect width="32" height="24" rx="2" fill="white"/>
<mask id="mask0_67_2378" style="mask-type:luminance" maskUnits="userSpaceOnUse" x="0" y="0" width="32" height="24">
<rect width="32" height="24" rx="2" fill="white"/>
</mask>
<g mask="url(#mask0_67_2378)">
<path fill-rule="evenodd" clip-rule="evenodd" d="M0 24H32V0H0V24Z" fill="#F0371D"/>
<path fill-rule="evenodd" clip-rule="evenodd" d="M15.9816 9.77522C17.082 8.80816 17.1489 8.59189 17.4126 7.7399C17.5006 7.45552 17.4385 7.22195 17.3652 6.94611C17.2595 6.54836 17.1304 6.06273 17.3943 5.21015C16.1937 4.80055 14.7988 5.83108 14.2787 7.51189C13.7585 9.1927 14.3102 10.8873 15.5107 11.2969C15.7257 11.3702 15.7016 11.3172 15.6363 11.1737C15.5219 10.9218 15.2807 10.3912 15.9816 9.77522ZM13.703 11.5413C13.1671 10.1437 12.9919 10.01 12.3016 9.48344C12.0712 9.30768 11.8405 9.29748 11.568 9.28544C11.1751 9.26809 10.6953 9.24689 10.0046 8.71996C9.26262 9.7923 9.76499 11.5037 11.1267 12.5425C12.4884 13.5813 14.1938 13.5541 14.9358 12.4818C15.0686 12.2898 15.0131 12.2975 14.8629 12.3183C14.5994 12.3548 14.0443 12.4316 13.703 11.5413ZM20.5716 12.3046C19.7184 12.3046 19.5019 12.3046 18.2859 11.5046C17.5114 10.995 17.1053 11.3998 16.9125 11.5919C16.8027 11.7014 16.7621 11.7419 16.7621 11.5046C16.7621 10.1791 18.1266 9.10458 19.8097 9.10458C21.4929 9.10458 22.8573 10.1791 22.8573 11.5046C22.0036 11.5046 21.6036 11.7835 21.276 12.012C21.0488 12.1704 20.8564 12.3046 20.5716 12.3046ZM20.5716 10.8C20.5716 11.0209 20.4011 11.2 20.1907 11.2C19.9803 11.2 19.8097 11.0209 19.8097 10.8C19.8097 10.5791 19.9803 10.4 20.1907 10.4C20.4011 10.4 20.5716 10.5791 20.5716 10.8ZM17.431 14.3401C17.0821 15.8016 17.149 16.0178 17.4127 16.8698C17.5007 17.1542 17.6816 17.3049 17.8953 17.4828C18.2035 17.7393 18.5798 18.0526 18.8436 18.9052C20.0442 18.4956 20.5958 16.801 20.0757 15.1201C19.5556 13.4393 18.1607 12.4088 16.9601 12.8184C16.7451 12.8917 16.7943 12.9197 16.9275 12.9956C17.1611 13.1287 17.6532 13.4092 17.431 14.3401ZM18.7756 16.4046C18.5755 16.4728 18.3606 16.3578 18.2955 16.1477C18.2305 15.9376 18.34 15.712 18.5401 15.6437C18.7402 15.5755 18.9551 15.6904 19.0202 15.9005C19.0852 16.1106 18.9757 16.3363 18.7756 16.4046ZM14.5987 14.3627C13.1672 14.4659 12.992 14.5996 12.3017 15.1261C12.0713 15.3019 11.9908 15.5292 11.8957 15.7976C11.7585 16.1846 11.5911 16.6571 10.9004 17.184C11.6424 18.2564 13.3478 18.2836 14.7095 17.2448C16.0712 16.206 16.5735 14.4946 15.8315 13.4222C15.6987 13.2303 15.6885 13.288 15.6609 13.4444C15.6125 13.7188 15.5106 14.2969 14.5987 14.3627ZM13.144 16.343C13.0204 16.1643 13.0581 15.9141 13.2283 15.7843C13.3985 15.6544 13.6368 15.6941 13.7604 15.8728C13.8841 16.0515 13.8464 16.3016 13.6762 16.4315C13.5059 16.5613 13.2677 16.5217 13.144 16.343ZM11.4593 10.7004C11.583 10.5217 11.8212 10.4821 11.9914 10.6119C12.1616 10.7418 12.1994 10.9919 12.0757 11.1706C11.952 11.3493 11.7138 11.389 11.5436 11.2591C11.3734 11.1293 11.3356 10.8791 11.4593 10.7004ZM16.0496 7.27496C16.2497 7.34323 16.3592 7.56889 16.2942 7.77899C16.2292 7.98909 16.0143 8.10407 15.8142 8.03581C15.6141 7.96754 15.5046 7.74188 15.5696 7.53178C15.6346 7.32167 15.8495 7.20669 16.0496 7.27496Z" fill="white"/>
</g>
</svg>
