<svg width="32" height="24" viewBox="0 0 32 24" fill="none" xmlns="http://www.w3.org/2000/svg">
<rect width="32" height="24" rx="2" fill="#D01129"/>
<mask id="mask0_67_3611" style="mask-type:luminance" maskUnits="userSpaceOnUse" x="0" y="0" width="32" height="24">
<rect width="32" height="24" rx="2" fill="white"/>
</mask>
<g mask="url(#mask0_67_3611)">
<path fill-rule="evenodd" clip-rule="evenodd" d="M15.8721 12.0492C16.6275 12.0492 17.2398 11.3741 17.2398 10.5415C17.2398 9.70877 16.6275 9.03369 15.8721 9.03369C15.1168 9.03369 14.5045 9.70877 14.5045 10.5415C14.5045 11.3741 15.1168 12.0492 15.8721 12.0492Z" fill="#FFF101"/>
<path fill-rule="evenodd" clip-rule="evenodd" d="M14.6254 9.93515C15.0128 9.79893 15.5153 9.95747 15.8459 10.3073C16.1969 10.2368 16.5488 9.75093 16.6578 9.31835C16.538 7.88084 15.685 6.79181 15.4257 6.04451C15.3436 5.80832 14.9634 5.43695 14.5679 5.60986C14.2428 5.7521 14.0783 5.64142 12.9863 6.24194C12.3957 6.56664 11.8987 6.90014 11.6368 6.95827C11.3748 7.0164 11.0983 7.06821 10.8888 6.88722C10.6005 6.63827 10.2772 6.56943 10.0868 6.38183C9.85354 6.15196 9.70388 5.97845 9.5461 5.90814C9.38832 5.83768 9.12122 5.99416 9.234 6.36656C9.48844 7.20766 10.0883 7.34388 10.3458 8.13009C10.4674 8.50176 10.6402 8.7811 11.0264 8.49941C11.4127 8.21772 11.9586 7.84355 12.8893 7.80422C13.5143 7.77765 14.1602 7.52429 14.457 7.10858C14.4541 7.46822 14.5691 7.76297 14.5388 8.23078C14.5085 8.69875 14.5133 9.28077 14.6254 9.93515Z" fill="white"/>
<path fill-rule="evenodd" clip-rule="evenodd" d="M15.3577 9.975C15.2429 9.26732 15.451 9.16531 15.2026 8.3358C15.0532 7.83701 14.9577 7.21183 14.9553 6.9209L14.8554 6.9529C14.8578 7.24383 14.9534 7.86916 15.1027 8.36795C15.343 9.17 15.1562 9.29184 15.2476 9.93903C15.2758 9.94534 15.335 9.96619 15.3577 9.975Z" fill="#FFF101"/>
<path fill-rule="evenodd" clip-rule="evenodd" d="M14.7697 9.89728C14.7705 9.8073 14.7653 9.71336 14.7526 9.63262C14.9283 9.58609 15.229 9.76503 15.2207 9.63204C15.2181 9.58991 15.222 9.45369 15.2244 9.38147C15.2205 9.49435 14.8023 9.30382 14.7303 9.35299C14.6529 8.94125 14.7488 8.51762 14.6874 8.25912C14.8271 8.21699 15.0838 8.30888 15.0524 8.18822C15.0345 8.12643 15.0004 7.97274 14.9779 7.87659C14.9999 7.97729 14.7961 7.89391 14.7271 7.95145C14.6913 7.72819 14.6389 7.30456 14.64 7.11094L14.4571 7.10889C14.4541 7.46852 14.5692 7.76327 14.5388 8.23109C14.5086 8.69905 14.5134 9.28107 14.6255 9.93545C14.6656 9.92253 14.7316 9.90595 14.7697 9.89728Z" fill="#FFF101"/>
<path fill-rule="evenodd" clip-rule="evenodd" d="M14.3076 6.61004C14.0349 7.0441 13.3836 7.3437 12.7813 7.4099C12.0765 7.4874 11.6032 7.74604 11.2548 7.99926C11.2248 7.93981 11.1708 7.90781 11.123 7.86861C10.6131 7.45232 10.8227 6.88821 11.0158 6.9688C10.943 6.93768 10.9006 6.8957 10.8608 6.86414C10.7934 6.80909 10.599 7.02003 10.6234 7.355C10.6338 7.49768 10.7446 7.70817 10.8347 7.81973C10.6701 7.78671 10.5913 7.74032 10.4946 7.61159C10.549 7.5743 10.6193 7.55316 10.676 7.54832C10.6567 7.49724 10.6298 7.44058 10.6234 7.355C10.5428 7.35426 10.4446 7.38524 10.3603 7.44836C10.158 7.22626 9.9498 7.04909 9.82904 6.78692C9.63584 6.36696 9.83237 6.10186 10.0868 6.38223C9.85354 6.15235 9.70388 5.97885 9.5461 5.90854C9.38832 5.83808 9.12122 5.99456 9.234 6.36696C9.48844 7.20806 10.0883 7.34428 10.3458 8.13049C10.4674 8.50216 10.6466 8.79177 11.0264 8.49981C11.0765 8.46135 11.0898 8.45225 11.1334 8.41819C11.2539 8.34142 11.4448 8.4703 11.4244 8.75052C11.522 8.4932 11.4597 8.41438 11.3769 8.2601C11.3156 8.29606 11.3206 8.08542 11.2828 8.05768C11.4995 7.90913 11.7632 7.76014 12.0958 7.65401C12.108 7.77981 12.1394 7.91338 12.2445 7.89401C12.3008 7.88021 12.3579 7.86773 12.418 7.85672C12.3129 7.8761 12.2834 7.7299 12.2712 7.60425C12.4289 7.56432 12.6012 7.53408 12.79 7.51705C13.0076 7.49738 13.2324 7.44865 13.4436 7.37305C13.475 7.49371 13.54 7.69702 13.6483 7.65709C13.7443 7.62318 13.8376 7.58487 13.9252 7.54039C13.7746 7.61951 13.7154 7.3936 13.6792 7.27412C13.9544 7.14215 14.1888 6.96219 14.3291 6.74744L14.3076 6.61004Z" fill="#FFF101"/>
<path fill-rule="evenodd" clip-rule="evenodd" d="M15.5122 6.82545C15.645 6.71184 15.7591 6.65811 15.6445 6.41753C15.457 6.02413 15.5735 6.02278 15.163 5.77251C14.7449 5.51797 14.7978 5.49801 14.2446 5.71306C14.1085 5.7659 14.1388 5.81992 14.1627 6.03746C14.2139 6.5063 14.3114 6.88386 14.4005 7.26962C14.7482 7.21957 15.2833 7.02142 15.5122 6.82545Z" fill="#FFF101"/>
<path fill-rule="evenodd" clip-rule="evenodd" d="M14.2142 6.71876C14.1412 6.4886 14.1608 6.51986 14.4252 6.59003C14.5117 6.28662 14.6313 6.03053 14.6983 5.78495C14.7731 5.51002 14.7965 5.46055 14.9066 5.52793C15.0475 5.61395 15.2022 5.70481 15.303 5.75941C15.479 5.85453 15.4531 5.88785 15.3691 6.03905C15.285 6.19024 15.0103 6.49667 14.8408 6.81638C15.0643 6.98988 15.1361 7.00559 14.9772 7.0803C14.7995 7.16383 14.5042 7.26731 14.3798 7.29182C14.357 7.14078 14.2835 6.93704 14.2142 6.71876Z" fill="#FFF101"/>
<path fill-rule="evenodd" clip-rule="evenodd" d="M11.5894 8.88325L11.5719 9.12003L11.4135 8.96149L11.2365 9.09404L11.2482 8.85771L11.0443 8.78975L11.2185 8.65206L11.1417 8.43246L11.346 8.49823L11.454 8.29492L11.536 8.51202L11.747 8.47694L11.6436 8.68406L11.7991 8.84406L11.5894 8.88325Z" fill="#FFF101"/>
<path fill-rule="evenodd" clip-rule="evenodd" d="M16.0194 12.035C15.7186 11.7332 15.5918 11.1742 15.7014 10.6837C15.4705 10.3839 14.9129 10.2907 14.5185 10.4028C13.4492 11.2362 13.0202 12.595 12.5628 13.2163C12.4182 13.4128 12.3166 13.9613 12.6503 14.2525C12.9246 14.4918 12.9199 14.7041 13.9376 15.4465C14.4879 15.848 14.9984 16.1558 15.1751 16.3769C15.3519 16.5979 15.5307 16.836 15.4933 17.1265C15.4419 17.5262 15.5494 17.8694 15.4973 18.1448C15.4332 18.4824 15.3719 18.7121 15.3954 18.898C15.4191 19.0838 15.6754 19.2605 15.9116 18.9667C16.445 18.3032 16.2522 17.6624 16.7412 17.0235C16.9722 16.7215 17.1053 16.4168 16.691 16.1888C16.2765 15.961 15.7097 15.6268 15.2133 14.7581C14.88 14.1746 14.3581 13.6845 13.883 13.609C14.167 13.4321 14.3412 13.1748 14.7238 12.9697C15.1065 12.7647 15.5613 12.4693 16.0194 12.035Z" fill="white"/>
<path fill-rule="evenodd" clip-rule="evenodd" d="M15.6842 11.3159C15.1858 11.7793 15.0015 11.6315 14.4741 12.2836C14.1571 12.6756 13.7137 13.0794 13.4863 13.2271L13.5614 13.3064C13.7888 13.1587 14.2322 12.7549 14.5494 12.3628C15.0593 11.7324 15.2484 11.8498 15.7112 11.4389C15.702 11.409 15.6886 11.3419 15.6842 11.3159Z" fill="#FFF101"/>
<path fill-rule="evenodd" clip-rule="evenodd" d="M15.9171 11.9164C15.8462 11.9606 15.7749 12.0126 15.7178 12.065C15.5934 11.9205 15.5836 11.5439 15.4835 11.6186C15.4515 11.6418 15.3426 11.7064 15.2845 11.7401C15.3753 11.6874 15.4346 12.182 15.5093 12.2262C15.2245 12.5059 14.8438 12.6262 14.6715 12.814C14.5686 12.7016 14.5124 12.4108 14.4333 12.5011C14.3938 12.5489 14.29 12.6583 14.2257 12.7279C14.2939 12.6565 14.3303 12.8929 14.4099 12.9299C14.2525 13.0758 13.9459 13.3375 13.7931 13.4333L13.883 13.609C14.167 13.4322 14.3412 13.1748 14.7238 12.9698C15.1065 12.7647 15.5613 12.4694 16.0194 12.035C15.9892 12.0032 15.943 11.9484 15.9171 11.9164Z" fill="#FFF101"/>
<path fill-rule="evenodd" clip-rule="evenodd" d="M13.5658 14.0008C14.0431 14.0441 14.6041 14.5162 14.9572 15.0582C15.3705 15.6924 15.8104 16.0148 16.1835 16.2209C16.1518 16.2793 16.1537 16.3468 16.1469 16.4121C16.0747 17.107 15.5268 17.1889 15.4935 16.9644C15.5055 17.0495 15.4937 17.1109 15.4889 17.1647C15.4793 17.2566 15.7423 17.3366 15.9931 17.1459C16.1 17.0646 16.2099 16.8537 16.2526 16.7119C16.3088 16.8854 16.3117 16.9839 16.2591 17.1405C16.2025 17.1073 16.1509 17.0507 16.1187 16.9991C16.0882 17.043 16.0572 17.0971 15.9931 17.1459C16.0328 17.2233 16.1063 17.3015 16.198 17.3504C16.1247 17.6546 16.0896 17.942 15.944 18.1883C15.7108 18.5827 15.4042 18.5277 15.4973 18.1445C15.4332 18.4822 15.3718 18.7119 15.3954 18.8977C15.4191 19.0835 15.6754 19.2603 15.9116 18.9664C16.445 18.3029 16.2522 17.6622 16.7411 17.0232C16.9721 16.7213 17.1102 16.4054 16.6909 16.1886C16.6355 16.1601 16.6218 16.152 16.5734 16.1274C16.4527 16.0507 16.4586 15.804 16.6888 15.6833C16.438 15.7189 16.4072 15.8178 16.3274 15.974C16.3862 16.0143 16.2183 16.115 16.2153 16.1651C15.9903 16.0324 15.7416 15.8552 15.4918 15.5906C15.5846 15.5161 15.6738 15.4193 15.6059 15.3287C15.5669 15.2819 15.5286 15.2334 15.4898 15.1816C15.5577 15.2723 15.4577 15.3735 15.3649 15.448C15.2548 15.3175 15.145 15.1681 15.0371 14.9964C14.9129 14.7983 14.7621 14.6081 14.5972 14.4443C14.6763 14.3539 14.8034 14.1903 14.7179 14.1068C14.6434 14.0321 14.5666 13.9621 14.4879 13.9009C14.6253 14.0051 14.4773 14.1746 14.4017 14.2689C14.1603 14.0722 13.9017 13.9382 13.663 13.9119L13.5658 14.0008Z" fill="#FFF101"/>
<path fill-rule="evenodd" clip-rule="evenodd" d="M12.939 12.8375C12.7832 12.7674 12.8601 12.6728 12.7284 12.9025C12.5131 13.2782 12.4715 13.1917 12.4803 13.7088C12.4892 14.235 12.5819 14.1511 13.0276 14.5718C13.3701 14.2886 13.779 13.8606 14.0375 13.5826C13.8243 13.2756 13.2073 12.9583 12.939 12.8375Z" fill="#FFF101"/>
<path fill-rule="evenodd" clip-rule="evenodd" d="M13.6979 14.0359C13.5536 14.2207 13.5684 14.1865 13.4913 13.8988C13.2097 13.9678 12.9925 14.0475 12.7662 14.1063C12.5127 14.1722 12.4623 14.1746 12.46 14.0359C12.4572 13.8582 12.4513 13.6652 12.4437 13.5416C12.4306 13.3261 12.4696 13.3341 12.6304 13.3388C12.7913 13.3433 13.1254 13.3869 13.4613 13.3888C13.4858 13.0886 13.4623 13.0123 13.6005 13.1266C13.7548 13.2545 13.9838 13.4848 14.0653 13.5912C13.958 13.6884 13.8348 13.8606 13.6979 14.0359Z" fill="#FFF101"/>
<path fill-rule="evenodd" clip-rule="evenodd" d="M16.7107 15.4595L16.9055 15.3578L16.8601 15.5881L17.0529 15.691L16.8613 15.7978L16.9098 16.0265L16.7145 15.9291L16.5804 16.1123L16.5299 15.8842L16.3162 15.8827L16.4459 15.696L16.3127 15.5122L16.5272 15.5072L16.5752 15.2788L16.7107 15.4595Z" fill="#FFF101"/>
<path fill-rule="evenodd" clip-rule="evenodd" d="M16.9717 9.65441C16.8851 10.0923 16.5092 10.4929 16.0692 10.6336C15.9491 11.0038 16.1547 11.5826 16.44 11.9034C17.6291 12.5075 18.9112 12.2377 19.628 12.3637C19.8546 12.4035 20.3363 12.2261 20.3982 11.7621C20.4491 11.3806 20.6181 11.2791 20.6925 9.93609C20.7327 9.20993 20.7192 8.56861 20.8046 8.28942C20.8899 8.01022 20.9875 7.72032 21.2344 7.61081C21.5741 7.46006 21.7899 7.18571 22.0325 7.09779C22.3295 6.99004 22.5407 6.93382 22.6748 6.81845C22.809 6.70307 22.8197 6.36986 22.4708 6.29133C21.6828 6.11371 21.2759 6.61823 20.5295 6.47085C20.1768 6.40127 19.8708 6.42637 19.8991 6.93617C19.9273 7.44582 19.9482 8.15408 19.5139 9.06226C19.2221 9.67231 19.0982 10.4157 19.2763 10.907C18.9954 10.7242 18.7062 10.6866 18.3539 10.4239C18.0014 10.161 17.5419 9.87459 16.9717 9.65441Z" fill="white"/>
<path fill-rule="evenodd" clip-rule="evenodd" d="M16.5745 10.3339C17.1877 10.578 17.1638 10.8279 17.9396 11.0055C18.4062 11.1122 18.945 11.3336 19.1749 11.4768L19.1995 11.3654C18.9698 11.2222 18.4308 11.0009 17.9644 10.8941C17.2141 10.7223 17.2118 10.4831 16.6577 10.2466C16.6388 10.2705 16.5927 10.3167 16.5745 10.3339Z" fill="#FFF101"/>
<path fill-rule="evenodd" clip-rule="evenodd" d="M16.9296 9.81107C16.9999 9.85672 17.0763 9.8987 17.1459 9.92718C17.0948 10.118 16.8037 10.3159 16.9125 10.3742C16.9467 10.3931 17.0518 10.4647 17.1073 10.5032C17.0206 10.4428 17.3793 10.139 17.3768 10.0455C17.7391 10.1776 18.0238 10.481 18.2576 10.5516C18.2208 10.706 18.0203 10.9051 18.1308 10.9355C18.1882 10.9493 18.326 10.9936 18.4128 11.0202C18.3227 10.9908 18.4902 10.8379 18.4794 10.7435C18.6728 10.8207 19.0316 10.9826 19.1832 11.0805L19.2763 10.9068C18.9954 10.7241 18.7062 10.6865 18.3539 10.4238C18.0014 10.1609 17.5419 9.87448 16.9716 9.6543C16.9618 9.69892 16.9418 9.77041 16.9296 9.81107Z" fill="#FFF101"/>
<path fill-rule="evenodd" clip-rule="evenodd" d="M19.7429 11.0137C19.5382 10.5363 19.6286 9.76465 19.8779 9.1565C20.1695 8.44472 20.2028 7.86359 20.178 7.40443C20.2398 7.4056 20.2918 7.36993 20.3467 7.34381C20.9286 7.06535 21.2669 7.5474 21.107 7.6914C21.168 7.63738 21.2222 7.61815 21.2668 7.59584C21.3437 7.55885 21.2751 7.26792 20.9999 7.12377C20.8826 7.06226 20.662 7.06285 20.5291 7.09294C20.6375 6.95247 20.7133 6.9005 20.8627 6.87247C20.8649 6.94307 20.8463 7.02072 20.8218 7.07724C20.8716 7.08428 20.9295 7.08693 20.9999 7.12377C21.0408 7.04715 21.0656 6.93793 21.0581 6.82579C21.3337 6.74388 21.577 6.63364 21.8433 6.64949C22.2698 6.67489 22.3799 6.99518 22.0325 7.09779C22.3295 6.99004 22.5407 6.93382 22.6748 6.81845C22.809 6.70307 22.8197 6.36986 22.4708 6.29133C21.6828 6.11371 21.2759 6.61823 20.5295 6.47085C20.1768 6.40127 19.8596 6.4274 19.8991 6.93617C19.9042 7.00326 19.9048 7.02043 19.9097 7.079C19.9097 7.23254 19.713 7.35026 19.5032 7.19071C19.6565 7.41265 19.7495 7.39254 19.9121 7.39063C19.9145 7.31415 20.0775 7.4241 20.1182 7.40193C20.1266 7.68318 20.1117 8.00935 20.0287 8.37999C19.9238 8.32876 19.8033 8.29192 19.7659 8.40201C19.7486 8.46263 19.7298 8.5234 19.7085 8.58623C19.7458 8.47614 19.8754 8.5212 19.9801 8.57243C19.9327 8.74285 19.8703 8.92252 19.7893 9.11129C19.6959 9.32883 19.6218 9.56781 19.5756 9.80737C19.4651 9.77698 19.273 9.73735 19.2501 9.8608C19.2288 9.96927 19.2121 10.0776 19.2034 10.1834C19.2165 10.0001 19.4236 10.0565 19.5356 10.0816C19.5017 10.4104 19.5257 10.7242 19.6244 10.9655L19.7429 11.0137Z" fill="#FFF101"/>
<path fill-rule="evenodd" clip-rule="evenodd" d="M18.924 12.0114C18.9469 12.1952 18.932 12.331 19.1783 12.3417C19.5811 12.3595 19.5483 12.4142 19.9502 12.1474C20.3591 11.8756 20.37 11.9293 20.4777 11.2936C20.5042 11.1372 20.4466 11.1391 20.2637 11.0531C19.87 10.8676 19.5258 10.8802 19.1783 10.7724C19.0437 11.1295 18.8846 11.695 18.924 12.0114Z" fill="#FFF101"/>
<path fill-rule="evenodd" clip-rule="evenodd" d="M19.704 10.8701C19.9214 10.9153 19.8871 10.9184 19.6997 11.136C19.8948 11.3702 20.0441 11.5351 20.2036 11.7218C20.3822 11.9308 20.4092 11.9778 20.3014 12.0493C20.1633 12.1407 20.0147 12.2429 19.9214 12.312C19.7585 12.4324 19.7453 12.391 19.6685 12.2351C19.5917 12.0794 19.4804 11.741 19.3141 11.4196C19.066 11.5461 19.0178 11.6069 19.0385 11.4178C19.0618 11.2064 19.1283 10.8726 19.1711 10.7417C19.3011 10.7954 19.4979 10.827 19.704 10.8701Z" fill="#FFF101"/>
<path fill-rule="evenodd" clip-rule="evenodd" d="M19.3161 7.28179L19.1389 7.1466L19.3426 7.07467L19.3269 6.83922L19.5067 6.96869L19.6622 6.80811L19.6832 7.04326L19.8941 7.07966L19.7402 7.24201L19.8459 7.44664L19.6344 7.41625L19.5565 7.63526L19.4454 7.43299L19.242 7.50154L19.3161 7.28179Z" fill="#FFF101"/>
<path fill-rule="evenodd" clip-rule="evenodd" d="M15.8402 10.3138C15.5092 9.96361 15.0095 9.8097 14.6281 9.94385L14.6174 9.93681C14.5172 9.35201 14.4946 8.7872 14.5306 8.23008C14.5446 8.01457 14.5325 7.85684 14.4923 7.57556C14.4756 7.45891 14.4734 7.44259 14.4675 7.3943C14.4556 7.29743 14.4494 7.21541 14.4488 7.13452C14.1559 7.52447 13.5363 7.78585 12.8898 7.81334C12.1249 7.84566 11.6472 8.05772 11.0312 8.50701C10.6889 8.75663 10.4934 8.60807 10.3381 8.13316C10.2352 7.81913 10.1098 7.63786 9.80897 7.30418L9.78582 7.2785C9.47075 6.9289 9.33378 6.72497 9.22622 6.36942C9.12578 6.03774 9.34279 5.80735 9.54934 5.89959C9.5634 5.90585 9.57752 5.91298 9.59177 5.92099C9.65829 5.95835 9.72655 6.01357 9.81687 6.10013C9.84781 6.12978 9.93847 6.22071 10.0087 6.29112L10.0087 6.29112L10.0087 6.29112C10.0472 6.32972 10.0795 6.36216 10.0925 6.37494C10.1028 6.38508 10.1134 6.39489 10.1245 6.40448C10.1086 6.39344 10.092 6.38627 10.075 6.38268L9.99699 6.3046C9.92684 6.23424 9.83648 6.14361 9.80571 6.11413C9.71632 6.02847 9.64904 5.97403 9.58398 5.93749C9.57014 5.92972 9.55646 5.92281 9.54285 5.91675C9.34958 5.83044 9.14578 6.0468 9.24177 6.36376C9.34832 6.71599 9.48398 6.91796 9.79738 7.26572L9.82053 7.29139C10.123 7.62683 10.2496 7.80987 10.3535 8.12707C10.5057 8.59244 10.6908 8.73315 11.0217 8.49186C11.6401 8.04087 12.1205 7.82763 12.8889 7.79515C13.5421 7.76738 14.1674 7.49932 14.4503 7.10301L14.4652 7.10877C14.4645 7.19729 14.4707 7.28552 14.4837 7.39199C14.4896 7.44009 14.4919 7.45637 14.5085 7.57285C14.5489 7.8554 14.561 8.01431 14.5469 8.23154C14.5113 8.78393 14.5333 9.34387 14.6318 9.92341L14.6228 9.92651L14.6335 9.93355L14.6318 9.92341C15.0181 9.79263 15.5188 9.94877 15.8443 10.2983C16.173 10.2323 16.534 9.77483 16.6494 9.31928C16.5924 8.63558 16.3821 8.01734 16.004 7.2579C15.9457 7.14072 15.7864 6.83325 15.7091 6.68405L15.6666 6.60201C15.5461 6.3653 15.47 6.19848 15.4178 6.04789C15.3095 5.7361 14.9047 5.47254 14.5709 5.6185C14.5255 5.63836 14.4813 5.65419 14.4329 5.6684C14.4019 5.67751 14.3703 5.6857 14.3272 5.69606C13.8828 5.80289 13.6368 5.89453 12.9898 6.25025L12.9352 6.28044C12.8109 6.34956 12.5113 6.52319 12.3249 6.63125C12.2457 6.67715 12.1869 6.71122 12.1706 6.72044C11.9145 6.86534 11.7541 6.94167 11.6383 6.96737C11.2555 7.05229 11.062 7.04865 10.8835 6.89455C10.8273 6.84602 10.7673 6.80213 10.7011 6.76031C10.6841 6.74954 10.6668 6.739 10.649 6.72849L10.6543 6.72162L10.6519 6.70911C10.6717 6.72072 10.6908 6.73234 10.7096 6.74424C10.7764 6.78648 10.8372 6.83085 10.894 6.87995C11.0672 7.02956 11.2571 7.03312 11.6353 6.94923C11.749 6.92398 11.9085 6.84809 12.1633 6.70396C12.1795 6.69478 12.2381 6.66079 12.3172 6.61499L12.3172 6.61498C12.5036 6.50694 12.8035 6.33313 12.928 6.2639L12.9827 6.23368C13.6309 5.87724 13.8782 5.78512 14.3239 5.67798C14.3668 5.66767 14.3982 5.65954 14.4289 5.65052C14.4767 5.63648 14.5202 5.62088 14.565 5.60129C14.9083 5.45115 15.3222 5.72064 15.4336 6.04118C15.4855 6.19074 15.5612 6.35689 15.6814 6.59288L15.7236 6.67457L15.7237 6.67466L15.7239 6.675C15.8012 6.82423 15.9605 7.13164 16.0189 7.24892C16.3979 8.01038 16.609 8.63077 16.666 9.32075C16.5487 9.78577 16.1833 10.2488 15.8402 10.3138ZM10.6361 6.69997L10.6519 6.70911L10.6515 6.70742C10.6464 6.70467 10.6413 6.70219 10.6361 6.69997ZM10.5739 6.68606C10.5946 6.68642 10.6153 6.69102 10.6361 6.69997C10.6051 6.68211 10.5721 6.66409 10.5356 6.64491C10.5182 6.63577 10.4796 6.61595 10.4438 6.59756L10.4434 6.59401C10.4297 6.58719 10.4163 6.58142 10.4032 6.57676L10.3699 6.55961C10.2652 6.50508 10.1937 6.46178 10.136 6.41415L10.136 6.4132C10.1322 6.41006 10.1284 6.40716 10.1245 6.40448L10.136 6.41415L10.1356 6.42817L10.1299 6.43238C10.1251 6.42851 10.1205 6.42461 10.1159 6.42068L10.116 6.4206C10.1193 6.4229 10.1226 6.42539 10.1258 6.42807L10.1262 6.4131L10.116 6.4206C10.1156 6.42035 10.1153 6.42011 10.1149 6.41986C10.1032 6.40978 10.092 6.39946 10.0811 6.38877L10.075 6.38268C9.96819 6.36015 9.84619 6.47955 9.77682 6.67153L9.78917 6.68256L10.1299 6.43238C10.183 6.4755 10.2472 6.51519 10.3366 6.56274C10.2065 6.55616 10.0972 6.68377 9.95749 7.0102L9.97016 7.02132L10.4385 6.61534C10.4737 6.63344 10.5112 6.65268 10.5282 6.66162C10.5441 6.66996 10.5593 6.67808 10.5739 6.68606ZM10.6263 6.71533C10.6095 6.70568 10.5921 6.69598 10.5739 6.68606C10.4255 6.68344 10.2842 6.89959 10.1995 7.28437L10.2139 7.29248L10.649 6.72849L10.634 6.71973L10.6346 6.71888C10.6379 6.7204 10.6412 6.72204 10.6445 6.7238L10.6418 6.7096L10.6346 6.71888L10.6263 6.71533ZM10.2246 7.25049C10.3192 6.85083 10.4748 6.655 10.6263 6.71533L10.634 6.71973L10.2246 7.25049ZM10.2246 7.25049C10.2216 7.26298 10.2187 7.27568 10.2159 7.28857L10.2015 7.28046L10.2246 7.25049ZM10.4216 6.6067L10.4385 6.61534L10.4451 6.60958L10.4438 6.59756L10.4218 6.58631L10.4032 6.57676C10.3803 6.5686 10.3582 6.56383 10.3366 6.56274L10.3625 6.57635L10.3947 6.59287C10.2496 6.54379 10.1384 6.64141 9.98815 6.98246L9.96009 7.00679L9.97276 7.01792L9.98815 6.98246L10.4216 6.6067ZM10.4241 6.60456C10.4141 6.60004 10.4043 6.59613 10.3947 6.59287L10.4147 6.60317L10.4148 6.60322L10.4148 6.60323L10.4149 6.60325L10.4216 6.6067L10.4241 6.60456ZM10.4241 6.60456L10.4367 6.61062L10.435 6.59505L10.4241 6.60456ZM9.80278 6.65059L10.1159 6.42068C10.1156 6.42041 10.1152 6.42014 10.1149 6.41986C10.0148 6.35171 9.88155 6.45551 9.80278 6.65059ZM9.80278 6.65059L9.77975 6.66749L9.7921 6.67852C9.79553 6.66901 9.7991 6.6597 9.80278 6.65059Z" fill="black"/>
<path fill-rule="evenodd" clip-rule="evenodd" d="M15.3344 9.3126C15.3225 9.58385 15.3266 9.7298 15.3661 9.97297L15.3551 9.98324C15.3425 9.97835 15.3263 9.97249 15.3094 9.9664C15.2842 9.95731 15.2575 9.94771 15.2395 9.94003C15.2094 9.7268 15.207 9.59403 15.2179 9.34365L15.2201 9.29165C15.2333 8.96995 15.2101 8.75449 15.095 8.37041C14.9563 7.90689 14.85 7.27418 14.8533 6.94368L14.9638 6.92041C14.9665 7.24025 15.0724 7.87092 15.2107 8.33252C15.3264 8.71893 15.3499 8.93665 15.3366 9.26051L15.3344 9.3126ZM15.3604 9.96584L15.3495 9.9761C15.3486 9.97094 15.3478 9.96583 15.347 9.96076C15.3518 9.96252 15.3563 9.96423 15.3604 9.96584ZM15.2492 9.92953C15.2704 9.93427 15.3148 9.94884 15.347 9.96076C15.3096 9.72507 15.3059 9.57838 15.3175 9.31162L15.3198 9.25958C15.3329 8.93785 15.3097 8.72235 15.1946 8.33817C15.0559 7.87487 14.9496 7.24234 14.9576 6.9292L14.8637 6.95231C14.8664 7.27188 14.9724 7.90274 15.1106 8.36456C15.2263 8.75088 15.2498 8.96855 15.2365 9.29238L15.2343 9.34444C15.2234 9.59368 15.2259 9.72535 15.2492 9.92953Z" fill="black"/>
<path fill-rule="evenodd" clip-rule="evenodd" d="M13.3926 6.0127C13.2993 6.05679 13.3 6.21305 13.3754 6.45648C13.4357 6.65114 13.5425 6.8957 13.6709 7.1455L13.6861 7.13852L13.6856 7.13632L13.6856 7.13631L13.6856 7.13628L13.4039 6.01867L13.3926 6.0127ZM13.6517 7.06961C13.6628 7.09177 13.6741 7.114 13.6856 7.13628L13.6856 7.13632L13.6703 7.14329L13.6517 7.06961ZM13.3907 6.03408L13.6517 7.06961C13.539 6.84419 13.4459 6.62648 13.3914 6.4504C13.3214 6.22445 13.3182 6.07882 13.3907 6.03408ZM13.3907 6.03408L13.388 6.02344L13.3993 6.02941C13.3964 6.03082 13.3935 6.03238 13.3907 6.03408ZM14.7609 9.63047C14.7731 9.70845 14.7789 9.80182 14.778 9.89678L14.7714 9.90568L14.7429 9.91231L14.7429 9.91231C14.7013 9.92211 14.654 9.93321 14.6173 9.93656C14.5172 9.35177 14.4946 8.78695 14.5305 8.22984C14.5445 8.01433 14.5325 7.8566 14.4923 7.57532C14.4756 7.45867 14.4733 7.44235 14.4674 7.39406C14.4543 7.28678 14.448 7.19771 14.4572 7.09912L14.6484 7.11041C14.6474 7.27639 14.6892 7.65808 14.7332 7.93579C14.7568 7.92197 14.7901 7.91821 14.8424 7.91926L14.8637 7.91983C14.9125 7.9213 14.9313 7.92077 14.9484 7.91578C14.9674 7.91022 14.9741 7.90028 14.9703 7.88014L14.9789 7.91751C14.973 7.92484 14.9641 7.93017 14.9526 7.93353C14.9333 7.93918 14.914 7.93972 14.8632 7.93819L14.842 7.93763C14.7848 7.93648 14.7522 7.94143 14.7321 7.9582L14.7189 7.95248C14.674 7.67277 14.6307 7.2804 14.6399 7.11954L14.4654 7.1084C14.4646 7.19692 14.4708 7.28515 14.4839 7.39163C14.4897 7.43972 14.492 7.45601 14.5087 7.57249C14.549 7.85503 14.5612 8.01395 14.5471 8.23117C14.5112 8.78678 14.5337 9.35003 14.6231 9.92608C14.6569 9.91519 14.7148 9.90001 14.7614 9.88925L14.7613 9.89663L14.768 9.88773L14.7614 9.88925C14.7619 9.79787 14.7563 9.70814 14.7507 9.62314C14.7974 9.61075 14.854 9.61279 14.9266 9.62609C14.951 9.63055 14.9753 9.63585 15.0094 9.6439C15.1143 9.66857 15.1298 9.67176 15.1606 9.67241C15.1988 9.6732 15.2142 9.66172 15.2123 9.63208C15.2104 9.60045 15.2118 9.51642 15.215 9.41501C15.2261 9.40767 15.2322 9.3966 15.2327 9.38125L15.2161 9.38057L15.2161 9.38053L15.2327 9.38121C15.2289 9.49677 15.2269 9.59664 15.229 9.63081C15.2317 9.67337 15.2071 9.6917 15.1603 9.69073C15.1279 9.69005 15.1125 9.68689 15.006 9.66181C14.9721 9.65382 14.948 9.64857 14.9239 9.64417C14.8533 9.63123 14.7987 9.62927 14.7609 9.63047ZM15.216 9.38221L15.215 9.41501C15.2 9.42486 15.1759 9.42799 15.1438 9.42574C15.1032 9.4229 15.0576 9.4135 14.9703 9.392L14.9607 9.38965C14.8115 9.35283 14.7581 9.34424 14.7346 9.36023L14.7221 9.35429C14.717 9.32695 14.7125 9.29911 14.7087 9.2707C14.6874 9.11306 14.6862 8.98006 14.6955 8.72028C14.7049 8.45613 14.7034 8.36235 14.6852 8.24971C14.7218 8.23866 14.7663 8.23579 14.8282 8.23807C14.8427 8.2386 14.8557 8.23927 14.8789 8.2406C14.9565 8.24504 14.9837 8.24532 15.0101 8.23968C15.0414 8.23299 15.0518 8.219 15.0444 8.19044C15.0353 8.15873 15.0221 8.10466 15.002 8.01749L14.9996 8.00733C15.0007 8.01217 14.9884 7.95836 14.9789 7.91751C14.9875 7.90706 14.9901 7.89255 14.986 7.87388L14.9699 7.8783L14.9699 7.87815L14.986 7.87371C14.9918 7.89855 15.0173 8.00926 15.0158 8.00282L15.0181 8.01294C15.0382 8.09972 15.0513 8.15362 15.0604 8.1851C15.0709 8.22554 15.0534 8.24911 15.0133 8.25767C14.985 8.26372 14.9574 8.26343 14.8781 8.2589C14.855 8.25758 14.842 8.25691 14.8277 8.25639C14.7903 8.25501 14.7595 8.25555 14.7347 8.25599H14.7347C14.7194 8.25626 14.7064 8.25649 14.6955 8.25621C14.7202 8.36018 14.7217 8.45471 14.7122 8.72098C14.7029 8.97965 14.7042 9.11182 14.7252 9.26798C14.7284 9.29209 14.7322 9.31577 14.7363 9.33907C14.7676 9.32663 14.8232 9.33687 14.9644 9.37172L14.9739 9.37407C15.0604 9.39534 15.1055 9.40465 15.1449 9.4074C15.1912 9.41064 15.2141 9.40222 15.216 9.38221ZM15.216 9.38221L15.2161 9.38057L15.2161 9.38057L15.216 9.38221ZM14.9699 7.8783L14.9703 7.88014L14.9699 7.87831L14.9699 7.8783ZM13.4423 7.37751L13.4411 7.37801L13.4412 7.37809L13.4406 7.37836L13.4461 7.39816C13.5248 7.36581 13.6036 7.32783 13.6824 7.28458L13.6761 7.26514L13.676 7.26521L13.6759 7.26514L13.6746 7.26586L13.4423 7.37751ZM13.4423 7.37751C13.5197 7.34567 13.5971 7.30833 13.6746 7.26586L13.676 7.26521L13.6822 7.28458L13.4467 7.39781L13.4412 7.37809L13.4423 7.37751ZM12.0937 7.65173C12.0936 7.65176 12.0936 7.65179 12.0935 7.65182L12.0978 7.67208L12.2733 7.61513L12.2694 7.59473C12.2693 7.59474 12.2693 7.59476 12.2692 7.59478L12.2692 7.59473L12.2676 7.59525C12.2087 7.61228 12.1514 7.6309 12.0951 7.65121L12.0937 7.65168L12.0937 7.65173ZM12.0937 7.65173L12.0981 7.67194C12.1551 7.65129 12.2133 7.63239 12.2731 7.61513L12.2692 7.59478C12.2687 7.59494 12.2681 7.59509 12.2676 7.59525L12.0951 7.65121C12.0947 7.65138 12.0942 7.65155 12.0937 7.65173Z" fill="black"/>
<path fill-rule="evenodd" clip-rule="evenodd" d="M12.7806 7.40012C13.4177 7.33009 14.0433 7.01425 14.3009 6.60417L14.3159 6.60784L14.3359 6.75215C14.1998 6.96067 13.9706 7.14376 13.6872 7.27056C13.6865 7.26836 13.6987 7.30903 13.7025 7.32132C13.7089 7.34215 13.7148 7.36002 13.7209 7.37705C13.7719 7.51932 13.8323 7.57848 13.9218 7.53146L13.9288 7.54807C13.9288 7.5481 13.9287 7.54813 13.9287 7.54815L13.9216 7.53157C13.8988 7.54317 13.8752 7.55449 13.8511 7.56554C13.7904 7.55765 13.7442 7.49267 13.7052 7.38395C13.699 7.36662 13.693 7.34849 13.6865 7.32739C13.6827 7.31502 13.6705 7.27426 13.6757 7.26521C13.9612 7.12831 14.188 6.94712 14.3207 6.7485L14.3027 6.63288C14.3066 6.62686 14.3105 6.62083 14.3143 6.61478L14.2993 6.61111L14.3027 6.63288C14.0351 7.03917 13.4142 7.34905 12.782 7.41853C12.1709 7.48573 11.7024 7.68438 11.2474 8.00322C11.2284 7.96559 11.2057 7.94341 11.1484 7.89944L11.1482 7.89927C11.133 7.88763 11.1262 7.8823 11.1179 7.87549C10.8875 7.68734 10.782 7.45045 10.7974 7.23118C10.8081 7.07796 10.8804 6.96364 10.9638 6.95219C10.9778 6.96044 10.9923 6.96789 11.0077 6.9747C10.9182 6.94326 10.8263 7.06006 10.8142 7.23243C10.7993 7.4452 10.9021 7.67608 11.1281 7.8606C11.1362 7.86727 11.1429 7.87252 11.1579 7.88406L11.1582 7.88423C11.2175 7.92977 11.2416 7.95325 11.2503 7.99094C11.6956 7.66735 12.1666 7.46763 12.7806 7.40012ZM11.0127 6.97663L11.0186 6.95972C11.0002 6.95202 10.9817 6.94972 10.9638 6.95219C10.9487 6.94332 10.9342 6.93353 10.9196 6.92259C10.9058 6.91229 10.8693 6.88223 10.8587 6.87344C10.8569 6.872 10.8559 6.87113 10.8557 6.87101C10.7753 6.80526 10.6112 7.07192 10.6316 7.35357C10.6316 7.35364 10.6316 7.3537 10.6316 7.35377C10.6321 7.36127 10.633 7.36903 10.6341 7.37703C10.6396 7.41568 10.6519 7.45988 10.669 7.50602C10.6727 7.51607 10.6766 7.52621 10.6808 7.5364C10.7208 7.63473 10.7802 7.73815 10.8408 7.81314L10.8331 7.82827C10.6648 7.79449 10.585 7.74602 10.4901 7.6033C10.539 7.56976 10.6039 7.54695 10.6637 7.53986L10.6682 7.55136L10.6686 7.55055L10.6752 7.53868C10.6716 7.53899 10.6679 7.53936 10.6642 7.53979C10.6641 7.53981 10.6639 7.53984 10.6637 7.53986L10.6515 7.50831C10.6389 7.47552 10.6298 7.44693 10.6254 7.41942C10.6224 7.40067 10.6215 7.38242 10.6232 7.36368C10.6208 7.36366 10.6184 7.36366 10.616 7.3637C10.5348 7.36486 10.4416 7.39768 10.3543 7.45436C10.3419 7.44071 10.329 7.42677 10.3154 7.41226C10.2921 7.38729 10.2316 7.32403 10.1892 7.27972C10.1683 7.25786 10.1518 7.24062 10.1463 7.23485C9.98322 7.06226 9.89073 6.94088 9.82149 6.79058C9.72999 6.59169 9.71913 6.41053 9.78327 6.31597C9.82602 6.25294 9.89366 6.2399 9.97014 6.27748C9.9793 6.28666 9.9883 6.29569 9.99699 6.3044C10.0111 6.3186 10.0245 6.33197 10.0363 6.34385C9.93679 6.25665 9.84684 6.25308 9.79684 6.3268C9.73721 6.41472 9.74764 6.5888 9.83658 6.78212C9.90477 6.93015 9.99622 7.05017 10.1581 7.22145C10.1635 7.22718 10.1799 7.24434 10.2008 7.26611C10.2432 7.31043 10.3038 7.37386 10.3273 7.39893C10.3409 7.4135 10.3538 7.42749 10.3557 7.44012C10.4331 7.38222 10.5256 7.34852 10.615 7.35241C10.5949 7.05906 10.7689 6.7769 10.8658 6.85604C10.866 6.85619 10.8672 6.85724 10.8693 6.85894C10.8807 6.86828 10.916 6.89736 10.9292 6.90725C10.9579 6.92871 10.9861 6.94557 11.0189 6.95959L11.013 6.97673C11.0129 6.97669 11.0128 6.97666 11.0127 6.97663ZM10.0923 6.37495C10.0924 6.37505 10.0925 6.37515 10.0926 6.37525L10.0811 6.38858C10.0729 6.38043 10.0568 6.36437 10.0363 6.34385C10.0511 6.35675 10.066 6.37148 10.081 6.38807L10.0923 6.37495ZM10.0885 6.37083C10.09 6.37228 10.0913 6.37359 10.0925 6.37474L10.0923 6.37495C10.091 6.37356 10.0898 6.37219 10.0885 6.37083ZM10.0552 6.33754C10.0262 6.31098 9.9976 6.29097 9.97014 6.27748C9.90537 6.21253 9.83267 6.13977 9.80571 6.11393C9.71632 6.02827 9.64904 5.97383 9.58398 5.93729C9.57014 5.92952 9.55646 5.92262 9.54285 5.91655C9.34958 5.83024 9.14578 6.04661 9.24177 6.36357C9.34832 6.71579 9.48398 6.91776 9.79738 7.26552L9.82053 7.29119C10.123 7.62664 10.2496 7.80967 10.3535 8.12688C10.4239 8.34221 10.499 8.48326 10.5939 8.55598C10.7068 8.64251 10.8458 8.6269 11.0216 8.49179C11.0424 8.4758 11.0568 8.46485 11.0812 8.44654L11.0819 8.44598C11.0982 8.43364 11.1111 8.42379 11.1291 8.40976C11.2631 8.32436 11.4273 8.46684 11.4338 8.69829C11.4287 8.71368 11.423 8.72972 11.4166 8.74649L11.4326 8.75076C11.4339 8.73283 11.4343 8.71532 11.4338 8.69829C11.478 8.56472 11.4749 8.48022 11.434 8.38782C11.4263 8.37035 11.4172 8.35223 11.4047 8.32887C11.4045 8.32845 11.4042 8.32797 11.4039 8.32744C11.3974 8.31528 11.376 8.27554 11.3807 8.2677C11.3595 8.28013 11.3424 8.27014 11.3304 8.24391C11.3221 8.22591 11.3167 8.20437 11.308 8.16094L11.3059 8.15036C11.2948 8.09521 11.2877 8.07196 11.278 8.06482L11.2782 8.04939C11.5353 7.8732 11.7951 7.73986 12.1039 7.65254C12.1199 7.81635 12.1601 7.89976 12.2426 7.88456C12.2819 7.87492 12.3203 7.86625 12.3587 7.85839C12.3746 7.86647 12.3929 7.86913 12.4138 7.86617C12.3582 7.87648 12.3032 7.88839 12.246 7.90241C12.1491 7.92028 12.1045 7.82784 12.0982 7.66217C11.805 7.7557 11.5493 7.88633 11.2964 8.0586C11.3061 8.07251 11.3126 8.09747 11.3224 8.14625L11.3245 8.15682C11.3328 8.19863 11.3381 8.21938 11.3455 8.23547C11.3538 8.25355 11.3616 8.25811 11.3842 8.25478L11.4193 8.31937C11.432 8.34313 11.4413 8.36164 11.4492 8.37962C11.497 8.4877 11.4956 8.58639 11.4322 8.75341L11.4162 8.74914C11.4343 8.50075 11.2685 8.3421 11.1383 8.42502C11.1209 8.43865 11.108 8.44856 11.0915 8.46096L11.0908 8.46151C11.0665 8.47983 11.0521 8.49074 11.0313 8.50668C10.8503 8.64584 10.7039 8.66228 10.5846 8.57089C10.4861 8.49541 10.4096 8.35159 10.3381 8.13295C10.2352 7.81892 10.1098 7.63765 9.80897 7.30397L9.78582 7.2783C9.47075 6.92869 9.33378 6.72477 9.22622 6.36922C9.12578 6.03753 9.34279 5.80715 9.54934 5.89938C9.5634 5.90565 9.57752 5.91277 9.59177 5.92078C9.65829 5.95814 9.72655 6.01337 9.81687 6.09993C9.84781 6.12957 9.93848 6.22051 10.0087 6.29092C10.0258 6.30807 10.0417 6.324 10.0552 6.33754ZM12.4192 7.86517L12.4165 7.84718C12.3972 7.85072 12.3779 7.85445 12.3587 7.85839C12.3044 7.83079 12.2777 7.74002 12.2693 7.59481C12.4331 7.55333 12.606 7.52394 12.7892 7.50742C13.0085 7.48759 13.2325 7.43843 13.4515 7.37003C13.5026 7.5661 13.5644 7.67782 13.6456 7.64786C13.7192 7.62188 13.7875 7.59462 13.8511 7.56554C13.8725 7.56832 13.8957 7.56399 13.9211 7.55196C13.8395 7.5929 13.7499 7.63021 13.651 7.66514C13.5551 7.70051 13.4898 7.5824 13.4463 7.38113C13.2367 7.45617 13.0113 7.50561 12.7908 7.52555C12.6084 7.542 12.4362 7.57125 12.2796 7.60263C12.2962 7.77395 12.3351 7.86207 12.4167 7.84702L12.4195 7.86512C12.4194 7.86514 12.4193 7.86515 12.4192 7.86517ZM12.4192 7.86517L12.4192 7.86528C12.4174 7.86562 12.4156 7.86591 12.4138 7.86617C12.4156 7.86583 12.4174 7.8655 12.4192 7.86517ZM10.0885 6.37083C10.0774 6.35878 10.0663 6.34768 10.0552 6.33754C10.0694 6.35173 10.0809 6.36328 10.0885 6.37083ZM10.6715 7.55731C10.6125 7.56329 10.5474 7.58524 10.5012 7.60508C10.5909 7.72459 10.6643 7.77234 10.8129 7.80514C10.7596 7.7347 10.7085 7.64483 10.6715 7.55731ZM11.0127 6.97663L11.0127 6.97686C11.011 6.97615 11.0093 6.97543 11.0077 6.9747C11.0094 6.97529 11.0111 6.97594 11.0127 6.97663ZM13.9211 7.55196C13.9236 7.55069 13.9262 7.54943 13.9287 7.54815L13.9287 7.54818C13.9261 7.54952 13.9236 7.55077 13.9211 7.55196Z" fill="black"/>
<path fill-rule="evenodd" clip-rule="evenodd" d="M15.7097 10.6854C15.6 11.1765 15.729 11.7305 16.0252 12.0277L16.0251 12.0415C15.6159 12.4295 15.1838 12.7331 14.7277 12.9775C14.5937 13.0493 14.4794 13.1299 14.3546 13.235C14.3237 13.2611 14.293 13.2878 14.2534 13.323C14.257 13.3198 14.1781 13.3902 14.1563 13.4093C14.0588 13.4951 13.9861 13.5529 13.9079 13.6035C14.3607 13.6882 14.8758 14.1491 15.2206 14.7527C15.6286 15.4667 16.0345 15.8171 16.6949 16.1802C17.0621 16.3821 17.0431 16.643 16.7478 17.0289C16.5512 17.2859 16.473 17.4936 16.3589 17.9572C16.2346 18.4623 16.1481 18.6863 15.9181 18.9723C15.7078 19.234 15.4185 19.1421 15.3875 18.8988C15.3764 18.8117 15.3828 18.7133 15.4056 18.5762C15.4158 18.5147 15.4575 18.3041 15.4781 18.2L15.4894 18.1425C15.4922 18.1279 15.4945 18.1138 15.4965 18.0996C15.4961 18.1193 15.4987 18.1378 15.5041 18.155L15.4944 18.2043L15.4944 18.2043C15.4737 18.3086 15.4322 18.5183 15.4221 18.5794C15.3996 18.7147 15.3933 18.8114 15.4041 18.8961C15.4331 19.1238 15.7048 19.2101 15.9058 18.96C16.1336 18.6767 16.2193 18.4549 16.343 17.9523C16.4576 17.4862 16.5366 17.2766 16.7352 17.017C17.0246 16.6388 17.0426 16.3917 16.6877 16.1965C16.0247 15.8321 15.6165 15.4797 15.2066 14.7624C14.8583 14.1525 14.3351 13.6895 13.8822 13.6175L13.8793 13.6005C13.9647 13.5473 14.0407 13.4876 14.146 13.3949C14.1678 13.3758 14.2467 13.3054 14.2431 13.3086C14.2828 13.2733 14.3136 13.2465 14.3447 13.2204C14.4703 13.1145 14.5855 13.0333 14.7206 12.9609C15.1728 12.7186 15.6014 12.4179 16.0072 12.0342L16.0142 12.0412L16.0143 12.0275L16.0072 12.0342C15.7112 11.7306 15.5835 11.1745 15.6955 10.689C15.4792 10.4083 14.9392 10.2922 14.5237 10.4098C14.124 10.7213 13.7912 11.1203 13.4754 11.6296C13.3885 11.7699 13.2126 12.0912 13.0414 12.4039L13.0414 12.4039C12.8636 12.7288 12.6908 13.0445 12.628 13.1383C12.6083 13.1678 12.5889 13.1955 12.5697 13.2216C12.3788 13.4808 12.3742 13.9989 12.6559 14.2448C12.669 14.2563 12.6818 14.2679 12.6942 14.2797C12.7323 14.3159 12.7669 14.3533 12.8076 14.4013C12.8144 14.4094 12.8332 14.4322 12.8552 14.4589L12.8555 14.4592L12.8555 14.4593L12.8556 14.4593C12.8876 14.4981 12.9262 14.5448 12.9438 14.5655C13.0049 14.6373 13.0658 14.7035 13.1387 14.7758C13.3268 14.9625 13.5815 15.1748 13.9426 15.4383C14.1263 15.5724 14.7042 15.9731 14.7013 15.9711C14.9568 16.152 15.1015 16.2699 15.1817 16.3702C15.4397 16.6927 15.5338 16.8798 15.5019 17.1272C15.4888 17.2298 15.4849 17.3207 15.4887 17.4348L15.4805 17.4331L15.4721 17.4414C15.4679 17.3236 15.4717 17.2303 15.4853 17.1248C15.5163 16.8846 15.4239 16.701 15.1691 16.3825C15.0903 16.2838 14.9463 16.1666 14.6922 15.9866C14.6952 15.9888 14.1172 15.5879 13.9333 15.4537C13.5715 15.1898 13.3162 14.9769 13.1274 14.7896C13.0541 14.7169 12.9929 14.6503 12.9315 14.5782C12.9138 14.5574 12.8751 14.5104 12.843 14.4716L12.8429 14.4715L12.8429 14.4715C12.8209 14.4448 12.802 14.422 12.7952 14.414C12.7549 14.3664 12.7208 14.3294 12.6832 14.2937C12.6709 14.282 12.6584 14.2706 12.6454 14.2593C12.3557 14.0064 12.3604 13.4766 12.5566 13.2101C12.5756 13.1843 12.5949 13.1568 12.6145 13.1275C12.6768 13.0344 12.8488 12.7202 13.0261 12.3961C13.1976 12.0828 13.3741 11.7603 13.4615 11.6194C13.7783 11.1084 14.1125 10.7078 14.5167 10.3935C14.9406 10.273 15.4871 10.3904 15.7097 10.6854ZM15.473 17.464L15.4721 17.4414L15.4707 17.4428C15.4712 17.4501 15.4719 17.4571 15.473 17.464ZM15.4931 17.5283C15.4833 17.509 15.4765 17.4875 15.473 17.464C15.4757 17.5274 15.4806 17.5982 15.4874 17.6816L15.4886 17.6955L15.4858 17.6978C15.4873 17.7148 15.4896 17.731 15.4926 17.7463C15.5055 17.9136 15.5082 18.0004 15.4989 18.0812L15.4977 18.0819C15.497 18.0879 15.4966 18.0938 15.4965 18.0996L15.4989 18.0812L15.5096 18.0747L15.5161 18.0783C15.5154 18.0847 15.5146 18.0911 15.5138 18.0974L15.5131 18.0971C15.5133 18.0928 15.5136 18.0884 15.5141 18.084L15.5021 18.0911L15.5131 18.0971C15.5131 18.099 15.513 18.1009 15.513 18.1028C15.511 18.1171 15.5086 18.1314 15.5058 18.1461L15.5041 18.155C15.5396 18.2685 15.6946 18.3255 15.8801 18.2955L15.8826 18.2782L15.5161 18.0783C15.5236 18.0098 15.5227 17.9365 15.5145 17.8151C15.5743 17.9428 15.7293 17.9834 16.0557 17.9535L16.0581 17.9359L15.5051 17.6919L15.5041 17.6798C15.4996 17.6241 15.4959 17.5742 15.4931 17.5283ZM15.4898 17.4639C15.4907 17.4845 15.4918 17.5059 15.4931 17.5283C15.5658 17.6706 15.806 17.6971 16.1499 17.5858L16.149 17.568L15.4887 17.4348L15.4894 17.4535L15.4883 17.4533C15.4878 17.4494 15.4875 17.4454 15.4872 17.4414L15.4774 17.4511L15.4883 17.4533L15.4898 17.4639ZM16.1108 17.5789C15.7504 17.6881 15.5189 17.6379 15.4898 17.4639L15.4894 17.4535L16.1108 17.5789ZM16.1108 17.5789C16.1221 17.5755 16.1336 17.5719 16.1451 17.5682L16.1459 17.586L16.1108 17.5789ZM15.5068 17.7121L15.5051 17.6919L15.4972 17.6884L15.4886 17.6955L15.4926 17.7463C15.4976 17.7715 15.5048 17.7945 15.5145 17.8151C15.513 17.7929 15.5112 17.7691 15.5092 17.7434C15.5427 17.9075 15.6748 17.9652 16.0189 17.9381L16.052 17.9527L16.0544 17.9351L16.0189 17.9381L15.5068 17.7121ZM15.504 17.7109C15.5054 17.7222 15.5071 17.733 15.5092 17.7434L15.5068 17.7121L15.504 17.7109ZM15.504 17.7109L15.5025 17.6958L15.4911 17.7052L15.504 17.7109ZM15.8503 18.281L15.5138 18.0974C15.5135 18.0992 15.5133 18.101 15.513 18.1028C15.5129 18.2299 15.66 18.3033 15.8503 18.281ZM15.8503 18.281L15.8751 18.2945L15.8776 18.2772C15.8684 18.2787 15.8593 18.28 15.8503 18.281Z" fill="black"/>
<path fill-rule="evenodd" clip-rule="evenodd" d="M15.1562 11.6808C15.4005 11.542 15.502 11.4736 15.6789 11.3091L15.6924 11.3144C15.6949 11.3288 15.6985 11.3475 15.7023 11.3671C15.7077 11.3954 15.7135 11.4255 15.7165 11.4462C15.5586 11.5865 15.4666 11.647 15.2389 11.7764L15.192 11.8033C14.9531 11.9416 14.7916 12.0774 14.5556 12.3691C14.2609 12.7334 13.8171 13.1512 13.5557 13.3132L13.4821 13.2194C13.732 13.0571 14.1745 12.6406 14.468 12.2776C14.7054 11.9841 14.8685 11.8469 15.1093 11.7076L15.1562 11.6808ZM15.6761 11.3179L15.6897 11.3232C15.686 11.3266 15.6824 11.3299 15.6789 11.3332C15.6779 11.3277 15.6769 11.3226 15.6761 11.3179ZM15.6789 11.3332C15.5074 11.4916 15.4042 11.5606 15.1639 11.6972L15.1171 11.7239C14.878 11.8623 14.7165 11.9981 14.4805 12.2899C14.1859 12.6542 13.7421 13.072 13.4922 13.2208L13.5573 13.2987C13.8071 13.1365 14.2497 12.72 14.5433 12.357C14.7806 12.0636 14.9437 11.9264 15.1843 11.7871L15.2313 11.7602C15.4581 11.6313 15.5493 11.5713 15.7035 11.4421C15.6965 11.4196 15.6856 11.3695 15.6789 11.3332Z" fill="black"/>
<path fill-rule="evenodd" clip-rule="evenodd" d="M15.7127 12.0578C15.7679 12.0072 15.8384 11.955 15.9133 11.9084L15.9236 11.9102L15.9432 11.9343C15.9715 11.9688 16.004 12.0085 16.0251 12.0419C15.6159 12.4299 15.1838 12.7335 14.7277 12.9779C14.5937 13.0498 14.4795 13.1303 14.3546 13.2355C14.3237 13.2615 14.293 13.2882 14.2534 13.3234C14.257 13.3202 14.1781 13.3906 14.1563 13.4098C14.0503 13.503 13.9737 13.5632 13.876 13.6135L13.7893 13.4253C13.9204 13.343 14.1999 13.1118 14.3953 12.9316C14.3717 12.9154 14.3519 12.8843 14.3244 12.8289L14.309 12.7976C14.3032 12.786 14.2986 12.7771 14.2941 12.7691C14.2691 12.724 14.2525 12.7133 14.2324 12.7338L14.2584 12.7057C14.2749 12.7101 14.291 12.7288 14.3082 12.7596C14.3128 12.7679 14.3176 12.7771 14.3235 12.789L14.3389 12.8203C14.3689 12.8807 14.3891 12.9103 14.4132 12.9215L14.4154 12.937C14.2189 13.1191 13.9317 13.3571 13.8005 13.4289L13.879 13.6011C13.9645 13.5479 14.0405 13.4883 14.1458 13.3956C14.1675 13.3765 14.2464 13.3061 14.2429 13.3093C14.2826 13.274 14.3133 13.2472 14.3444 13.2211C14.47 13.1152 14.5852 13.034 14.7203 12.9616C15.1752 12.7179 15.6061 12.415 16.0137 12.0418C15.9881 12.0147 15.9467 11.9665 15.9155 11.9282L15.9213 11.9245L15.911 11.9226L15.9155 11.9282C15.8436 11.9733 15.7759 12.0235 15.7119 12.0714C15.6738 12.0272 15.645 11.9629 15.6149 11.8673C15.6109 11.8544 15.6017 11.8234 15.5928 11.7935L15.5928 11.7935L15.5927 11.7932L15.5927 11.7932C15.5843 11.7647 15.5762 11.7373 15.5731 11.7275C15.5581 11.6802 15.5457 11.6508 15.5325 11.6337C15.5188 11.6159 15.5056 11.6133 15.4882 11.6264C15.464 11.6439 15.3923 11.6875 15.3162 11.7322C15.3049 11.7252 15.2932 11.7249 15.2809 11.732L15.2809 11.7319C15.3661 11.6824 15.4527 11.63 15.479 11.6109C15.5037 11.5925 15.5263 11.597 15.5453 11.6216C15.5602 11.6409 15.5733 11.672 15.5889 11.7213C15.5921 11.7313 15.6004 11.7593 15.6089 11.7881C15.6177 11.8178 15.6268 11.8484 15.6308 11.8611C15.6601 11.9544 15.6881 12.0168 15.7127 12.0578ZM15.2904 11.7472L15.3162 11.7322C15.3316 11.7416 15.3463 11.7634 15.3607 11.7957C15.3788 11.8363 15.394 11.8842 15.4213 11.9801C15.4399 12.0454 15.4402 12.0467 15.447 12.0693C15.4739 12.159 15.4945 12.207 15.5133 12.2182L15.5149 12.2331C15.433 12.3136 15.3395 12.3851 15.2253 12.4582C15.1781 12.4885 15.0616 12.5571 14.9754 12.6079L14.9754 12.6079L14.9753 12.608L14.9753 12.608L14.9752 12.608L14.9752 12.608L14.9751 12.6081C14.9276 12.6361 14.8893 12.6586 14.8771 12.6663C14.7863 12.7227 14.7236 12.7704 14.6658 12.8206C14.6365 12.7887 14.6109 12.7445 14.5778 12.6746L14.5682 12.6539C14.5579 12.6319 14.5428 12.5995 14.5374 12.5882C14.5228 12.5581 14.5111 12.537 14.5 12.5215C14.4769 12.4894 14.4595 12.4846 14.4396 12.5074C14.4186 12.5327 14.3816 12.5734 14.3194 12.6403L14.3173 12.6425C14.3253 12.634 14.2872 12.6749 14.2584 12.7057C14.246 12.7025 14.2335 12.7073 14.2202 12.7213L14.2202 12.7212C14.237 12.703 14.3174 12.6167 14.3057 12.6293L14.3079 12.627C14.3699 12.5604 14.4068 12.5198 14.4276 12.4946C14.4559 12.4623 14.4846 12.4701 14.5132 12.51C14.525 12.5265 14.5371 12.5484 14.5522 12.5794C14.5577 12.5908 14.5729 12.6235 14.5832 12.6455L14.5832 12.6455L14.5832 12.6455L14.5927 12.6659C14.6173 12.7179 14.6376 12.7552 14.653 12.7834L14.6659 12.8074C14.7133 12.7558 14.7771 12.7073 14.869 12.6501C14.8815 12.6423 14.9202 12.6195 14.9682 12.5912L14.9682 12.5912L14.9682 12.5912L14.9683 12.5912L14.9683 12.5912L14.9683 12.5912L14.9683 12.5912C15.0544 12.5404 15.1702 12.4722 15.2171 12.4422C15.3268 12.3719 15.4171 12.3033 15.4963 12.2268C15.4755 12.2062 15.4563 12.1582 15.4313 12.0749C15.4245 12.0521 15.4241 12.0508 15.4056 11.9854C15.3786 11.8904 15.3635 11.8431 15.3459 11.8037C15.3253 11.7575 15.3071 11.7394 15.2904 11.7472ZM15.2904 11.7472L15.2887 11.7482L15.2809 11.732L15.2808 11.7321L15.2885 11.7483L15.2904 11.7472ZM14.2202 12.7213L14.2317 12.7344L14.2324 12.7338L14.2317 12.7345L14.2201 12.7213L14.2202 12.7213ZM13.5546 15.173C13.6359 15.24 13.7584 15.1612 13.9119 14.9675C14.0347 14.8127 14.1735 14.5884 14.3054 14.3411L14.2923 14.33L13.5537 15.1592L13.5546 15.173ZM13.5726 15.1644L13.5656 15.1723L13.5647 15.1585C13.5673 15.1607 13.5699 15.1627 13.5726 15.1644ZM13.8994 14.9557C13.7569 15.1354 13.6441 15.2113 13.5726 15.1644L14.2556 14.3976C14.1351 14.6179 14.0105 14.8156 13.8994 14.9557ZM14.2556 14.3976C14.2675 14.376 14.2793 14.3541 14.2911 14.332L14.3042 14.3431L14.2556 14.3976ZM14.5901 14.4497L14.592 14.4515L14.5921 14.4514L14.5923 14.4516L14.6031 14.4377C14.5415 14.3765 14.476 14.3178 14.407 14.2617L14.3968 14.2762L14.3972 14.2766L14.3972 14.2767L14.3995 14.2786L14.5901 14.4497ZM14.5901 14.4497C14.5302 14.3903 14.4665 14.3333 14.3995 14.2786L14.3972 14.2766L14.4073 14.2622L14.6028 14.4376L14.5921 14.4514L14.5901 14.4497ZM15.3591 15.4556C15.4069 15.5112 15.4531 15.5623 15.4986 15.6099L15.4987 15.6098L15.4988 15.61L15.5117 15.5959C15.5106 15.5947 15.5095 15.5936 15.5084 15.5924L15.3757 15.4457C15.3746 15.4444 15.3736 15.4432 15.3725 15.442L15.3724 15.4421L15.3723 15.4419L15.3591 15.4556ZM15.3724 15.4421L15.3593 15.4557L15.4987 15.6098L15.5115 15.5958L15.5084 15.5924C15.4651 15.547 15.4211 15.4984 15.3757 15.4457L15.3724 15.4421Z" fill="black"/>
<path fill-rule="evenodd" clip-rule="evenodd" d="M13.571 14.0081L13.5664 13.9919C13.5731 13.9925 13.5798 13.9932 13.5865 13.994L13.571 14.0081ZM14.5435 13.9576C14.5573 13.9929 14.5549 14.0334 14.5381 14.078C14.5228 14.1187 14.497 14.1608 14.4598 14.2098C14.4459 14.228 14.4323 14.2451 14.3967 14.2765C14.146 14.0722 13.8904 13.9464 13.6682 13.9192L13.5865 13.994C14.0394 14.0463 14.5933 14.4842 14.9639 15.053C15.3221 15.6029 15.7123 15.9506 16.1906 16.2258C16.1704 16.2629 16.1644 16.2958 16.1585 16.3728L16.1584 16.3748C16.157 16.393 16.1562 16.4026 16.1551 16.4134C16.1225 16.7275 15.9891 16.9466 15.8091 17.0416C15.6835 17.1079 15.5577 17.096 15.5069 17.0224C15.5063 17.0034 15.5047 16.9845 15.5017 16.9636L15.5018 16.9635C15.5175 17.0695 15.6579 17.1016 15.8021 17.0254C15.9767 16.9333 16.1067 16.7197 16.1387 16.4118C16.1398 16.4011 16.1406 16.3917 16.1419 16.3737L16.1421 16.3717C16.1482 16.292 16.1546 16.2571 16.1798 16.2297C15.7027 15.9662 15.3104 15.6166 14.9505 15.0642C14.577 14.4909 14.0161 14.0516 13.5652 14.0106L13.5605 13.9944L13.6639 13.9034C13.8955 13.9289 14.1538 14.0561 14.3955 14.2635C14.42 14.2333 14.4335 14.2165 14.4472 14.1984C14.4834 14.1507 14.5084 14.11 14.5229 14.0715C14.5481 14.0042 14.5379 13.9506 14.4832 13.9091L14.4833 13.9089C14.5033 13.9244 14.5233 13.9406 14.5435 13.9576ZM15.5211 15.2373C15.5266 15.303 15.4687 15.3737 15.3587 15.4545C15.2445 15.3192 15.135 15.1687 15.0302 15.0018C14.9051 14.8025 14.7545 14.6132 14.5911 14.4382C14.7197 14.2911 14.7764 14.1765 14.7123 14.1138C14.6546 14.0561 14.5986 14.0041 14.5435 13.9576C14.5355 13.9374 14.5222 13.9189 14.5031 13.9022C14.5749 13.9588 14.6479 14.0248 14.7235 14.1006C14.7992 14.1746 14.7393 14.2958 14.6028 14.4381C14.7667 14.6009 14.9182 14.7913 15.044 14.9918C15.1483 15.158 15.2574 15.3078 15.3601 15.4413C15.4866 15.3396 15.5362 15.2586 15.4834 15.1881L15.4835 15.188C15.496 15.2047 15.5085 15.2211 15.5211 15.2373ZM16.6435 15.7003C16.4984 15.7278 16.4374 15.7799 16.3749 15.8992C16.3741 15.9007 16.3732 15.9025 16.3721 15.9046C16.3615 15.925 16.3372 15.9719 16.3318 15.9664C16.351 15.9797 16.3527 15.9999 16.34 16.023C16.3311 16.0393 16.3167 16.0561 16.2907 16.0825L16.2831 16.0902C16.2384 16.1352 16.2243 16.1522 16.2235 16.1659L16.2113 16.1734C15.9444 16.016 15.7099 15.8347 15.4868 15.5834C15.6075 15.4866 15.653 15.4063 15.5997 15.3351C15.5729 15.303 15.5469 15.2706 15.5211 15.2373C15.5195 15.2183 15.5126 15.1998 15.5001 15.1815C15.5368 15.2304 15.5737 15.2771 15.6124 15.3235C15.675 15.4071 15.6246 15.4961 15.4976 15.5846C15.7177 15.8178 15.9481 15.9967 16.2097 16.152C16.2156 16.1356 16.2323 16.1171 16.272 16.0771L16.2796 16.0694C16.3044 16.0442 16.3181 16.0282 16.3259 16.014C16.3343 15.9986 16.3336 15.9896 16.3202 15.9701C16.3211 15.9685 16.3238 15.9632 16.3274 15.9559C16.3374 15.936 16.3546 15.9019 16.3606 15.8905C16.432 15.7543 16.5034 15.701 16.6878 15.6749L16.6924 15.6923C16.4883 15.7993 16.4466 16.0369 16.5769 16.1197C16.5958 16.1293 16.6094 16.1364 16.6281 16.1463L16.6288 16.1466C16.6666 16.1665 16.6705 16.1686 16.6945 16.1809C16.8944 16.2843 16.9804 16.4158 16.9682 16.5754C16.9582 16.7072 16.8835 16.8521 16.7475 17.0298C16.5509 17.2868 16.4727 17.4944 16.3587 17.9581C16.2344 18.4632 16.1478 18.6871 15.9179 18.9732C15.7075 19.2349 15.4182 19.143 15.3872 18.8997C15.3762 18.8126 15.3826 18.7142 15.4053 18.5771C15.4154 18.5164 15.4561 18.3105 15.477 18.2051C15.4717 18.2427 15.4706 18.2772 15.4735 18.3079C15.453 18.4119 15.429 18.5354 15.4216 18.5799C15.3991 18.7153 15.3928 18.812 15.4036 18.8967C15.4326 19.1244 15.7043 19.2107 15.9053 18.9606C16.1331 18.6772 16.2188 18.4555 16.3425 17.9529C16.4571 17.4868 16.5361 17.2771 16.7347 17.0175C16.8686 16.8425 16.9418 16.7004 16.9515 16.5734C16.9631 16.4224 16.8813 16.2975 16.6873 16.1971C16.6633 16.1848 16.6593 16.1827 16.6214 16.1627L16.6208 16.1624C16.6022 16.1526 16.5886 16.1455 16.5691 16.1356C16.4349 16.0503 16.4648 15.8222 16.6435 15.7003ZM15.4947 18.2007C15.4944 18.2021 15.4941 18.2034 15.4939 18.2048C15.4883 18.2331 15.4811 18.2691 15.4735 18.3079C15.4822 18.3999 15.5262 18.458 15.5972 18.4673C15.7036 18.4813 15.8404 18.3803 15.9509 18.1935C16.043 18.0377 16.0881 17.8909 16.1545 17.5839C16.1875 17.4311 16.1909 17.4155 16.206 17.353C16.1179 17.2981 16.0457 17.2259 16.0042 17.1492C16.0029 17.1467 16.0016 17.1442 16.0003 17.1417C16.0116 17.1393 16.023 17.1318 16.0341 17.1219C16.0407 17.116 16.0473 17.1092 16.0536 17.1021C16.0675 17.0867 16.0799 17.0707 16.0934 17.0515C16.0952 17.049 16.0978 17.0452 16.1008 17.0408C16.1054 17.034 16.111 17.0259 16.1156 17.019C16.1166 17.0176 16.1175 17.0162 16.1184 17.0149C16.1184 17.015 16.1184 17.015 16.1185 17.015C16.1542 17.0687 16.2044 17.1191 16.2551 17.1488C16.3196 16.9868 16.3178 16.8864 16.2604 16.709L16.2446 16.7092C16.1963 16.8695 16.0838 17.066 15.9883 17.1386C15.7773 17.299 15.4856 17.2757 15.4971 17.166C15.4979 17.1563 15.4989 17.1474 15.5011 17.1278C15.5057 17.086 15.5078 17.0541 15.5069 17.0224C15.4965 17.0074 15.4893 16.9897 15.4858 16.9697C15.4857 16.9686 15.4855 16.9675 15.4854 16.9664L15.5017 16.9636C15.5017 16.9634 15.5017 16.9633 15.5017 16.9632L15.4852 16.9661C15.4854 16.9673 15.4856 16.9685 15.4858 16.9697C15.4929 17.022 15.4918 17.0618 15.4847 17.126C15.4825 17.1456 15.4815 17.1547 15.4806 17.1645C15.4669 17.2965 15.7756 17.3216 15.9959 17.1557C16.0375 17.243 16.1102 17.3145 16.1945 17.3593C16.1749 17.4114 16.1715 17.4271 16.1384 17.5801C16.0725 17.8851 16.0279 18.0304 15.9371 18.1839C15.8297 18.3655 15.6982 18.4625 15.5993 18.4495C15.5141 18.4384 15.4719 18.3461 15.4947 18.2007ZM15.4947 18.2007C15.4991 18.1783 15.5025 18.1612 15.5043 18.1522C15.5003 18.1689 15.4971 18.1851 15.4947 18.2007ZM15.5043 18.1522C15.5046 18.1503 15.5049 18.1487 15.5052 18.1475L15.5054 18.1476C15.505 18.1491 15.5046 18.1507 15.5043 18.1522ZM16.1286 16.9994C16.1788 16.9203 16.2239 16.8266 16.2526 16.7404C16.301 16.8986 16.3002 16.9925 16.2514 17.138C16.2127 17.1039 16.163 17.0528 16.1286 16.9994ZM16.125 17.005L16.1117 17.0046C16.1139 17.008 16.1161 17.0115 16.1184 17.0149C16.1216 17.0102 16.1242 17.0064 16.1252 17.005L16.125 17.005ZM16.6435 15.7003C16.6581 15.6975 16.6735 15.695 16.6898 15.6927L16.6851 15.6753C16.6705 15.683 16.6566 15.6913 16.6435 15.7003ZM15.5052 18.1475L15.4892 18.1433C15.488 18.1492 15.4838 18.1705 15.4778 18.2008C15.4776 18.2022 15.4773 18.2037 15.477 18.2051C15.4798 18.1851 15.4839 18.1641 15.4891 18.1424L15.5053 18.1467C15.5053 18.1469 15.5052 18.1472 15.5052 18.1475ZM15.5001 15.1815C15.4988 15.1798 15.4975 15.1781 15.4963 15.1764L15.4835 15.188C15.4835 15.1879 15.4834 15.1878 15.4833 15.1877L15.4961 15.176C15.4975 15.1778 15.4988 15.1797 15.5001 15.1815ZM14.5031 13.9022C14.4996 13.8994 14.4962 13.8967 14.4927 13.894L14.4833 13.9089C14.4832 13.9088 14.4831 13.9087 14.483 13.9086L14.4925 13.8936C14.4962 13.8964 14.4997 13.8992 14.5031 13.9022Z" fill="black"/>
<path fill-rule="evenodd" clip-rule="evenodd" d="M16.7131 15.4481L16.5817 15.2729L16.5672 15.2767L16.5192 15.5051L16.3126 15.503L16.3063 15.5179L16.4395 15.7017L16.3097 15.8771L16.3162 15.8919L16.5299 15.8933L16.5724 16.1144L16.5869 16.118L16.721 15.9348L16.9064 16.0349L16.918 16.0244L16.8695 15.7957L17.0568 15.6992L17.0566 15.6827L16.8638 15.5798L16.9137 15.3597L16.902 15.3495L16.7131 15.4481ZM16.8939 15.374L16.7144 15.4678L16.7044 15.4653L16.5792 15.2984L16.5834 15.2809L16.5688 15.2846L16.5792 15.2984L16.5275 15.5164L16.3292 15.521L16.3193 15.5065L16.313 15.5213L16.3292 15.521L16.4526 15.7015L16.3327 15.8741L16.3163 15.8735L16.3229 15.8882L16.3327 15.8741L16.5381 15.882L16.5847 16.0927L16.574 16.1065L16.5885 16.1101L16.5847 16.0927L16.718 15.9207L16.8985 16.0108L16.9018 16.0286L16.9133 16.0182L16.8985 16.0108L16.8576 15.7896L17.0348 15.6909L17.0494 15.6992L17.0492 15.6828L17.0348 15.6909L16.8521 15.5861L16.8939 15.374ZM16.8939 15.374L16.9092 15.366L16.8975 15.3558L16.8939 15.374Z" fill="black"/>
<path fill-rule="evenodd" clip-rule="evenodd" d="M16.067 10.6246C16.5076 10.4836 16.8784 10.0834 16.9636 9.65223L16.9745 9.64552C17.4842 9.84231 17.9392 10.1031 18.3587 10.416C18.5327 10.5459 18.6366 10.598 18.9419 10.7279C19.0874 10.7898 19.1731 10.831 19.2602 10.8857C19.1003 10.411 19.2049 9.68879 19.5066 9.05776C19.8636 8.31134 19.9359 7.74894 19.8909 6.9365C19.8659 6.48485 20.0801 6.37263 20.5311 6.46159C20.8253 6.51968 21.0352 6.49094 21.4319 6.37545L21.4626 6.36647C21.9124 6.23523 22.1351 6.20603 22.4726 6.28211C22.7833 6.35206 22.8557 6.67441 22.68 6.82545C22.6135 6.88274 22.5277 6.92743 22.3952 6.97809C22.3536 6.99404 22.2249 7.03934 22.1319 7.0721L22.1317 7.07214C22.0862 7.08817 22.0492 7.10118 22.0352 7.10627L22.0216 7.11141C22.0351 7.1023 22.0467 7.09164 22.0563 7.07965L22.1262 7.05502L22.1264 7.05496L22.1268 7.05482L22.1269 7.05478L22.1272 7.05467L22.1272 7.05467C22.2202 7.02193 22.3484 6.97678 22.3899 6.96092C22.5207 6.91087 22.6051 6.86693 22.6699 6.81115C22.8343 6.66982 22.7663 6.3671 22.4694 6.30026C22.135 6.22488 21.9144 6.25381 21.467 6.38438L21.4362 6.39335C21.0374 6.50948 20.8254 6.53849 20.5282 6.47982C20.0864 6.39265 19.8834 6.49895 19.9076 6.93555C19.9527 7.75105 19.88 8.31661 19.5214 9.06648C19.2165 9.70411 19.1144 10.4351 19.2842 10.9035L19.2723 10.9148C19.1787 10.8539 19.0921 10.8115 18.936 10.7452C18.6295 10.6148 18.5248 10.5623 18.3494 10.4314C17.9335 10.1212 17.4826 9.86226 16.9779 9.66643L16.98 9.65631L16.9691 9.66301L16.9779 9.66643C16.8876 10.1006 16.5145 10.5007 16.0772 10.6367C15.9647 10.9834 16.1435 11.5567 16.4437 11.895C16.6059 11.9774 16.7744 12.0458 16.9499 12.1017C17.4906 12.2738 17.9333 12.3113 18.8132 12.3136C19.2649 12.3148 19.4411 12.3215 19.6295 12.3546C19.9286 12.4071 20.3379 12.1524 20.3902 11.7608C20.3989 11.6957 20.4112 11.6361 20.4292 11.5679C20.4403 11.5257 20.4893 11.3576 20.4846 11.3741C20.5095 11.2869 20.529 11.2107 20.5479 11.1227C20.6097 10.8364 20.6549 10.4666 20.6844 9.93548C20.6957 9.73075 20.6988 9.64965 20.7135 9.21257C20.732 8.66513 20.7491 8.44273 20.7969 8.28643C20.9216 7.8786 21.0213 7.69549 21.2315 7.60224C21.3157 7.56488 21.3937 7.52001 21.4794 7.4612L21.482 7.46939L21.4929 7.47331C21.4046 7.53427 21.3244 7.58059 21.2376 7.6191C21.0336 7.70961 20.9358 7.88923 20.8126 8.29212C20.7656 8.44596 20.7485 8.668 20.7301 9.21308C20.7153 9.65033 20.7123 9.73149 20.7009 9.93643C20.6714 10.4685 20.6261 10.8393 20.5641 11.1268C20.545 11.2152 20.5254 11.2919 20.5004 11.3794C20.505 11.3632 20.4562 11.5309 20.4451 11.5728C20.4273 11.6403 20.4151 11.6991 20.4066 11.7633C20.3528 12.1661 19.9343 12.4265 19.6268 12.3725C19.4396 12.3396 19.2638 12.3329 18.8131 12.3318C17.9317 12.3295 17.4878 12.2919 16.9452 12.1192C16.7689 12.063 16.5996 11.9943 16.4342 11.9096C16.1275 11.5648 15.9465 10.9845 16.067 10.6246ZM21.509 7.46211L21.4929 7.47331L21.4945 7.4739C21.4996 7.47012 21.5044 7.46619 21.509 7.46211ZM21.5497 7.41111C21.5394 7.43004 21.5258 7.4471 21.509 7.46211C21.5369 7.44247 21.5658 7.42136 21.596 7.39856C21.6127 7.3859 21.6497 7.35739 21.6843 7.33065L21.6876 7.33222C21.7005 7.32201 21.7123 7.31154 21.723 7.30072L21.7571 7.27439C21.8175 7.22847 21.864 7.19572 21.909 7.1684C21.9354 7.15236 21.9608 7.13858 21.9856 7.12695L21.9888 7.12885C22.0008 7.12392 22.0117 7.11807 22.0216 7.11141C22.0097 7.11608 21.9977 7.12126 21.9856 7.12695L21.9756 7.121L21.975 7.11221C21.9811 7.1093 21.9871 7.10652 21.9932 7.10386L21.9933 7.10609C21.9893 7.10811 21.9852 7.11 21.981 7.11175L21.9942 7.1196L21.9933 7.10609C21.9985 7.10344 22.0035 7.10057 22.0082 7.09748C22.0155 7.09447 22.0228 7.09165 22.0301 7.08901L22.0563 7.07965C22.1307 6.98723 22.092 6.81525 21.9621 6.65674L21.9451 6.66301L21.975 7.11221C21.951 7.12366 21.9264 7.13706 21.901 7.15249C21.8599 7.17743 21.8178 7.20673 21.7654 7.24612C21.8357 7.12515 21.7902 6.95681 21.6036 6.66016L21.5885 6.66669L21.6733 7.31693C21.6392 7.34332 21.6031 7.37116 21.5866 7.38359C21.5741 7.39305 21.5618 7.40222 21.5497 7.41111ZM21.5002 7.4467C21.5164 7.43535 21.5329 7.4235 21.5497 7.41111C21.6266 7.27076 21.5276 7.02749 21.2673 6.75391L21.2537 6.76363L21.4794 7.4612L21.4938 7.45119L21.4941 7.45209C21.4913 7.45448 21.4884 7.4568 21.4853 7.45906L21.4978 7.46358L21.4941 7.45209L21.5002 7.4467ZM21.2815 6.79488C21.5487 7.08557 21.6245 7.33247 21.5002 7.4467L21.4938 7.45119L21.2815 6.79488ZM21.2815 6.79488C21.2731 6.7858 21.2646 6.77669 21.2559 6.76754L21.2695 6.75781L21.2815 6.79488ZM21.6886 7.30512L21.6733 7.31693L21.6745 7.32607L21.6843 7.33065L21.703 7.31618L21.723 7.30072C21.74 7.28351 21.7542 7.26542 21.7654 7.24612L21.7478 7.25946L21.7113 7.28758C21.8241 7.1735 21.8036 7.01846 21.61 6.70303L21.605 6.66406L21.5899 6.6706L21.61 6.70303L21.6886 7.30512ZM21.689 7.3082C21.6969 7.30146 21.7044 7.2946 21.7113 7.28758L21.6933 7.30144L21.6886 7.30512L21.689 7.3082ZM21.689 7.3082L21.6779 7.31729L21.691 7.32344L21.689 7.3082ZM21.9658 6.69204L21.9932 7.10386C21.9982 7.10165 22.0032 7.09952 22.0082 7.09748C22.1116 7.02946 22.0908 6.85776 21.9658 6.69204ZM21.9658 6.69204L21.9637 6.66162L21.9468 6.66789C21.9533 6.67592 21.9597 6.68397 21.9658 6.69204Z" fill="black"/>
<path fill-rule="evenodd" clip-rule="evenodd" d="M16.6969 10.396C16.6572 10.3776 16.6157 10.3598 16.5719 10.3423L16.5693 10.3267C16.58 10.3166 16.5935 10.3032 16.6075 10.2894C16.6266 10.2704 16.6465 10.2507 16.6609 10.2378C16.6827 10.2471 16.7039 10.2565 16.7246 10.266C16.8857 10.3404 16.9561 10.3852 17.1693 10.536C17.4249 10.7167 17.6016 10.8014 17.9663 10.8849C18.4001 10.9842 18.9502 11.199 19.2078 11.3673L19.171 11.4846C18.9185 11.3271 18.3701 11.113 17.9382 11.0142C17.5713 10.9302 17.3928 10.8447 17.1355 10.6627C16.9243 10.5134 16.8551 10.4694 16.6969 10.396ZM16.58 10.3407L16.5774 10.3251C16.5819 10.3269 16.5863 10.3287 16.5907 10.3305C16.5869 10.3341 16.5833 10.3376 16.58 10.3407ZM16.6641 10.2524C16.6498 10.2704 16.6163 10.3056 16.5907 10.3305C16.6299 10.3463 16.6673 10.3625 16.7032 10.3791C16.8626 10.453 16.9324 10.4975 17.1443 10.6474C17.4 10.8282 17.5767 10.9128 17.9414 10.9963C18.3749 11.0955 18.9249 11.3102 19.1669 11.4745L19.1955 11.3732C18.9435 11.216 18.3949 11.0019 17.9628 10.9029C17.596 10.8189 17.4174 10.7334 17.1602 10.5515C16.9478 10.4013 16.8779 10.3569 16.718 10.283C16.7169 10.2825 16.7157 10.282 16.7146 10.2815C16.6952 10.2725 16.6757 10.2636 16.6641 10.2524Z" fill="black"/>
<path fill-rule="evenodd" clip-rule="evenodd" d="M20.046 8.38252C20.046 8.38238 20.0461 8.38224 20.0461 8.3821L20.0277 8.37744L19.9721 8.56988L19.9903 8.57503C19.9903 8.575 19.9904 8.57498 19.9904 8.57495L19.9907 8.57503L19.994 8.56358C20.0127 8.50401 20.0291 8.44734 20.0434 8.39245L20.0463 8.38259L20.046 8.38252ZM20.046 8.38252L20.0279 8.37793C20.0121 8.43919 19.9938 8.50264 19.9724 8.56988L19.9904 8.57495C19.9916 8.57115 19.9928 8.56736 19.994 8.56358L20.0434 8.39245C20.0443 8.38914 20.0451 8.38582 20.046 8.38252ZM17.1431 9.93565C17.0757 9.90809 16.9994 9.86688 16.9254 9.81884L16.9217 9.80805L16.9309 9.77699C16.9439 9.73275 16.9588 9.68208 16.9745 9.64551C17.4841 9.84229 17.9391 10.1031 18.3586 10.416C18.5326 10.5458 18.6365 10.598 18.9419 10.7279C19.0987 10.7946 19.186 10.8373 19.2835 10.9114L19.1791 11.0883C19.0488 11.0041 18.7269 10.8527 18.4883 10.7566C18.4873 10.7826 18.4764 10.8123 18.4563 10.851C18.4517 10.8599 18.4469 10.8688 18.4402 10.8809C18.4088 10.9373 18.4027 10.9493 18.3972 10.969C18.3907 10.9925 18.3953 11.0047 18.4153 11.0112L18.4152 11.0116L18.3799 11.0007C18.3769 10.9905 18.3775 10.9782 18.3814 10.964C18.3875 10.9421 18.3936 10.93 18.4261 10.8717C18.4327 10.8597 18.4375 10.851 18.442 10.8423C18.4642 10.7995 18.4741 10.7691 18.4713 10.7449L18.4824 10.7351C18.723 10.8312 19.0541 10.9866 19.1762 11.0761L19.2722 10.915C19.1786 10.8541 19.092 10.8118 18.936 10.7454C18.6295 10.615 18.5248 10.5625 18.3493 10.4316C17.931 10.1196 17.4773 9.85946 16.9799 9.65674C16.9715 9.69452 16.9544 9.75796 16.9397 9.80717L16.9339 9.80343L16.9376 9.81423L16.9397 9.80717C17.0111 9.85309 17.0845 9.8927 17.1541 9.93005C17.1516 9.93941 17.1485 9.9489 17.1448 9.95854C17.1238 10.0138 17.0875 10.0687 17.0273 10.1435L16.9983 10.179L16.9636 10.2216C16.9413 10.2496 16.9261 10.2703 16.9153 10.2884C16.8906 10.3295 16.8905 10.3523 16.9164 10.3662C16.9422 10.3805 17.0109 10.4262 17.0854 10.4774C17.0856 10.49 17.09 10.5002 17.099 10.5081C17.0168 10.4512 16.9365 10.3975 16.909 10.3823C16.8717 10.3623 16.8719 10.327 16.9013 10.2779C16.9127 10.2589 16.9282 10.2376 16.951 10.2091L16.986 10.1662L17.0148 10.1309C17.0738 10.0575 17.1092 10.0039 17.1294 9.95104L17.1299 9.94964C17.1331 9.94112 17.1361 9.93327 17.1431 9.93565ZM17.1117 10.4955L17.0854 10.4774C17.0852 10.4586 17.0943 10.4347 17.1113 10.406C17.1333 10.3692 17.1638 10.3297 17.2219 10.2599L17.2293 10.251C17.3368 10.1222 17.3695 10.0768 17.3687 10.046L17.3796 10.0371C17.5139 10.086 17.6394 10.1568 17.8023 10.2675L17.8081 10.2716C17.8408 10.2942 18.001 10.4052 18.0466 10.4347C18.1324 10.49 18.1992 10.5247 18.2658 10.5542C18.2585 10.5848 18.2449 10.6183 18.2248 10.6573C18.2145 10.6771 18.2032 10.6974 18.1877 10.7238L18.187 10.7252C18.1368 10.8112 18.1267 10.8284 18.1194 10.8467C18.1176 10.8513 18.1159 10.8559 18.1138 10.8617L18.1138 10.8617L18.1136 10.8625C18.1 10.9003 18.105 10.9192 18.1328 10.9268C18.1633 10.9341 18.2141 10.9492 18.2988 10.9755L18.3053 10.9775L18.363 10.9955L18.3799 11.0007C18.3833 11.0124 18.3915 11.0214 18.4049 11.0271L18.3584 11.0127L18.3007 10.9947L18.2942 10.9927C18.2098 10.9665 18.1592 10.9515 18.1289 10.9442C18.0895 10.9334 18.0812 10.9023 18.098 10.8553L18.0984 10.8541C18.1006 10.8479 18.1024 10.843 18.1044 10.8381C18.1119 10.8193 18.1222 10.8017 18.1725 10.7155L18.1737 10.7135C18.1889 10.6873 18.2001 10.6673 18.2102 10.6478C18.2172 10.6343 18.2233 10.6215 18.2289 10.6098L18.2289 10.6098L18.2289 10.6098L18.2289 10.6098L18.2289 10.6098C18.239 10.5889 18.2473 10.5716 18.2555 10.5603C18.193 10.5415 18.125 10.5062 18.0381 10.4501C17.992 10.4204 17.8303 10.3083 17.7988 10.2864L17.7988 10.2864L17.7988 10.2864L17.7934 10.2827C17.6357 10.1755 17.5135 10.1061 17.3844 10.0578C17.3787 10.0939 17.3432 10.141 17.2415 10.263L17.2341 10.2719C17.1766 10.3409 17.1464 10.38 17.1252 10.4157C17.0998 10.4584 17.0958 10.4841 17.1118 10.4953L17.1117 10.4955ZM17.1117 10.4955L17.103 10.5108L17.099 10.5081L17.103 10.5112L17.1119 10.4957L17.1117 10.4955ZM18.4049 11.0271L18.4107 11.0289L18.4152 11.0116L18.4152 11.0116L18.4106 11.0292L18.4049 11.0271ZM20.6694 10.4383C20.6815 10.3272 20.5584 10.2498 20.3294 10.2001C20.1464 10.1603 19.9009 10.14 19.6405 10.1377L19.6384 10.1558L20.6591 10.4461L20.6694 10.4383ZM20.6535 10.4258L20.6632 10.4286L20.6529 10.4364C20.6532 10.4328 20.6534 10.4293 20.6535 10.4258ZM19.7097 10.1573C19.9431 10.1623 20.1606 10.1823 20.3262 10.2183C20.5386 10.2645 20.6546 10.3342 20.6535 10.4258L19.7097 10.1573ZM19.7097 10.1573C19.6867 10.1568 19.6636 10.1565 19.6403 10.1563L19.6425 10.1382L19.7097 10.1573ZM19.5461 10.0824C19.5571 9.98869 19.5723 9.89749 19.5918 9.80903L19.5731 9.80567L19.5733 9.80518L19.592 9.80854L19.5461 10.0827L19.5272 10.0803L19.5273 10.0799L19.5461 10.0824ZM19.5274 10.0789L19.5273 10.0799L19.5272 10.0799L19.5274 10.0789ZM19.5274 10.0789L19.573 9.80642L19.5731 9.80567L19.5731 9.80566L19.573 9.80642C19.5535 9.89467 19.5384 9.9856 19.5274 10.0789Z" fill="black"/>
<path fill-rule="evenodd" clip-rule="evenodd" d="M19.8854 9.16005C19.6218 9.80336 19.557 10.5585 19.7504 11.0095L19.74 11.0221L19.6168 10.9691C19.521 10.7349 19.4918 10.4248 19.5339 10.0903L19.4918 10.0808C19.4572 10.0732 19.43 10.0682 19.4036 10.0652C19.2881 10.052 19.222 10.0821 19.2122 10.177C19.2144 10.152 19.217 10.1266 19.2201 10.1007C19.2531 10.0518 19.3168 10.037 19.4053 10.0471C19.4323 10.0502 19.46 10.0552 19.4951 10.063C19.5047 10.0651 19.5347 10.072 19.5438 10.0825C19.5087 10.424 19.5376 10.7309 19.6272 10.9569L19.7269 10.9974C19.7297 11.0042 19.7325 11.0109 19.7353 11.0175L19.7457 11.005L19.7269 10.9974C19.5415 10.5388 19.6087 9.79099 19.8703 9.15267C20.1231 8.53558 20.2012 7.98905 20.1781 7.3952C20.2166 7.39593 20.2462 7.38516 20.3067 7.35386L20.3095 7.35237C20.3261 7.34378 20.3338 7.33986 20.3434 7.33533C20.6064 7.20947 20.8451 7.22729 21.0097 7.35155C21.124 7.43791 21.1777 7.5632 21.1461 7.64845C21.1319 7.65812 21.1193 7.66867 21.1018 7.68417L21.1017 7.68407C21.1772 7.61611 21.1322 7.46613 21.0003 7.36652C20.8406 7.24594 20.6079 7.22858 20.35 7.352C20.3407 7.35644 20.333 7.3603 20.3166 7.36881L20.3137 7.37031C20.2511 7.40275 20.2197 7.41417 20.1863 7.40366C20.2179 7.99061 20.1394 8.54009 19.8854 9.16005ZM21.1156 7.6953C21.1295 7.68184 21.1396 7.666 21.1461 7.64845C21.1687 7.63312 21.1954 7.61999 21.2523 7.59277L21.2634 7.58737C21.3553 7.5432 21.2279 7.25326 20.9963 7.13199C20.8916 7.07706 20.681 7.06785 20.5308 7.10187L20.5228 7.08694C20.6336 6.9433 20.7114 6.89147 20.8709 6.87208C20.873 6.93548 20.8585 7.00877 20.8341 7.06957L20.8228 7.06808L20.823 7.06844L20.8293 7.08113C20.8309 7.07736 20.8325 7.07354 20.834 7.06966C20.8341 7.06963 20.8341 7.0696 20.8341 7.06957L20.8401 7.07036C20.8862 7.0762 20.9171 7.08144 20.9433 7.09138C20.9608 7.098 20.9762 7.1067 20.9927 7.11906C20.994 7.11665 20.9953 7.11421 20.9965 7.11175C21.0361 7.03362 21.0568 6.92853 21.0559 6.81687C21.0999 6.8038 21.143 6.79012 21.2045 6.76995C21.4003 6.70573 21.4339 6.69524 21.5172 6.67501C21.636 6.64617 21.7404 6.63412 21.8437 6.64027C22.0457 6.6523 22.1935 6.73249 22.2357 6.84101C22.2639 6.91331 22.2404 6.98437 22.1727 7.03857C22.1569 7.04413 22.1415 7.04955 22.127 7.05467C22.1102 7.06057 22.0946 7.06608 22.0808 7.07093C22.2038 7.01983 22.254 6.93421 22.2204 6.84808C22.1811 6.74717 22.0391 6.67012 21.8428 6.65843C21.7412 6.65238 21.6382 6.66426 21.5208 6.69276C21.438 6.71285 21.4046 6.72331 21.2092 6.78737C21.1476 6.80759 21.1044 6.8213 21.0664 6.82489C21.0732 6.92776 21.0534 7.03293 21.0057 7.1164C21.2461 7.24378 21.3807 7.55084 21.2702 7.60397L21.259 7.60944C21.17 7.65195 21.1565 7.65927 21.1156 7.6953ZM20.8165 7.06778C20.8413 7.00834 20.8566 6.93531 20.864 6.88128C20.7253 6.90731 20.6512 6.95343 20.551 7.07882C20.6332 7.06317 20.7293 7.05933 20.8165 7.06778ZM22.0808 7.07093C22.0593 7.0785 22.0424 7.0845 22.0327 7.08798C22.0498 7.08285 22.0659 7.07714 22.0808 7.07093ZM22.0304 7.08884L22.0303 7.0887C22.0311 7.08846 22.0319 7.08822 22.0327 7.08798C22.0319 7.08828 22.0311 7.08857 22.0304 7.08884ZM22.0904 7.08666C22.1225 7.0729 22.1501 7.05668 22.1727 7.03857C22.2579 7.00854 22.3547 6.9743 22.3896 6.96092C22.5205 6.91087 22.6048 6.86693 22.6697 6.81115C22.8341 6.66982 22.766 6.3671 22.4691 6.30026C22.1347 6.22488 21.9142 6.25381 21.4667 6.38438L21.436 6.39335C21.0372 6.50948 20.8252 6.53849 20.528 6.47982C20.3236 6.43949 20.1753 6.44065 20.0708 6.49487C19.9463 6.55941 19.8891 6.69989 19.9073 6.93533C19.9081 6.94504 19.9086 6.95128 19.909 6.95752C19.9099 6.9688 19.9107 6.98007 19.9129 7.01177L19.9131 7.01558C19.9147 7.03764 19.916 7.05473 19.918 7.07894C19.918 7.24963 19.7241 7.3351 19.5392 7.22565C19.5296 7.21307 19.5198 7.19957 19.5098 7.18509L19.4985 7.1982C19.5119 7.20844 19.5255 7.21758 19.5392 7.22565C19.5938 7.29724 19.6426 7.339 19.6936 7.3607C19.7415 7.38106 19.7778 7.38407 19.8788 7.38198C19.8951 7.38164 19.9024 7.38151 19.9038 7.39025C19.9046 7.36411 19.9207 7.35269 19.9469 7.35406C19.9649 7.355 19.9849 7.36058 20.0222 7.37355L20.0271 7.37526C20.0827 7.39465 20.1035 7.39963 20.1145 7.39365L20.1265 7.40157C20.1364 7.73456 20.1112 8.04954 20.0254 8.38832C19.8887 8.32158 19.8032 8.31828 19.7738 8.4047C19.7618 8.44681 19.7494 8.48783 19.7363 8.52856C19.7209 8.54065 19.709 8.55859 19.7008 8.58281L19.7007 8.58279C19.7212 8.52221 19.74 8.46183 19.7581 8.39856C19.7926 8.29703 19.8873 8.3007 20.0206 8.37756C20.0938 8.05069 20.1192 7.74091 20.1102 7.41392C20.0943 7.41642 20.0714 7.40979 20.0221 7.39258L20.0172 7.39088C19.9814 7.37842 19.9622 7.37306 19.9461 7.37222C19.9282 7.37128 19.9208 7.37647 19.9122 7.39958L19.8791 7.40015C19.776 7.40229 19.7382 7.39917 19.6876 7.37765C19.6244 7.35076 19.5652 7.29538 19.4966 7.19603L19.5079 7.18292C19.6939 7.32438 19.9014 7.24548 19.9014 7.07962C19.8994 7.05616 19.8981 7.03898 19.8966 7.01684L19.8963 7.01302C19.8941 6.98134 19.8933 6.97009 19.8924 6.95884C19.892 6.95262 19.8915 6.9464 19.8907 6.93673C19.872 6.69424 19.9322 6.54626 20.0637 6.4781C20.1722 6.42182 20.3234 6.42064 20.531 6.46159C20.8251 6.51968 21.0351 6.49094 21.4317 6.37545L21.4625 6.36647C21.9123 6.23523 22.1349 6.20603 22.4725 6.28211C22.7832 6.35206 22.8556 6.67441 22.6799 6.82545C22.6133 6.88274 22.5276 6.92743 22.3951 6.97809C22.3534 6.99404 22.2247 7.03934 22.1317 7.0721C22.1169 7.07733 22.1029 7.08224 22.0904 7.08666ZM19.7176 8.58554C19.724 8.56656 19.7302 8.54759 19.7363 8.52856C19.7851 8.49049 19.8696 8.51045 19.9881 8.57506C19.9389 8.75182 19.8755 8.93174 19.7968 9.11516C19.7028 9.33408 19.6294 9.5725 19.5736 9.81621C19.3941 9.76685 19.2754 9.77002 19.2582 9.86268C19.2417 9.94647 19.229 10.0255 19.2201 10.1007C19.2063 10.1212 19.1978 10.1475 19.1952 10.1805C19.2036 10.0804 19.2193 9.97397 19.2419 9.85873C19.2622 9.74936 19.3877 9.74602 19.5675 9.80523C19.6134 9.56712 19.6872 9.32734 19.7818 9.10714C19.8601 8.92452 19.9232 8.74542 19.9767 8.58059C19.8357 8.51164 19.7478 8.50395 19.7176 8.58554ZM19.7176 8.58554C19.7172 8.58682 19.7167 8.5881 19.7163 8.58938L19.7007 8.58296C19.7007 8.58291 19.7007 8.58286 19.7008 8.58281L19.7163 8.58921C19.7167 8.58797 19.7171 8.58674 19.7176 8.58554ZM22.0904 7.08666C22.0731 7.09404 22.0545 7.10071 22.0346 7.10659L22.0299 7.08901C22.03 7.08895 22.0302 7.0889 22.0304 7.08884L22.0351 7.10627C22.0445 7.10284 22.0644 7.0958 22.0904 7.08666ZM21.1156 7.6953C21.1145 7.69637 21.1134 7.69741 21.1122 7.69845L21.1017 7.68419C21.1018 7.68418 21.1018 7.68418 21.1018 7.68417L21.1122 7.69833C21.1133 7.6973 21.1145 7.69629 21.1156 7.6953ZM19.1951 10.1824L19.2116 10.1839C19.2118 10.1816 19.212 10.1793 19.2122 10.177C19.212 10.1794 19.2118 10.1818 19.2116 10.1842L19.195 10.1827C19.195 10.1826 19.1951 10.1825 19.1951 10.1824ZM19.1951 10.1824L19.195 10.1824C19.1951 10.1818 19.1951 10.1812 19.1952 10.1805C19.1951 10.1812 19.1951 10.1818 19.1951 10.1824Z" fill="black"/>
</g>
</svg>
