<svg width="32" height="24" viewBox="0 0 32 24" fill="none" xmlns="http://www.w3.org/2000/svg">
<rect x="0.25" y="0.25" width="31.5" height="23.5" rx="1.75" fill="white" stroke="#F5F5F5" stroke-width="0.5"/>
<mask id="mask0_67_2457" style="mask-type:luminance" maskUnits="userSpaceOnUse" x="0" y="0" width="32" height="24">
<rect x="0.25" y="0.25" width="31.5" height="23.5" rx="1.75" fill="white" stroke="white" stroke-width="0.5"/>
</mask>
<g mask="url(#mask0_67_2457)">
<path fill-rule="evenodd" clip-rule="evenodd" d="M0 8.00001H32V0H0V8.00001Z" fill="#DF1E35"/>
<path fill-rule="evenodd" clip-rule="evenodd" d="M0 24H32V16H0V24Z" fill="#262626"/>
<path fill-rule="evenodd" clip-rule="evenodd" d="M21.3333 10.1516C21.3333 9.90089 21.5997 9.73992 21.8216 9.85644L22.6788 10.3064C22.7884 10.364 22.8571 10.4777 22.8571 10.6016V14.0668C22.8571 14.2509 22.7079 14.4001 22.5238 14.4001H21.6667C21.4826 14.4001 21.3333 14.2509 21.3333 14.0668V10.1516Z" fill="#0F7A40"/>
<path fill-rule="evenodd" clip-rule="evenodd" d="M12.1905 10.1516C12.1905 9.90089 12.4568 9.73992 12.6788 9.85644L13.5359 10.3064C13.6456 10.364 13.7143 10.4777 13.7143 10.6016V14.0668C13.7143 14.2509 13.565 14.4001 13.381 14.4001H12.5238C12.3397 14.4001 12.1905 14.2509 12.1905 14.0668V10.1516Z" fill="#0F7A40"/>
<path fill-rule="evenodd" clip-rule="evenodd" d="M18.2857 10.6016C18.2857 10.4777 18.3544 10.364 18.4641 10.3064L19.3212 9.85644C19.5432 9.73992 19.8095 9.90089 19.8095 10.1516V14.0668C19.8095 14.2509 19.6603 14.4001 19.4762 14.4001H18.619C18.435 14.4001 18.2857 14.2509 18.2857 14.0668V10.6016Z" fill="#0F7A40"/>
<path fill-rule="evenodd" clip-rule="evenodd" d="M15.2381 12.2015C15.2381 12.0776 15.3068 11.9639 15.4165 11.9064L16.2736 11.4564C16.4956 11.3398 16.7619 11.5008 16.7619 11.7515V12.8717H19.0476V14.4H16.7619H15.5714C15.3873 14.4 15.2381 14.2508 15.2381 14.0667V12.2015Z" fill="#0F7A40"/>
<path fill-rule="evenodd" clip-rule="evenodd" d="M9.14286 12.2015C9.14286 12.0776 9.21156 11.9639 9.32125 11.9064L10.1784 11.4564C10.4003 11.3398 10.6667 11.5008 10.6667 11.7515V12.8717H12.9524V14.4H10.6667H9.47619C9.2921 14.4 9.14286 14.2508 9.14286 14.0667V12.2015Z" fill="#0F7A40"/>
</g>
</svg>
