<svg width="32" height="24" viewBox="0 0 32 24" fill="none" xmlns="http://www.w3.org/2000/svg">
<rect x="0.25" y="0.25" width="31.5" height="23.5" rx="1.75" fill="white" stroke="#F5F5F5" stroke-width="0.5"/>
<mask id="mask0_67_2424" style="mask-type:luminance" maskUnits="userSpaceOnUse" x="0" y="0" width="32" height="24">
<rect x="0.25" y="0.25" width="31.5" height="23.5" rx="1.75" fill="white" stroke="white" stroke-width="0.5"/>
</mask>
<g mask="url(#mask0_67_2424)">
<path fill-rule="evenodd" clip-rule="evenodd" d="M0 8.00001H32V0H0V8.00001Z" fill="#38BB56"/>
<path fill-rule="evenodd" clip-rule="evenodd" d="M0 24H32V16H0V24Z" fill="#DE1B27"/>
<path fill-rule="evenodd" clip-rule="evenodd" d="M1.85726 6.3999C1.67316 6.3999 1.52393 6.54914 1.52393 6.73324V7.66657C1.52393 7.85066 1.67316 7.9999 1.85726 7.9999H2.7144C2.8985 7.9999 3.04774 7.85066 3.04774 7.66657V6.73324C3.04774 6.54914 2.8985 6.3999 2.7144 6.3999H1.85726ZM4.90488 6.3999C4.72078 6.3999 4.57155 6.54914 4.57155 6.73324V7.66657C4.57155 7.85066 4.72078 7.9999 4.90488 7.9999H5.76202C5.94612 7.9999 6.09535 7.85066 6.09535 7.66657V6.73324C6.09535 6.54914 5.94612 6.3999 5.76202 6.3999H4.90488ZM7.61916 6.73324C7.61916 6.54914 7.7684 6.3999 7.9525 6.3999H8.80964C8.99373 6.3999 9.14297 6.54914 9.14297 6.73324V7.66657C9.14297 7.85066 8.99373 7.9999 8.80964 7.9999H7.9525C7.7684 7.9999 7.61916 7.85066 7.61916 7.66657V6.73324ZM11.0001 6.3999C10.816 6.3999 10.6668 6.54914 10.6668 6.73324V7.66657C10.6668 7.85066 10.816 7.9999 11.0001 7.9999H11.8573C12.0414 7.9999 12.1906 7.85066 12.1906 7.66657V6.73324C12.1906 6.54914 12.0414 6.3999 11.8573 6.3999H11.0001ZM13.7144 6.73324C13.7144 6.54914 13.8636 6.3999 14.0477 6.3999H14.9049C15.089 6.3999 15.2382 6.54914 15.2382 6.73324V7.66657C15.2382 7.85066 15.089 7.9999 14.9049 7.9999H14.0477C13.8636 7.9999 13.7144 7.85066 13.7144 7.66657V6.73324ZM17.0954 6.3999C16.9113 6.3999 16.762 6.54914 16.762 6.73324V7.66657C16.762 7.85066 16.9113 7.9999 17.0954 7.9999H17.9525C18.1366 7.9999 18.2858 7.85066 18.2858 7.66657V6.73324C18.2858 6.54914 18.1366 6.3999 17.9525 6.3999H17.0954ZM19.8096 6.73324C19.8096 6.54914 19.9589 6.3999 20.143 6.3999H21.0001C21.1842 6.3999 21.3334 6.54914 21.3334 6.73324V7.66657C21.3334 7.85066 21.1842 7.9999 21.0001 7.9999H20.143C19.9589 7.9999 19.8096 7.85066 19.8096 7.66657V6.73324ZM23.1906 6.3999C23.0065 6.3999 22.8573 6.54914 22.8573 6.73324V7.66657C22.8573 7.85066 23.0065 7.9999 23.1906 7.9999H24.0477C24.2318 7.9999 24.3811 7.85066 24.3811 7.66657V6.73324C24.3811 6.54914 24.2318 6.3999 24.0477 6.3999H23.1906ZM25.9049 6.73324C25.9049 6.54914 26.0541 6.3999 26.2382 6.3999H27.0954C27.2794 6.3999 27.4287 6.54914 27.4287 6.73324V7.66657C27.4287 7.85066 27.2794 7.9999 27.0954 7.9999H26.2382C26.0541 7.9999 25.9049 7.85066 25.9049 7.66657V6.73324ZM29.2857 6.3999C29.1016 6.3999 28.9524 6.54914 28.9524 6.73324V7.66657C28.9524 7.85066 29.1016 7.9999 29.2857 7.9999H30.1429C30.327 7.9999 30.4762 7.85066 30.4762 7.66657V6.73324C30.4762 6.54914 30.327 6.3999 30.1429 6.3999H29.2857ZM1.52393 16.3333C1.52393 16.1492 1.67316 16 1.85726 16H2.7144C2.8985 16 3.04774 16.1492 3.04774 16.3333V17.2667C3.04774 17.4508 2.8985 17.6 2.7144 17.6H1.85726C1.67316 17.6 1.52393 17.4508 1.52393 17.2667V16.3333ZM4.90487 16C4.72077 16 4.57153 16.1492 4.57153 16.3333V17.2667C4.57153 17.4508 4.72077 17.6 4.90487 17.6H5.76201C5.9461 17.6 6.09534 17.4508 6.09534 17.2667V16.3333C6.09534 16.1492 5.9461 16 5.76201 16H4.90487ZM7.61907 16.3333C7.61907 16.1492 7.76831 16 7.9524 16H8.80955C8.99364 16 9.14288 16.1492 9.14288 16.3333V17.2667C9.14288 17.4508 8.99364 17.6 8.80955 17.6H7.9524C7.76831 17.6 7.61907 17.4508 7.61907 17.2667V16.3333ZM11.0001 16C10.816 16 10.6668 16.1492 10.6668 16.3333V17.2667C10.6668 17.4508 10.816 17.6 11.0001 17.6H11.8573C12.0414 17.6 12.1906 17.4508 12.1906 17.2667V16.3333C12.1906 16.1492 12.0414 16 11.8573 16H11.0001ZM13.7146 16.3333C13.7146 16.1492 13.8638 16 14.0479 16H14.9051C15.0892 16 15.2384 16.1492 15.2384 16.3333V17.2667C15.2384 17.4508 15.0892 17.6 14.9051 17.6H14.0479C13.8638 17.6 13.7146 17.4508 13.7146 17.2667V16.3333ZM17.0953 16C16.9112 16 16.7619 16.1492 16.7619 16.3333V17.2667C16.7619 17.4508 16.9112 17.6 17.0953 17.6H17.9524C18.1365 17.6 18.2857 17.4508 18.2857 17.2667V16.3333C18.2857 16.1492 18.1365 16 17.9524 16H17.0953ZM19.8096 16.3333C19.8096 16.1492 19.9589 16 20.143 16H21.0001C21.1842 16 21.3334 16.1492 21.3334 16.3333V17.2667C21.3334 17.4508 21.1842 17.6 21.0001 17.6H20.143C19.9589 17.6 19.8096 17.4508 19.8096 17.2667V16.3333ZM23.1907 16C23.0066 16 22.8574 16.1492 22.8574 16.3333V17.2667C22.8574 17.4508 23.0066 17.6 23.1907 17.6H24.0478C24.2319 17.6 24.3812 17.4508 24.3812 17.2667V16.3333C24.3812 16.1492 24.2319 16 24.0478 16H23.1907ZM25.9048 16.3333C25.9048 16.1492 26.054 16 26.2381 16H27.0953C27.2794 16 27.4286 16.1492 27.4286 16.3333V17.2667C27.4286 17.4508 27.2794 17.6 27.0953 17.6H26.2381C26.054 17.6 25.9048 17.4508 25.9048 17.2667V16.3333ZM29.2857 16C29.1016 16 28.9524 16.1492 28.9524 16.3333V17.2667C28.9524 17.4508 29.1016 17.6 29.2857 17.6H30.1429C30.327 17.6 30.4762 17.4508 30.4762 17.2667V16.3333C30.4762 16.1492 30.327 16 30.1429 16H29.2857Z" fill="white" fill-opacity="0.5"/>
<mask id="path-6-inside-1_67_2424" fill="white">
<path fill-rule="evenodd" clip-rule="evenodd" d="M14.4611 10.2256C14.0023 10.6645 13.7143 11.2971 13.7143 12.0002C13.7143 13.3257 14.7376 14.4002 16 14.4002C17.2624 14.4002 18.2857 13.3257 18.2857 12.0002C18.2857 11.3103 18.0085 10.6884 17.5646 10.2506"/>
</mask>
<path d="M14.0003 9.74384C13.4115 10.3071 13.0476 11.113 13.0476 12.0002H14.3809C14.3809 11.4812 14.593 11.022 14.922 10.7073L14.0003 9.74384ZM13.0476 12.0002C13.0476 13.6629 14.3392 15.0669 16 15.0669V13.7335C15.1361 13.7335 14.3809 12.9885 14.3809 12.0002H13.0476ZM16 15.0669C17.6608 15.0669 18.9524 13.6629 18.9524 12.0002H17.619C17.619 12.9885 16.8639 13.7335 16 13.7335V15.0669ZM18.9524 12.0002C18.9524 11.1297 18.6021 10.3375 18.0328 9.77601L17.0965 10.7253C17.4149 11.0394 17.619 11.491 17.619 12.0002H18.9524Z" fill="#D80915" mask="url(#path-6-inside-1_67_2424)"/>
<rect x="15.238" y="11.2002" width="1.52381" height="3.20001" rx="0.666667" fill="#D80915"/>
</g>
</svg>
