<svg width="32" height="24" viewBox="0 0 32 24" fill="none" xmlns="http://www.w3.org/2000/svg">
<rect x="0.25" y="0.25" width="31.5" height="23.5" rx="1.75" fill="white" stroke="#F5F5F5" stroke-width="0.5"/>
<mask id="mask0_67_2482" style="mask-type:luminance" maskUnits="userSpaceOnUse" x="0" y="0" width="32" height="24">
<rect x="0.25" y="0.25" width="31.5" height="23.5" rx="1.75" fill="white" stroke="white" stroke-width="0.5"/>
</mask>
<g mask="url(#mask0_67_2482)">
<path fill-rule="evenodd" clip-rule="evenodd" d="M0 24H32V16H0V24Z" fill="#199E56"/>
<path fill-rule="evenodd" clip-rule="evenodd" d="M0 8.00001H32V0H0V8.00001Z" fill="#262626"/>
<path fill-rule="evenodd" clip-rule="evenodd" d="M0 0L15.2381 12L0 24V0Z" fill="#E6223A"/>
<path fill-rule="evenodd" clip-rule="evenodd" d="M5.33332 13.2001L4.34159 14.1624L4.4398 12.7483L3.10492 12.5341L4.21912 11.7331L3.54628 10.5037L4.83745 10.9189L5.33332 9.6001L5.82919 10.9189L7.12037 10.5037L6.44753 11.7331L7.56173 12.5341L6.22684 12.7483L6.32506 14.1624L5.33332 13.2001Z" fill="white"/>
</g>
</svg>
