<svg width="32" height="24" viewBox="0 0 32 24" fill="none" xmlns="http://www.w3.org/2000/svg">
<rect width="32" height="24" rx="2" fill="white"/>
<mask id="mask0_67_2550" style="mask-type:luminance" maskUnits="userSpaceOnUse" x="0" y="0" width="32" height="24">
<rect width="32" height="24" rx="2" fill="white"/>
</mask>
<g mask="url(#mask0_67_2550)">
<rect width="32" height="24" fill="#F22A46"/>
<path fill-rule="evenodd" clip-rule="evenodd" d="M16 16C18.1039 16 19.8095 14.2091 19.8095 12C19.8095 9.79086 18.1039 8 16 8C13.8961 8 12.1905 9.79086 12.1905 12C12.1905 14.2091 13.8961 16 16 16Z" fill="#FFF04D"/>
<path fill-rule="evenodd" clip-rule="evenodd" d="M14.1352 20.5791L16.0001 17.6561L17.865 20.5791L18.3374 17.096L21.2255 18.8799L20.2118 15.5264L23.5511 15.8179L21.252 13.2584L24.381 11.9998L21.252 10.7411L23.5511 8.1816L20.2118 8.47311L21.2255 5.11966L18.3374 6.90359L17.865 3.42041L16.0001 6.34344L14.1352 3.42041L13.6628 6.90359L10.7747 5.11966L11.7884 8.47311L8.44912 8.1816L10.7482 10.7411L7.61914 11.9998L10.7482 13.2584L8.44912 15.8179L11.7884 15.5264L10.7747 18.8799L13.6628 17.096L14.1352 20.5791ZM21.3334 11.9999C21.3334 15.0927 18.9456 17.5999 16.0001 17.5999C13.0546 17.5999 10.6667 15.0927 10.6667 11.9999C10.6667 8.90711 13.0546 6.3999 16.0001 6.3999C18.9456 6.3999 21.3334 8.90711 21.3334 11.9999Z" fill="#FFF04D"/>
</g>
</svg>
