<svg width="32" height="24" viewBox="0 0 32 24" fill="none" xmlns="http://www.w3.org/2000/svg">
<rect x="0.25" y="0.25" width="31.5" height="23.5" rx="1.75" fill="white" stroke="#F5F5F5" stroke-width="0.5"/>
<mask id="mask0_67_1986" style="mask-type:luminance" maskUnits="userSpaceOnUse" x="0" y="0" width="32" height="24">
<rect x="0.25" y="0.25" width="31.5" height="23.5" rx="1.75" fill="white" stroke="white" stroke-width="0.5"/>
</mask>
<g mask="url(#mask0_67_1986)">
<path fill-rule="evenodd" clip-rule="evenodd" d="M0 6.4H32V0H0V6.4Z" fill="#FFCB49"/>
<path fill-rule="evenodd" clip-rule="evenodd" d="M0 17.6002H32V11.2002H0V17.6002Z" fill="#DC1D34"/>
<path fill-rule="evenodd" clip-rule="evenodd" d="M0 24.0001H32V17.6001H0V24.0001Z" fill="#4985D4"/>
<path fill-rule="evenodd" clip-rule="evenodd" d="M0 24L15.2381 12L0 0V24Z" fill="#4BA343"/>
<path fill-rule="evenodd" clip-rule="evenodd" d="M6.09514 16.8002C6.48977 16.8002 6.87272 16.7477 7.238 16.649C5.26631 16.1161 3.80943 14.2368 3.80943 12.0002C3.80943 9.76359 5.26631 7.88427 7.238 7.35142C6.87272 7.2527 6.48977 7.2002 6.09514 7.2002C3.57041 7.2002 1.52371 9.34923 1.52371 12.0002C1.52371 14.6512 3.57041 16.8002 6.09514 16.8002ZM9.14267 8.8C9.14267 9.24183 8.80155 9.6 8.38076 9.6C7.95997 9.6 7.61886 9.24183 7.61886 8.8C7.61886 8.35817 7.95997 8 8.38076 8C8.80155 8 9.14267 8.35817 9.14267 8.8ZM8.38086 12.8002C8.80164 12.8002 9.14276 12.442 9.14276 12.0002C9.14276 11.5584 8.80164 11.2002 8.38086 11.2002C7.96007 11.2002 7.61895 11.5584 7.61895 12.0002C7.61895 12.442 7.96007 12.8002 8.38086 12.8002ZM9.14267 15.2004C9.14267 15.6422 8.80155 16.0004 8.38076 16.0004C7.95997 16.0004 7.61886 15.6422 7.61886 15.2004C7.61886 14.7586 7.95997 14.4004 8.38076 14.4004C8.80155 14.4004 9.14267 14.7586 9.14267 15.2004Z" fill="white"/>
</g>
</svg>
