<svg width="32" height="24" viewBox="0 0 32 24" fill="none" xmlns="http://www.w3.org/2000/svg">
<rect x="0.25" y="0.25" width="31.5" height="23.5" rx="1.75" fill="white" stroke="#F5F5F5" stroke-width="0.5"/>
<mask id="mask0_67_2558" style="mask-type:luminance" maskUnits="userSpaceOnUse" x="0" y="0" width="32" height="24">
<rect x="0.25" y="0.25" width="31.5" height="23.5" rx="1.75" fill="white" stroke="white" stroke-width="0.5"/>
</mask>
<g mask="url(#mask0_67_2558)">
<path fill-rule="evenodd" clip-rule="evenodd" d="M16 17.5999C18.9455 17.5999 21.3333 15.0927 21.3333 11.9999C21.3333 8.90711 18.9455 6.3999 16 6.3999C13.0545 6.3999 10.6667 8.90711 10.6667 11.9999C10.6667 15.0927 13.0545 17.5999 16 17.5999Z" fill="#E01B41"/>
<mask id="mask1_67_2558" style="mask-type:luminance" maskUnits="userSpaceOnUse" x="10" y="6" width="12" height="12">
<path fill-rule="evenodd" clip-rule="evenodd" d="M16 17.5999C18.9455 17.5999 21.3333 15.0927 21.3333 11.9999C21.3333 8.90711 18.9455 6.3999 16 6.3999C13.0545 6.3999 10.6667 8.90711 10.6667 11.9999C10.6667 15.0927 13.0545 17.5999 16 17.5999Z" fill="white"/>
</mask>
<g mask="url(#mask1_67_2558)">
<path fill-rule="evenodd" clip-rule="evenodd" d="M10.6668 12.8C12.1906 14.3 14.4763 15.2 16.0001 12.8C17.5239 10.4 20.5715 10.4 21.3334 12.8C22.0953 15.2 21.3334 17.6 21.3334 17.6H10.6668C10.6668 17.6 9.14294 11.3 10.6668 12.8Z" fill="#0E4B9C"/>
</g>
<path opacity="0.75" fill-rule="evenodd" clip-rule="evenodd" d="M23.7199 4.54861C23.5624 4.64405 23.5067 4.85219 23.5954 5.0135L25.5599 8.58624C25.6486 8.74756 25.8482 8.80097 26.0056 8.70553L26.7551 8.25113C26.9126 8.1557 26.9683 7.94756 26.8796 7.78624L24.9151 4.2135C24.8264 4.05219 24.6269 3.99878 24.4694 4.09421L23.7199 4.54861ZM21.7406 5.74881C21.5832 5.84424 21.5275 6.05238 21.6162 6.2137L23.5807 9.78645C23.6694 9.94776 23.8689 10.0012 24.0263 9.90574L24.7759 9.45133C24.9333 9.3559 24.989 9.14776 24.9003 8.98644L22.9358 5.4137C22.8471 5.25238 22.6476 5.19897 22.4902 5.29441L21.7406 5.74881ZM5.12032 16.2137C5.03162 16.0524 5.08734 15.8442 5.24476 15.7488L5.99433 15.2944C6.15175 15.199 6.35128 15.2524 6.43998 15.4137L8.40448 18.9864C8.49318 19.1478 8.43747 19.3559 8.28004 19.4513L7.53048 19.9057C7.37305 20.0012 7.17352 19.9478 7.08482 19.7864L5.12032 16.2137ZM7.22401 14.5486C7.06658 14.644 7.01087 14.8522 7.09957 15.0135L9.06407 18.5862C9.15277 18.7476 9.3523 18.801 9.50973 18.7055L10.2593 18.2511C10.4167 18.1557 10.4724 17.9476 10.3837 17.7862L8.41923 14.2135C8.33053 14.0522 8.131 13.9988 7.97358 14.0942L7.22401 14.5486ZM23.5806 14.2137C23.6693 14.0524 23.8688 13.999 24.0263 14.0944L24.7758 14.5488C24.9333 14.6442 24.989 14.8524 24.9003 15.0137L22.9358 18.5864C22.8471 18.7478 22.6475 18.8012 22.4901 18.7057L21.7405 18.2513C21.5831 18.1559 21.5274 17.9478 21.6161 17.7864L23.5806 14.2137ZM26.0057 15.2941C25.8483 15.1987 25.6488 15.2521 25.5601 15.4134L23.5956 18.9861C23.5069 19.1475 23.5626 19.3556 23.72 19.451L24.4696 19.9054C24.627 20.0009 24.8266 19.9474 24.9153 19.7861L26.8798 16.2134C26.9685 16.0521 26.9127 15.8439 26.7553 15.7485L26.0057 15.2941ZM7.08475 4.2137C7.17345 4.05238 7.37298 3.99897 7.53041 4.09441L8.27997 4.54881C8.4374 4.64424 8.49311 4.85238 8.40441 5.0137L6.43991 8.58644C6.35121 8.74775 6.15169 8.80116 5.99426 8.70573L5.24469 8.25133C5.08727 8.15589 5.03155 7.94776 5.12025 7.78644L7.08475 4.2137ZM9.5099 5.29412C9.35247 5.19868 9.15295 5.25209 9.06425 5.41341L7.09975 8.98615C7.01105 9.14747 7.06676 9.35561 7.22419 9.45104L7.97375 9.90544C8.13118 10.0009 8.3307 9.94747 8.4194 9.78615L10.3839 6.21341C10.4726 6.05209 10.4169 5.84395 10.2595 5.74852L9.5099 5.29412Z" fill="#262626"/>
</g>
</svg>
