<svg width="32" height="24" viewBox="0 0 32 24" fill="none" xmlns="http://www.w3.org/2000/svg">
<rect width="32" height="24" rx="2" fill="white"/>
<mask id="mask0_67_2512" style="mask-type:luminance" maskUnits="userSpaceOnUse" x="0" y="0" width="32" height="24">
<rect width="32" height="24" rx="2" fill="white"/>
</mask>
<g mask="url(#mask0_67_2512)">
<rect width="32" height="24" fill="#30C6E0"/>
<path fill-rule="evenodd" clip-rule="evenodd" d="M15.9999 16.8002C18.5246 16.8002 20.5713 14.6512 20.5713 12.0002C20.5713 9.34923 18.5246 7.2002 15.9999 7.2002C13.4752 7.2002 11.4285 9.34923 11.4285 12.0002C11.4285 14.6512 13.4752 16.8002 15.9999 16.8002Z" fill="#FFCD4B"/>
<path fill-rule="evenodd" clip-rule="evenodd" d="M14.1352 20.5791L16.0001 17.6561L17.865 20.5791L18.3374 17.096L21.2255 18.8799L20.2118 15.5264L23.5511 15.8179L21.252 13.2584L24.381 11.9998L21.252 10.7411L23.5511 8.1816L20.2118 8.47311L21.2255 5.11966L18.3374 6.90359L17.865 3.42041L16.0001 6.34344L14.1352 3.42041L13.6628 6.90359L10.7747 5.11966L11.7884 8.47311L8.44912 8.1816L10.7482 10.7411L7.61914 11.9998L10.7482 13.2584L8.44912 15.8179L11.7884 15.5264L10.7747 18.8799L13.6628 17.096L14.1352 20.5791ZM21.3334 11.9999C21.3334 15.0927 18.9456 17.5999 16.0001 17.5999C13.0546 17.5999 10.6667 15.0927 10.6667 11.9999C10.6667 8.90711 13.0546 6.3999 16.0001 6.3999C18.9456 6.3999 21.3334 8.90711 21.3334 11.9999Z" fill="#FFCD4B"/>
<path fill-rule="evenodd" clip-rule="evenodd" d="M1.52393 1.93343C1.52393 1.74934 1.67316 1.6001 1.85726 1.6001H2.7144C2.8985 1.6001 3.04774 1.74934 3.04774 1.93343V2.86676C3.04774 3.05086 2.8985 3.2001 2.7144 3.2001H1.85726C1.67316 3.2001 1.52393 3.05086 1.52393 2.86676V1.93343ZM1.52393 5.13363C1.52393 4.94953 1.67316 4.80029 1.85726 4.80029H2.7144C2.8985 4.80029 3.04774 4.94953 3.04774 5.13363V6.06696C3.04774 6.25105 2.8985 6.40029 2.7144 6.40029H1.85726C1.67316 6.40029 1.52393 6.25105 1.52393 6.06696V5.13363ZM1.85726 8.0001C1.67316 8.0001 1.52393 8.14933 1.52393 8.33343V9.26677C1.52393 9.45086 1.67316 9.6001 1.85726 9.6001H2.7144C2.8985 9.6001 3.04774 9.45086 3.04774 9.26677V8.33343C3.04774 8.14933 2.8985 8.0001 2.7144 8.0001H1.85726ZM1.52393 11.5334C1.52393 11.3493 1.67316 11.2001 1.85726 11.2001H2.7144C2.8985 11.2001 3.04774 11.3493 3.04774 11.5334V12.4668C3.04774 12.6509 2.8985 12.8001 2.7144 12.8001H1.85726C1.67316 12.8001 1.52393 12.6509 1.52393 12.4668V11.5334ZM1.85726 14.3999C1.67316 14.3999 1.52393 14.5491 1.52393 14.7332V15.6666C1.52393 15.8507 1.67316 15.9999 1.85726 15.9999H2.7144C2.8985 15.9999 3.04774 15.8507 3.04774 15.6666V14.7332C3.04774 14.5491 2.8985 14.3999 2.7144 14.3999H1.85726ZM1.52393 17.9334C1.52393 17.7493 1.67316 17.6001 1.85726 17.6001H2.7144C2.8985 17.6001 3.04774 17.7493 3.04774 17.9334V18.8668C3.04774 19.0509 2.8985 19.2001 2.7144 19.2001H1.85726C1.67316 19.2001 1.52393 19.0509 1.52393 18.8668V17.9334ZM1.85726 20.8003C1.67316 20.8003 1.52393 20.9495 1.52393 21.1336V22.067C1.52393 22.2511 1.67316 22.4003 1.85726 22.4003H2.7144C2.8985 22.4003 3.04774 22.2511 3.04774 22.067V21.1336C3.04774 20.9495 2.8985 20.8003 2.7144 20.8003H1.85726ZM3.04785 19.5335C3.04785 19.3494 3.19709 19.2002 3.38118 19.2002H4.23833C4.42242 19.2002 4.57166 19.3494 4.57166 19.5335V20.4669C4.57166 20.6509 4.42242 20.8002 4.23833 20.8002H3.38118C3.19709 20.8002 3.04785 20.6509 3.04785 20.4669V19.5335ZM3.38118 16C3.19709 16 3.04785 16.1492 3.04785 16.3333V17.2667C3.04785 17.4508 3.19709 17.6 3.38118 17.6H4.23833C4.42242 17.6 4.57166 17.4508 4.57166 17.2667V16.3333C4.57166 16.1492 4.42242 16 4.23833 16H3.38118ZM3.04764 13.1336C3.04764 12.9495 3.19688 12.8003 3.38098 12.8003H4.23812C4.42221 12.8003 4.57145 12.9495 4.57145 13.1336V14.067C4.57145 14.2511 4.42221 14.4003 4.23812 14.4003H3.38098C3.19688 14.4003 3.04764 14.2511 3.04764 14.067V13.1336ZM3.38118 9.6001C3.19709 9.6001 3.04785 9.74934 3.04785 9.93343V10.8668C3.04785 11.0509 3.19709 11.2001 3.38118 11.2001H4.23833C4.42242 11.2001 4.57166 11.0509 4.57166 10.8668V9.93343C4.57166 9.74934 4.42242 9.6001 4.23833 9.6001H3.38118ZM3.04764 6.73324C3.04764 6.54914 3.19688 6.3999 3.38098 6.3999H4.23812C4.42221 6.3999 4.57145 6.54914 4.57145 6.73324V7.66657C4.57145 7.85066 4.42221 7.9999 4.23812 7.9999H3.38098C3.19688 7.9999 3.04764 7.85066 3.04764 7.66657V6.73324ZM3.38118 3.2002C3.19709 3.2002 3.04785 3.34943 3.04785 3.53353V4.46686C3.04785 4.65096 3.19709 4.8002 3.38118 4.8002H4.23833C4.42242 4.8002 4.57166 4.65096 4.57166 4.46686V3.53353C4.57166 3.34943 4.42242 3.2002 4.23833 3.2002H3.38118Z" fill="#FFCD4B"/>
</g>
</svg>
