<svg width="32" height="24" viewBox="0 0 32 24" fill="none" xmlns="http://www.w3.org/2000/svg">
<rect x="0.25" y="0.25" width="31.5" height="23.5" rx="1.75" fill="white" stroke="#F5F5F5" stroke-width="0.5"/>
<mask id="mask0_67_2669" style="mask-type:luminance" maskUnits="userSpaceOnUse" x="0" y="0" width="32" height="24">
<rect x="0.25" y="0.25" width="31.5" height="23.5" rx="1.75" fill="white" stroke="white" stroke-width="0.5"/>
</mask>
<g mask="url(#mask0_67_2669)">
<path fill-rule="evenodd" clip-rule="evenodd" d="M0 6.4H32V0H0V6.4Z" fill="#F03340"/>
<path fill-rule="evenodd" clip-rule="evenodd" d="M0 24.0001H32V17.6001H0V24.0001Z" fill="#F03340"/>
<path fill-rule="evenodd" clip-rule="evenodd" d="M14.7963 14.8638C15.0415 14.6063 15.0453 14.1977 14.8001 13.9402L14.7138 13.8496C14.5672 13.6956 14.3484 13.6335 14.1427 13.6875L13.7726 13.7847C13.2435 13.9235 12.9028 13.239 13.3325 12.9006L13.7295 12.5879C13.975 12.3946 13.8383 12 13.5258 12C13.1819 12 13.0683 11.5391 13.3728 11.3792L14.0556 11.0208C14.3601 10.8609 14.2464 10.4 13.9025 10.4C13.59 10.4 13.4533 10.0054 13.6988 9.81208L15.5874 8.32481C15.8294 8.13427 16.1704 8.13427 16.4124 8.32481L18.301 9.81209C18.5465 10.0054 18.4097 10.4 18.0973 10.4C17.7533 10.4 17.6397 10.8609 17.9442 11.0208L18.627 11.3792C18.9315 11.5391 18.8179 12 18.474 12C18.1615 12 18.0248 12.3946 18.2703 12.5879L18.6673 12.9006C19.097 13.239 18.7562 13.9235 18.2272 13.7847L17.8571 13.6875C17.6514 13.6335 17.4326 13.6956 17.286 13.8496L17.1997 13.9402C16.9545 14.1977 16.9583 14.6063 17.2035 14.8638C17.6077 15.2882 17.3162 16 16.7301 16H15.2697C14.6836 16 14.3921 15.2882 14.7963 14.8638Z" fill="#1FC065"/>
</g>
</svg>
