<svg width="32" height="24" viewBox="0 0 32 24" fill="none" xmlns="http://www.w3.org/2000/svg">
<rect width="32" height="24" rx="2" fill="white"/>
<mask id="mask0_67_2686" style="mask-type:luminance" maskUnits="userSpaceOnUse" x="0" y="0" width="32" height="24">
<rect width="32" height="24" rx="2" fill="white"/>
</mask>
<g mask="url(#mask0_67_2686)">
<rect width="32" height="24" fill="#FFBF19"/>
<path fill-rule="evenodd" clip-rule="evenodd" d="M12.1905 1.6001H29.1429C29.8793 1.6001 30.4762 2.19705 30.4762 2.93343V21.0668C30.4762 21.8031 29.8793 22.4001 29.1429 22.4001H12.1905V1.6001Z" fill="#A52531"/>
<path d="M1.52393 2.93343C1.52393 2.19705 2.12088 1.6001 2.85726 1.6001H6.09535V22.4001H2.85726C2.12088 22.4001 1.52393 21.8031 1.52393 21.0668V2.93343Z" fill="#03664F"/>
<rect x="6.09525" y="1.6001" width="4.57143" height="20.8" rx="0.666667" fill="#FF6816"/>
<path fill-rule="evenodd" clip-rule="evenodd" d="M15.2381 4.0002C15.2381 4.44202 14.897 4.8002 14.4762 4.8002C14.0554 4.8002 13.7143 4.44202 13.7143 4.0002V3.2002H14.4762C14.897 3.2002 15.2381 3.55837 15.2381 4.0002ZM27.4286 4.0002C27.4286 4.44202 27.7697 4.8002 28.1905 4.8002C28.6113 4.8002 28.9524 4.44202 28.9524 4.0002V3.2002H28.1905C27.7697 3.2002 27.4286 3.55837 27.4286 4.0002ZM28.1904 19.2003C27.7696 19.2003 27.4285 19.5585 27.4285 20.0003C27.4285 20.4421 27.7696 20.8003 28.1904 20.8003H28.9523V20.0003C28.9523 19.5585 28.6112 19.2003 28.1904 19.2003ZM15.2381 20.0003C15.2381 19.5585 14.897 19.2003 14.4762 19.2003C14.0554 19.2003 13.7143 19.5585 13.7143 20.0003V20.8003H14.4762C14.897 20.8003 15.2381 20.4421 15.2381 20.0003Z" fill="#FFBF18"/>
<path fill-rule="evenodd" clip-rule="evenodd" d="M18.2858 15.0512C18.2858 14.6915 17.9943 14.3999 17.6346 14.3999C17.5614 14.3999 17.4891 14.3878 17.4205 14.362C16.9745 14.1944 15.2382 13.4972 15.2382 12.7999C15.2382 12.3214 15.5109 11.8428 15.7299 11.5355C15.8823 11.3218 15.9367 11.0445 15.8461 10.7981C15.5926 10.1088 15.126 8.70674 15.2382 7.99992C15.3028 7.59335 15.5862 7.24405 15.8915 6.97648C16.2583 6.65493 16.762 6.95923 16.762 7.44706V10.797C16.762 11.0447 16.8994 11.2721 17.1188 11.3872L17.9308 11.8135C18.1409 11.9238 18.3987 11.8814 18.5624 11.7095C18.8057 11.4541 18.737 11.0368 18.4247 10.8728L17.5239 10.3999V9.59992C17.9164 9.59992 18.046 9.07401 17.6986 8.89161L17.5239 8.79992V7.99992H18.762C18.9445 7.99992 19.119 7.92515 19.2448 7.79303L19.6126 7.40682C19.7384 7.2747 19.9129 7.19992 20.0954 7.19992H20.9125C21.1697 7.19992 21.4039 7.34781 21.5144 7.57997L21.9822 8.56237C22.0549 8.71501 22.0669 8.88957 22.0158 9.05071L21.6091 10.3315C21.4727 10.7614 21.7935 11.1999 22.2446 11.1999H24.8729C25.0454 11.1999 25.2103 11.1292 25.3292 11.0044C25.6178 10.7014 25.5363 10.2064 25.1658 10.0119L24.5266 9.67633C24.431 9.62614 24.3247 9.59992 24.2167 9.59992H23.5239C23.1557 9.59992 22.8573 9.30145 22.8573 8.93326V8.26659C22.8573 8.09541 22.9231 7.93078 23.0412 7.80682L23.6192 7.19992V8.13326C23.6192 8.50145 23.9177 8.79992 24.2858 8.79992H24.3811H25.484C25.7411 8.79992 25.9753 8.94781 26.0859 9.17997L26.6175 10.2964C26.6501 10.3649 26.6708 10.4379 26.6775 10.5136C26.7108 10.8866 26.802 12.0903 26.6668 12.7999C26.5543 13.3908 26.2284 13.9353 26.0413 14.2111C25.9565 14.3361 25.9049 14.4822 25.9049 14.6333V17.0102C25.9049 17.3359 25.6408 17.5999 25.3151 17.5999C24.8817 17.5999 24.5963 17.148 24.7827 16.7566L25.069 16.1553C25.1158 16.057 25.1158 15.9428 25.069 15.8445L25.0356 15.7743C24.878 15.4434 24.3811 15.5557 24.3811 15.9222C24.3811 15.9734 24.3697 16.0239 24.3477 16.0701L23.8001 17.2199C23.6896 17.452 23.4554 17.5999 23.1982 17.5999H23.1512C22.6612 17.5999 22.3386 17.089 22.5493 16.6466L22.7925 16.1359C22.8351 16.0464 22.8573 15.9485 22.8573 15.8493L22.8573 15.0666C22.8573 14.6984 22.5588 14.3999 22.1906 14.3999H20.4763C20.1081 14.3999 19.8097 14.6984 19.8097 15.0666V15.8493C19.8097 15.9485 19.7875 16.0464 19.7449 16.1359L19.2287 17.2199C19.1182 17.452 18.884 17.5999 18.6268 17.5999H18.5798C18.0898 17.5999 17.7672 17.089 17.9779 16.6466L18.2211 16.1359C18.2637 16.0464 18.2858 15.9485 18.2858 15.8493V15.0512Z" fill="#FFBF18"/>
</g>
</svg>
