<svg width="32" height="24" viewBox="0 0 32 24" fill="none" xmlns="http://www.w3.org/2000/svg">
<rect x="0.25" y="0.25" width="31.5" height="23.5" rx="1.75" fill="white" stroke="#F5F5F5" stroke-width="0.5"/>
<mask id="mask0_67_2645" style="mask-type:luminance" maskUnits="userSpaceOnUse" x="0" y="0" width="32" height="24">
<rect x="0.25" y="0.25" width="31.5" height="23.5" rx="1.75" fill="white" stroke="white" stroke-width="0.5"/>
</mask>
<g mask="url(#mask0_67_2645)">
<path fill-rule="evenodd" clip-rule="evenodd" d="M32 0H15.2381V3.2H32V0ZM32 6.4H15.2381V9.6H32V6.4ZM15.238 12.7998H31.9999V15.9998H15.238V12.7998ZM32 19.2002H0V22.4002H32V19.2002Z" fill="#E1244A"/>
<rect width="15.2381" height="16" fill="#0C3F8E"/>
<path fill-rule="evenodd" clip-rule="evenodd" d="M7.61904 9.87219L4.93202 11.8835L5.92344 8.57867L3.27135 6.51691L6.5711 6.48571L7.61904 3.2002L8.66697 6.48571L11.9667 6.51691L9.31463 8.57867L10.3061 11.8835L7.61904 9.87219Z" fill="white"/>
</g>
</svg>
