<svg width="32" height="24" viewBox="0 0 32 24" fill="none" xmlns="http://www.w3.org/2000/svg">
<rect width="32" height="24" rx="2" fill="white"/>
<mask id="mask0_67_2814" style="mask-type:luminance" maskUnits="userSpaceOnUse" x="0" y="0" width="32" height="24">
<rect width="32" height="24" rx="2" fill="white"/>
</mask>
<g mask="url(#mask0_67_2814)">
<rect width="32" height="24" fill="#E6BE53"/>
<path fill-rule="evenodd" clip-rule="evenodd" d="M1.52393 21.4001C1.52393 21.9524 1.97164 22.4001 2.52393 22.4001H29.4763C30.0286 22.4001 30.4763 21.9524 30.4763 21.4001V2.6001C30.4763 2.04781 30.0286 1.6001 29.4763 1.6001H2.52393C1.97164 1.6001 1.52393 2.04781 1.52393 2.6001V21.4001Z" fill="#E01826"/>
<path fill-rule="evenodd" clip-rule="evenodd" d="M14.6889 4.45873C14.2319 4.61869 14.0924 5.19711 14.4263 5.54774L15.0409 6.193C15.1667 6.32512 15.3412 6.3999 15.5236 6.3999H16.476C16.6585 6.3999 16.8329 6.32512 16.9588 6.193L17.5733 5.54774C17.9072 5.19711 17.7678 4.61869 17.3108 4.45873L16.2201 4.07698C16.0775 4.02707 15.9222 4.02707 15.7796 4.07698L14.6889 4.45873ZM16.4827 8.2928C16.2199 8.56866 15.7799 8.56866 15.5171 8.2928L15.238 7.9997L14.0613 6.76412C13.8559 6.54845 13.5323 6.49519 13.2686 6.63363L12.9723 6.78918C12.5803 6.99497 12.4941 7.51863 12.7994 7.83922L12.9523 7.9997L14.1597 9.2675C14.3503 9.46757 14.3976 9.76444 14.2789 10.0139L13.7555 11.1129C13.7283 11.17 13.7142 11.2325 13.7142 11.2958C13.7142 11.6158 13.3743 11.8212 13.091 11.6725L12.7594 11.4984C12.4742 11.3487 12.4114 10.9676 12.6336 10.7343C12.8121 10.5469 12.8121 10.2525 12.6336 10.0651L12.2638 9.67676C12.2152 9.62571 12.1749 9.56727 12.1446 9.50361L11.4588 8.06334C11.4386 8.02103 11.423 7.97672 11.4122 7.93113L11.006 6.22509C10.8734 5.66851 10.1475 5.52644 9.81492 5.99201L8.50504 7.82585C8.42427 7.93892 8.38086 8.07439 8.38086 8.21334V11.0491C8.38086 11.1482 8.40298 11.2462 8.44562 11.3357L9.09701 12.7036C9.12732 12.7673 9.16754 12.8257 9.21616 12.8768L10.5909 14.3202C10.641 14.3728 10.6994 14.4169 10.7637 14.4507L12.1131 15.1591C12.1639 15.1858 12.2203 15.1997 12.2777 15.1997C12.6476 15.1997 12.7699 15.6955 12.4423 15.8674L12.2498 15.9685C12.2105 15.9892 12.1747 16.0161 12.1441 16.0483L11.8094 16.3997C11.6021 16.6174 11.2548 16.6174 11.0475 16.3997C10.8402 16.182 10.4929 16.182 10.2856 16.3997L10.2063 16.483C10.0246 16.6737 9.97946 16.9568 10.0927 17.1946L10.4856 18.0196C10.5962 18.2518 10.8304 18.3997 11.0875 18.3997H12.026C12.134 18.3997 12.2403 18.3735 12.3359 18.3233L13.5176 17.7029C13.6452 17.6359 13.7477 17.5294 13.8096 17.3992L14.1672 16.6483C14.3162 16.3354 14.7326 16.269 14.9716 16.5199C15.1281 16.6843 15.1526 16.9342 15.0309 17.1259L14.0558 18.6617C13.8647 18.9627 13.9442 19.3607 14.2363 19.5652L15.6176 20.5321C15.8471 20.6928 16.1527 20.6928 16.3822 20.5321L17.7635 19.5652C18.0556 19.3607 18.1351 18.9626 17.944 18.6617L16.9689 17.1259C16.8472 16.9342 16.8717 16.6843 17.0283 16.5199C17.2673 16.269 17.6836 16.3354 17.8326 16.6483L18.1902 17.3992C18.2521 17.5294 18.3546 17.6359 18.4822 17.7029L19.6639 18.3233C19.7595 18.3735 19.8658 18.3997 19.9738 18.3997H20.9123C21.1694 18.3997 21.4037 18.2518 21.5142 18.0196L21.9071 17.1946C22.0204 16.9568 21.9752 16.6737 21.7935 16.483L21.7142 16.3997C21.5069 16.182 21.1596 16.182 20.9523 16.3997C20.745 16.6174 20.3977 16.6174 20.1904 16.3997L19.8557 16.0483C19.8251 16.0161 19.7894 15.9892 19.75 15.9685L19.5575 15.8674C19.23 15.6955 19.3522 15.1997 19.7221 15.1997C19.7795 15.1997 19.836 15.1858 19.8867 15.1591L21.2361 14.4507C21.3004 14.4169 21.3588 14.3728 21.4089 14.3202L22.7837 12.8768C22.8323 12.8257 22.8725 12.7673 22.9028 12.7036L23.5542 11.3357C23.5968 11.2462 23.619 11.1482 23.619 11.0491V8.21334C23.619 8.07439 23.5755 7.93892 23.4948 7.82585L22.1849 5.99201C21.8523 5.52644 21.1264 5.66851 20.9939 6.22509L20.5877 7.93113C20.5768 7.97672 20.5612 8.02103 20.541 8.06334L19.8552 9.50361C19.8249 9.56727 19.7847 9.62571 19.736 9.67676L19.3662 10.0651C19.1877 10.2525 19.1877 10.5469 19.3662 10.7343C19.5884 10.9676 19.5256 11.3487 19.2404 11.4984L18.9088 11.6725C18.6255 11.8212 18.2856 11.6158 18.2856 11.2958C18.2856 11.2325 18.2715 11.17 18.2443 11.1129L17.721 10.0139C17.6022 9.76444 17.6496 9.46757 17.8401 9.2675L19.0475 7.9997L19.2004 7.83922C19.5057 7.51863 19.4195 6.99497 19.0275 6.78918L18.7312 6.63363C18.4675 6.49518 18.144 6.54845 17.9386 6.76412L16.7618 7.9997L16.4827 8.2928Z" fill="#E6BE53"/>
<path fill-rule="evenodd" clip-rule="evenodd" d="M14.4763 13.6002C14.4763 13.8834 14.9577 13.9747 15.0911 13.7249C15.3557 13.2294 15.6779 12.8002 16.0001 12.8002C16.3223 12.8002 16.6445 13.2294 16.9091 13.7249C17.0425 13.9747 17.5239 13.8834 17.5239 13.6002C17.5239 12.2747 16.8417 11.2002 16.0001 11.2002C15.1585 11.2002 14.4763 12.2747 14.4763 13.6002Z" fill="#215F90"/>
</g>
</svg>
