<svg width="32" height="24" viewBox="0 0 32 24" fill="none" xmlns="http://www.w3.org/2000/svg">
<rect width="32" height="24" rx="2" fill="white"/>
<mask id="mask0_67_2788" style="mask-type:luminance" maskUnits="userSpaceOnUse" x="0" y="0" width="32" height="24">
<rect width="32" height="24" rx="2" fill="white"/>
</mask>
<g mask="url(#mask0_67_2788)">
<rect width="32" height="24" fill="#E81B26"/>
<path fill-rule="evenodd" clip-rule="evenodd" d="M16 16C18.1039 16 19.8095 14.2091 19.8095 12C19.8095 9.79086 18.1039 8 16 8C13.8961 8 12.1905 9.79086 12.1905 12C12.1905 14.2091 13.8961 16 16 16Z" fill="#FFE94F"/>
<path fill-rule="evenodd" clip-rule="evenodd" d="M10.7195 12.7924C10.6846 12.5336 10.6665 12.269 10.6665 12.0001C10.6665 11.7313 10.6845 11.4669 10.7194 11.2082L0 9.60029V14.4003L10.7195 12.7924ZM11.6663 8.73508C11.8964 8.39901 12.161 8.09079 12.4548 7.81617L2.2418 -4.23682L-0.817085 -0.669721L11.6663 8.73508ZM-0.817139 24.6696L11.6662 15.2649C11.8962 15.601 12.1609 15.9092 12.4546 16.1839L2.24174 28.2367L-0.817139 24.6696ZM14.9537 17.4924L13.7141 24.0002H18.2855L17.046 17.4924C16.7077 17.563 16.3579 17.6001 15.9998 17.6001C15.6418 17.6001 15.292 17.563 14.9537 17.4924ZM19.5451 16.1838L29.758 28.2367L32.8169 24.6696L20.3335 15.2649C20.1035 15.6009 19.8388 15.9092 19.5451 16.1838ZM21.2802 12.7923L32 14.4003V9.60029L21.2803 11.2083C21.3151 11.4669 21.3332 11.7313 21.3332 12.0001C21.3332 12.269 21.3151 12.5335 21.2802 12.7923ZM20.3334 8.73514L32.8168 -0.669721L29.758 -4.23682L19.5449 7.81623C19.8387 8.09085 20.1033 8.39907 20.3334 8.73514ZM17.046 6.50779L18.2855 0.000192165H13.7141L14.9537 6.50779C15.2919 6.43714 15.6418 6.40009 15.9998 6.40009C16.3579 6.40009 16.7077 6.43714 17.046 6.50779Z" fill="#FFE94F"/>
</g>
</svg>
