<svg width="32" height="24" viewBox="0 0 32 24" fill="none" xmlns="http://www.w3.org/2000/svg">
<rect width="32" height="24" rx="2" fill="white"/>
<mask id="mask0_67_2774" style="mask-type:luminance" maskUnits="userSpaceOnUse" x="0" y="0" width="32" height="24">
<rect width="32" height="24" rx="2" fill="white"/>
</mask>
<g mask="url(#mask0_67_2774)">
<path fill-rule="evenodd" clip-rule="evenodd" d="M10.6667 24H21.3333V0H10.6667V24Z" fill="#146BBC"/>
<path fill-rule="evenodd" clip-rule="evenodd" d="M0 24H10.6667V0H0V24Z" fill="#E43642"/>
<path fill-rule="evenodd" clip-rule="evenodd" d="M21.3333 24H32V0H21.3333V24Z" fill="#E43642"/>
<path fill-rule="evenodd" clip-rule="evenodd" d="M5.33345 12L6.09536 12.8H5.34541C5.76059 12.8068 6.09515 13.1623 6.09515 13.5999C6.09515 14.0417 5.75403 14.3999 5.33324 14.3999C4.91246 14.3999 4.57134 14.0417 4.57134 13.5999C4.57134 13.1623 4.9059 12.8068 5.32108 12.8H4.57155L5.33345 12ZM6.09536 14.4L6.09531 14.4001H7.61905V19.2001H6.09524V16.8142C6.08807 17.2495 5.74975 17.6001 5.33345 17.6001C4.91266 17.6001 4.57155 17.2419 4.57155 16.8001C4.57155 16.3583 4.91266 16.0001 5.33345 16.0001C5.74975 16.0001 6.08807 16.3507 6.09524 16.786V14.4002L5.33345 16L4.57155 14.4H6.09536ZM3.04762 14.4001H4.57143V17.6002H6.09515L5.33324 19.2002L4.57143 17.6004V19.2001H3.04762V14.4001Z" fill="url(#paint0_linear_67_2774)"/>
</g>
<defs>
<linearGradient id="paint0_linear_67_2774" x1="3.04762" y1="12" x2="3.04762" y2="19.2001" gradientUnits="userSpaceOnUse">
<stop stop-color="#F8D246"/>
<stop offset="1" stop-color="#F9CE2F"/>
</linearGradient>
</defs>
</svg>
