<svg width="32" height="24" viewBox="0 0 32 24" fill="none" xmlns="http://www.w3.org/2000/svg">
<rect width="32" height="24" rx="2" fill="white"/>
<mask id="mask0_67_2699" style="mask-type:luminance" maskUnits="userSpaceOnUse" x="0" y="0" width="32" height="24">
<rect width="32" height="24" rx="2" fill="white"/>
</mask>
<g mask="url(#mask0_67_2699)">
<path fill-rule="evenodd" clip-rule="evenodd" d="M0 24H32V0H0V24Z" fill="#079D7B"/>
<path fill-rule="evenodd" clip-rule="evenodd" d="M18.1543 10.4004C18.1543 10.7506 18.1301 11.0903 18.0845 11.4141C18.2014 11.3764 18.3204 11.3404 18.4414 11.3063C20.4737 10.7346 22.2876 10.9232 22.4929 11.7277C22.6784 12.4548 21.4866 13.436 19.7553 14.0402C19.4495 13.0878 17.8845 12.8004 16 12.8004C14.1133 12.8004 12.547 13.0884 12.2436 14.0433C10.5358 13.438 9.36533 12.4671 9.54931 11.7461C9.75461 10.9416 11.5685 10.7529 13.6008 11.3247C13.7075 11.3547 13.8126 11.3862 13.9161 11.4191C13.8701 11.0939 13.8456 10.7524 13.8456 10.4004C13.8456 8.19125 14.8102 6.40039 16 6.40039C17.1898 6.40039 18.1543 8.19125 18.1543 10.4004ZM12.1904 14.4004L13.5236 14.4004C13.3124 14.3569 13.097 14.3049 12.879 14.2441C13.1241 14.2517 13.4265 14.2737 13.7725 14.2989C14.3989 14.3444 15.1683 14.4004 16 14.4004C16.8316 14.4004 17.601 14.3444 18.2274 14.2989C18.5604 14.2747 18.853 14.2534 19.093 14.245C18.8674 14.3061 18.6447 14.3579 18.427 14.4004L19.8095 14.4004L22.0952 14.4004C21.9145 14.97 21.6712 15.5068 21.3746 16.0004H10.6253C10.3287 15.5068 10.0855 14.97 9.90473 14.4004L12.1904 14.4004ZM15.9999 19.2006C17.539 19.2006 18.9525 18.6012 20.0625 17.6006H11.9373C13.0473 18.6012 14.4608 19.2006 15.9999 19.2006Z" fill="white"/>
<path fill-rule="evenodd" clip-rule="evenodd" d="M16 4.8002C16.4208 4.8002 16.7619 4.44202 16.7619 4.0002C16.7619 3.55837 16.4208 3.2002 16 3.2002C15.5792 3.2002 15.2381 3.55837 15.2381 4.0002C15.2381 4.44202 15.5792 4.8002 16 4.8002ZM9.90476 8.80019C10.3255 8.80019 10.6667 8.44202 10.6667 8.00019C10.6667 7.55837 10.3255 7.2002 9.90476 7.2002C9.48397 7.2002 9.14285 7.55837 9.14285 8.00019C9.14285 8.44202 9.48397 8.80019 9.90476 8.80019ZM22.8571 8.00019C22.8571 8.44202 22.516 8.80019 22.0952 8.80019C21.6744 8.80019 21.3333 8.44202 21.3333 8.00019C21.3333 7.55837 21.6744 7.2002 22.0952 7.2002C22.516 7.2002 22.8571 7.55837 22.8571 8.00019ZM19.8095 6.4002C20.2303 6.4002 20.5714 6.04202 20.5714 5.6002C20.5714 5.15837 20.2303 4.8002 19.8095 4.8002C19.3887 4.8002 19.0476 5.15837 19.0476 5.6002C19.0476 6.04202 19.3887 6.4002 19.8095 6.4002ZM12.9524 5.6002C12.9524 6.04202 12.6113 6.4002 12.1905 6.4002C11.7697 6.4002 11.4286 6.04202 11.4286 5.6002C11.4286 5.15837 11.7697 4.8002 12.1905 4.8002C12.6113 4.8002 12.9524 5.15837 12.9524 5.6002Z" fill="#FCD117"/>
</g>
</svg>
