<svg width="32" height="24" viewBox="0 0 32 24" fill="none" xmlns="http://www.w3.org/2000/svg">
<rect x="0.25" y="0.25" width="31.5" height="23.5" rx="1.75" fill="white" stroke="#F5F5F5" stroke-width="0.5"/>
<mask id="mask0_67_2806" style="mask-type:luminance" maskUnits="userSpaceOnUse" x="0" y="0" width="32" height="24">
<rect x="0.25" y="0.25" width="31.5" height="23.5" rx="1.75" fill="white" stroke="white" stroke-width="0.5"/>
</mask>
<g mask="url(#mask0_67_2806)">
<path fill-rule="evenodd" clip-rule="evenodd" d="M16.7619 24H32V0H16.7619V24Z" fill="#DE233C"/>
<mask id="path-4-outside-1_67_2806" maskUnits="userSpaceOnUse" x="2.04761" y="2.2002" width="7" height="7" fill="black">
<rect fill="white" x="2.04761" y="2.2002" width="7" height="7"/>
<path fill-rule="evenodd" clip-rule="evenodd" d="M6.09534 3.2002H4.57153V4.8002H3.04761V6.4002H4.57153V8.00019H6.09534V6.4002H7.61904V4.8002H6.09534V3.2002Z"/>
</mask>
<path fill-rule="evenodd" clip-rule="evenodd" d="M6.09534 3.2002H4.57153V4.8002H3.04761V6.4002H4.57153V8.00019H6.09534V6.4002H7.61904V4.8002H6.09534V3.2002Z" fill="#CCCCCD"/>
<path d="M4.57153 3.2002V2.53353H3.90487V3.2002H4.57153ZM6.09534 3.2002H6.76201V2.53353H6.09534V3.2002ZM4.57153 4.8002V5.46686H5.2382V4.8002H4.57153ZM3.04761 4.8002V4.13353H2.38094V4.8002H3.04761ZM3.04761 6.4002H2.38094V7.06686H3.04761V6.4002ZM4.57153 6.4002H5.2382V5.73353H4.57153V6.4002ZM4.57153 8.00019H3.90487V8.66686H4.57153V8.00019ZM6.09534 8.00019V8.66686H6.76201V8.00019H6.09534ZM6.09534 6.4002V5.73353H5.42868V6.4002H6.09534ZM7.61904 6.4002V7.06686H8.2857V6.4002H7.61904ZM7.61904 4.8002H8.2857V4.13353H7.61904V4.8002ZM6.09534 4.8002H5.42868V5.46686H6.09534V4.8002ZM4.57153 3.86686H6.09534V2.53353H4.57153V3.86686ZM5.2382 4.8002V3.2002H3.90487V4.8002H5.2382ZM3.04761 5.46686H4.57153V4.13353H3.04761V5.46686ZM3.71427 6.4002V4.8002H2.38094V6.4002H3.71427ZM4.57153 5.73353H3.04761V7.06686H4.57153V5.73353ZM5.2382 8.00019V6.4002H3.90487V8.00019H5.2382ZM6.09534 7.33353H4.57153V8.66686H6.09534V7.33353ZM5.42868 6.4002V8.00019H6.76201V6.4002H5.42868ZM7.61904 5.73353H6.09534V7.06686H7.61904V5.73353ZM6.95237 4.8002V6.4002H8.2857V4.8002H6.95237ZM6.09534 5.46686H7.61904V4.13353H6.09534V5.46686ZM5.42868 3.2002V4.8002H6.76201V3.2002H5.42868Z" fill="#7B716A" fill-opacity="0.66" mask="url(#path-4-outside-1_67_2806)"/>
<path fill-rule="evenodd" clip-rule="evenodd" d="M5.33344 6.3998C5.75423 6.3998 6.09534 6.04163 6.09534 5.5998C6.09534 5.15798 5.75423 4.7998 5.33344 4.7998C4.91265 4.7998 4.57153 5.15798 4.57153 5.5998C4.57153 6.04163 4.91265 6.3998 5.33344 6.3998Z" fill="#7B716A"/>
</g>
</svg>
