<svg width="32" height="24" viewBox="0 0 32 24" fill="none" xmlns="http://www.w3.org/2000/svg">
<rect x="0.25" y="0.25" width="31.5" height="23.5" rx="1.75" fill="white" stroke="#F5F5F5" stroke-width="0.5"/>
<mask id="mask0_67_2765" style="mask-type:luminance" maskUnits="userSpaceOnUse" x="0" y="0" width="32" height="24">
<rect x="0.25" y="0.25" width="31.5" height="23.5" rx="1.75" fill="white" stroke="white" stroke-width="0.5"/>
</mask>
<g mask="url(#mask0_67_2765)">
<rect x="21.3333" width="10.6667" height="24" fill="#E3283E"/>
<path fill-rule="evenodd" clip-rule="evenodd" d="M0 24H10.6667V0H0V24Z" fill="#128A60"/>
<path d="M13.6191 11.2002C13.6191 10.832 13.3206 10.5335 12.9524 10.5335C12.5842 10.5335 12.2857 10.832 12.2857 11.2002H13.6191ZM14.1258 14.5393C14.4403 14.7309 14.8505 14.6313 15.042 14.3168C15.2336 14.0024 15.134 13.5922 14.8196 13.4006L14.1258 14.5393ZM17.2682 13.3445C16.9625 13.5498 16.8811 13.964 17.0864 14.2696C17.2917 14.5753 17.7058 14.6567 18.0115 14.4514L17.2682 13.3445ZM19.7143 11.2002C19.7143 10.832 19.4158 10.5335 19.0476 10.5335C18.6794 10.5335 18.381 10.832 18.381 11.2002H19.7143ZM12.2857 11.2002C12.2857 12.6148 13.0174 13.864 14.1258 14.5393L14.8196 13.4006C14.11 12.9683 13.6191 12.1515 13.6191 11.2002H12.2857ZM18.0115 14.4514C19.0424 13.7591 19.7143 12.5558 19.7143 11.2002H18.381C18.381 12.1115 17.9304 12.8998 17.2682 13.3445L18.0115 14.4514Z" fill="#8C9157"/>
<path fill-rule="evenodd" clip-rule="evenodd" d="M15.9999 12.8C16.8415 12.8 17.5237 11.7255 17.5237 10.4C17.5237 9.07452 16.8415 8 15.9999 8C15.1583 8 14.4761 9.07452 14.4761 10.4C14.4761 11.7255 15.1583 12.8 15.9999 12.8Z" fill="#C59262"/>
</g>
</svg>
