<svg width="32" height="24" viewBox="0 0 32 24" fill="none" xmlns="http://www.w3.org/2000/svg">
<rect width="32" height="24" rx="2" fill="white"/>
<mask id="mask0_67_2732" style="mask-type:luminance" maskUnits="userSpaceOnUse" x="0" y="0" width="32" height="24">
<rect width="32" height="24" rx="2" fill="white"/>
</mask>
<g mask="url(#mask0_67_2732)">
<path fill-rule="evenodd" clip-rule="evenodd" d="M32 0H15.2381V1.6H32V0ZM31.9999 3.2002H15.238V4.8002H31.9999V3.2002ZM15.2381 6.4H32V8H15.2381V6.4ZM32 9.6H15.2381V11.2H32V9.6ZM0 12.7998H32V14.3998H0V12.7998ZM32 16H0V17.6H32V16ZM0 19.2002H32V20.8002H0V19.2002ZM32 22.4H0V24H32V22.4Z" fill="#E1244A"/>
<rect width="18.2857" height="12.8" fill="#0C3F8E"/>
<path fill-rule="evenodd" clip-rule="evenodd" d="M7.61905 11.2001C8.69939 11.2001 9.69219 10.8066 10.4746 10.1487C10.06 10.3111 9.61132 10.3999 9.14286 10.3999C7.03892 10.3999 5.33334 8.60904 5.33334 6.3999C5.33334 4.19076 7.03892 2.3999 9.14286 2.3999C9.61099 2.3999 10.0594 2.48856 10.4737 2.65076C9.69144 1.99329 8.69898 1.6001 7.61905 1.6001C5.09432 1.6001 3.04762 3.74913 3.04762 6.4001C3.04762 9.05107 5.09432 11.2001 7.61905 11.2001ZM10.8682 9.2832L12.1905 7.7121L13.5128 9.2832L13.1674 7.21812L15.1617 7.11217L13.4087 6.10815L14.5732 4.40493L12.7326 5.21803L12.1905 3.2001L11.6483 5.21803L9.80775 4.40493L10.9723 6.10815L9.21927 7.11217L11.2136 7.21812L10.8682 9.2832Z" fill="#FFD34F"/>
</g>
</svg>
