<svg width="32" height="24" viewBox="0 0 32 24" fill="none" xmlns="http://www.w3.org/2000/svg">
<rect width="32" height="24" rx="2" fill="white"/>
<mask id="mask0_67_2827" style="mask-type:luminance" maskUnits="userSpaceOnUse" x="0" y="0" width="32" height="24">
<rect width="32" height="24" rx="2" fill="white"/>
</mask>
<g mask="url(#mask0_67_2827)">
<path fill-rule="evenodd" clip-rule="evenodd" d="M0 24.0001H32V17.6001H0V24.0001Z" fill="#FFE547"/>
<path fill-rule="evenodd" clip-rule="evenodd" d="M0 6.4H32V0H0V6.4Z" fill="#118C81"/>
<path fill-rule="evenodd" clip-rule="evenodd" d="M0 17.5999H32V6.3999H0V17.5999Z" fill="white"/>
<path fill-rule="evenodd" clip-rule="evenodd" d="M0 16H32V8H0V16Z" fill="#262626"/>
<path fill-rule="evenodd" clip-rule="evenodd" d="M0 0L15.2381 12L0 24V0Z" fill="#EF2147"/>
<path fill-rule="evenodd" clip-rule="evenodd" d="M5.33345 13.5289L3.09427 15.2361L3.94862 12.4725L1.71038 10.7639L4.47758 10.7631L5.33345 8L6.18932 10.7631L8.95652 10.7639L6.71827 12.4725L7.57263 15.2361L5.33345 13.5289Z" fill="#FDE444"/>
</g>
</svg>
