<svg width="32" height="24" viewBox="0 0 32 24" fill="none" xmlns="http://www.w3.org/2000/svg">
<rect x="0.25" y="0.25" width="31.5" height="23.5" rx="1.75" fill="white" stroke="#F5F5F5" stroke-width="0.5"/>
<path fill-rule="evenodd" clip-rule="evenodd" d="M0 2C0 0.89543 0.895431 -1.40795e-09 2 -2.83572e-10L2.83747 5.68921e-10C2.97425 7.08156e-10 3.10772 0.0420731 3.21978 0.120512L17.8681 10.3744C18.9361 11.1219 18.4071 12.8 17.1035 12.8H9.14286L18.8134 21.6848C19.7083 22.507 19.1266 24 17.9113 24H2C0.895433 24 0 23.1046 0 22V2Z" fill="white"/>
<mask id="mask0_67_2915" style="mask-type:luminance" maskUnits="userSpaceOnUse" x="0" y="0" width="20" height="24">
<path fill-rule="evenodd" clip-rule="evenodd" d="M0 2C0 0.89543 0.895431 -1.40795e-09 2 -2.83572e-10L2.83747 5.68921e-10C2.97425 7.08156e-10 3.10772 0.0420731 3.21978 0.120512L17.8681 10.3744C18.9361 11.1219 18.4071 12.8 17.1035 12.8H9.14286L18.8134 21.6848C19.7083 22.507 19.1266 24 17.9113 24H2C0.895433 24 0 23.1046 0 22V2Z" fill="white"/>
</mask>
<g mask="url(#mask0_67_2915)">
<path d="M2.83789 0.666992L17.4854 10.9209C18.0193 11.2947 17.7553 12.1338 17.1035 12.1338H9.14258C8.86799 12.1339 8.62127 12.3018 8.52148 12.5576C8.42175 12.8136 8.4892 13.1051 8.69141 13.291L18.3623 22.1758C18.8098 22.5869 18.5188 23.333 17.9111 23.333H0.666992V0.666992H2.83789Z" fill="#EE1B44" stroke="#0543A8" stroke-width="1.33333" stroke-linejoin="round"/>
<path fill-rule="evenodd" clip-rule="evenodd" d="M7.82973 9.36066C8.26875 9.23434 8.67348 9.06156 9.03145 8.85108C8.67642 10.2051 7.49527 11.1997 6.09287 11.1997C4.69048 11.1997 3.50932 10.2051 3.1543 8.85108C3.51325 9.06214 3.91924 9.23529 4.35967 9.36171L4.95239 8.79983L3.98352 7.88139L5.28713 7.9513L5.22054 6.58252L6.09525 7.59983L6.96995 6.58252L6.90337 7.9513L8.20697 7.88139L7.23811 8.79983L7.82973 9.36066ZM4.92911 20.5562L6.09539 19.1998L7.26166 20.5562L7.17288 18.7312L8.91102 18.8244L7.61919 17.5998L8.91102 16.3752L7.17288 16.4684L7.26166 14.6434L6.09539 15.9998L4.92911 14.6434L5.01789 16.4684L3.27975 16.3752L4.57158 17.5998L3.27975 18.8244L5.01789 18.7312L4.92911 20.5562Z" fill="white"/>
</g>
</svg>
