<svg width="32" height="24" viewBox="0 0 32 24" fill="none" xmlns="http://www.w3.org/2000/svg">
<rect width="32" height="24" rx="2" fill="white"/>
<mask id="mask0_67_2897" style="mask-type:luminance" maskUnits="userSpaceOnUse" x="0" y="0" width="32" height="24">
<rect width="32" height="24" rx="2" fill="white"/>
</mask>
<g mask="url(#mask0_67_2897)">
<rect width="32" height="24" fill="#0A17A7"/>
<path d="M14.0479 0.633789C14.0477 0.843444 13.949 1.04118 13.7812 1.16699L8.71387 4.9668V6.25098L13.4355 10.5C13.8391 10.8632 13.5819 11.533 13.0391 11.5332C12.911 11.5332 12.7861 11.4918 12.6836 11.415L7.50781 7.5332H6.19531L0.182617 11.4785L-0.333008 11.8174V10.2334L-0.200195 10.1338L5 6.2334V4.94824L-0.222656 0.248047L-0.869141 -0.333008H0.873047L0.961914 -0.266602L6.20605 3.66699H7.51953L13.5312 -0.27832L14.0479 -0.617188V0.633789Z" fill="#FF2E3B" stroke="white" stroke-width="0.666667"/>
<path fill-rule="evenodd" clip-rule="evenodd" d="M0 4V7.2H5.33333V11.3333C5.33333 11.7015 5.63181 12 6 12H7.71429C8.08248 12 8.38095 11.7015 8.38095 11.3333V7.2H13.8095C14.1777 7.2 14.4762 6.90152 14.4762 6.53333V4.66667C14.4762 4.29848 14.1777 4 13.8095 4H8.38095V0H5.33333V4H0Z" fill="white"/>
<path fill-rule="evenodd" clip-rule="evenodd" d="M0 4.8H6.09524V4V0H7.61905V4V4.8H13.7143V6.4H7.61905V7.2V11.2H6.09524V7.2V6.4H0V4.8Z" fill="#FF2E3B"/>
<path fill-rule="evenodd" clip-rule="evenodd" d="M22.8571 20.7999L21.7796 21.1313L22.0952 19.9999L21.7796 18.8685L22.8571 19.1999L23.9346 18.8685L23.619 19.9999L23.9346 21.1313L22.8571 20.7999Z" fill="#CA1931"/>
<path fill-rule="evenodd" clip-rule="evenodd" d="M22.8572 5.6002L21.7797 5.93157L22.0953 4.8002L21.7797 3.66882L22.8572 4.0002L23.9347 3.66882L23.6191 4.8002L23.9347 5.93157L22.8572 5.6002Z" fill="#CA1931"/>
<path fill-rule="evenodd" clip-rule="evenodd" d="M27.4286 10.4L26.3511 10.7314L26.6667 9.6L26.3511 8.46863L27.4286 8.8L28.5061 8.46863L28.1905 9.6L28.5061 10.7314L27.4286 10.4Z" fill="#CA1931"/>
<path fill-rule="evenodd" clip-rule="evenodd" d="M18.2857 12.0001L17.2082 12.3315L17.5238 11.2001L17.2082 10.0687L18.2857 10.4001L19.3632 10.0687L19.0476 11.2001L19.3632 12.3315L18.2857 12.0001Z" fill="#CA1931"/>
</g>
</svg>
