<svg width="32" height="24" viewBox="0 0 32 24" fill="none" xmlns="http://www.w3.org/2000/svg">
<rect x="0.25" y="0.25" width="31.5" height="23.5" rx="1.75" fill="white" stroke="#F5F5F5" stroke-width="0.5"/>
<mask id="mask0_67_3508" style="mask-type:luminance" maskUnits="userSpaceOnUse" x="0" y="0" width="32" height="24">
<rect x="0.25" y="0.25" width="31.5" height="23.5" rx="1.75" fill="white" stroke="white" stroke-width="0.5"/>
</mask>
<g mask="url(#mask0_67_3508)">
<path fill-rule="evenodd" clip-rule="evenodd" d="M0 6.4H32V0H0V6.4Z" fill="#D82332"/>
<path fill-rule="evenodd" clip-rule="evenodd" d="M0 24.0001H32V17.6001H0V24.0001Z" fill="#D82332"/>
<path fill-rule="evenodd" clip-rule="evenodd" d="M14.9343 12.9033L14.6092 13.2216C14.9031 13.3082 15.3108 13.2075 15.4731 12.9033H14.9343Z" fill="#064A89"/>
<path fill-rule="evenodd" clip-rule="evenodd" d="M12.3113 13.12C12.5313 13.351 12.8957 13.324 13.1156 13.1779C13.3358 13.0315 13.4974 13.0222 13.6346 13.0376C13.6491 13.1679 13.6815 13.335 13.7371 13.5002H12.4321C12.3997 13.4155 12.3364 13.2182 12.3113 13.12Z" fill="#064A89"/>
<path fill-rule="evenodd" clip-rule="evenodd" d="M12.5532 13.7372C12.8093 13.6101 13.0712 13.7109 13.1845 13.8025C13.3937 13.9719 13.7394 13.9259 13.9089 13.8298C13.9736 13.9407 14.0522 14.0497 14.147 14.1329H12.7507C12.694 14.0368 12.5713 13.8005 12.5532 13.7372Z" fill="#064A89"/>
<path fill-rule="evenodd" clip-rule="evenodd" d="M18.6266 14.79C18.6879 14.7246 18.7709 14.6169 18.8251 14.54C18.7348 14.5284 18.63 14.4599 18.5185 14.4014C18.3128 14.2935 18.1162 14.2935 17.9412 14.4206C17.6816 14.6091 17.3569 14.6553 17.1044 14.4668C16.8273 14.2599 16.5705 14.3051 16.3541 14.4361C16.1376 14.5668 16.0006 14.5746 15.8707 14.5746C15.7408 14.5746 15.6038 14.5668 15.3873 14.4361C15.1708 14.3051 14.9141 14.2599 14.637 14.4668C14.3845 14.6553 14.0598 14.6091 13.8001 14.4206C13.6251 14.2935 13.4286 14.2935 13.2229 14.4014C13.1113 14.4599 13.0065 14.5284 12.9163 14.54C12.9705 14.6169 13.0534 14.7246 13.1148 14.79H18.6266Z" fill="#064A89"/>
<path fill-rule="evenodd" clip-rule="evenodd" d="M17.9505 15.4334C18.0082 15.395 18.1669 15.268 18.2463 15.2026C18.1597 15.2218 17.9623 15.1543 17.8604 15.0986C17.5644 14.9369 17.3697 14.9524 17.1497 15.0755C16.9296 15.1987 16.6194 15.2642 16.3922 15.1333C16.165 15.0025 16.0025 14.9678 15.8835 14.9678C15.7645 14.9678 15.6021 15.0025 15.3749 15.1333C15.1476 15.2642 14.8374 15.1987 14.6173 15.0755C14.3973 14.9524 14.2026 14.9369 13.9067 15.0986C13.8047 15.1543 13.6074 15.2218 13.5208 15.2026C13.6001 15.268 13.7589 15.395 13.8166 15.4334H17.9505Z" fill="#064A89"/>
<path fill-rule="evenodd" clip-rule="evenodd" d="M16.6496 14.1539C16.5882 14.1193 16.5165 14.0387 16.4511 13.9352C16.3465 13.7696 16.1806 13.6772 15.9317 13.6772C15.6828 13.6772 15.5169 13.7696 15.4122 13.9352C15.3468 14.0387 15.2751 14.1193 15.2139 14.1539H16.6496Z" fill="#064A89"/>
<path fill-rule="evenodd" clip-rule="evenodd" d="M16.2403 13.5601C16.2151 13.5139 16.161 13.3676 16.143 13.2905C16.0852 13.3099 15.9734 13.3175 15.9085 13.3175C15.8435 13.3175 15.7318 13.3099 15.674 13.2905C15.656 13.3676 15.6019 13.5139 15.5766 13.5601H16.2403Z" fill="#064A89"/>
<path fill-rule="evenodd" clip-rule="evenodd" d="M16.8411 12.9033L17.1662 13.2216C16.8723 13.3082 16.4646 13.2075 16.3023 12.9033H16.8411Z" fill="#064A89"/>
<path fill-rule="evenodd" clip-rule="evenodd" d="M19.5424 13.12C19.3224 13.351 18.958 13.324 18.738 13.1779C18.5179 13.0315 18.3562 13.0222 18.2191 13.0376C18.2045 13.1679 18.1722 13.335 18.1165 13.5002H19.4216C19.454 13.4155 19.5171 13.2182 19.5424 13.12Z" fill="#064A89"/>
<path fill-rule="evenodd" clip-rule="evenodd" d="M19.3474 13.7372C19.0912 13.6101 18.8294 13.7109 18.7161 13.8025C18.5069 13.9719 18.1612 13.9259 17.9917 13.8298C17.927 13.9407 17.8483 14.0497 17.7535 14.1329H19.1499C19.2066 14.0368 19.3293 13.8005 19.3474 13.7372Z" fill="#064A89"/>
<path fill-rule="evenodd" clip-rule="evenodd" d="M17.3244 15.6859C16.887 15.8763 16.4083 15.9815 15.9066 15.9815C15.4045 15.9815 14.9261 15.8765 14.4883 15.6856C14.582 15.6741 14.7062 15.6259 14.8063 15.5664C14.9688 15.4702 15.2645 15.4509 15.4052 15.5472C15.5459 15.6434 15.7154 15.7396 15.9066 15.7396C16.0978 15.7396 16.2674 15.6434 16.408 15.5472C16.5487 15.4509 16.8445 15.4702 17.0069 15.5664C17.1069 15.6259 17.2305 15.6744 17.3244 15.6859Z" fill="#064A89"/>
<path fill-rule="evenodd" clip-rule="evenodd" d="M16.7145 8.07231C15.9245 7.89915 15.2139 7.99914 15.2139 8.79205C15.2139 9.56946 15.2139 10.724 15.2139 10.9628C15.2139 11.2013 15.2184 11.2315 15.4844 11.2976C16.0616 11.4409 16.1156 11.4554 16.7433 11.6092V9.37708C16.2528 9.31927 16.0652 9.02559 16.0652 8.6843C16.0652 8.35334 16.2815 8.13773 16.7145 8.07231Z" fill="#514537"/>
<path fill-rule="evenodd" clip-rule="evenodd" d="M14.6901 14.1943C14.25 14.1943 13.7883 13.7863 13.7883 13.0088C13.7883 12.2313 13.7883 11.2537 13.7883 11.0767C13.7883 10.9016 13.8068 10.877 13.7685 10.8362C13.746 10.8122 13.7937 10.7766 13.8262 10.7419C13.8749 10.6899 13.9083 10.6466 13.8425 10.5763C13.7766 10.5061 13.8046 10.4878 13.8461 10.4437C13.8876 10.3993 13.9038 10.3552 13.8641 10.3127C13.8245 10.2704 13.8154 10.257 13.8587 10.2108C13.902 10.1646 13.884 10.1454 13.8479 10.1068C13.8118 10.0683 13.7947 10.0405 13.8407 9.99142C13.8858 9.94329 13.8893 9.93555 13.9417 9.93555C13.994 9.93555 14.1076 9.93555 14.1581 9.93555C14.2087 9.93555 14.2095 9.95193 14.1671 9.99722C14.1121 10.0558 14.0959 10.0789 14.1581 10.1454C14.2203 10.2117 14.2176 10.2339 14.178 10.2762C14.1183 10.3397 14.0922 10.383 14.1527 10.4475C14.2132 10.5119 14.2185 10.5408 14.1725 10.5899C14.1266 10.6389 14.122 10.6823 14.1725 10.7361C14.2113 10.7775 14.214 10.8016 14.214 10.8746C14.214 11.3154 14.214 12.5162 14.214 12.8472C14.214 13.1781 14.4376 13.3783 14.8633 13.3783C15.289 13.3783 15.4333 13.1935 15.5559 13.0704C15.4766 13.663 15.2457 14.1943 14.6901 14.1943Z" fill="#514537"/>
<path fill-rule="evenodd" clip-rule="evenodd" d="M15.9323 12.3061C15.9918 12.3252 16.0495 12.4176 16.0495 12.5177H16.1668C16.1668 12.433 16.1324 12.3022 16.0703 12.2213C16.0693 12.2001 16.0666 12.1819 16.0622 12.1636C16.1054 12.1058 16.1686 12.0134 16.1668 11.9249C16.1656 11.869 16.1036 11.8711 16.0964 11.9154C16.0905 11.9517 16.0676 12.0077 16.0243 12.027C16.0243 11.9557 15.9863 11.8711 15.9323 11.8711C15.8782 11.8711 15.8402 11.9557 15.8402 12.027C15.7969 12.0077 15.7741 11.9517 15.7682 11.9154C15.7609 11.8711 15.6989 11.869 15.6978 11.9249C15.696 12.0134 15.7591 12.1058 15.8024 12.1636C15.7979 12.1819 15.7952 12.2001 15.7943 12.2213C15.7321 12.3022 15.6978 12.433 15.6978 12.5177H15.8151C15.8151 12.4176 15.8728 12.3252 15.9323 12.3061Z" fill="#514537"/>
<path fill-rule="evenodd" clip-rule="evenodd" d="M15.3276 12.3061C15.3871 12.3252 15.4449 12.4176 15.4449 12.5177H15.5621C15.5621 12.433 15.5279 12.3022 15.4656 12.2213C15.4648 12.2001 15.462 12.1819 15.4575 12.1636C15.5008 12.1058 15.5639 12.0134 15.5621 11.9249C15.561 11.869 15.499 11.8711 15.4917 11.9154C15.4858 11.9517 15.4628 12.0077 15.4197 12.027C15.4197 11.9557 15.3818 11.8711 15.3276 11.8711C15.2736 11.8711 15.2357 11.9557 15.2357 12.027C15.1924 12.0077 15.1695 11.9517 15.1635 11.9154C15.1563 11.8711 15.0943 11.869 15.0931 11.9249C15.0913 12.0134 15.1545 12.1058 15.1978 12.1636C15.1933 12.1819 15.1906 12.2001 15.1896 12.2213C15.1275 12.3022 15.0931 12.433 15.0931 12.5177H15.2104C15.2104 12.4176 15.2681 12.3252 15.3276 12.3061Z" fill="#514537"/>
<path fill-rule="evenodd" clip-rule="evenodd" d="M14.7226 12.3061C14.7821 12.3252 14.8398 12.4176 14.8398 12.5177H14.9571C14.9571 12.433 14.9228 12.3022 14.8606 12.2213C14.8596 12.2001 14.857 12.1819 14.8525 12.1636C14.8958 12.1058 14.9589 12.0134 14.9571 11.9249C14.9559 11.869 14.894 11.8711 14.8867 11.9154C14.8808 11.9517 14.8578 12.0077 14.8145 12.027C14.8145 11.9557 14.7767 11.8711 14.7226 11.8711C14.6684 11.8711 14.6306 11.9557 14.6306 12.027C14.5873 12.0077 14.5644 11.9517 14.5585 11.9154C14.5513 11.8711 14.4892 11.869 14.4881 11.9249C14.4863 12.0134 14.5494 12.1058 14.5927 12.1636C14.5883 12.1819 14.5855 12.2001 14.5846 12.2213C14.5223 12.3022 14.4881 12.433 14.4881 12.5177H14.6053C14.6053 12.4176 14.6631 12.3252 14.7226 12.3061Z" fill="#514537"/>
<path fill-rule="evenodd" clip-rule="evenodd" d="M16.5369 12.3061C16.4774 12.3252 16.4197 12.4176 16.4197 12.5177H16.3024C16.3024 12.433 16.3366 12.3022 16.3989 12.2213C16.3998 12.2001 16.4025 12.1819 16.4071 12.1636C16.3637 12.1058 16.3006 12.0134 16.3024 11.9249C16.3036 11.869 16.3655 11.8711 16.3728 11.9154C16.3787 11.9517 16.4017 12.0077 16.4449 12.027C16.4449 11.9557 16.4828 11.8711 16.5369 11.8711C16.5911 11.8711 16.6289 11.9557 16.6289 12.027C16.6721 12.0077 16.6951 11.9517 16.701 11.9154C16.7083 11.8711 16.7702 11.869 16.7714 11.9249C16.7732 12.0134 16.7101 12.1058 16.6668 12.1636C16.6713 12.1819 16.674 12.2001 16.6749 12.2213C16.7372 12.3022 16.7714 12.433 16.7714 12.5177H16.6541C16.6541 12.4176 16.5964 12.3252 16.5369 12.3061Z" fill="#514537"/>
<path fill-rule="evenodd" clip-rule="evenodd" d="M17.1415 12.3061C17.082 12.3252 17.0243 12.4176 17.0243 12.5177H16.907C16.907 12.433 16.9414 12.3022 17.0035 12.2213C17.0045 12.2001 17.0072 12.1819 17.0116 12.1636C16.9683 12.1058 16.9052 12.0134 16.907 11.9249C16.9081 11.869 16.9702 11.8711 16.9774 11.9154C16.9833 11.9517 17.0062 12.0077 17.0495 12.027C17.0495 11.9557 17.0875 11.8711 17.1415 11.8711C17.1957 11.8711 17.2336 11.9557 17.2336 12.027C17.2769 12.0077 17.2997 11.9517 17.3056 11.9154C17.3129 11.8711 17.3748 11.869 17.376 11.9249C17.3778 12.0134 17.3147 12.1058 17.2714 12.1636C17.2759 12.1819 17.2785 12.2001 17.2795 12.2213C17.3418 12.3022 17.376 12.433 17.376 12.5177H17.2588C17.2588 12.4176 17.201 12.3252 17.1415 12.3061Z" fill="#514537"/>
<path fill-rule="evenodd" clip-rule="evenodd" d="M14.3675 12.645H17.5418V12.805H14.3675V12.645Z" fill="#514537"/>
<path fill-rule="evenodd" clip-rule="evenodd" d="M17.1681 14.1943C17.6082 14.1943 18.07 13.7863 18.07 13.0088C18.07 12.2313 18.07 11.2537 18.07 11.0767C18.07 10.9016 18.0515 10.877 18.0898 10.8362C18.1123 10.8122 18.0645 10.7766 18.0321 10.7419C17.9834 10.6899 17.95 10.6466 18.0158 10.5763C18.0817 10.5061 18.0536 10.4878 18.0123 10.4437C17.9707 10.3993 17.9545 10.3552 17.9941 10.3127C18.0338 10.2704 18.0429 10.257 17.9996 10.2108C17.9563 10.1646 17.9743 10.1454 18.0103 10.1068C18.0465 10.0683 18.0636 10.0405 18.0176 9.99142C17.9725 9.94329 17.969 9.93555 17.9166 9.93555C17.8642 9.93555 17.7507 9.93555 17.7001 9.93555C17.6497 9.93555 17.6487 9.95193 17.6912 9.99722C17.7462 10.0558 17.7624 10.0789 17.7001 10.1454C17.638 10.2117 17.6406 10.2339 17.6803 10.2762C17.7399 10.3397 17.7659 10.383 17.7056 10.4475C17.6451 10.5119 17.6397 10.5408 17.6857 10.5899C17.7317 10.6389 17.7363 10.6823 17.6857 10.7361C17.6469 10.7775 17.6443 10.8016 17.6443 10.8746C17.6443 11.3154 17.6443 12.5162 17.6443 12.8472C17.6443 13.1781 17.4205 13.3783 16.995 13.3783C16.5693 13.3783 16.4251 13.1935 16.3023 13.0704C16.3817 13.663 16.6125 14.1943 17.1681 14.1943Z" fill="#514537"/>
<path fill-rule="evenodd" clip-rule="evenodd" d="M14.3675 11.6093C14.3675 11.6093 14.3676 11.4958 14.3676 11.355L15.0022 11.6094L14.3675 11.6093Z" fill="#EEA339"/>
<path fill-rule="evenodd" clip-rule="evenodd" d="M13.6104 11.7273L12.1905 11.523C12.2317 11.1984 12.3097 10.8819 12.4219 10.5806L13.6104 11.0839V11.7273Z" fill="#EEA339"/>
<path fill-rule="evenodd" clip-rule="evenodd" d="M16.5443 9.23497L16.7967 8.12891C17.092 8.20529 17.3791 8.32039 17.6512 8.47213L16.8372 10.1346L16.8401 9.29988C16.7461 9.30039 16.602 9.28504 16.5443 9.23497Z" fill="#EEA339"/>
<path fill-rule="evenodd" clip-rule="evenodd" d="M13.6439 11.8354L12.1975 11.7417C12.1789 12.0653 12.1974 12.3919 12.253 12.7141C12.253 12.7141 13.6439 12.7234 13.6439 12.7141V11.8354Z" fill="#EEA339"/>
<path fill-rule="evenodd" clip-rule="evenodd" d="M13.6295 10.7948C13.5827 10.7294 13.6116 10.6945 13.662 10.6598C13.7126 10.6252 13.7053 10.5983 13.6802 10.5483C13.6549 10.4983 13.6296 10.4443 13.6765 10.3905C13.7235 10.3366 13.7053 10.3135 13.6693 10.275C13.6333 10.2366 13.6296 10.1943 13.662 10.1634C13.6946 10.1326 13.6873 10.1095 13.6658 10.0788C13.644 10.0479 13.6016 9.9855 13.6395 9.94511L13.0495 9.41943C12.8545 9.66821 12.6876 9.94279 12.5533 10.2372L13.6295 10.7948Z" fill="#EEA339"/>
<path fill-rule="evenodd" clip-rule="evenodd" d="M15.0432 11.0811L14.3399 10.3535C14.4391 10.2477 14.449 10.2304 14.3787 10.1553C14.3021 10.0735 14.2993 10.065 14.4553 9.89844C14.5085 9.84179 14.4787 9.80218 14.403 9.80218C14.3273 9.80218 13.9791 9.80218 13.9395 9.80218C13.8998 9.80218 13.8686 9.80437 13.8396 9.83534L13.2789 9.25625C13.4929 9.02128 13.7318 8.81625 13.9899 8.64502L15.0432 10.4521V11.0811Z" fill="#EEA339"/>
<path fill-rule="evenodd" clip-rule="evenodd" d="M14.3117 11.1919C14.3117 11.0111 14.3118 10.8322 14.3118 10.8068C14.3118 10.7528 14.3082 10.7317 14.2685 10.6893C14.2289 10.647 14.2487 10.6268 14.2794 10.5806L14.9465 11.1735V11.5216L14.3117 11.1919Z" fill="#EEA339"/>
<path fill-rule="evenodd" clip-rule="evenodd" d="M14.9366 10.1355C14.9366 9.78826 14.9366 9.4671 14.9366 9.28207C14.9366 8.72787 14.9657 8.45071 15.0414 8.39497L14.9809 8.12891C14.6847 8.21394 14.3976 8.32904 14.1255 8.48078L14.9366 10.1355Z" fill="#EEA339"/>
<path fill-rule="evenodd" clip-rule="evenodd" d="M17.5417 11.6093C17.5417 11.6093 17.5415 11.4958 17.5415 11.355L16.907 11.6094L17.5417 11.6093Z" fill="#EEA339"/>
<path fill-rule="evenodd" clip-rule="evenodd" d="M18.2373 11.7273L19.6573 11.523C19.616 11.1984 19.538 10.8819 19.4258 10.5806L18.2373 11.0839V11.7273Z" fill="#EEA339"/>
<path fill-rule="evenodd" clip-rule="evenodd" d="M18.2374 11.8354L19.6836 11.7417C19.7023 12.0653 19.6839 12.3919 19.6281 12.7141C19.6281 12.7141 18.2374 12.7234 18.2374 12.7141V11.8354Z" fill="#EEA339"/>
<path fill-rule="evenodd" clip-rule="evenodd" d="M18.1918 10.7948C18.2387 10.7294 18.2097 10.6945 18.1592 10.6598C18.1087 10.6252 18.1159 10.5983 18.1411 10.5483C18.1664 10.4983 18.1917 10.4443 18.1447 10.3905C18.0978 10.3366 18.1159 10.3135 18.152 10.275C18.188 10.2366 18.1917 10.1943 18.1592 10.1634C18.1267 10.1326 18.134 10.1095 18.1555 10.0788C18.1773 10.0479 18.2196 9.9855 18.1817 9.94511L18.7718 9.41943C18.9667 9.66821 19.1335 9.94279 19.2679 10.2372L18.1918 10.7948Z" fill="#EEA339"/>
<path fill-rule="evenodd" clip-rule="evenodd" d="M16.907 11.0811L17.6102 10.3535C17.511 10.2477 17.501 10.2304 17.5714 10.1553C17.6481 10.0735 17.6509 10.065 17.4949 9.89844C17.4415 9.84179 17.4714 9.80218 17.5471 9.80218C17.6228 9.80218 17.971 9.80218 18.0107 9.80218C18.0503 9.80218 18.0815 9.80437 18.1106 9.83534L18.6712 9.25625C18.4573 9.02128 18.2183 8.81625 17.9602 8.64502L16.907 10.4521V11.0811Z" fill="#EEA339"/>
<path fill-rule="evenodd" clip-rule="evenodd" d="M17.5418 11.1919C17.5418 11.0111 17.5417 10.8322 17.5417 10.8068C17.5417 10.7528 17.5453 10.7317 17.585 10.6893C17.6247 10.647 17.6048 10.6268 17.5741 10.5806L16.907 11.1735V11.5216L17.5418 11.1919Z" fill="#EEA339"/>
<path fill-rule="evenodd" clip-rule="evenodd" d="M13.8836 10.8389C13.9088 10.8658 13.9197 10.8927 13.9197 10.9581C13.9197 11.0235 13.9197 12.4553 13.9197 13.0172C13.9197 13.7022 14.3093 14.0833 14.7097 14.0833C15.0776 14.0833 15.3193 13.7253 15.4456 13.3097C15.2833 13.4444 15.0452 13.4867 14.8178 13.4867C14.5545 13.4867 14.1289 13.2982 14.1289 12.8902C14.1289 12.5131 14.1289 11.1159 14.1289 10.8927C14.1289 10.8389 14.0784 10.8389 13.8836 10.8389Z" fill="#D82332"/>
<path fill-rule="evenodd" clip-rule="evenodd" d="M16.1841 8.14072C15.6811 8.0864 15.2145 8.19801 15.2145 8.93014C15.2145 9.69995 15.2145 10.6389 15.2145 10.8753C15.2145 11.2001 15.1906 11.1615 15.4485 11.2298C15.9165 11.3536 15.9696 11.3694 16.5373 11.5077V9.52859C16.0526 9.47195 15.8425 9.13324 15.8425 8.75814C15.8425 8.45969 15.9661 8.17879 16.1841 8.14072Z" fill="#D82332"/>
<path fill-rule="evenodd" clip-rule="evenodd" d="M17.9852 10.8389C17.9599 10.8658 17.949 10.8927 17.949 10.9581C17.949 11.0235 17.949 12.4553 17.949 13.0172C17.949 13.7022 17.5595 14.0833 17.1591 14.0833C16.7912 14.0833 16.5494 13.7253 16.4232 13.3097C16.5856 13.4444 16.8236 13.4867 17.051 13.4867C17.3142 13.4867 17.7398 13.2982 17.7398 12.8902C17.7398 12.5131 17.7398 11.1159 17.7398 10.8927C17.7398 10.8389 17.7904 10.8389 17.9852 10.8389Z" fill="#D82332"/>
<mask id="mask1_67_3508" style="mask-type:luminance" maskUnits="userSpaceOnUse" x="12" y="8" width="8" height="8">
<path fill-rule="evenodd" clip-rule="evenodd" d="M16 16C18.1039 16 19.8095 14.2091 19.8095 12C19.8095 9.79086 18.1039 8 16 8C13.8961 8 12.1905 9.79086 12.1905 12C12.1905 14.2091 13.8961 16 16 16Z" fill="white"/>
</mask>
<g mask="url(#mask1_67_3508)">
<path fill-rule="evenodd" clip-rule="evenodd" d="M16 22.3999C18.1039 22.3999 19.8095 20.609 19.8095 18.3999C19.8095 16.1908 18.1039 14.3999 16 14.3999C13.8961 14.3999 12.1905 16.1908 12.1905 18.3999C12.1905 20.609 13.8961 22.3999 16 22.3999Z" fill="#064A89"/>
</g>
</g>
</svg>
