<svg width="32" height="24" viewBox="0 0 32 24" fill="none" xmlns="http://www.w3.org/2000/svg">
<rect width="32" height="24" rx="2" fill="white"/>
<mask id="mask0_67_2978" style="mask-type:luminance" maskUnits="userSpaceOnUse" x="0" y="0" width="32" height="24">
<rect width="32" height="24" rx="2" fill="white"/>
</mask>
<g mask="url(#mask0_67_2978)">
<rect width="32" height="24" fill="#262626"/>
<path fill-rule="evenodd" clip-rule="evenodd" d="M0 0H32V24L0 0Z" fill="#E8283F"/>
<path fill-rule="evenodd" clip-rule="evenodd" d="M7.61906 20.0001L6.54156 20.3315L6.85715 19.2001L6.54156 18.0687L7.61906 18.4001L8.69655 18.0687L8.38096 19.2001L8.69655 20.3315L7.61906 20.0001Z" fill="white"/>
<path fill-rule="evenodd" clip-rule="evenodd" d="M7.61906 10.4L6.54156 10.7314L6.85715 9.6L6.54156 8.46863L7.61906 8.8L8.69655 8.46863L8.38096 9.6L8.69655 10.7314L7.61906 10.4Z" fill="white"/>
<path fill-rule="evenodd" clip-rule="evenodd" d="M3.80953 14.4L2.73203 14.7314L3.04763 13.6L2.73203 12.4686L3.80953 12.8L4.88703 12.4686L4.57143 13.6L4.88703 14.7314L3.80953 14.4Z" fill="white"/>
<path fill-rule="evenodd" clip-rule="evenodd" d="M10.6667 13.6002L9.58917 13.9316L9.90476 12.8002L9.58917 11.6688L10.6667 12.0002L11.7442 11.6688L11.4286 12.8002L11.7442 13.9316L10.6667 13.6002Z" fill="white"/>
<path fill-rule="evenodd" clip-rule="evenodd" d="M21.5558 11.1189C21.3733 11.004 21.2254 10.7332 21.2254 10.5166L21.2254 9.04218C21.2254 8.82451 21.0763 8.70025 20.8506 8.77925L19.9841 9.08253C19.777 9.15499 19.46 9.16152 19.2343 9.08253L18.3678 8.77925C18.1608 8.70678 18.1378 8.5568 18.3233 8.43995L20.3564 7.15908C20.5388 7.04415 20.637 6.79437 20.5617 6.55738L20.2729 5.64754C20.2039 5.43015 20.2971 5.30614 20.5228 5.38513L21.3893 5.68842C21.5964 5.76088 21.8511 5.66755 21.9624 5.4728L23.1823 3.33801C23.2917 3.14647 23.4302 3.1478 23.5054 3.3848L23.7942 4.29464C23.8632 4.51202 23.8695 4.84486 23.7942 5.08185L23.5054 5.9917C23.4364 6.20908 23.5495 6.3853 23.7558 6.3853H25.1601C25.3674 6.3853 25.6223 6.53737 25.7336 6.73212L26.9535 8.86691C27.0629 9.05845 26.9749 9.25084 26.7771 9.29239L24.8325 9.70076C24.6256 9.7442 24.4226 9.96499 24.383 10.1727L23.9941 12.2146C23.9527 12.4318 23.7744 12.5166 23.5889 12.3997L21.5558 11.1189Z" fill="#FFD84E"/>
</g>
</svg>
