<svg width="32" height="24" viewBox="0 0 32 24" fill="none" xmlns="http://www.w3.org/2000/svg">
<rect x="0.25" y="0.25" width="31.5" height="23.5" rx="1.75" fill="white" stroke="#F5F5F5" stroke-width="0.5"/>
<mask id="mask0_67_2958" style="mask-type:luminance" maskUnits="userSpaceOnUse" x="0" y="0" width="32" height="24">
<rect x="0.25" y="0.25" width="31.5" height="23.5" rx="1.75" fill="white" stroke="white" stroke-width="0.5"/>
</mask>
<g mask="url(#mask0_67_2958)">
<path fill-rule="evenodd" clip-rule="evenodd" d="M0 24V24.0002H32V11.2002H14.2225L15.2381 12L0 24Z" fill="#DD1C34"/>
<path fill-rule="evenodd" clip-rule="evenodd" d="M32 11.2H14.2222L0 0H32V11.2Z" fill="#0D4BC3"/>
<path fill-rule="evenodd" clip-rule="evenodd" d="M2.28562 4.8002C2.70641 4.8002 3.04752 4.44202 3.04752 4.0002C3.04752 3.55837 2.70641 3.2002 2.28562 3.2002C1.86483 3.2002 1.52371 3.55837 1.52371 4.0002C1.52371 4.44202 1.86483 4.8002 2.28562 4.8002ZM11.4285 12.8002C11.8493 12.8002 12.1904 12.442 12.1904 12.0002C12.1904 11.5584 11.8493 11.2002 11.4285 11.2002C11.0077 11.2002 10.6666 11.5584 10.6666 12.0002C10.6666 12.442 11.0077 12.8002 11.4285 12.8002ZM3.04752 20.0002C3.04752 20.442 2.70641 20.8002 2.28562 20.8002C1.86483 20.8002 1.52371 20.442 1.52371 20.0002C1.52371 19.5584 1.86483 19.2002 2.28562 19.2002C2.70641 19.2002 3.04752 19.5584 3.04752 20.0002ZM5.17918 13.5923L3.87539 15.6955L4.36987 13.2401C4.29021 13.1718 4.21726 13.0952 4.1522 13.0115L1.81369 13.5307L3.81706 12.1615C3.81201 12.1085 3.80943 12.0548 3.80943 12.0004C3.80943 11.9458 3.81204 11.8917 3.81713 11.8385L1.81369 10.4693L4.15273 10.9886C4.21769 10.9051 4.29051 10.8287 4.37001 10.7605L3.87539 8.30448L5.17965 10.4084C5.23016 10.4031 5.28139 10.4004 5.33324 10.4004C5.38508 10.4004 5.43632 10.4031 5.48683 10.4084L6.79108 8.30448L6.29646 10.7605C6.37596 10.8287 6.44878 10.9051 6.51374 10.9886L8.85278 10.4693L6.84934 11.8385C6.85444 11.8917 6.85705 11.9458 6.85705 12.0004C6.85705 12.0548 6.85446 12.1085 6.84941 12.1615L8.85278 13.5307L6.51427 13.0115C6.44922 13.0952 6.37626 13.1718 6.2966 13.2401L6.79108 15.6955L5.48729 13.5923C5.43663 13.5977 5.38524 13.6004 5.33324 13.6004C5.28124 13.6004 5.22984 13.5977 5.17918 13.5923Z" fill="#FDD64D"/>
</g>
</svg>
