<svg width="32" height="24" viewBox="0 0 32 24" fill="none" xmlns="http://www.w3.org/2000/svg">
<rect x="0.25" y="0.25" width="31.5" height="23.5" rx="1.75" fill="white" stroke="#F5F5F5" stroke-width="0.5"/>
<mask id="mask0_67_3000" style="mask-type:luminance" maskUnits="userSpaceOnUse" x="0" y="0" width="32" height="24">
<rect x="0.25" y="0.25" width="31.5" height="23.5" rx="1.75" fill="white" stroke="white" stroke-width="0.5"/>
</mask>
<g mask="url(#mask0_67_3000)">
<path fill-rule="evenodd" clip-rule="evenodd" d="M0 0H32V4.7998H0V0ZM0 9.5998H32V14.4H0V9.5998ZM0 19.2V24H32V19.2H0Z" fill="#FA2222"/>
<path fill-rule="evenodd" clip-rule="evenodd" d="M0 0L15.2381 12L0 24V0Z" fill="#1D63F9"/>
<g filter="url(#filter0_d_67_3000)">
<path fill-rule="evenodd" clip-rule="evenodd" d="M5.33345 13.5289L3.09427 15.2361L3.94862 12.4725L1.71038 10.7639L4.47758 10.7631L5.33345 8L6.18932 10.7631L8.95652 10.7639L6.71827 12.4725L7.57263 15.2361L5.33345 13.5289Z" fill="url(#paint0_linear_67_3000)"/>
</g>
</g>
<defs>
<filter id="filter0_d_67_3000" x="1.71038" y="8" width="7.24614" height="8.23584" filterUnits="userSpaceOnUse" color-interpolation-filters="sRGB">
<feFlood flood-opacity="0" result="BackgroundImageFix"/>
<feColorMatrix in="SourceAlpha" type="matrix" values="0 0 0 0 0 0 0 0 0 0 0 0 0 0 0 0 0 0 127 0" result="hardAlpha"/>
<feOffset dy="1"/>
<feColorMatrix type="matrix" values="0 0 0 0 0 0 0 0 0 0 0 0 0 0 0 0 0 0 0.06 0"/>
<feBlend mode="normal" in2="BackgroundImageFix" result="effect1_dropShadow_67_3000"/>
<feBlend mode="normal" in="SourceGraphic" in2="effect1_dropShadow_67_3000" result="shape"/>
</filter>
<linearGradient id="paint0_linear_67_3000" x1="1.52393" y1="8" x2="1.52393" y2="16" gradientUnits="userSpaceOnUse">
<stop stop-color="white"/>
<stop offset="1" stop-color="#F0F0F0"/>
</linearGradient>
</defs>
</svg>
