<svg width="32" height="24" viewBox="0 0 32 24" fill="none" xmlns="http://www.w3.org/2000/svg">
<rect width="32" height="24" rx="2" fill="white"/>
<mask id="mask0_67_3036" style="mask-type:luminance" maskUnits="userSpaceOnUse" x="0" y="0" width="32" height="24">
<rect width="32" height="24" rx="2" fill="white"/>
</mask>
<g mask="url(#mask0_67_3036)">
<g filter="url(#filter0_d_67_3036)">
<path fill-rule="evenodd" clip-rule="evenodd" d="M0 24.0001H32V17.6001H0V24.0001Z" fill="#2D754D"/>
</g>
<path fill-rule="evenodd" clip-rule="evenodd" d="M0 11.2H32V0H0V11.2Z" fill="#25B1EB"/>
<path fill-rule="evenodd" clip-rule="evenodd" d="M0 17.6002H32V11.2002H0V17.6002Z" fill="#FECB2F"/>
<path fill-rule="evenodd" clip-rule="evenodd" d="M24.381 7.1999L23.2147 8.55632L23.3035 6.73127L21.5653 6.82449L22.8572 5.5999L21.5653 4.37532L23.3035 4.46853L23.2147 2.64349L24.381 3.9999L25.5472 2.64349L25.4585 4.46853L27.1966 4.37532L25.9048 5.5999L27.1966 6.82449L25.4585 6.73127L25.5472 8.55632L24.381 7.1999Z" fill="#FECB2F"/>
</g>
<defs>
<filter id="filter0_d_67_3036" x="0" y="17.6001" width="32" height="6.3999" filterUnits="userSpaceOnUse" color-interpolation-filters="sRGB">
<feFlood flood-opacity="0" result="BackgroundImageFix"/>
<feColorMatrix in="SourceAlpha" type="matrix" values="0 0 0 0 0 0 0 0 0 0 0 0 0 0 0 0 0 0 127 0" result="hardAlpha"/>
<feOffset/>
<feColorMatrix type="matrix" values="0 0 0 0 0 0 0 0 0 0 0 0 0 0 0 0 0 0 0.06 0"/>
<feBlend mode="normal" in2="BackgroundImageFix" result="effect1_dropShadow_67_3036"/>
<feBlend mode="normal" in="SourceGraphic" in2="effect1_dropShadow_67_3036" result="shape"/>
</filter>
</defs>
</svg>
