<svg width="32" height="24" viewBox="0 0 32 24" fill="none" xmlns="http://www.w3.org/2000/svg">
<rect width="32" height="24" rx="2" fill="white"/>
<mask id="mask0_67_2574" style="mask-type:luminance" maskUnits="userSpaceOnUse" x="0" y="0" width="32" height="24">
<rect width="32" height="24" rx="2" fill="white"/>
</mask>
<g mask="url(#mask0_67_2574)">
<rect width="32" height="24" fill="#128C4B"/>
<path fill-rule="evenodd" clip-rule="evenodd" d="M7.61905 14.4001H19.8095V13.103C19.8095 12.6017 20.3422 12.2797 20.7861 12.5128L21.3333 12.8001V14.4001H23.7143C24.0825 14.4001 24.381 14.6986 24.381 15.0668V16.2668C24.381 17.0031 23.784 17.6001 23.0476 17.6001H20.4762C20.108 17.6001 19.8095 17.3016 19.8095 16.9334V16.0001H9.42857C9.24612 16.0001 9.07164 15.9253 8.94581 15.7932L7.61905 14.4001Z" fill="white"/>
<path fill-rule="evenodd" clip-rule="evenodd" d="M7.61905 9.73324C7.61905 9.64765 7.65197 9.56533 7.711 9.50335L8.16202 9.02979C8.28462 8.90105 8.28462 8.69876 8.16202 8.57002L7.711 8.09646C7.65197 8.03448 7.61905 7.95216 7.61905 7.86657V6.73324C7.61905 6.54914 7.76829 6.3999 7.95238 6.3999H8.84798C9.01084 6.3999 9.14286 6.53192 9.14286 6.69478C9.14286 7.00903 9.56887 7.10528 9.70397 6.82156L9.81428 6.58992C9.86955 6.47384 9.98666 6.3999 10.1152 6.3999H11.8571C12.0412 6.3999 12.1905 6.54914 12.1905 6.73324V6.86657C12.1905 7.05066 12.0412 7.1999 11.8571 7.1999H11C10.8159 7.1999 10.6667 7.34914 10.6667 7.53324V7.66657C10.6667 7.85067 10.8159 7.9999 11 7.9999H11.8571C12.0412 7.9999 12.1905 8.14914 12.1905 8.33324V10.8666C12.1905 11.0507 12.0412 11.1999 11.8571 11.1999H11C10.8159 11.1999 10.6667 11.0507 10.6667 10.8666V9.93324C10.6667 9.74914 10.8159 9.59991 11 9.59991H11.0952C11.2793 9.59991 11.4286 9.45067 11.4286 9.26657V9.13324C11.4286 8.94914 11.2793 8.7999 11.0952 8.7999H10.2381C10.054 8.7999 9.90476 8.94914 9.90476 9.13324V10.8666C9.90476 11.0507 9.75552 11.1999 9.57143 11.1999H9.47619C9.2921 11.1999 9.14286 11.0507 9.14286 10.8666V9.93324C9.14286 9.74914 8.99362 9.59991 8.80953 9.59991H8.71429C8.53019 9.59991 8.38095 9.74914 8.38095 9.93324V10.8666C8.38095 11.0507 8.23172 11.1999 8.04762 11.1999H7.95238C7.76829 11.1999 7.61905 11.0507 7.61905 10.8666V9.73324Z" fill="white"/>
<path fill-rule="evenodd" clip-rule="evenodd" d="M19.8095 9.73324C19.8095 9.64765 19.8424 9.56533 19.9015 9.50335L20.3525 9.02979C20.4751 8.90105 20.4751 8.69876 20.3525 8.57002L19.9015 8.09646C19.8424 8.03448 19.8095 7.95216 19.8095 7.86657V6.73324C19.8095 6.54914 19.9588 6.3999 20.1429 6.3999H21.0385C21.2013 6.3999 21.3333 6.53192 21.3333 6.69478C21.3333 7.00903 21.7593 7.10528 21.8944 6.82156L22.0048 6.58992C22.06 6.47384 22.1771 6.3999 22.3057 6.3999H24.0476C24.2317 6.3999 24.381 6.54914 24.381 6.73324V6.86657C24.381 7.05066 24.2317 7.1999 24.0476 7.1999H23.1905C23.0064 7.1999 22.8571 7.34914 22.8571 7.53324V7.66657C22.8571 7.85067 23.0064 7.9999 23.1905 7.9999H24.0476C24.2317 7.9999 24.381 8.14914 24.381 8.33324V10.8666C24.381 11.0507 24.2317 11.1999 24.0476 11.1999H23.1905C23.0064 11.1999 22.8571 11.0507 22.8571 10.8666V9.93324C22.8571 9.74914 23.0064 9.59991 23.1905 9.59991H23.2857C23.4698 9.59991 23.619 9.45067 23.619 9.26657V9.13324C23.619 8.94914 23.4698 8.7999 23.2857 8.7999H22.4286C22.2445 8.7999 22.0952 8.94914 22.0952 9.13324V10.8666C22.0952 11.0507 21.946 11.1999 21.7619 11.1999H21.6667C21.4826 11.1999 21.3333 11.0507 21.3333 10.8666V9.93324C21.3333 9.74914 21.1841 9.59991 21 9.59991H20.9048C20.7207 9.59991 20.5714 9.74914 20.5714 9.93324V10.8666C20.5714 11.0507 20.4222 11.1999 20.2381 11.1999H20.1429C19.9588 11.1999 19.8095 11.0507 19.8095 10.8666V9.73324Z" fill="white"/>
<path fill-rule="evenodd" clip-rule="evenodd" d="M18.2857 7.59616C18.2857 7.81914 18.1667 8.1249 18.0107 8.28872L17.7989 8.51109C17.647 8.6706 17.6429 8.9249 17.7989 9.08872L18.0107 9.31109C18.1626 9.4706 18.2857 9.77113 18.2857 10.0037V10.7962C18.2857 11.0191 18.1226 11.1999 17.9012 11.1999H17.1464C16.9341 11.1999 16.7619 11.0287 16.7619 10.7962V10.0037C16.7619 9.78067 16.6916 9.74756 16.5852 9.971L16.1767 10.8288C16.0791 11.0338 15.8206 11.1999 15.6226 11.1999H14.0917C13.8833 11.1999 13.7143 11.0144 13.7143 10.7999C13.7143 10.579 13.8774 10.3999 14.0988 10.3999H14.8536C15.0659 10.3999 15.2381 10.2144 15.2381 9.99991C15.2381 9.77899 15.075 9.59991 14.8536 9.59991H14.0988C13.8864 9.59991 13.7143 9.42786 13.7143 9.20752V6.79229C13.7143 6.57558 13.8774 6.3999 14.0988 6.3999H14.8536C15.0659 6.3999 15.2381 6.57113 15.2381 6.80365V7.59616C15.2381 7.81914 15.0614 7.9999 14.8571 7.9999C14.6467 7.9999 14.4762 8.18545 14.4762 8.3999C14.4762 8.62082 14.6393 8.7999 14.8607 8.7999H15.6155C15.8278 8.7999 16 8.61158 16 8.40359V6.79621C16 6.57734 16.1767 6.3999 16.381 6.3999C16.5913 6.3999 16.7619 6.57113 16.7619 6.80365V7.59616C16.7619 7.81914 16.9386 7.9999 17.1429 7.9999C17.3533 7.9999 17.5238 7.82868 17.5238 7.59616V6.80365C17.5238 6.58067 17.7005 6.3999 17.9048 6.3999C18.1152 6.3999 18.2857 6.57113 18.2857 6.80365V7.59616Z" fill="white"/>
</g>
</svg>
