<svg width="32" height="24" viewBox="0 0 32 24" fill="none" xmlns="http://www.w3.org/2000/svg">
<rect width="32" height="24" rx="2" fill="white"/>
<mask id="mask0_67_3112" style="mask-type:luminance" maskUnits="userSpaceOnUse" x="0" y="0" width="32" height="24">
<rect width="32" height="24" rx="2" fill="white"/>
</mask>
<g mask="url(#mask0_67_3112)">
<rect width="32" height="24" fill="url(#paint0_linear_67_3112)"/>
<g filter="url(#filter0_d_67_3112)">
<path fill-rule="evenodd" clip-rule="evenodd" d="M0 0H32L0 24V0Z" fill="url(#paint1_linear_67_3112)"/>
</g>
<path fill-rule="evenodd" clip-rule="evenodd" d="M32 0L0 24H32V0Z" fill="#2C7442"/>
<rect width="38.9494" height="28.1807" transform="matrix(0.816063 -0.577963 0.540479 0.841358 -3.16992 23.647)" fill="#FFD646"/>
<path fill-rule="evenodd" clip-rule="evenodd" d="M2.30886 5.21813L2.52268 3.90912L1.61691 2.98206L2.86865 2.79108L3.42845 1.6001L3.98824 2.79108L5.23999 2.98206L4.33422 3.90912L4.54804 5.21813L3.42845 4.6001L2.30886 5.21813ZM9.92803 5.21813L10.1419 3.90912L9.23609 2.98206L10.4878 2.79108L11.0476 1.6001L11.6074 2.79108L12.8592 2.98206L11.9534 3.90912L12.1672 5.21813L11.0476 4.6001L9.92803 5.21813ZM10.1419 8.70892L9.92803 10.0179L11.0476 9.3999L12.1672 10.0179L11.9534 8.70892L12.8592 7.78187L11.6074 7.59088L11.0476 6.3999L10.4878 7.59088L9.23609 7.78187L10.1419 8.70892ZM3.42848 9.3999L2.30889 10.0179L2.52271 8.70892L1.61695 7.78187L2.86869 7.59088L3.42848 6.3999L3.98828 7.59088L5.24002 7.78187L4.33425 8.70892L4.54807 10.0179L3.42848 9.3999ZM6.11838 7.61813L7.23797 7.00009L8.35756 7.61813L8.14374 6.30911L9.04951 5.38206L7.79777 5.19108L7.23797 4.0001L6.67818 5.19108L5.42644 5.38206L6.33221 6.30911L6.11838 7.61813Z" fill="white"/>
</g>
<defs>
<filter id="filter0_d_67_3112" x="0" y="0" width="32" height="24" filterUnits="userSpaceOnUse" color-interpolation-filters="sRGB">
<feFlood flood-opacity="0" result="BackgroundImageFix"/>
<feColorMatrix in="SourceAlpha" type="matrix" values="0 0 0 0 0 0 0 0 0 0 0 0 0 0 0 0 0 0 127 0" result="hardAlpha"/>
<feOffset/>
<feColorMatrix type="matrix" values="0 0 0 0 0 0 0 0 0 0 0 0 0 0 0 0 0 0 0.06 0"/>
<feBlend mode="normal" in2="BackgroundImageFix" result="effect1_dropShadow_67_3112"/>
<feBlend mode="normal" in="SourceGraphic" in2="effect1_dropShadow_67_3112" result="shape"/>
</filter>
<linearGradient id="paint0_linear_67_3112" x1="0" y1="0" x2="0" y2="24" gradientUnits="userSpaceOnUse">
<stop stop-color="#1DBE4F"/>
<stop offset="1" stop-color="#159B3F"/>
</linearGradient>
<linearGradient id="paint1_linear_67_3112" x1="0" y1="0" x2="0" y2="24" gradientUnits="userSpaceOnUse">
<stop stop-color="#0660D4"/>
<stop offset="1" stop-color="#0051BB"/>
</linearGradient>
</defs>
</svg>
