<svg width="32" height="24" viewBox="0 0 32 24" fill="none" xmlns="http://www.w3.org/2000/svg">
<rect x="0.25" y="0.25" width="31.5" height="23.5" rx="1.75" fill="white" stroke="#F5F5F5" stroke-width="0.5"/>
<mask id="mask0_67_3142" style="mask-type:luminance" maskUnits="userSpaceOnUse" x="0" y="0" width="32" height="24">
<rect x="0.25" y="0.25" width="31.5" height="23.5" rx="1.75" fill="white" stroke="white" stroke-width="0.5"/>
</mask>
<g mask="url(#mask0_67_3142)">
<path fill-rule="evenodd" clip-rule="evenodd" d="M0 12.8H32V0H0V12.8Z" fill="#E12237"/>
<path fill-rule="evenodd" clip-rule="evenodd" d="M7.61904 11.2001C8.69937 11.2001 9.69218 10.8066 10.4746 10.1487C10.06 10.3111 9.61131 10.3999 9.14284 10.3999C7.0389 10.3999 5.33332 8.60904 5.33332 6.3999C5.33332 4.19076 7.0389 2.3999 9.14284 2.3999C9.61097 2.3999 10.0594 2.48856 10.4737 2.65076C9.69142 1.99329 8.69896 1.6001 7.61904 1.6001C5.09431 1.6001 3.04761 3.74913 3.04761 6.4001C3.04761 9.05107 5.09431 11.2001 7.61904 11.2001ZM9.14295 5.60029C9.14295 6.04212 8.80183 6.40029 8.38104 6.40029C7.96026 6.40029 7.61914 6.04212 7.61914 5.60029C7.61914 5.15847 7.96026 4.80029 8.38104 4.80029C8.80183 4.80029 9.14295 5.15847 9.14295 5.60029ZM9.90475 9.6001C10.3255 9.6001 10.6667 9.24193 10.6667 8.8001C10.6667 8.35827 10.3255 8.0001 9.90475 8.0001C9.48396 8.0001 9.14285 8.35827 9.14285 8.8001C9.14285 9.24193 9.48396 9.6001 9.90475 9.6001ZM13.7143 8.8001C13.7143 9.24193 13.3732 9.6001 12.9524 9.6001C12.5316 9.6001 12.1905 9.24193 12.1905 8.8001C12.1905 8.35827 12.5316 8.0001 12.9524 8.0001C13.3732 8.0001 13.7143 8.35827 13.7143 8.8001ZM14.4761 6.40029C14.8969 6.40029 15.238 6.04212 15.238 5.60029C15.238 5.15847 14.8969 4.80029 14.4761 4.80029C14.0553 4.80029 13.7142 5.15847 13.7142 5.60029C13.7142 6.04212 14.0553 6.40029 14.4761 6.40029ZM12.1906 3.1999C12.1906 3.64173 11.8494 3.9999 11.4287 3.9999C11.0079 3.9999 10.6667 3.64173 10.6667 3.1999C10.6667 2.75807 11.0079 2.3999 11.4287 2.3999C11.8494 2.3999 12.1906 2.75807 12.1906 3.1999Z" fill="white"/>
</g>
</svg>
