<svg width="32" height="24" viewBox="0 0 32 24" fill="none" xmlns="http://www.w3.org/2000/svg">
<rect width="32" height="24" rx="2" fill="white"/>
<mask id="mask0_67_3176" style="mask-type:luminance" maskUnits="userSpaceOnUse" x="0" y="0" width="32" height="24">
<rect width="32" height="24" rx="2" fill="white"/>
</mask>
<g mask="url(#mask0_67_3176)">
<rect width="32" height="24" fill="url(#paint0_linear_67_3176)"/>
<path fill-rule="evenodd" clip-rule="evenodd" d="M19.8095 11.9999C19.8095 10.5818 19.8095 8.8844 19.8095 7.73286C19.8095 6.99648 20.4065 6.3999 21.1428 6.3999H26.0952C26.8316 6.3999 27.4286 6.99648 27.4286 7.73286C27.4286 8.8844 27.4286 10.5818 27.4286 11.9999C27.4286 15.9999 23.619 17.5999 23.619 17.5999C23.619 17.5999 19.8095 15.9999 19.8095 11.9999Z" fill="#8FC5FF"/>
<mask id="mask1_67_3176" style="mask-type:luminance" maskUnits="userSpaceOnUse" x="19" y="6" width="9" height="12">
<path fill-rule="evenodd" clip-rule="evenodd" d="M19.8095 11.9999C19.8095 10.5818 19.8095 8.8844 19.8095 7.73286C19.8095 6.99648 20.4065 6.3999 21.1428 6.3999H26.0952C26.8316 6.3999 27.4286 6.99648 27.4286 7.73286C27.4286 8.8844 27.4286 10.5818 27.4286 11.9999C27.4286 15.9999 23.619 17.5999 23.619 17.5999C23.619 17.5999 19.8095 15.9999 19.8095 11.9999Z" fill="white"/>
</mask>
<g mask="url(#mask1_67_3176)">
<path fill-rule="evenodd" clip-rule="evenodd" d="M22.9598 14.2602C22.9598 14.2602 23.7225 13.2232 24.1711 13.2232C24.6196 13.2232 24.702 13.9118 25.3918 13.9118C26.0816 13.9118 26.4454 12.8145 27.1098 12.8145C27.7742 12.8145 27.1098 16.4145 27.1098 16.4145L26.2095 17.3896L20.9394 18.0287L22.9598 14.2602Z" fill="#366CC9"/>
<path fill-rule="evenodd" clip-rule="evenodd" d="M20.7155 12.6614L21.3881 12L22.049 13.6988L22.9362 12L23.6991 16.8425L22.4303 16.5714L18.2856 14.5816L20.7155 12.6614Z" fill="#CF6200"/>
<rect x="19.8095" y="6.3999" width="7.61905" height="4.8" fill="#FFFF00"/>
</g>
<path d="M21.1425 6.73291H26.0956C26.6479 6.73314 27.0956 7.18089 27.0956 7.73291V11.9995C27.0956 13.8817 26.2023 15.2006 25.2949 16.0581C24.8407 16.4873 24.3852 16.7974 24.0439 17.0005C23.8735 17.1019 23.7321 17.1759 23.6347 17.2241C23.6295 17.2267 23.624 17.2285 23.6191 17.231C23.6141 17.2285 23.6087 17.2267 23.6035 17.2241C23.5061 17.1759 23.3647 17.1019 23.1943 17.0005C22.853 16.7974 22.3975 16.4873 21.9433 16.0581C21.0359 15.2006 20.1425 13.8817 20.1425 11.9995V7.73291C20.1425 7.18086 20.5903 6.73309 21.1425 6.73291Z" stroke="white" stroke-width="0.666667"/>
<mask id="mask2_67_3176" style="mask-type:luminance" maskUnits="userSpaceOnUse" x="19" y="6" width="9" height="12">
<path d="M21.1425 6.73291H26.0956C26.6479 6.73314 27.0956 7.18089 27.0956 7.73291V11.9995C27.0956 13.8817 26.2023 15.2006 25.2949 16.0581C24.8407 16.4873 24.3852 16.7974 24.0439 17.0005C23.8735 17.1019 23.7321 17.1759 23.6347 17.2241C23.6295 17.2267 23.624 17.2285 23.6191 17.231C23.6141 17.2285 23.6087 17.2267 23.6035 17.2241C23.5061 17.1759 23.3647 17.1019 23.1943 17.0005C22.853 16.7974 22.3975 16.4873 21.9433 16.0581C21.0359 15.2006 20.1425 13.8817 20.1425 11.9995V7.73291C20.1425 7.18086 20.5903 6.73309 21.1425 6.73291Z" fill="white" stroke="white" stroke-width="0.666667"/>
</mask>
<g mask="url(#mask2_67_3176)">
</g>
<path d="M14.0479 0.633789C14.0477 0.843444 13.949 1.04118 13.7812 1.16699L8.71387 4.9668V6.25098L13.4355 10.5C13.8391 10.8632 13.5819 11.533 13.0391 11.5332C12.911 11.5332 12.7861 11.4918 12.6836 11.415L7.50781 7.5332H6.19531L0.182617 11.4785L-0.333008 11.8174V10.2334L-0.200195 10.1338L5 6.2334V4.94824L-0.222656 0.248047L-0.869141 -0.333008H0.873047L0.961914 -0.266602L6.20605 3.66699H7.51953L13.5312 -0.27832L14.0479 -0.617188V0.633789Z" fill="#DB1E36" stroke="white" stroke-width="0.666667"/>
<path fill-rule="evenodd" clip-rule="evenodd" d="M0 4V7.2H5.33333V11.3333C5.33333 11.7015 5.63181 12 6 12H7.71429C8.08248 12 8.38095 11.7015 8.38095 11.3333V7.2H13.8095C14.1777 7.2 14.4762 6.90152 14.4762 6.53333V4.66667C14.4762 4.29848 14.1777 4 13.8095 4H8.38095V0H5.33333V4H0Z" fill="white"/>
<path fill-rule="evenodd" clip-rule="evenodd" d="M0 4.8H6.09524V4V0H7.61905V4V4.8H13.7143V6.4H7.61905V7.2V11.2H6.09524V7.2V6.4H0V4.8Z" fill="#DB1E36"/>
</g>
<defs>
<linearGradient id="paint0_linear_67_3176" x1="0" y1="0" x2="0" y2="24" gradientUnits="userSpaceOnUse">
<stop stop-color="#07319C"/>
<stop offset="1" stop-color="#00247E"/>
</linearGradient>
</defs>
</svg>
