<svg width="32" height="24" viewBox="0 0 32 24" fill="none" xmlns="http://www.w3.org/2000/svg">
<rect x="0.25" y="0.25" width="31.5" height="23.5" rx="1.75" fill="white" stroke="#F5F5F5" stroke-width="0.5"/>
<mask id="mask0_67_3088" style="mask-type:luminance" maskUnits="userSpaceOnUse" x="0" y="0" width="32" height="24">
<rect x="0.25" y="0.25" width="31.5" height="23.5" rx="1.75" fill="white" stroke="white" stroke-width="0.5"/>
</mask>
<g mask="url(#mask0_67_3088)">
<path fill-rule="evenodd" clip-rule="evenodd" d="M0 16H32V8H0V16Z" fill="#0C47B7"/>
<path fill-rule="evenodd" clip-rule="evenodd" d="M0 24H32V16H0V24Z" fill="#E53B35"/>
<path d="M15.0957 4.13281C16.1716 4.13292 17.0542 4.98445 17.0938 6.05957L17.4053 14.5527C17.4269 15.1448 17.1845 15.716 16.7441 16.1123L13.2129 19.291C12.1987 20.2037 10.6587 20.2037 9.64453 19.291L6.1123 16.1123C5.672 15.716 5.43052 15.1447 5.45215 14.5527L5.7627 6.05957C5.80227 4.98438 6.68576 4.13281 7.76172 4.13281H15.0957Z" fill="#F73744" stroke="white" stroke-width="1.33333"/>
<mask id="mask1_67_3088" style="mask-type:luminance" maskUnits="userSpaceOnUse" x="4" y="3" width="15" height="18">
<path d="M15.0957 4.13281C16.1716 4.13292 17.0542 4.98445 17.0938 6.05957L17.4053 14.5527C17.4269 15.1448 17.1845 15.716 16.7441 16.1123L13.2129 19.291C12.1987 20.2037 10.6587 20.2037 9.64453 19.291L6.1123 16.1123C5.672 15.716 5.43052 15.1447 5.45215 14.5527L5.7627 6.05957C5.80227 4.98438 6.68576 4.13281 7.76172 4.13281H15.0957Z" fill="white" stroke="white" stroke-width="1.33333"/>
</mask>
<g mask="url(#mask1_67_3088)">
<path fill-rule="evenodd" clip-rule="evenodd" d="M10.6666 13.1332C10.6666 12.9491 10.5174 12.7999 10.3333 12.7999H8.71423C8.53013 12.7999 8.38089 12.6507 8.38089 12.4666V11.5332C8.38089 11.3491 8.53013 11.1999 8.71423 11.1999H10.3333C10.5174 11.1999 10.6666 11.0507 10.6666 10.8666V9.93323C10.6666 9.74914 10.5174 9.5999 10.3333 9.5999H9.47613C9.29204 9.5999 9.1428 9.45066 9.1428 9.26657V8.33324C9.1428 8.14914 9.29203 7.9999 9.47613 7.9999H10.3333C10.5174 7.9999 10.6666 7.85066 10.6666 7.66657V6.73324C10.6666 6.54914 10.8158 6.3999 10.9999 6.3999H11.8571C12.0412 6.3999 12.1904 6.54914 12.1904 6.73324V7.66657C12.1904 7.85066 12.3397 7.9999 12.5237 7.9999H13.3809C13.565 7.9999 13.7142 8.14914 13.7142 8.33323V9.26657C13.7142 9.45066 13.565 9.5999 13.3809 9.5999H12.5237C12.3397 9.5999 12.1904 9.74914 12.1904 9.93323V10.8666C12.1904 11.0507 12.3397 11.1999 12.5237 11.1999H14.1428C14.3269 11.1999 14.4761 11.3491 14.4761 11.5332V12.4666C14.4761 12.6507 14.3269 12.7999 14.1428 12.7999H12.5237C12.3397 12.7999 12.1904 12.9491 12.1904 13.1332V15.6666C12.1904 15.8507 12.0412 15.9999 11.8571 15.9999H10.9999C10.8158 15.9999 10.6666 15.8507 10.6666 15.6666V13.1332Z" fill="white"/>
<path fill-rule="evenodd" clip-rule="evenodd" d="M10.0532 16.11C8.20056 16.4165 6.85714 17.3256 6.85714 18.3995C6.85714 19.725 8.90384 20.7995 11.4286 20.7995C13.9533 20.7995 16 19.725 16 18.3995C16 17.3256 14.6566 16.4165 12.8039 16.11C12.5586 15.5716 12.035 15.1997 11.4286 15.1997C10.8222 15.1997 10.2985 15.5716 10.0532 16.11Z" fill="#1251A1"/>
</g>
</g>
</svg>
