<svg width="32" height="24" viewBox="0 0 32 24" fill="none" xmlns="http://www.w3.org/2000/svg">
<rect width="32" height="24" rx="2" fill="white"/>
<mask id="mask0_67_3066" style="mask-type:luminance" maskUnits="userSpaceOnUse" x="0" y="0" width="32" height="24">
<rect width="32" height="24" rx="2" fill="white"/>
</mask>
<g mask="url(#mask0_67_3066)">
<path fill-rule="evenodd" clip-rule="evenodd" d="M0 24H32V16H0V24Z" fill="#2ACB41"/>
<path fill-rule="evenodd" clip-rule="evenodd" d="M0 8.00001H32V0H0V8.00001Z" fill="#2ACB41"/>
<path fill-rule="evenodd" clip-rule="evenodd" d="M0 16H32V8H0V16Z" fill="#FDD043"/>
<path fill-rule="evenodd" clip-rule="evenodd" d="M0 0L12.1905 12L0 24V0Z" fill="#E71E43"/>
<path fill-rule="evenodd" clip-rule="evenodd" d="M16.7619 13.3118L14.9706 14.5887L15.5735 12.4052L13.8634 11.011L16.0274 10.9384L16.7619 8.7998L17.4964 10.9384L19.6604 11.011L17.9503 12.4052L18.5532 14.5887L16.7619 13.3118Z" fill="#262626"/>
<path fill-rule="evenodd" clip-rule="evenodd" d="M24.381 13.3118L22.5897 14.5887L23.1927 12.4052L21.4826 11.011L23.6466 10.9384L24.381 8.7998L25.1155 10.9384L27.2795 11.011L25.5694 12.4052L26.1724 14.5887L24.381 13.3118Z" fill="#262626"/>
</g>
</svg>
