<svg width="32" height="24" viewBox="0 0 32 24" fill="none" xmlns="http://www.w3.org/2000/svg">
<rect width="32" height="24" rx="2" fill="white"/>
<mask id="mask0_67_3269" style="mask-type:luminance" maskUnits="userSpaceOnUse" x="0" y="0" width="32" height="24">
<rect width="32" height="24" rx="2" fill="white"/>
</mask>
<g mask="url(#mask0_67_3269)">
<rect width="32" height="24" fill="#07319C"/>
<path d="M21.1425 6.73291H26.0957C26.6479 6.73314 27.0957 7.18089 27.0957 7.73291V11.9995C27.0957 13.8817 26.2023 15.2006 25.2949 16.0581C24.8407 16.4873 24.3852 16.7974 24.0439 17.0005C23.8735 17.1019 23.7321 17.1759 23.6347 17.2241C23.6295 17.2267 23.624 17.2285 23.6191 17.231C23.6141 17.2285 23.6087 17.2267 23.6035 17.2241C23.5061 17.1759 23.3647 17.1019 23.1943 17.0005C22.853 16.7974 22.3975 16.4873 21.9433 16.0581C21.0359 15.2006 20.1425 13.8817 20.1425 11.9995V7.73291C20.1425 7.18086 20.5903 6.73309 21.1425 6.73291Z" fill="#FFD033" stroke="white" stroke-width="0.666667"/>
<mask id="mask1_67_3269" style="mask-type:luminance" maskUnits="userSpaceOnUse" x="19" y="6" width="9" height="12">
<path d="M21.1425 6.73291H26.0957C26.6479 6.73314 27.0957 7.18089 27.0957 7.73291V11.9995C27.0957 13.8817 26.2023 15.2006 25.2949 16.0581C24.8407 16.4873 24.3852 16.7974 24.0439 17.0005C23.8735 17.1019 23.7321 17.1759 23.6347 17.2241C23.6295 17.2267 23.624 17.2285 23.6191 17.231C23.6141 17.2285 23.6087 17.2267 23.6035 17.2241C23.5061 17.1759 23.3647 17.1019 23.1943 17.0005C22.853 16.7974 22.3975 16.4873 21.9433 16.0581C21.0359 15.2006 20.1425 13.8817 20.1425 11.9995V7.73291C20.1425 7.18086 20.5903 6.73309 21.1425 6.73291Z" fill="white" stroke="white" stroke-width="0.666667"/>
</mask>
<g mask="url(#mask1_67_3269)">
<path fill-rule="evenodd" clip-rule="evenodd" d="M25.143 11.2C25.5638 11.2 25.9049 10.4837 25.9049 9.6C25.9049 8.71635 25.5638 8 25.143 8C24.7222 8 24.3811 8.71635 24.3811 9.6C24.3811 10.4837 24.7222 11.2 25.143 11.2Z" fill="#BA5B1F"/>
<path fill-rule="evenodd" clip-rule="evenodd" d="M22.3298 11.1519C22.7252 11.0007 22.8124 10.2051 22.5246 9.37473C22.2368 8.54437 21.6829 7.99373 21.2875 8.14484C20.8921 8.29595 20.8049 9.0916 21.0927 9.92196C21.3805 10.7523 21.9344 11.303 22.3298 11.1519Z" fill="#FF9F3E"/>
<path fill-rule="evenodd" clip-rule="evenodd" d="M21.7733 11.125C22.1547 11.3117 22.7522 10.8139 23.1079 10.013C23.4635 9.21213 23.4427 8.41154 23.0613 8.22481C22.68 8.03809 22.0825 8.53595 21.7268 9.33681C21.3711 10.1377 21.392 10.9383 21.7733 11.125Z" fill="#FF937F"/>
<path fill-rule="evenodd" clip-rule="evenodd" d="M22.8571 12.7997L23.619 11.1997L24.3809 12.7997V14.3997H22.8571V12.7997Z" fill="#01A827"/>
</g>
<path d="M14.0479 0.633789C14.0477 0.843444 13.949 1.04118 13.7812 1.16699L8.71387 4.9668V6.25098L13.4355 10.5C13.8391 10.8632 13.5819 11.533 13.0391 11.5332C12.911 11.5332 12.7861 11.4918 12.6836 11.415L7.50781 7.5332H6.19531L0.182617 11.4785L-0.333008 11.8174V10.2334L-0.200195 10.1338L5 6.2334V4.94824L-0.222656 0.248047L-0.869141 -0.333008H0.873047L0.961914 -0.266602L6.20605 3.66699H7.51953L13.5312 -0.27832L14.0479 -0.617188V0.633789Z" fill="#DB1E36" stroke="white" stroke-width="0.666667"/>
<path fill-rule="evenodd" clip-rule="evenodd" d="M0 4V7.2H5.33333V11.3333C5.33333 11.7015 5.63181 12 6 12H7.71429C8.08248 12 8.38095 11.7015 8.38095 11.3333V7.2H13.8095C14.1777 7.2 14.4762 6.90152 14.4762 6.53333V4.66667C14.4762 4.29848 14.1777 4 13.8095 4H8.38095V0H5.33333V4H0Z" fill="white"/>
<path fill-rule="evenodd" clip-rule="evenodd" d="M0 4.8H6.09524V4V0H7.61905V4V4.8H13.7143V6.4H7.61905V7.2V11.2H6.09524V7.2V6.4H0V4.8Z" fill="#DB1E36"/>
</g>
</svg>
