<svg width="32" height="24" viewBox="0 0 32 24" fill="none" xmlns="http://www.w3.org/2000/svg">
<rect x="0.25" y="0.25" width="31.5" height="23.5" rx="1.75" fill="white" stroke="#F5F5F5" stroke-width="0.5"/>
<mask id="mask0_67_3209" style="mask-type:luminance" maskUnits="userSpaceOnUse" x="0" y="0" width="32" height="24">
<rect x="0.25" y="0.25" width="31.5" height="23.5" rx="1.75" fill="white" stroke="white" stroke-width="0.5"/>
</mask>
<g mask="url(#mask0_67_3209)">
<path fill-rule="evenodd" clip-rule="evenodd" d="M0 8.00001H32V0H0V8.00001Z" fill="#D9101C"/>
<path fill-rule="evenodd" clip-rule="evenodd" d="M0 24H32V16H0V24Z" fill="#0F7811"/>
<path fill-rule="evenodd" clip-rule="evenodd" d="M15.2381 10.4001C15.2381 10.8419 14.897 11.2001 14.4762 11.2001C14.0554 11.2001 13.7143 10.8419 13.7143 10.4001C13.7143 9.95827 14.0554 9.6001 14.4762 9.6001C14.897 9.6001 15.2381 9.95827 15.2381 10.4001ZM16.762 12.0002C16.762 12.1449 16.7254 12.4523 16.6614 12.8003H17.619C17.9872 12.8003 18.2857 13.0988 18.2857 13.467V13.7336C18.2857 14.1018 17.9872 14.4003 17.619 14.4003H14.3809C14.0127 14.4003 13.7143 14.1018 13.7143 13.7336V13.467C13.7143 13.0988 14.0127 12.8003 14.3809 12.8003H15.3388C15.2748 12.4523 15.2382 12.1449 15.2382 12.0002C15.2382 11.5584 15.5793 11.2002 16.0001 11.2002C16.4209 11.2002 16.762 11.5584 16.762 12.0002ZM18.2857 10.4001C18.2857 10.8419 17.9446 11.2001 17.5238 11.2001C17.103 11.2001 16.7619 10.8419 16.7619 10.4001C16.7619 9.95827 17.103 9.6001 17.5238 9.6001C17.9446 9.6001 18.2857 9.95827 18.2857 10.4001ZM20.5714 12.8001C20.9922 12.8001 21.3333 12.4419 21.3333 12.0001C21.3333 11.5583 20.9922 11.2001 20.5714 11.2001C20.1506 11.2001 19.8095 11.5583 19.8095 12.0001C19.8095 12.4419 20.1506 12.8001 20.5714 12.8001ZM12.1905 12.0001C12.1905 12.4419 11.8493 12.8001 11.4286 12.8001C11.0078 12.8001 10.6667 12.4419 10.6667 12.0001C10.6667 11.5583 11.0078 11.2001 11.4286 11.2001C11.8493 11.2001 12.1905 11.5583 12.1905 12.0001Z" fill="#FAD14E"/>
</g>
</svg>
