<svg width="32" height="24" viewBox="0 0 32 24" fill="none" xmlns="http://www.w3.org/2000/svg">
<rect width="32" height="24" rx="2" fill="white"/>
<mask id="mask0_67_3299" style="mask-type:luminance" maskUnits="userSpaceOnUse" x="0" y="0" width="32" height="24">
<rect width="32" height="24" rx="2" fill="white"/>
</mask>
<g mask="url(#mask0_67_3299)">
<path fill-rule="evenodd" clip-rule="evenodd" d="M0 24H32V0H0V24Z" fill="#30C375"/>
<rect x="4.57153" width="4.57143" height="24" fill="#DE414F"/>
<path fill-rule="evenodd" clip-rule="evenodd" d="M6.85725 4.8001C8.11961 4.8001 9.14296 4.08375 9.14296 3.2001C9.14296 2.31644 8.11961 1.6001 6.85725 1.6001C5.59488 1.6001 4.57153 2.31644 4.57153 3.2001C4.57153 4.08375 5.59488 4.8001 6.85725 4.8001Z" fill="white"/>
<mask id="mask1_67_3299" style="mask-type:luminance" maskUnits="userSpaceOnUse" x="4" y="1" width="6" height="4">
<path fill-rule="evenodd" clip-rule="evenodd" d="M6.85725 4.8001C8.11961 4.8001 9.14296 4.08375 9.14296 3.2001C9.14296 2.31644 8.11961 1.6001 6.85725 1.6001C5.59488 1.6001 4.57153 2.31644 4.57153 3.2001C4.57153 4.08375 5.59488 4.8001 6.85725 4.8001Z" fill="white"/>
</mask>
<g mask="url(#mask1_67_3299)">
<path fill-rule="evenodd" clip-rule="evenodd" d="M6.85716 3.9999C7.27795 3.9999 7.61906 3.64173 7.61906 3.1999C7.61906 2.75807 7.27795 2.3999 6.85716 2.3999C6.43637 2.3999 6.09525 2.75807 6.09525 3.1999C6.09525 3.64173 6.43637 3.9999 6.85716 3.9999Z" fill="#DD404F"/>
<rect x="4.57153" y="1.6001" width="2.28571" height="1.6" fill="#FBAF29"/>
<rect x="6.85725" y="3.2002" width="2.28571" height="1.6" fill="#FBAF29"/>
</g>
<path fill-rule="evenodd" clip-rule="evenodd" d="M6.85725 22.4002C8.11961 22.4002 9.14296 21.6839 9.14296 20.8002C9.14296 19.9165 8.11961 19.2002 6.85725 19.2002C5.59488 19.2002 4.57153 19.9165 4.57153 20.8002C4.57153 21.6839 5.59488 22.4002 6.85725 22.4002Z" fill="white"/>
<mask id="mask2_67_3299" style="mask-type:luminance" maskUnits="userSpaceOnUse" x="4" y="19" width="6" height="4">
<path fill-rule="evenodd" clip-rule="evenodd" d="M6.85725 22.4002C8.11961 22.4002 9.14296 21.6839 9.14296 20.8002C9.14296 19.9165 8.11961 19.2002 6.85725 19.2002C5.59488 19.2002 4.57153 19.9165 4.57153 20.8002C4.57153 21.6839 5.59488 22.4002 6.85725 22.4002Z" fill="white"/>
</mask>
<g mask="url(#mask2_67_3299)">
<path fill-rule="evenodd" clip-rule="evenodd" d="M6.85716 21.6C7.27795 21.6 7.61906 21.2418 7.61906 20.8C7.61906 20.3582 7.27795 20 6.85716 20C6.43637 20 6.09525 20.3582 6.09525 20.8C6.09525 21.2418 6.43637 21.6 6.85716 21.6Z" fill="#DD404F"/>
<rect x="4.57153" y="19.2002" width="2.28571" height="1.59999" fill="#FBAF29"/>
<rect x="6.85725" y="20.8003" width="2.28571" height="1.60002" fill="#FBAF29"/>
</g>
<path fill-rule="evenodd" clip-rule="evenodd" d="M6.85725 14.4002C8.11961 14.4002 9.14296 13.6839 9.14296 12.8002C9.14296 11.9165 8.11961 11.2002 6.85725 11.2002C5.59488 11.2002 4.57153 11.9165 4.57153 12.8002C4.57153 13.6839 5.59488 14.4002 6.85725 14.4002Z" fill="#28AE67"/>
<mask id="mask3_67_3299" style="mask-type:luminance" maskUnits="userSpaceOnUse" x="4" y="11" width="6" height="4">
<path fill-rule="evenodd" clip-rule="evenodd" d="M6.85725 14.4002C8.11961 14.4002 9.14296 13.6839 9.14296 12.8002C9.14296 11.9165 8.11961 11.2002 6.85725 11.2002C5.59488 11.2002 4.57153 11.9165 4.57153 12.8002C4.57153 13.6839 5.59488 14.4002 6.85725 14.4002Z" fill="white"/>
</mask>
<g mask="url(#mask3_67_3299)">
<path fill-rule="evenodd" clip-rule="evenodd" d="M6.85734 13.6C7.69892 13.6 8.38115 13.2418 8.38115 12.8C8.38115 12.3582 7.69892 12 6.85734 12C6.01577 12 5.33353 12.3582 5.33353 12.8C5.33353 13.2418 6.01577 13.6 6.85734 13.6Z" fill="#DD404F"/>
</g>
<path fill-rule="evenodd" clip-rule="evenodd" d="M6.85725 17.6C8.11961 17.6 9.14296 17.2418 9.14296 16.8C9.14296 16.3582 8.11961 16 6.85725 16C5.59488 16 4.57153 16.3582 4.57153 16.8C4.57153 17.2418 5.59488 17.6 6.85725 17.6Z" fill="#28AE67"/>
<mask id="mask4_67_3299" style="mask-type:luminance" maskUnits="userSpaceOnUse" x="4" y="16" width="6" height="2">
<path fill-rule="evenodd" clip-rule="evenodd" d="M6.85725 17.6C8.11961 17.6 9.14296 17.2418 9.14296 16.8C9.14296 16.3582 8.11961 16 6.85725 16C5.59488 16 4.57153 16.3582 4.57153 16.8C4.57153 17.2418 5.59488 17.6 6.85725 17.6Z" fill="white"/>
</mask>
<g mask="url(#mask4_67_3299)">
</g>
<path fill-rule="evenodd" clip-rule="evenodd" d="M6.85725 9.59991C8.11961 9.59991 9.14296 8.88356 9.14296 7.9999C9.14296 7.11625 8.11961 6.3999 6.85725 6.3999C5.59488 6.3999 4.57153 7.11625 4.57153 7.9999C4.57153 8.88356 5.59488 9.59991 6.85725 9.59991Z" fill="#FBAF29"/>
<mask id="mask5_67_3299" style="mask-type:luminance" maskUnits="userSpaceOnUse" x="4" y="6" width="6" height="4">
<path fill-rule="evenodd" clip-rule="evenodd" d="M6.85725 9.59991C8.11961 9.59991 9.14296 8.88356 9.14296 7.9999C9.14296 7.11625 8.11961 6.3999 6.85725 6.3999C5.59488 6.3999 4.57153 7.11625 4.57153 7.9999C4.57153 8.88356 5.59488 9.59991 6.85725 9.59991Z" fill="white"/>
</mask>
<g mask="url(#mask5_67_3299)">
<path fill-rule="evenodd" clip-rule="evenodd" d="M6.85716 8.79971C7.27795 8.79971 7.61906 8.44153 7.61906 7.99971C7.61906 7.55788 7.27795 7.19971 6.85716 7.19971C6.43637 7.19971 6.09525 7.55788 6.09525 7.99971C6.09525 8.44153 6.43637 8.79971 6.85716 8.79971Z" fill="#DD404F"/>
<rect x="4.57153" y="6.3999" width="1.52381" height="3.2" fill="#28AE67"/>
<rect x="7.61916" y="6.3999" width="1.52381" height="3.2" fill="#28AE67"/>
</g>
<path fill-rule="evenodd" clip-rule="evenodd" d="M16.9405 5.08608C16.67 5.42454 16.712 5.92915 17.0344 6.21315C17.3567 6.49715 17.8373 6.453 18.1078 6.11454C18.3783 5.77608 18.3362 5.27148 18.0139 4.98748C17.6915 4.70347 17.211 4.74762 16.9405 5.08608ZM14.9661 8.18718C14.6437 7.90318 14.1631 7.94733 13.8927 8.28579C13.6222 8.62425 13.6642 9.12885 13.9866 9.41285C14.3089 9.69685 14.7895 9.65271 15.06 9.31425C15.3304 8.97579 15.2884 8.47118 14.9661 8.18718ZM13.4423 6.58757C13.12 6.30357 12.6394 6.34772 12.3689 6.68618C12.0985 7.02464 12.1405 7.52924 12.4629 7.81324C12.7852 8.09724 13.2658 8.0531 13.5362 7.71464C13.8067 7.37618 13.7647 6.87157 13.4423 6.58757ZM16.49 3.38738C16.1676 3.10338 15.687 3.14752 15.4166 3.48598C15.1461 3.82444 15.1881 4.32905 15.5105 4.61305C15.8328 4.89705 16.3134 4.85291 16.5839 4.51445C16.8543 4.17599 16.8123 3.67138 16.49 3.38738ZM15.7281 5.78728C15.4057 5.50328 14.9251 5.54743 14.6547 5.88589C14.3842 6.22434 14.4262 6.72895 14.7486 7.01295C15.0709 7.29695 15.5515 7.2528 15.822 6.91434C16.0924 6.57588 16.0504 6.07128 15.7281 5.78728Z" fill="white"/>
<path fill-rule="evenodd" clip-rule="evenodd" d="M19.9727 11.3407C18.1578 13.2464 15.2152 13.2464 13.4003 11.3407C13.2244 11.1561 13.0656 10.9603 12.9238 10.7556C14.7411 12.1431 17.2999 11.9763 18.9389 10.2553C20.578 8.5343 20.7368 5.8476 19.4154 3.93945C19.6104 4.08832 19.7968 4.25508 19.9727 4.43974C21.7876 6.3454 21.7876 9.43508 19.9727 11.3407Z" fill="white"/>
</g>
</svg>
