<svg width="32" height="24" viewBox="0 0 32 24" fill="none" xmlns="http://www.w3.org/2000/svg">
<rect width="32" height="24" rx="2" fill="white"/>
<mask id="mask0_67_3244" style="mask-type:luminance" maskUnits="userSpaceOnUse" x="0" y="0" width="32" height="24">
<rect width="32" height="24" rx="2" fill="white"/>
</mask>
<g mask="url(#mask0_67_3244)">
<rect width="32" height="24" fill="#E92434"/>
<path fill-rule="evenodd" clip-rule="evenodd" d="M22.8571 11.9998C22.8571 15.9763 19.7871 19.1998 16 19.1998C12.2129 19.1998 9.14286 15.9763 9.14286 11.9998C9.14286 8.02335 12.2129 4.7998 16 4.7998C19.7871 4.7998 22.8571 8.02335 22.8571 11.9998ZM13.7144 11.9998C13.7144 9.34007 15.6162 7.14672 18.0698 6.8372C17.4334 6.55558 16.7341 6.3999 16.0001 6.3999C13.0546 6.3999 10.6668 8.90711 10.6668 11.9999C10.6668 15.0927 13.0546 17.5999 16.0001 17.5999C16.7342 17.5999 17.4337 17.4442 18.0702 17.1625C15.6164 16.8531 13.7144 14.6597 13.7144 11.9998ZM17.2908 15.1858L18.6906 13.4038L20.7514 14.2121L19.5699 12.2636L20.9389 10.4555L18.8089 11.0332L17.5942 9.10733L17.4593 11.4129L15.3395 12.0308L17.3861 12.878L17.2908 15.1858Z" fill="white"/>
</g>
</svg>
