<svg width="32" height="24" viewBox="0 0 32 24" fill="none" xmlns="http://www.w3.org/2000/svg">
<rect width="32" height="24" rx="2" fill="white"/>
<mask id="mask0_67_3350" style="mask-type:luminance" maskUnits="userSpaceOnUse" x="0" y="0" width="32" height="24">
<rect width="32" height="24" rx="2" fill="white"/>
</mask>
<g mask="url(#mask0_67_3350)">
<path fill-rule="evenodd" clip-rule="evenodd" d="M0 3.2H32V0H0V3.2Z" fill="#262626"/>
<path fill-rule="evenodd" clip-rule="evenodd" d="M0 15.9998H32V12.7998H0V15.9998Z" fill="#262626"/>
<path fill-rule="evenodd" clip-rule="evenodd" d="M0 12.8H32V8H0V12.8Z" fill="#ED1623"/>
<path fill-rule="evenodd" clip-rule="evenodd" d="M0 8.00019H32V3.2002H0V8.00019Z" fill="#FEE044"/>
<path fill-rule="evenodd" clip-rule="evenodd" d="M0 23.9998H32V20.7998H0V23.9998Z" fill="#ED1623"/>
<path fill-rule="evenodd" clip-rule="evenodd" d="M0 20.8H32V16H0V20.8Z" fill="#FEE044"/>
<path fill-rule="evenodd" clip-rule="evenodd" d="M16 17.5999C18.9455 17.5999 21.3333 15.0927 21.3333 11.9999C21.3333 8.90711 18.9455 6.3999 16 6.3999C13.0545 6.3999 10.6667 8.90711 10.6667 11.9999C10.6667 15.0927 13.0545 17.5999 16 17.5999Z" fill="white"/>
<path fill-rule="evenodd" clip-rule="evenodd" d="M14.6951 9.02968C14.5725 8.90094 14.5725 8.69865 14.6951 8.56991L15.2196 8.01919C15.2319 8.00628 15.243 7.99265 15.2534 7.97817C15.2954 7.91976 15.4189 7.75491 15.5582 7.63238C15.7424 7.47045 16.2705 7.45298 16.4542 7.61539C16.5358 7.68752 16.6094 7.778 16.6641 7.85306C16.7292 7.94223 16.7335 8.05944 16.686 8.15908L16.0324 9.5318C16.0111 9.57657 16 9.62553 16 9.67511V10.1983C16 10.3222 16.0687 10.4359 16.1784 10.4935L17.4752 11.1743C17.5074 11.1912 17.5366 11.2132 17.5616 11.2395L18.8894 12.6337C18.9847 12.7337 19.0084 12.8822 18.949 13.0069L18.494 13.9625C18.3935 14.1734 18.1128 14.2182 17.9516 14.049L17.7652 13.8533C17.6338 13.7153 17.4138 13.7153 17.2824 13.8533L16.8539 14.3033C16.7948 14.3652 16.7619 14.4475 16.7619 14.5331V15.0665C16.7619 15.1521 16.7948 15.2344 16.8539 15.2964L16.9874 15.4366C17.1895 15.6488 17.0391 15.9998 16.746 15.9998H16.0159C15.7228 15.9998 15.5724 15.6488 15.7745 15.4366L15.908 15.2964C15.9671 15.2344 16 15.1521 16 15.0665V14.7331C16 14.549 15.8508 14.3998 15.6667 14.3998H15.3809C15.2897 14.3998 15.2025 14.4372 15.1396 14.5033L14.7176 14.9464C14.5862 15.0843 14.3662 15.0843 14.2348 14.9464L13.9332 14.6297C13.8106 14.501 13.8106 14.2987 13.9332 14.1699L14.3777 13.7032C14.4406 13.6372 14.5278 13.5998 14.619 13.5998H15.2222C15.5153 13.5998 15.6657 13.2488 15.4636 13.0366L13.9332 11.4297C13.8106 11.3009 13.8106 11.0986 13.9332 10.9699L15.0192 9.82968C15.1418 9.70095 15.1418 9.49865 15.0192 9.36991L14.6951 9.02968Z" fill="#262626"/>
</g>
</svg>
