<svg width="32" height="24" viewBox="0 0 32 24" fill="none" xmlns="http://www.w3.org/2000/svg">
<rect width="32" height="24" rx="2" fill="white"/>
<mask id="mask0_67_3381" style="mask-type:luminance" maskUnits="userSpaceOnUse" x="0" y="0" width="32" height="24">
<rect width="32" height="24" rx="2" fill="white"/>
</mask>
<g mask="url(#mask0_67_3381)">
<path fill-rule="evenodd" clip-rule="evenodd" d="M32 0H0V1.6H32V0ZM32 3.2002H0V4.8002H32V3.2002ZM0 6.4H32V8H0V6.4ZM32 9.6H0V11.2H32V9.6ZM0 12.7998H32V14.3998H0V12.7998ZM32 16H0V17.6H32V16ZM0 19.2002H32V20.8002H0V19.2002ZM32 22.4H0V24H32V22.4Z" fill="#D02F44"/>
<rect width="13.7143" height="11.2" fill="#46467F"/>
<g filter="url(#filter0_d_67_3381)">
<path fill-rule="evenodd" clip-rule="evenodd" d="M3.04774 2.4001C3.04774 2.84193 2.70662 3.2001 2.28583 3.2001C1.86504 3.2001 1.52393 2.84193 1.52393 2.4001C1.52393 1.95827 1.86504 1.6001 2.28583 1.6001C2.70662 1.6001 3.04774 1.95827 3.04774 2.4001ZM6.09535 2.4001C6.09535 2.84193 5.75424 3.2001 5.33345 3.2001C4.91266 3.2001 4.57155 2.84193 4.57155 2.4001C4.57155 1.95827 4.91266 1.6001 5.33345 1.6001C5.75424 1.6001 6.09535 1.95827 6.09535 2.4001ZM8.38107 3.2001C8.80186 3.2001 9.14297 2.84193 9.14297 2.4001C9.14297 1.95827 8.80186 1.6001 8.38107 1.6001C7.96028 1.6001 7.61916 1.95827 7.61916 2.4001C7.61916 2.84193 7.96028 3.2001 8.38107 3.2001ZM12.1906 2.4001C12.1906 2.84193 11.8495 3.2001 11.4287 3.2001C11.0079 3.2001 10.6668 2.84193 10.6668 2.4001C10.6668 1.95827 11.0079 1.6001 11.4287 1.6001C11.8495 1.6001 12.1906 1.95827 12.1906 2.4001ZM3.80976 4.8002C4.23054 4.8002 4.57166 4.44202 4.57166 4.0002C4.57166 3.55837 4.23054 3.2002 3.80976 3.2002C3.38897 3.2002 3.04785 3.55837 3.04785 4.0002C3.04785 4.44202 3.38897 4.8002 3.80976 4.8002ZM7.61927 4.0002C7.61927 4.44202 7.27815 4.8002 6.85736 4.8002C6.43658 4.8002 6.09546 4.44202 6.09546 4.0002C6.09546 3.55837 6.43658 3.2002 6.85736 3.2002C7.27815 3.2002 7.61927 3.55837 7.61927 4.0002ZM9.90488 4.8001C10.3257 4.8001 10.6668 4.44193 10.6668 4.0001C10.6668 3.55827 10.3257 3.2001 9.90488 3.2001C9.48409 3.2001 9.14297 3.55827 9.14297 4.0001C9.14297 4.44193 9.48409 4.8001 9.90488 4.8001ZM12.1906 5.60029C12.1906 6.04212 11.8495 6.40029 11.4287 6.40029C11.0079 6.40029 10.6668 6.04212 10.6668 5.60029C10.6668 5.15847 11.0079 4.80029 11.4287 4.80029C11.8495 4.80029 12.1906 5.15847 12.1906 5.60029ZM8.38098 6.40029C8.80176 6.40029 9.14288 6.04212 9.14288 5.60029C9.14288 5.15847 8.80176 4.80029 8.38098 4.80029C7.96019 4.80029 7.61907 5.15847 7.61907 5.60029C7.61907 6.04212 7.96019 6.40029 8.38098 6.40029ZM6.09534 5.60029C6.09534 6.04212 5.75423 6.40029 5.33344 6.40029C4.91265 6.40029 4.57153 6.04212 4.57153 5.60029C4.57153 5.15847 4.91265 4.80029 5.33344 4.80029C5.75423 4.80029 6.09534 5.15847 6.09534 5.60029ZM2.28583 6.40029C2.70662 6.40029 3.04774 6.04212 3.04774 5.60029C3.04774 5.15847 2.70662 4.80029 2.28583 4.80029C1.86504 4.80029 1.52393 5.15847 1.52393 5.60029C1.52393 6.04212 1.86504 6.40029 2.28583 6.40029ZM4.57145 7.1999C4.57145 7.64173 4.23034 7.9999 3.80955 7.9999C3.38876 7.9999 3.04764 7.64173 3.04764 7.1999C3.04764 6.75807 3.38876 6.3999 3.80955 6.3999C4.23034 6.3999 4.57145 6.75807 4.57145 7.1999ZM6.85736 7.9999C7.27815 7.9999 7.61927 7.64173 7.61927 7.1999C7.61927 6.75807 7.27815 6.3999 6.85736 6.3999C6.43658 6.3999 6.09546 6.75807 6.09546 7.1999C6.09546 7.64173 6.43658 7.9999 6.85736 7.9999ZM10.6669 7.1999C10.6669 7.64173 10.3258 7.9999 9.90497 7.9999C9.48418 7.9999 9.14307 7.64173 9.14307 7.1999C9.14307 6.75807 9.48418 6.3999 9.90497 6.3999C10.3258 6.3999 10.6669 6.75807 10.6669 7.1999ZM11.4287 9.6001C11.8495 9.6001 12.1906 9.24193 12.1906 8.8001C12.1906 8.35827 11.8495 8.0001 11.4287 8.0001C11.0079 8.0001 10.6668 8.35827 10.6668 8.8001C10.6668 9.24193 11.0079 9.6001 11.4287 9.6001ZM9.14297 8.8001C9.14297 9.24193 8.80186 9.6001 8.38107 9.6001C7.96028 9.6001 7.61916 9.24193 7.61916 8.8001C7.61916 8.35827 7.96028 8.0001 8.38107 8.0001C8.80186 8.0001 9.14297 8.35827 9.14297 8.8001ZM5.33345 9.6001C5.75424 9.6001 6.09535 9.24193 6.09535 8.8001C6.09535 8.35827 5.75424 8.0001 5.33345 8.0001C4.91266 8.0001 4.57154 8.35827 4.57154 8.8001C4.57154 9.24193 4.91266 9.6001 5.33345 9.6001ZM3.04774 8.8001C3.04774 9.24193 2.70662 9.6001 2.28583 9.6001C1.86504 9.6001 1.52393 9.24193 1.52393 8.8001C1.52393 8.35827 1.86504 8.0001 2.28583 8.0001C2.70662 8.0001 3.04774 8.35827 3.04774 8.8001Z" fill="url(#paint0_linear_67_3381)"/>
</g>
</g>
<defs>
<filter id="filter0_d_67_3381" x="1.52393" y="1.6001" width="10.6667" height="9" filterUnits="userSpaceOnUse" color-interpolation-filters="sRGB">
<feFlood flood-opacity="0" result="BackgroundImageFix"/>
<feColorMatrix in="SourceAlpha" type="matrix" values="0 0 0 0 0 0 0 0 0 0 0 0 0 0 0 0 0 0 127 0" result="hardAlpha"/>
<feOffset dy="1"/>
<feColorMatrix type="matrix" values="0 0 0 0 0 0 0 0 0 0 0 0 0 0 0 0 0 0 0.06 0"/>
<feBlend mode="normal" in2="BackgroundImageFix" result="effect1_dropShadow_67_3381"/>
<feBlend mode="normal" in="SourceGraphic" in2="effect1_dropShadow_67_3381" result="shape"/>
</filter>
<linearGradient id="paint0_linear_67_3381" x1="1.52393" y1="1.6001" x2="1.52393" y2="9.6001" gradientUnits="userSpaceOnUse">
<stop stop-color="white"/>
<stop offset="1" stop-color="#F0F0F0"/>
</linearGradient>
</defs>
</svg>
