<svg width="32" height="24" viewBox="0 0 32 24" fill="none" xmlns="http://www.w3.org/2000/svg">
<rect x="0.25" y="0.25" width="31.5" height="23.5" rx="1.75" fill="white" stroke="#F5F5F5" stroke-width="0.5"/>
<mask id="mask0_67_3366" style="mask-type:luminance" maskUnits="userSpaceOnUse" x="0" y="0" width="32" height="24">
<rect x="0.25" y="0.25" width="31.5" height="23.5" rx="1.75" fill="white" stroke="white" stroke-width="0.5"/>
</mask>
<g mask="url(#mask0_67_3366)">
<path fill-rule="evenodd" clip-rule="evenodd" d="M0 16V19.2002H32V0H31.9999V3.2H15.2381V6.40039H31.9999V9.60039H15.2381V12.8003H31.9999V16.0003H15.238V16H0ZM0 24V22.4002H32V24H0Z" fill="#0E4DC5"/>
<path fill-rule="evenodd" clip-rule="evenodd" d="M7.61904 11.1853L6.6018 12.7797L6.34413 10.8798L4.7688 11.8529L5.32174 10.0237L3.50032 10.1827L4.75435 8.7866L3.04761 8.10006L4.75435 7.41353L3.50032 6.01742L5.32174 6.17643L4.7688 4.34727L6.34413 5.32033L6.6018 3.42041L7.61904 5.01479L8.63627 3.42041L8.89394 5.32033L10.4693 4.34727L9.91634 6.17643L11.7378 6.01742L10.4837 7.41353L12.1905 8.10006L10.4837 8.7866L11.7378 10.1827L9.91634 10.0237L10.4693 11.8529L8.89394 10.8798L8.63627 12.7797L7.61904 11.1853ZM7.61905 11.1543C9.2257 11.1543 10.5281 9.78671 10.5281 8.09973C10.5281 6.41275 9.2257 5.04518 7.61905 5.04518C6.01241 5.04518 4.70996 6.41275 4.70996 8.09973C4.70996 9.78671 6.01241 11.1543 7.61905 11.1543ZM9.90468 7.99938C9.90468 9.32486 8.88133 10.3994 7.61897 10.3994C6.3566 10.3994 5.33325 9.32486 5.33325 7.99938C5.33325 6.6739 6.3566 5.59938 7.61897 5.59938C8.88133 5.59938 9.90468 6.6739 9.90468 7.99938Z" fill="#FED443"/>
</g>
</svg>
