<svg width="32" height="24" viewBox="0 0 32 24" fill="none" xmlns="http://www.w3.org/2000/svg">
<rect x="0.25" y="0.25" width="31.5" height="23.5" rx="1.75" fill="white" stroke="#F5F5F5" stroke-width="0.5"/>
<mask id="mask0_67_3336" style="mask-type:luminance" maskUnits="userSpaceOnUse" x="0" y="0" width="32" height="24">
<rect x="0.25" y="0.25" width="31.5" height="23.5" rx="1.75" fill="white" stroke="white" stroke-width="0.5"/>
</mask>
<g mask="url(#mask0_67_3336)">
<path fill-rule="evenodd" clip-rule="evenodd" d="M0 8.00001H32V0H0V8.00001Z" fill="#04AAC8"/>
<path fill-rule="evenodd" clip-rule="evenodd" d="M0 24H32V16H0V24Z" fill="#23C840"/>
<path fill-rule="evenodd" clip-rule="evenodd" d="M5.33332 6.4001C5.80342 6.4001 6.24036 6.25109 6.60366 5.9956C6.56157 5.99852 6.5191 6 6.4763 6C5.42432 6 4.57153 5.10457 4.57153 4C4.57153 2.89543 5.42432 2 6.4763 2C6.51899 2 6.56136 2.00148 6.60336 2.00438C6.24012 1.74902 5.80328 1.6001 5.33332 1.6001C4.07096 1.6001 3.04761 2.67461 3.04761 4.0001C3.04761 5.32558 4.07096 6.4001 5.33332 6.4001ZM9.14295 5.60029C9.14295 6.04212 8.80183 6.40029 8.38104 6.40029C7.96026 6.40029 7.61914 6.04212 7.61914 5.60029C7.61914 5.15847 7.96026 4.80029 8.38104 4.80029C8.80183 4.80029 9.14295 5.15847 9.14295 5.60029ZM11.4286 3.2001C11.8493 3.2001 12.1905 2.84193 12.1905 2.4001C12.1905 1.95827 11.8493 1.6001 11.4286 1.6001C11.0078 1.6001 10.6667 1.95827 10.6667 2.4001C10.6667 2.84193 11.0078 3.2001 11.4286 3.2001ZM15.2381 2.4001C15.2381 2.84193 14.897 3.2001 14.4762 3.2001C14.0554 3.2001 13.7143 2.84193 13.7143 2.4001C13.7143 1.95827 14.0554 1.6001 14.4762 1.6001C14.897 1.6001 15.2381 1.95827 15.2381 2.4001ZM14.4761 6.40029C14.8969 6.40029 15.238 6.04212 15.238 5.60029C15.238 5.15847 14.8969 4.80029 14.4761 4.80029C14.0553 4.80029 13.7142 5.15847 13.7142 5.60029C13.7142 6.04212 14.0553 6.40029 14.4761 6.40029ZM12.1906 5.60029C12.1906 6.04212 11.8494 6.40029 11.4287 6.40029C11.0079 6.40029 10.6667 6.04212 10.6667 5.60029C10.6667 5.15847 11.0079 4.80029 11.4287 4.80029C11.8494 4.80029 12.1906 5.15847 12.1906 5.60029Z" fill="white"/>
</g>
</svg>
