<svg width="32" height="24" viewBox="0 0 32 24" fill="none" xmlns="http://www.w3.org/2000/svg">
<rect width="32" height="24" rx="2" fill="white"/>
<mask id="mask0_67_3465" style="mask-type:luminance" maskUnits="userSpaceOnUse" x="0" y="0" width="32" height="24">
<rect width="32" height="24" rx="2" fill="white"/>
</mask>
<g mask="url(#mask0_67_3465)">
<path fill-rule="evenodd" clip-rule="evenodd" d="M0 16H32V8H0V16Z" fill="#063191"/>
<path fill-rule="evenodd" clip-rule="evenodd" d="M0 24H32V16H0V24Z" fill="#E2213B"/>
<path fill-rule="evenodd" clip-rule="evenodd" d="M16.0001 11.2001C16.4209 11.2001 16.762 10.8419 16.762 10.4001C16.762 9.95827 16.4209 9.6001 16.0001 9.6001C15.5793 9.6001 15.2382 9.95827 15.2382 10.4001C15.2382 10.8419 15.5793 11.2001 16.0001 11.2001ZM12.9523 11.9999C13.3731 11.9999 13.7142 11.6417 13.7142 11.1999C13.7142 10.7581 13.3731 10.3999 12.9523 10.3999C12.5315 10.3999 12.1904 10.7581 12.1904 11.1999C12.1904 11.6417 12.5315 11.9999 12.9523 11.9999ZM19.8096 11.1999C19.8096 11.6417 19.4685 11.9999 19.0477 11.9999C18.6269 11.9999 18.2858 11.6417 18.2858 11.1999C18.2858 10.7581 18.6269 10.3999 19.0477 10.3999C19.4685 10.3999 19.8096 10.7581 19.8096 11.1999ZM11.4286 14.4003C11.8494 14.4003 12.1905 14.0421 12.1905 13.6003C12.1905 13.1585 11.8494 12.8003 11.4286 12.8003C11.0078 12.8003 10.6667 13.1585 10.6667 13.6003C10.6667 14.0421 11.0078 14.4003 11.4286 14.4003ZM21.3334 13.6003C21.3334 14.0421 20.9922 14.4003 20.5714 14.4003C20.1507 14.4003 19.8095 14.0421 19.8095 13.6003C19.8095 13.1585 20.1507 12.8003 20.5714 12.8003C20.9922 12.8003 21.3334 13.1585 21.3334 13.6003Z" fill="white"/>
<path fill-rule="evenodd" clip-rule="evenodd" d="M0 8.00001H32V0H0V8.00001Z" fill="#FFD044"/>
</g>
</svg>
