<svg width="32" height="24" viewBox="0 0 32 24" fill="none" xmlns="http://www.w3.org/2000/svg">
<rect width="32" height="24" rx="2" fill="white"/>
<mask id="mask0_67_3443" style="mask-type:luminance" maskUnits="userSpaceOnUse" x="0" y="0" width="32" height="24">
<rect width="32" height="24" rx="2" fill="white"/>
</mask>
<g mask="url(#mask0_67_3443)">
<rect width="32" height="24" fill="#07319C"/>
<path fill-rule="evenodd" clip-rule="evenodd" d="M19.8095 11.9999C19.8095 10.5818 19.8095 8.8844 19.8095 7.73286C19.8095 6.99648 20.4065 6.3999 21.1429 6.3999H26.0952C26.8316 6.3999 27.4286 6.99648 27.4286 7.73286C27.4286 8.8844 27.4286 10.5818 27.4286 11.9999C27.4286 15.9999 23.619 17.5999 23.619 17.5999C23.619 17.5999 19.8095 15.9999 19.8095 11.9999Z" fill="#008339"/>
<mask id="mask1_67_3443" style="mask-type:luminance" maskUnits="userSpaceOnUse" x="19" y="6" width="9" height="12">
<path fill-rule="evenodd" clip-rule="evenodd" d="M19.8095 11.9999C19.8095 10.5818 19.8095 8.8844 19.8095 7.73286C19.8095 6.99648 20.4065 6.3999 21.1429 6.3999H26.0952C26.8316 6.3999 27.4286 6.99648 27.4286 7.73286C27.4286 8.8844 27.4286 10.5818 27.4286 11.9999C27.4286 15.9999 23.619 17.5999 23.619 17.5999C23.619 17.5999 19.8095 15.9999 19.8095 11.9999Z" fill="white"/>
</mask>
<g mask="url(#mask1_67_3443)">
<path fill-rule="evenodd" clip-rule="evenodd" d="M22.0954 9.6C22.5161 9.6 22.8573 9.24183 22.8573 8.8C22.8573 8.35817 22.5161 8 22.0954 8C21.6746 8 21.3335 8.35817 21.3335 8.8C21.3335 9.24183 21.6746 9.6 22.0954 9.6ZM22.0954 9.6C22.5161 9.6 22.8573 9.95818 22.8573 10.4C22.8573 10.8418 22.5161 11.2 22.0954 11.2C21.6746 11.2 21.3335 10.8418 21.3335 10.4C21.3335 9.95818 21.6746 9.6 22.0954 9.6ZM22.8573 12.0002C22.8573 12.4361 22.5252 12.7906 22.1122 12.8C22.5252 12.8094 22.8573 13.1639 22.8573 13.5998C22.8573 14.0416 22.5161 14.3998 22.0954 14.3998C21.6746 14.3998 21.3335 14.0416 21.3335 13.5998C21.3335 13.1639 21.6655 12.8094 22.0785 12.8C21.6655 12.7906 21.3335 12.4361 21.3335 12.0002C21.3335 11.5584 21.6746 11.2002 22.0954 11.2002C22.5161 11.2002 22.8573 11.5584 22.8573 12.0002ZM25.9049 13.5998C25.9049 14.0416 25.5638 14.3998 25.143 14.3998C24.7222 14.3998 24.3811 14.0416 24.3811 13.5998C24.3811 13.1639 24.7131 12.8094 25.1261 12.8C24.7131 12.7906 24.3811 12.4361 24.3811 12.0002C24.3811 11.5584 24.7222 11.2002 25.143 11.2002C25.5638 11.2002 25.9049 11.5584 25.9049 12.0002C25.9049 12.4361 25.5728 12.7906 25.1598 12.8C25.5728 12.8094 25.9049 13.1639 25.9049 13.5998ZM25.9049 10.4C25.9049 10.8418 25.5638 11.2 25.143 11.2C24.7222 11.2 24.3811 10.8418 24.3811 10.4C24.3811 9.95818 24.7222 9.6 25.143 9.6C25.5638 9.6 25.9049 9.95818 25.9049 10.4ZM25.143 9.6C24.7222 9.6 24.3811 9.24183 24.3811 8.8C24.3811 8.35817 24.7222 8 25.143 8C25.5638 8 25.9049 8.35817 25.9049 8.8C25.9049 9.24183 25.5638 9.6 25.143 9.6Z" fill="#FFD033"/>
<path fill-rule="evenodd" clip-rule="evenodd" d="M23.6191 13.5998C24.0398 13.5998 24.381 12.5253 24.381 11.1998C24.381 9.87432 24.0398 8.7998 23.6191 8.7998C23.1983 8.7998 22.8571 9.87432 22.8571 11.1998C22.8571 12.5253 23.1983 13.5998 23.6191 13.5998Z" fill="white"/>
</g>
<path d="M19.0476 16.0002C19.0476 17.526 21.129 18.4002 23.619 18.4002C26.1091 18.4002 28.1905 17.526 28.1905 16.0002C28.1905 15.5584 27.8493 15.2002 27.4286 15.2002C27.0078 15.2002 26.6667 15.5584 26.6667 16.0002C26.6667 16.0155 26.482 16.1989 26.0298 16.3888C25.416 16.6466 24.5513 16.8002 23.619 16.8002C22.6868 16.8002 21.8221 16.6466 21.2083 16.3888C20.7561 16.1989 20.5714 16.0155 20.5714 16.0002C20.5714 15.5584 20.2303 15.2002 19.8095 15.2002C19.3887 15.2002 19.0476 15.5584 19.0476 16.0002Z" fill="#FFD033"/>
<path d="M14.0479 0.633789C14.0477 0.843444 13.949 1.04118 13.7812 1.16699L8.71387 4.9668V6.25098L13.4355 10.5C13.8391 10.8632 13.5819 11.533 13.0391 11.5332C12.911 11.5332 12.7861 11.4918 12.6836 11.415L7.50781 7.5332H6.19531L0.182617 11.4785L-0.333008 11.8174V10.2334L-0.200195 10.1338L5 6.2334V4.94824L-0.222656 0.248047L-0.869141 -0.333008H0.873047L0.961914 -0.266602L6.20605 3.66699H7.51953L13.5312 -0.27832L14.0479 -0.617188V0.633789Z" fill="#DB1E36" stroke="white" stroke-width="0.666667"/>
<path fill-rule="evenodd" clip-rule="evenodd" d="M0 4V7.2H5.33333V11.3333C5.33333 11.7015 5.63181 12 6 12H7.71429C8.08248 12 8.38095 11.7015 8.38095 11.3333V7.2H13.8095C14.1777 7.2 14.4762 6.90152 14.4762 6.53333V4.66667C14.4762 4.29848 14.1777 4 13.8095 4H8.38095V0H5.33333V4H0Z" fill="white"/>
<path fill-rule="evenodd" clip-rule="evenodd" d="M0 4.8H6.09524V4V0H7.61905V4V4.8H13.7143V6.4H7.61905V7.2V11.2H6.09524V7.2V6.4H0V4.8Z" fill="#DB1E36"/>
</g>
</svg>
