<svg width="32" height="24" viewBox="0 0 32 24" fill="none" xmlns="http://www.w3.org/2000/svg">
<rect width="32" height="24" rx="2" fill="white"/>
<mask id="mask0_67_3413" style="mask-type:luminance" maskUnits="userSpaceOnUse" x="0" y="0" width="32" height="24">
<rect width="32" height="24" rx="2" fill="white"/>
</mask>
<g mask="url(#mask0_67_3413)">
<rect width="32" height="24" fill="#E31F37"/>
<path fill-rule="evenodd" clip-rule="evenodd" d="M-1.52393 12.7999H16.7618V-1.6001H-1.52393V12.7999Z" fill="#083B9A"/>
<path fill-rule="evenodd" clip-rule="evenodd" d="M7.61854 3.19993L6.54105 3.5313L6.85664 2.39993L6.54105 1.26855L7.61854 1.59993L8.69604 1.26855L8.38045 2.39993L8.69604 3.5313L7.61854 3.19993ZM7.61854 11.1999L6.54105 11.5313L6.85664 10.3999L6.54105 9.26855L7.61854 9.59993L8.69604 9.26855L8.38045 10.3999L8.69604 11.5313L7.61854 11.1999ZM3.49344 7.53129L4.57093 7.19992L5.64843 7.53129L5.33284 6.39992L5.64843 5.26855L4.57093 5.59993L3.49344 5.26855L3.80903 6.39992L3.49344 7.53129ZM11.4281 6.40012L10.3506 6.73149L10.6662 5.60012L10.3506 4.46875L11.4281 4.80012L12.5056 4.46875L12.19 5.60012L12.5056 6.73149L11.4281 6.40012ZM9.90473 8.40012C9.90473 8.62104 9.73418 8.80012 9.52378 8.80012C9.31339 8.80012 9.14283 8.62104 9.14283 8.40012C9.14283 8.17921 9.31339 8.00012 9.52378 8.00012C9.73418 8.00012 9.90473 8.17921 9.90473 8.40012Z" fill="white"/>
</g>
</svg>
