<svg width="32" height="24" viewBox="0 0 32 24" fill="none" xmlns="http://www.w3.org/2000/svg">
<rect width="32" height="24" rx="2" fill="#009F60"/>
<mask id="mask0_67_3757" style="mask-type:luminance" maskUnits="userSpaceOnUse" x="0" y="0" width="32" height="24">
<rect width="32" height="24" rx="2" fill="white"/>
</mask>
<g mask="url(#mask0_67_3757)">
<rect x="27.4285" y="12.7998" width="4.57143" height="11.2" fill="#EA8B42"/>
<path fill-rule="evenodd" clip-rule="evenodd" d="M22.8571 23.9998H27.4286V12.7998H22.8571V23.9998Z" fill="#1A1919"/>
<path fill-rule="evenodd" clip-rule="evenodd" d="M18.2857 23.9998H22.8571V12.7998H18.2857V23.9998Z" fill="#DB3C36"/>
<path fill-rule="evenodd" clip-rule="evenodd" d="M24.0162 4.18099C23.9112 4.18409 23.834 4.14589 23.8064 4.08169C23.9776 3.97619 24.0934 3.99972 24.237 4.13412C24.2646 4.02904 24.237 3.91198 24.1763 3.84179C24.1155 3.77159 24.0658 3.77159 23.9831 3.76561C23.9002 3.75983 23.8174 3.7365 23.7621 3.7365C23.6812 3.54925 23.4784 3.62852 23.2837 3.70532C22.9671 3.83002 22.6826 4.0565 22.5549 4.28256C22.4965 4.38599 22.4894 4.42667 22.4536 4.4853C22.4832 4.48138 22.4812 4.48138 22.4996 4.46961C22.4775 4.72705 22.4481 4.96488 22.4922 5.11704C22.4371 5.33939 22.4812 5.47978 22.5474 5.54997C22.6138 5.62016 22.6413 5.64948 22.6524 5.73144C22.6634 5.81319 22.6965 5.88917 22.7518 5.93603C22.807 5.9829 22.8401 6.05309 22.8456 6.09418C22.8511 6.13505 23.0219 6.31136 23.094 6.3574C23.1216 6.37474 23.1271 6.41005 23.1604 6.4567C23.0885 6.9014 23.3758 7.3461 23.3093 7.78481C23.3591 7.79059 23.4253 7.78481 23.4917 7.76726C23.5468 8.14156 23.5799 8.32303 23.2707 8.4341C22.9616 8.54538 22.7925 8.6548 22.8787 8.77929C22.9394 8.86703 23.0652 8.79064 23.1438 8.71487C23.2045 8.65645 23.2762 8.6038 23.3315 8.58625C23.3867 8.5687 23.3979 8.58625 23.3701 8.66223C23.3424 8.73841 23.1936 8.90212 23.1879 8.98409C23.1824 9.06605 23.2486 9.12447 23.3536 9.06006C23.4584 8.99565 23.5507 8.82718 23.5744 8.72664C23.5909 8.65645 23.6187 8.60958 23.613 8.72664C23.6075 8.8437 23.5413 9.05428 23.6904 9.08938C23.8395 9.12447 23.8838 8.93722 23.834 8.76752C23.7842 8.59802 23.7678 8.50429 23.7897 8.44587C23.8119 8.38723 23.834 8.35234 23.8891 8.36969C23.9443 8.38723 24.0548 8.3639 24.0493 8.27038C24.0436 8.17686 23.9664 8.10068 23.8781 8.15332C23.7897 8.20597 23.7235 8.19812 23.7621 8.08313C23.7897 8.00117 23.8395 7.90166 23.845 7.83745C23.9057 7.93098 24.248 7.94274 24.3861 7.855C24.4192 8.03049 24.5076 8.18842 24.3144 8.35234C24.121 8.51606 23.9664 8.67399 23.9719 8.79105C23.9776 8.90811 24.0217 8.9781 24.121 8.91967C24.2204 8.86125 24.2811 8.77928 24.3032 8.70331C24.3254 8.62713 24.3696 8.62713 24.3475 8.72086C24.3254 8.81438 24.2868 8.94899 24.3032 9.03095C24.3199 9.1127 24.4414 9.11869 24.4909 9.04251C24.5407 8.96654 24.5295 8.86703 24.5185 8.76752C24.5076 8.66801 24.5242 8.56292 24.5462 8.52184C24.5683 8.48096 24.6124 8.42233 24.6567 8.53361C24.7009 8.64468 24.7229 8.73242 24.8112 8.76174C24.8996 8.79105 24.9658 8.74997 24.9494 8.6389C24.9327 8.52783 24.8167 8.40478 24.7009 8.31126C24.585 8.21774 24.6236 8.17087 24.629 8.08313C24.6345 7.99539 24.6181 7.83745 24.6124 7.76726C24.7174 7.84922 24.8334 7.83745 24.8884 7.83745C24.9437 7.83745 25.0344 7.81949 24.9437 7.73216C24.7615 7.55668 24.8222 7.45118 24.6953 7.32256C24.5683 7.19394 24.4523 6.99492 24.4137 6.82543C24.3749 6.65572 24.2899 6.34563 24.121 6.1877C24.0272 6.09996 23.9996 5.86006 24.0217 5.58507C24.0436 5.31007 24.0493 5.00597 23.8119 4.86558C23.5744 4.72519 23.5799 4.60814 23.6573 4.4853C23.7345 4.36246 23.8338 4.2423 23.961 4.23363C23.9896 4.23178 24.0556 4.22599 24.0824 4.20535C24.0705 4.19565 24.0511 4.18016 24.0162 4.18099Z" fill="#EA8B42"/>
<path fill-rule="evenodd" clip-rule="evenodd" d="M22.472 4.81299C22.4661 4.93191 22.4688 5.03658 22.4922 5.11709C22.4371 5.33944 22.4812 5.47983 22.5474 5.55002C22.6138 5.62022 22.6413 5.64953 22.6524 5.73149C22.6634 5.81325 22.6965 5.88922 22.7518 5.93609C22.807 5.98295 22.8401 6.05315 22.8456 6.09423C22.8511 6.13511 23.0219 6.31142 23.094 6.35746C23.1216 6.3748 23.1271 6.4101 23.1604 6.45676C23.1305 6.64153 23.162 6.82631 23.2051 7.01067C22.8148 7.35379 22.4297 7.19193 22.5917 6.84097C22.2676 7.11389 21.7083 7.10626 21.8335 6.84097C21.3255 7.02822 21.1709 6.87214 21.2371 6.70058C20.8102 6.87999 20.5892 6.70842 20.6482 6.58352C20.2947 6.68489 20.0665 6.62254 20.0297 6.56019C19.993 6.49784 20.0812 6.35746 20.1623 6.28726C20.0003 6.34961 19.8457 6.34961 19.6984 6.32628C19.5512 6.30275 19.5881 6.25588 19.6174 6.18569C19.647 6.11549 19.6856 6.00442 19.8034 5.89521C19.5218 5.95364 19.1684 5.99472 18.92 5.90677C18.8732 5.89026 18.793 5.87168 18.8426 5.81924C18.8924 5.76659 19.0414 5.63777 19.2237 5.5558C18.8095 5.62022 18.0254 5.66708 17.8046 5.40386C18.0199 5.45051 18.296 5.35699 18.4727 5.28102C17.777 5.19906 16.8274 4.69593 16.8162 4.20458C17.0151 4.54378 17.3575 4.66084 17.6998 4.76613C17.2359 4.47936 17.0427 4.13418 17.0262 3.90605C17.2911 4.17526 17.6941 4.47936 18.0918 4.54976C17.8101 4.39183 17.4457 3.92958 17.3464 3.60773C17.5507 3.80076 18.0752 4.11085 18.4341 4.21036C18.1857 4.00556 17.7827 3.51998 17.8046 3.25098C17.8985 3.35049 18.1304 3.53753 18.6051 3.83007C19.08 4.12262 19.3377 4.10114 19.7297 4.18889C19.658 4.08752 19.5935 3.95291 19.5881 3.91782C19.704 3.93536 19.8143 3.98223 20.1456 4.19859C20.4769 4.41516 21.2009 4.48143 21.6144 4.6726C21.9179 4.81299 22.3505 4.72525 22.472 4.81299Z" fill="#EA8B42"/>
<path fill-rule="evenodd" clip-rule="evenodd" d="M24.9708 7.81734C24.989 7.80206 24.989 7.77563 24.9436 7.73207C24.7614 7.55659 24.8221 7.45109 24.6951 7.32247C24.5682 7.19385 24.4522 6.99483 24.4136 6.82534C24.3748 6.65563 24.2898 6.34554 24.1209 6.18761C24.0271 6.09987 23.9994 5.85997 24.0216 5.58497C24.0404 5.34962 24.0472 5.093 23.8999 4.93589C24.176 4.85393 24.4303 4.83617 24.5184 4.9297C24.9767 4.80686 25.3744 4.7697 25.7645 4.74265C26.2135 4.71127 27.0601 4.50854 27.6639 4.07953C27.6271 4.23561 27.421 4.46952 27.2368 4.58657C27.8479 4.4305 28.5841 4.14188 29.2099 3.65052C29.2024 3.99385 28.9376 4.25109 28.7828 4.39168C29.2099 4.14188 29.8355 3.82993 30.049 3.43994C30.1429 3.83963 29.5044 4.36237 29.1582 4.65099C29.5116 4.47158 29.9681 4.3058 30.1448 4.04051C30.1411 4.36423 29.7399 4.76598 29.357 4.99989C29.7473 4.84402 30.1816 4.6801 30.4318 4.43834C30.4612 4.76412 29.2649 5.51292 28.6723 5.71752C29.1878 5.58497 29.8576 5.40557 30.1521 5.21832C30.1374 5.28459 30.0173 5.37749 29.9299 5.44521C29.5698 5.72474 29.0175 5.87483 28.6797 5.94379C28.724 6.13888 28.665 6.2481 28.4589 6.26358C28.2528 6.27927 27.754 6.19545 27.5038 6.0627C27.467 6.08603 27.4227 6.09408 27.373 6.09986C27.6159 6.2929 27.6988 6.43328 27.649 6.51525C27.5994 6.59721 27.4255 6.58234 27.293 6.55323C27.3978 6.86332 27.0471 6.84288 26.7546 6.66719C26.8706 6.82534 26.8873 6.95974 26.727 6.99483C26.567 7.02993 26.4398 7.01837 26.2852 6.91287C26.2743 7.02993 26.1675 7.10797 26.0258 7.06895C26.5117 7.37904 26.4841 7.49218 26.4012 7.60903C26.3185 7.72609 26.0286 7.70276 25.874 7.59747C25.8078 7.83736 25.5437 7.83819 25.3466 7.64722C25.3448 7.74281 25.1567 7.93254 24.9708 7.81734Z" fill="#EA8B42"/>
<path fill-rule="evenodd" clip-rule="evenodd" d="M22.7169 8.99368C22.7249 8.91977 22.7315 8.83388 22.7903 8.77917C22.8493 8.72447 22.8861 8.67781 22.9377 8.73231C22.9892 8.78702 22.9561 8.83781 22.8861 8.86114C22.8162 8.88446 22.7684 8.95073 22.7572 8.99368C22.7462 9.03662 22.7094 9.05995 22.7169 8.99368Z" fill="black"/>
<path fill-rule="evenodd" clip-rule="evenodd" d="M23.1179 9.35272C23.0815 9.23009 23.0997 9.07195 23.1401 9.02508C23.1806 8.97821 23.2321 8.94704 23.2799 8.99391C23.3277 9.04077 23.3462 9.10704 23.2578 9.14606C23.1796 9.18054 23.1732 9.26684 23.1696 9.32939C23.1659 9.39174 23.1401 9.42684 23.1179 9.35272Z" fill="black"/>
<path fill-rule="evenodd" clip-rule="evenodd" d="M23.6336 9.03696C23.6052 9.08713 23.6408 9.29048 23.7366 9.34106C23.8044 9.37698 23.8359 9.36852 23.7954 9.30204C23.755 9.23577 23.7697 9.17342 23.7919 9.13833C23.8138 9.10323 23.8103 9.04088 23.7623 9.00971C23.7145 8.97833 23.6555 8.99794 23.6336 9.03696Z" fill="black"/>
<path fill-rule="evenodd" clip-rule="evenodd" d="M24.0491 8.85327C23.9884 8.80496 23.9314 8.86297 23.9092 8.90385C23.865 8.98581 23.8983 9.10287 23.9682 9.16914C24.0382 9.23541 24.027 9.14581 24.0048 9.10679C23.9829 9.06777 23.9792 8.98973 24.027 8.98189C24.0748 8.97425 24.1081 8.89993 24.0491 8.85327Z" fill="black"/>
<path fill-rule="evenodd" clip-rule="evenodd" d="M24.3953 8.98604C24.3362 8.96767 24.2776 9.0329 24.2848 9.11094C24.2903 9.16916 24.296 9.24348 24.351 9.2825C24.3881 9.30852 24.4137 9.32545 24.3953 9.25525C24.3769 9.18506 24.4065 9.12643 24.4394 9.10702C24.4725 9.08761 24.4578 9.00565 24.3953 8.98604Z" fill="black"/>
<path fill-rule="evenodd" clip-rule="evenodd" d="M24.8849 8.65458C24.842 8.68637 24.8443 8.76008 24.8849 8.78733C24.9253 8.81458 24.9842 8.8536 24.9733 8.91987C24.9621 8.98614 24.9952 9.00968 25.0248 8.93556C25.0542 8.86144 25.0579 8.75223 25.0248 8.70144C24.9915 8.65066 24.9215 8.62733 24.8849 8.65458Z" fill="black"/>
<path fill-rule="evenodd" clip-rule="evenodd" d="M23.8175 4.07631C23.8431 4.13583 23.9165 4.17097 24.0158 4.16804L24.0159 4.16804C24.0475 4.16729 24.0666 4.17618 24.0896 4.21573C24.0653 4.2344 24.0196 4.2427 23.9617 4.24646C23.8562 4.25366 23.764 4.3387 23.6675 4.49239C23.5805 4.63043 23.6109 4.73196 23.8178 4.85428C24.0234 4.97584 24.0657 5.18758 24.0339 5.58611C24.0105 5.87568 24.0441 6.09854 24.1291 6.178C24.2697 6.30952 24.3603 6.53677 24.4256 6.82237C24.4629 6.98596 24.5756 7.18343 24.7037 7.31321C24.7338 7.34372 24.7553 7.37446 24.7726 7.40956C24.7825 7.42975 24.7897 7.44797 24.8014 7.48067C24.8418 7.59355 24.869 7.64276 24.9519 7.72259C24.9979 7.76683 25.0068 7.80362 24.9784 7.82758C24.9597 7.84338 24.9259 7.85031 24.8884 7.85031L24.868 7.8506C24.7789 7.85233 24.7215 7.84465 24.6555 7.81012C24.6458 7.80502 24.6362 7.79941 24.6269 7.79326L24.6325 7.85835C24.6349 7.88732 24.6369 7.91304 24.6384 7.9375C24.6423 7.9989 24.6435 8.04791 24.6412 8.08393C24.6404 8.09758 24.6389 8.10946 24.6361 8.12818C24.631 8.16277 24.63 8.17224 24.631 8.18728C24.6334 8.22417 24.6542 8.25727 24.7084 8.30097C24.8503 8.41558 24.946 8.53401 24.9614 8.63686C24.9786 8.75244 24.9095 8.80783 24.8075 8.774C24.7451 8.75329 24.713 8.7104 24.6759 8.61741C24.6739 8.61228 24.6686 8.59844 24.6628 8.5835C24.656 8.56584 24.6486 8.54666 24.6453 8.53855C24.6273 8.49319 24.6109 8.47864 24.5965 8.48302C24.5841 8.48678 24.5702 8.50335 24.5568 8.52812C24.5341 8.57068 24.5208 8.67612 24.5307 8.76598L24.5308 8.76694C24.5475 8.91892 24.5446 8.9831 24.501 9.04976C24.4456 9.13488 24.3103 9.1272 24.2912 9.03357C24.2825 8.99021 24.2874 8.9329 24.3029 8.85686C24.3072 8.83593 24.3121 8.81424 24.3186 8.78759L24.3356 8.7177C24.3441 8.68163 24.3418 8.66142 24.3397 8.661C24.3362 8.66032 24.3236 8.67727 24.3149 8.70705C24.2901 8.79209 24.2232 8.8743 24.127 8.93089C24.0255 8.99059 23.9664 8.92985 23.9597 8.79164C23.9545 8.68152 24.0707 8.54202 24.3067 8.34225C24.3525 8.30337 24.3833 8.26388 24.4016 8.22253C24.4346 8.14765 24.4299 8.09016 24.3935 7.94326C24.386 7.91304 24.3813 7.89332 24.3775 7.87472C24.238 7.94974 23.9461 7.94331 23.8533 7.86509C23.847 7.89588 23.8333 7.93347 23.8059 8.00223L23.8058 8.00257C23.7886 8.04574 23.7812 8.065 23.7736 8.08739C23.7572 8.13627 23.7607 8.16207 23.7771 8.16909C23.7948 8.1767 23.8297 8.16728 23.872 8.14204C23.9633 8.08768 24.0548 8.15887 24.0615 8.26954C24.0669 8.36116 23.9651 8.40727 23.8855 8.382C23.8442 8.36899 23.8254 8.38619 23.8011 8.45057C23.7816 8.50251 23.794 8.5878 23.8457 8.76366C23.9032 8.95993 23.8378 9.13725 23.6877 9.10192C23.5958 9.0803 23.5718 9.00381 23.5846 8.86999C23.5862 8.85342 23.5881 8.83756 23.5913 8.81282C23.5984 8.75873 23.5998 8.74641 23.6007 8.72593C23.6017 8.70709 23.6017 8.69223 23.601 8.68148C23.5963 8.69303 23.5908 8.71036 23.5863 8.7297C23.5579 8.8499 23.4573 9.01121 23.3597 9.07116C23.255 9.13544 23.1688 9.0855 23.1756 8.9831C23.1782 8.94544 23.2038 8.89739 23.2565 8.81966L23.2711 8.79828C23.3379 8.70132 23.3489 8.68425 23.3586 8.65753C23.3829 8.59123 23.3793 8.58448 23.335 8.59856C23.2852 8.61438 23.2163 8.66248 23.152 8.72434C23.0429 8.82959 22.9272 8.87126 22.8688 8.78684C22.8225 8.72003 22.8416 8.65411 22.919 8.59146C22.987 8.53633 23.1016 8.48128 23.2668 8.42184C23.5284 8.32783 23.5485 8.23737 23.4947 7.77973C23.4282 7.79729 23.3603 7.80367 23.2972 7.78273C23.3243 7.60378 23.3031 7.45995 23.2222 7.13131C23.1395 6.79513 23.1177 6.64369 23.1506 6.46441C23.142 6.45238 23.1348 6.44058 23.1274 6.42689C23.1261 6.42467 23.1234 6.4195 23.1205 6.41401C23.1169 6.40705 23.1129 6.39957 23.1115 6.39695C23.1032 6.38212 23.0966 6.37403 23.0876 6.36839C23.0092 6.31829 22.8394 6.14029 22.8334 6.09593C22.8275 6.05115 22.7913 5.98614 22.744 5.94604C22.6885 5.89889 22.6522 5.82206 22.6403 5.73323C22.6308 5.66387 22.6168 5.64159 22.5387 5.55902C22.457 5.47243 22.43 5.3167 22.4804 5.12076C22.4464 5.00328 22.4496 4.89015 22.4813 4.53718L22.4853 4.49236C22.4817 4.49369 22.4778 4.49464 22.4726 4.49553C22.4652 4.4967 22.4652 4.4967 22.4551 4.49805L22.4551 4.49805L22.4432 4.47826C22.4505 4.46633 22.4569 4.45469 22.4632 4.44193C22.4658 4.43649 22.4672 4.43374 22.4685 4.43099C22.4698 4.42818 22.4711 4.42536 22.4737 4.41967C22.4715 4.42451 22.4934 4.37541 22.5009 4.3595C22.5136 4.33268 22.5272 4.30612 22.5443 4.27592C22.674 4.04634 22.9614 3.81844 23.2793 3.69319C23.5807 3.57436 23.7018 3.56581 23.7621 3.72355C23.7887 3.72355 23.8021 3.7255 23.8805 3.73891C23.9253 3.74658 23.954 3.7506 23.9839 3.75269L24.0028 3.75403C24.0734 3.75903 24.103 3.76566 24.1387 3.79026C24.1545 3.80106 24.1697 3.81507 24.1853 3.83305C24.2505 3.90838 24.2769 4.03068 24.2488 4.13752L24.2288 4.14373C24.0844 4.00856 23.9741 3.99322 23.8175 4.07631ZM24.0747 4.2154C24.0554 4.19976 24.0412 4.19313 24.0162 4.19372L24.0163 4.19372C23.908 4.19691 23.8253 4.15727 23.7999 4.07038C23.9652 3.96857 24.0845 3.98093 24.2295 4.11028C24.2282 4.11708 24.2267 4.12383 24.225 4.13051L24.2449 4.12431C24.2397 4.11949 24.2346 4.11481 24.2295 4.11028C24.2473 4.01696 24.2224 3.91434 24.167 3.85031C24.1528 3.83388 24.139 3.8213 24.1252 3.81175C24.0939 3.79028 24.0676 3.78438 24.0009 3.77965L23.982 3.77831C23.9512 3.77616 23.9219 3.77205 23.8763 3.76426C23.8621 3.76183 23.8501 3.75978 23.8397 3.75801C23.7941 3.75026 23.7798 3.74783 23.7507 3.74168C23.6875 3.59551 23.5765 3.60335 23.2877 3.71724C22.9746 3.84056 22.6917 4.06491 22.5651 4.28899C22.5484 4.31862 22.535 4.34461 22.5226 4.37086C22.5153 4.38647 22.4935 4.4353 22.4956 4.43069C22.4929 4.43648 22.4916 4.43937 22.4902 4.44225C22.4889 4.44513 22.4875 4.448 22.4847 4.45373C22.4824 4.45848 22.48 4.46309 22.4776 4.46762C22.4753 4.46854 22.4727 4.4692 22.4684 4.46994L22.4518 4.47233L22.4636 4.49212C22.4686 4.48396 22.4732 4.47592 22.4776 4.46762C22.478 4.46744 22.4785 4.46725 22.4789 4.46704C22.4814 4.46584 22.4837 4.46446 22.493 4.4584L22.5115 4.4706L22.5055 4.53949C22.4741 4.88802 22.471 5.00039 22.5038 5.12013C22.4555 5.31491 22.4809 5.46125 22.5558 5.54069C22.6374 5.62686 22.6539 5.65318 22.6643 5.72946C22.6754 5.81226 22.7089 5.88313 22.7592 5.92581C22.8112 5.96994 22.8506 6.04081 22.8575 6.0922C22.8621 6.12635 23.0276 6.29987 23.1 6.34615C23.1132 6.35438 23.1222 6.36552 23.1324 6.38376C23.134 6.38669 23.1382 6.39472 23.142 6.40188C23.1448 6.40714 23.1473 6.41193 23.1484 6.41392C23.1502 6.4173 23.152 6.42055 23.1539 6.42389C23.1591 6.43321 23.1647 6.44322 23.1723 6.4587C23.1424 6.64305 23.1638 6.79208 23.2457 7.12471C23.3274 7.45683 23.349 7.60297 23.3104 7.77181C23.3558 7.77708 23.4145 7.77232 23.4851 7.7666C23.4912 7.76611 23.4973 7.76561 23.5036 7.76511C23.5741 8.24441 23.5514 8.34662 23.2744 8.44614C23.1117 8.50473 22.9991 8.55882 22.9337 8.6118C22.8658 8.66677 22.8511 8.71766 22.8883 8.77151C22.9342 8.8377 23.0358 8.80108 23.1353 8.70517C23.2021 8.64092 23.2737 8.59089 23.3277 8.57373C23.3954 8.55222 23.4119 8.5831 23.3813 8.66666C23.3704 8.69662 23.3599 8.71292 23.2907 8.81332L23.2762 8.83454C23.2265 8.90789 23.202 8.95395 23.1998 8.98482C23.1944 9.06568 23.2588 9.10297 23.3472 9.04874C23.4385 8.99263 23.5354 8.83726 23.5623 8.72337C23.5716 8.68378 23.5832 8.65382 23.5949 8.64553C23.6094 8.63536 23.62 8.64665 23.6234 8.6647C23.6259 8.67754 23.6264 8.69816 23.625 8.72711C23.624 8.74864 23.6225 8.76115 23.6154 8.8162C23.6122 8.84066 23.6103 8.85627 23.6088 8.87246C23.5971 8.9948 23.6172 9.05881 23.6928 9.07661C23.8181 9.1061 23.875 8.95178 23.8221 8.77116C23.7687 8.58935 23.7557 8.50057 23.7781 8.44093C23.8065 8.36569 23.8354 8.33924 23.8923 8.35716C23.9579 8.37799 24.0409 8.34041 24.0368 8.27104C24.0312 8.1777 23.9576 8.12046 23.8839 8.16439C23.8355 8.19318 23.7943 8.20431 23.7676 8.19287C23.7355 8.17912 23.7301 8.13886 23.7503 8.07864C23.7581 8.05562 23.7656 8.03608 23.783 7.99245L23.7831 7.99211C23.8175 7.90574 23.8296 7.86988 23.8325 7.83613L23.8548 7.83C23.9114 7.91707 24.2466 7.9282 24.3795 7.84378L24.3979 7.85231C24.4024 7.87632 24.4073 7.89751 24.417 7.93663C24.4548 8.0893 24.4599 8.151 24.4236 8.23329C24.4036 8.27844 24.3704 8.32099 24.3218 8.36223C24.093 8.55598 23.9793 8.6924 23.9839 8.79022C23.9898 8.91211 24.0329 8.95641 24.1148 8.90824C24.2057 8.85476 24.2684 8.77776 24.2913 8.69936C24.3033 8.6581 24.3232 8.63141 24.344 8.63552C24.3669 8.64006 24.3709 8.67419 24.3591 8.72381L24.3421 8.79382C24.3357 8.8202 24.3309 8.8416 24.3266 8.86218C24.3118 8.9349 24.3072 8.98927 24.3149 9.02807C24.329 9.09707 24.4362 9.10316 24.4806 9.03501C24.5196 8.97549 24.5223 8.91536 24.5062 8.76979L24.5061 8.76884C24.4957 8.674 24.5097 8.56326 24.5353 8.51527C24.5518 8.48486 24.5689 8.46434 24.5895 8.4581C24.6191 8.44911 24.6455 8.47254 24.6677 8.52844C24.671 8.53673 24.6785 8.55619 24.6854 8.57395C24.6911 8.58873 24.6963 8.60232 24.6983 8.60731C24.7328 8.69394 24.7609 8.73142 24.8147 8.74926C24.9 8.77758 24.9512 8.73652 24.937 8.64074C24.9229 8.54647 24.8305 8.43217 24.6932 8.32134C24.634 8.27353 24.6093 8.23421 24.6063 8.18895C24.6052 8.17118 24.6063 8.1608 24.6117 8.12406C24.6144 8.10604 24.6158 8.09481 24.6166 8.08211C24.6187 8.0475 24.6176 7.99945 24.6138 7.9391C24.6122 7.91484 24.6103 7.88929 24.6079 7.86048L24.5999 7.76819L24.6194 7.75672C24.6344 7.76839 24.65 7.7784 24.6662 7.78688C24.7277 7.81909 24.7819 7.82633 24.8674 7.82467L24.8882 7.82438C24.9205 7.82438 24.9498 7.81837 24.9629 7.80732C24.9763 7.79598 24.9716 7.77659 24.9352 7.74152C24.8489 7.65846 24.8199 7.60599 24.7782 7.48965C24.7669 7.45783 24.7599 7.44035 24.7506 7.42129C24.7346 7.38866 24.7147 7.3602 24.6865 7.33169C24.5552 7.19861 24.44 6.99686 24.4016 6.82828C24.3374 6.54762 24.2483 6.32406 24.1126 6.19718C24.0199 6.11043 23.9853 5.88109 24.0092 5.58381C24.0403 5.1948 23.9997 4.99142 23.8056 4.87666C23.5869 4.74737 23.5515 4.62927 23.6468 4.478C23.7473 4.31815 23.8445 4.22846 23.96 4.22058C23.9765 4.21951 23.9923 4.21798 24.0066 4.21658C24.0376 4.21357 24.062 4.21119 24.0747 4.2154Z" fill="black"/>
<path fill-rule="evenodd" clip-rule="evenodd" d="M22.1737 4.75181C22.3625 4.75881 22.4311 4.76769 22.4789 4.80217L22.4842 4.81348C22.4776 4.94584 22.483 5.04109 22.504 5.12017C22.4557 5.31495 22.4811 5.46129 22.556 5.54073C22.6376 5.6269 22.6541 5.65322 22.6645 5.7295C22.6756 5.8123 22.7091 5.88317 22.7594 5.92585C22.8114 5.96999 22.8508 6.04085 22.8577 6.09224C22.8623 6.12639 23.0278 6.29991 23.1002 6.34619C23.1134 6.35442 23.1224 6.36556 23.1326 6.3838C23.1342 6.38673 23.1384 6.39475 23.1422 6.40192C23.145 6.40718 23.1475 6.41197 23.1486 6.41396C23.1504 6.41734 23.1522 6.42058 23.1541 6.42391C23.1593 6.43324 23.1649 6.44326 23.1725 6.45875C23.1467 6.61787 23.1631 6.77685 23.2129 7.02039C23.0282 7.1828 22.8286 7.24505 22.6876 7.19822C22.5597 7.15578 22.5095 7.03295 22.5625 6.87992C22.4122 6.99143 22.2124 7.05649 22.044 7.05552C21.8706 7.05451 21.7726 6.9817 21.8116 6.86231C21.3924 7.01007 21.1593 6.92639 21.2167 6.72249C20.8698 6.85833 20.5824 6.7641 20.6278 6.60233C20.33 6.68255 20.0709 6.65422 20.0192 6.5668C19.987 6.51207 20.0371 6.40148 20.1131 6.31769C19.9815 6.35826 19.8473 6.36274 19.6965 6.33886C19.6254 6.32749 19.5902 6.30996 19.5808 6.28008C19.5736 6.25729 19.5758 6.25039 19.6028 6.18822L19.6062 6.18027C19.6061 6.18048 19.6239 6.13742 19.63 6.12335C19.6407 6.09871 19.6512 6.07681 19.6631 6.05499C19.6902 6.00527 19.7228 5.9595 19.7641 5.91609C19.4196 5.98377 19.1258 5.99308 18.9161 5.91882L18.8846 5.90819C18.8553 5.89799 18.8373 5.88908 18.8259 5.8765C18.8086 5.85758 18.8112 5.8339 18.8339 5.80995C18.9009 5.73908 19.0193 5.648 19.1453 5.58016C18.5475 5.66289 17.9754 5.6268 17.7954 5.41222L17.807 5.39103C17.9748 5.42738 18.1905 5.38239 18.4236 5.2875C17.6603 5.18048 16.8142 4.65853 16.8039 4.2047L16.8266 4.19761C16.9814 4.46171 17.188 4.58739 17.6137 4.72534C17.2452 4.47509 17.0325 4.16419 17.014 3.90684L17.0347 3.89658C17.3357 4.20252 17.6943 4.4414 18.0235 4.52201C17.7508 4.33572 17.428 3.91403 17.3347 3.61153L17.3545 3.59794C17.5625 3.79445 18.0451 4.07204 18.3797 4.18036C18.0751 3.91173 17.7738 3.47766 17.7924 3.24969L17.8133 3.2417C17.9296 3.36509 18.1967 3.56327 18.6113 3.81875C18.8681 3.97698 19.0639 4.04964 19.3217 4.09965C19.3581 4.10672 19.3934 4.11303 19.449 4.12259C19.586 4.14617 19.6365 4.15523 19.7014 4.16928C19.6413 4.07805 19.5821 3.95892 19.5759 3.91973L19.5898 3.90486C19.7186 3.92435 19.8417 3.98476 20.1521 4.18744C20.3016 4.2852 20.4844 4.34264 20.928 4.45101L20.9484 4.45601C21.3065 4.54349 21.4656 4.58953 21.6193 4.66061C21.6995 4.69771 21.7933 4.72092 21.905 4.73443C21.9806 4.74358 22.0353 4.74668 22.1737 4.75181ZM22.4595 4.81965C22.4596 4.81718 22.4597 4.81469 22.4598 4.81219L22.4651 4.82351C22.4633 4.82218 22.4614 4.82089 22.4595 4.81965ZM17.8411 5.42329C18.0193 5.4486 18.2407 5.39459 18.4774 5.29284L18.4741 5.26806C17.7391 5.18147 16.9057 4.69016 16.8335 4.25607C17.0005 4.5139 17.2302 4.63497 17.6965 4.77838L17.7061 4.75487C17.3126 4.51168 17.0785 4.19925 17.0422 3.93975C17.3631 4.25883 17.7451 4.50133 18.0899 4.56236L18.0977 4.53824C17.8325 4.3896 17.4903 3.96531 17.3735 3.64906C17.6135 3.85726 18.1098 4.13363 18.4311 4.22271L18.4417 4.20007C18.1409 3.95204 17.825 3.51695 17.8163 3.28075C17.9434 3.40681 18.2051 3.59833 18.599 3.84108C18.8585 4.00091 19.0569 4.07455 19.3174 4.12508C19.354 4.13219 19.3895 4.13853 19.4451 4.14811C19.6025 4.17519 19.6454 4.18306 19.7273 4.20138L19.7396 4.18105C19.6837 4.10198 19.623 3.98638 19.6051 3.9336C19.7235 3.95558 19.847 4.01856 20.1393 4.20943C20.2921 4.30932 20.4759 4.36708 20.9226 4.4762L20.943 4.4812C21.2995 4.56829 21.4578 4.61411 21.6096 4.68429C21.6924 4.72257 21.7884 4.74634 21.9024 4.76013C21.9788 4.76938 22.0339 4.7725 22.1729 4.77766C22.3472 4.78412 22.417 4.79244 22.4595 4.81965C22.4534 4.95091 22.4591 5.04654 22.4805 5.12073C22.4301 5.31667 22.4571 5.47241 22.5388 5.55899C22.6169 5.64156 22.6309 5.66384 22.6404 5.7332C22.6523 5.82203 22.6886 5.89886 22.7442 5.94601C22.7914 5.98611 22.8276 6.05112 22.8336 6.0959C22.8395 6.14026 23.0093 6.31826 23.0878 6.36836C23.0968 6.37401 23.1033 6.3821 23.1116 6.39692C23.113 6.39954 23.117 6.40702 23.1206 6.41398C23.1235 6.41947 23.1263 6.42465 23.1275 6.42686C23.1349 6.44055 23.1421 6.45236 23.1507 6.46439C23.1219 6.61786 23.1387 6.77992 23.1933 7.01363C23.0185 7.15786 22.8272 7.21754 22.6951 7.17367C22.5701 7.13218 22.5289 7.00658 22.6028 6.84648L22.5841 6.83076C22.4352 6.95616 22.2214 7.03079 22.0443 7.02977C21.8731 7.02877 21.7912 6.95951 21.8445 6.84658L21.8295 6.82866C21.3917 6.99002 21.1721 6.90331 21.2485 6.70531L21.2327 6.68847C20.8737 6.83931 20.589 6.73786 20.6592 6.58914L20.645 6.57094C20.3469 6.65645 20.0855 6.63 20.0401 6.55324C20.0115 6.50449 20.0811 6.37415 20.1702 6.29711L20.1582 6.27501C20.0134 6.33072 19.8677 6.33991 19.7003 6.31339C19.6377 6.30339 19.6097 6.28941 19.6042 6.27198C19.6 6.25888 19.6024 6.25165 19.6252 6.19901L19.6287 6.19077C19.6912 6.04254 19.7144 6.00001 19.7969 5.91876C19.8005 5.9153 19.8023 5.91355 19.8041 5.91182C19.8059 5.91005 19.8078 5.9083 19.8116 5.90477L19.8011 5.88242C19.4426 5.95683 19.137 5.96983 18.924 5.89441L18.8924 5.88374C18.8669 5.87486 18.8514 5.86717 18.8437 5.85868C18.8365 5.85085 18.8374 5.84298 18.8514 5.82821C18.9292 5.7459 19.0798 5.63447 19.2285 5.56754L19.222 5.54291C18.6331 5.63449 18.0494 5.61209 17.8411 5.42329ZM17.8411 5.42329C17.8311 5.4143 17.8221 5.40493 17.8139 5.39518L17.8022 5.41637C17.8149 5.41912 17.8279 5.42142 17.8411 5.42329ZM19.6051 3.9336C19.6026 3.92631 19.601 3.92022 19.6002 3.91559L19.5864 3.93046C19.5926 3.9314 19.5989 3.93245 19.6051 3.9336ZM17.8163 3.28075C17.816 3.27078 17.8162 3.26118 17.8169 3.25195L17.796 3.25994C17.8024 3.26667 17.8091 3.2736 17.8163 3.28075ZM17.3735 3.64906C17.3678 3.63364 17.3627 3.61847 17.3581 3.60361L17.3383 3.6172C17.3493 3.62762 17.3611 3.63825 17.3735 3.64906ZM17.0422 3.93975C17.0406 3.92803 17.0394 3.91643 17.0385 3.90494L17.0178 3.91521C17.0259 3.92344 17.0341 3.93162 17.0422 3.93975ZM16.8335 4.25607C16.8306 4.23866 16.8289 4.22134 16.8285 4.20414L16.8059 4.21123C16.8149 4.22663 16.8241 4.24157 16.8335 4.25607Z" fill="black"/>
<path fill-rule="evenodd" clip-rule="evenodd" d="M24.9646 7.82855L24.9632 7.80733C24.9766 7.79613 24.9718 7.77666 24.9353 7.74169C24.8491 7.65864 24.8201 7.60616 24.7784 7.48983C24.767 7.45801 24.7601 7.44053 24.7508 7.42146C24.7347 7.38884 24.7148 7.36038 24.6867 7.33187C24.5553 7.19879 24.4401 6.99703 24.4017 6.82845C24.3376 6.54779 24.2485 6.32424 24.1128 6.19736C24.02 6.11061 23.9855 5.88127 24.0094 5.58399C24.0123 5.54741 24.0146 5.51263 24.0163 5.47953L24.0241 5.48398L24.024 5.48495L24.0253 5.48466L24.0402 5.49273C24.0386 5.52262 24.0365 5.55381 24.0339 5.58638C24.0106 5.87595 24.0442 6.09881 24.1292 6.17827C24.2698 6.30979 24.3604 6.53704 24.4257 6.82264C24.4629 6.98623 24.5757 7.1837 24.7038 7.31348C24.7339 7.34399 24.7554 7.37474 24.7726 7.40983C24.7825 7.43002 24.7897 7.44824 24.8014 7.48094C24.8418 7.59382 24.8691 7.64304 24.9519 7.72284C24.9899 7.75918 25.0027 7.79065 24.9901 7.81394C24.9857 7.81165 24.9814 7.80918 24.9771 7.80653L24.9786 7.82775C24.9836 7.82354 24.9874 7.81893 24.9901 7.81394C25.1386 7.89196 25.3323 7.76505 25.3345 7.64728L25.355 7.63804C25.554 7.83086 25.8014 7.81505 25.8624 7.59418L25.8808 7.58694C26.0392 7.69484 26.3173 7.70672 26.3915 7.60162C26.4938 7.45747 26.4336 7.34453 26.0196 7.0803L26.0291 7.05678C26.1584 7.09241 26.2625 7.02587 26.2732 6.91192L26.292 6.90236C26.4347 6.99977 26.5555 7.01962 26.7247 6.98251C26.8634 6.95213 26.866 6.84033 26.7451 6.6754L26.7608 6.6563C26.9061 6.74358 27.0643 6.79116 27.1717 6.77986C27.2851 6.76793 27.3279 6.69466 27.2816 6.55788L27.2957 6.54092C27.4655 6.57824 27.6003 6.57236 27.6388 6.50861C27.6853 6.43201 27.5957 6.29322 27.3657 6.11048L27.3717 6.08736C27.4318 6.08038 27.4672 6.07123 27.5095 6.05149C27.7369 6.17219 28.2288 6.26849 28.4582 6.25103C28.6501 6.23661 28.7121 6.1416 28.6775 5.93144C29.1699 5.83091 29.6229 5.66789 29.9228 5.43513C29.9553 5.40994 29.9698 5.39855 29.9883 5.38361C30.0147 5.36234 30.0371 5.34327 30.0567 5.32518C30.0869 5.29724 30.1095 5.27236 30.1238 5.25089C30.1358 5.24385 30.1474 5.23678 30.1585 5.22968L30.1403 5.2157C30.138 5.22612 30.1324 5.23788 30.1238 5.25089C29.8713 5.39902 29.4302 5.53627 28.6753 5.73037L28.6686 5.70557L28.6695 5.70527L28.6718 5.70447C29.3422 5.47193 30.3766 4.76905 30.4189 4.46828C30.4261 4.46164 30.4332 4.45493 30.4402 4.44817L30.4198 4.43988C30.4206 4.44889 30.4203 4.45837 30.4189 4.46828C30.2451 4.62782 30.0001 4.75476 29.591 4.92054C29.5567 4.93443 29.5215 4.94854 29.4756 4.96683L29.3615 5.01227L29.351 4.98905L29.3527 4.98799L29.3531 4.98777C29.7645 4.73587 30.0958 4.36685 30.1298 4.08341C30.1386 4.0719 30.147 4.06019 30.155 4.04824L30.1327 4.04067C30.1325 4.05467 30.1316 4.06893 30.1298 4.08341C30.0157 4.23242 29.8269 4.34718 29.4637 4.51895L29.4524 4.52426C29.4196 4.53972 29.3253 4.58413 29.2949 4.59863C29.2446 4.62263 29.2026 4.64315 29.1636 4.66293L29.1507 4.64119C29.3322 4.48988 29.3954 4.43606 29.4941 4.34569C29.68 4.17554 29.8218 4.02107 29.9172 3.87524C30.0145 3.72638 30.0587 3.5927 30.0432 3.47561C30.0489 3.46601 30.0545 3.45638 30.0597 3.44671L30.0373 3.44336C30.0397 3.45396 30.0417 3.46471 30.0432 3.47561C29.9112 3.69534 29.656 3.89676 29.2474 4.13936C29.1826 4.17783 29.0203 4.27071 28.9061 4.336C28.8484 4.36903 28.803 4.39499 28.7889 4.40328L28.7749 4.38223C29.0353 4.1457 29.182 3.93855 29.1967 3.67726L29.2173 3.66119L29.1978 3.65055C29.1976 3.65951 29.1972 3.66842 29.1967 3.67726C28.6426 4.10689 27.9633 4.4132 27.2514 4.59645L27.2332 4.58222L27.2332 4.58203L27.2331 4.58207L27.233 4.58205L27.2306 4.57584C27.405 4.46498 27.5879 4.25787 27.6417 4.11093L27.6709 4.09055L27.6521 4.07673C27.6496 4.08769 27.6461 4.09911 27.6417 4.11093C27.1171 4.47239 26.3366 4.71593 25.7654 4.75584C25.2486 4.79167 24.9141 4.83731 24.5099 4.93911C24.4328 4.85738 24.2057 4.86174 23.9229 4.94292C23.9183 4.93758 23.9136 4.93232 23.9088 4.92714L23.9034 4.94863L23.9229 4.94292C24.0211 5.05786 24.0511 5.20995 24.0422 5.45047L24.0192 5.45523L24.0166 5.47339C24.0287 5.21432 23.998 5.05889 23.8912 4.94506L23.8966 4.92357C24.1969 4.83442 24.4395 4.82776 24.5154 4.91729C24.9097 4.81161 25.2456 4.7658 25.7637 4.72988C26.3415 4.6895 27.1364 4.43884 27.6571 4.06893L27.6758 4.08274C27.6431 4.22156 27.4769 4.42639 27.3035 4.55594C28.0001 4.36957 28.6625 4.06433 29.2026 3.64028L29.2222 3.65092C29.2166 3.90597 29.0939 4.10791 28.87 4.32705L28.8947 4.31289L28.8949 4.31281C29.009 4.24753 29.1708 4.15496 29.2353 4.11666C29.658 3.86567 29.9148 3.65939 30.0384 3.43359L30.0609 3.43694C30.0922 3.57008 30.0473 3.72148 29.9373 3.88966C29.8405 4.03763 29.6974 4.1935 29.5101 4.36495C29.4276 4.44043 29.3699 4.49047 29.2482 4.59242L29.2847 4.5749C29.3151 4.56039 29.4093 4.51602 29.4422 4.50053L29.4535 4.49519C29.8405 4.31219 30.0273 4.19468 30.1348 4.0332L30.1571 4.04077C30.1539 4.31571 29.8603 4.67483 29.4732 4.93991C29.516 4.92287 29.5495 4.90945 29.5821 4.89623C30.0054 4.72469 30.2516 4.59516 30.4236 4.42893L30.4441 4.43722C30.4687 4.71038 29.5727 5.352 28.8805 5.65008C29.5383 5.47624 29.9255 5.34743 30.1458 5.20737L30.164 5.22135C30.1563 5.25593 30.125 5.29607 30.0727 5.34437C30.0527 5.36288 30.0299 5.38229 30.0031 5.40388C29.9844 5.41896 29.9698 5.43041 29.9372 5.45569C29.6337 5.69128 29.1778 5.85536 28.6917 5.94088C28.7393 6.15052 28.6672 6.26097 28.4598 6.27655C28.2261 6.29434 27.7299 6.19717 27.5102 6.07386C27.4817 6.09191 27.4504 6.10178 27.4042 6.10882C27.6266 6.29024 27.7142 6.43191 27.6594 6.52228C27.6145 6.59642 27.4817 6.60501 27.3112 6.57034C27.3509 6.70983 27.2973 6.79235 27.1741 6.80532C27.0726 6.81599 26.9313 6.77774 26.7955 6.70513C26.8928 6.85992 26.8772 6.97523 26.7295 7.00756C26.5606 7.0446 26.4363 7.02651 26.2946 6.93447C26.276 7.03418 26.1917 7.09703 26.0842 7.09163C26.4623 7.33987 26.5199 7.46331 26.4111 7.61683C26.3296 7.73211 26.0506 7.72333 25.8809 7.61725C25.8088 7.83797 25.559 7.85552 25.356 7.67326C25.329 7.80466 25.121 7.92542 24.9646 7.82855ZM24.5837 5.40769C24.5896 5.39084 24.5941 5.37261 24.5969 5.35298L24.5825 5.33838L24.0422 5.45047L24.0414 5.46825L24.0275 5.46017L24.0241 5.48398L24.0253 5.48466L24.0408 5.48134L24.0402 5.49273C24.2502 5.60331 24.4822 5.5969 24.5671 5.4446C24.751 5.54956 25.0416 5.49816 25.1355 5.35112C25.3993 5.4515 25.646 5.3913 25.69 5.13708L25.6739 5.12256L25.1558 5.30913C25.1633 5.28739 25.1667 5.26405 25.1656 5.23926L24.5837 5.40769ZM24.5782 5.42177C24.5802 5.41719 24.582 5.4125 24.5837 5.40769L24.5591 5.4148L24.5564 5.43829L24.5671 5.4446L24.5704 5.43836L24.5947 5.43065C24.768 5.51771 25.0288 5.46825 25.1222 5.34592L25.1355 5.35112C25.1375 5.34795 25.1394 5.34473 25.1413 5.34147L25.1629 5.33368C25.3989 5.41662 25.612 5.36402 25.6614 5.15417L25.6819 5.1468L25.6659 5.13228C25.6646 5.13976 25.6631 5.14706 25.6614 5.15417L25.1629 5.33368C25.158 5.33194 25.153 5.33015 25.1481 5.32829C25.151 5.32205 25.1536 5.31567 25.1558 5.30913L25.1417 5.31423C25.1509 5.29497 25.1562 5.27431 25.1569 5.25244L24.5947 5.43065C24.5891 5.42783 24.5836 5.42487 24.5782 5.42177ZM25.1367 5.32392C25.1405 5.32541 25.1443 5.32687 25.1481 5.32829C25.146 5.33276 25.1437 5.33715 25.1413 5.34147L25.1298 5.34562L25.1299 5.33496C25.1323 5.33134 25.1346 5.32766 25.1367 5.32392ZM25.1367 5.32392C25.1345 5.32307 25.1323 5.32222 25.1302 5.32135L25.1299 5.33496C25.1275 5.33867 25.1249 5.34233 25.1222 5.34592L25.1215 5.34564L25.1219 5.32137L25.1417 5.31423C25.1401 5.3175 25.1385 5.32073 25.1367 5.32392ZM24.5782 5.42177C24.5758 5.42747 24.5732 5.433 24.5704 5.43836L24.5662 5.43969L24.5689 5.41621L24.5782 5.42177ZM24.0584 5.47756L24.0408 5.48134L24.0414 5.46825L24.0584 5.47756ZM24.5695 5.36801C24.5273 5.57033 24.2831 5.59645 24.0584 5.47756L24.5695 5.36801ZM24.5695 5.36801C24.5708 5.36188 24.5719 5.35558 24.5728 5.34912L24.5872 5.36421L24.5695 5.36801ZM27.233 4.58208L27.2331 4.58207L27.2332 4.58222L27.2334 4.5826L27.2332 4.58246L27.233 4.58208ZM27.2339 4.5844L27.2334 4.5826L27.2512 4.59652L27.2398 4.59943L27.2339 4.5844ZM27.2324 4.58231L27.2328 4.58214L27.233 4.58205L27.233 4.58208L27.2328 4.58216L27.2332 4.58246L27.2339 4.5844L27.241 4.60648C27.253 4.60199 26.9065 4.73371 26.7848 4.77839C26.7487 4.79164 26.7139 4.80428 26.6801 4.81637C26.4356 4.90387 26.2517 4.96076 26.1348 4.98134L26.129 4.95633L27.2324 4.58231ZM27.2324 4.58231L27.2328 4.58217L27.2406 4.60659L26.1364 4.98088L26.1307 4.95587C26.2459 4.93559 26.4289 4.87898 26.6722 4.79192C26.7059 4.77986 26.7406 4.76724 26.7767 4.75401C26.8929 4.71132 27.2151 4.58893 27.2324 4.58231ZM27.2512 4.59652L28.6695 5.70527L27.2514 4.59645L27.2512 4.59652ZM24.0166 5.47339L24.0163 5.47953L24.0157 5.47922L24.0166 5.47339ZM19.7141 4.19237C19.7921 4.31184 19.9969 4.487 20.1258 4.52961C20.1352 4.6244 20.1733 4.71622 20.2374 4.79025L19.6542 4.59379L19.6387 4.60942C19.6523 4.66299 19.6753 4.71016 19.7052 4.75043L19.3032 4.57928C19.3365 4.57996 19.373 4.57759 19.4129 4.57201L19.4195 4.54964L19.1312 4.27512C19.1821 4.28723 19.2333 4.29661 19.2847 4.30309L19.2918 4.27881L18.1764 3.67432L18.1624 3.69516C18.4291 3.9613 18.739 4.16464 19.0651 4.2578C19.0443 4.30723 19.0389 4.37006 19.0544 4.42506L18.4326 4.19237L18.4208 4.21449C18.5573 4.33297 18.7707 4.40306 19.0661 4.45679C19.0677 4.46018 19.0694 4.46352 19.0712 4.4668C19.0977 4.51547 19.1428 4.54965 19.2072 4.56679C19.1958 4.59594 19.1903 4.62399 19.1905 4.65031C18.8936 4.59105 18.7058 4.57207 18.6279 4.6081C18.5877 4.62685 18.5609 4.65342 18.549 4.68404C18.4965 4.66255 18.4469 4.64456 18.3923 4.62691C18.3707 4.61992 18.3482 4.61293 18.3222 4.60512C18.3375 4.60972 18.1561 4.55616 18.0951 4.53711L18.0883 4.5627L18.0884 4.56274L18.0883 4.56319L18.1155 4.57158L18.5426 4.71068C18.5379 4.75563 18.5624 4.80627 18.6199 4.85271C18.6401 4.86896 18.6641 4.88452 18.6915 4.89938C18.6336 4.92858 18.6117 4.97623 18.6239 5.02727L17.703 4.75342L17.6932 4.77673C17.9304 4.9353 18.2272 5.01995 18.6355 5.05879C18.6466 5.08085 18.6638 5.10297 18.6869 5.12398C18.6592 5.15779 18.6484 5.19581 18.6525 5.23453C18.5977 5.23269 18.5193 5.24736 18.468 5.26994L18.4745 5.29547L18.6585 5.26421C18.6696 5.30147 18.6938 5.33854 18.7295 5.37233C19.0261 5.65411 19.7583 5.64865 20.4507 5.3955C20.4664 5.43214 20.5067 5.45735 20.5712 5.4763C20.5974 5.48403 20.6239 5.49061 20.6507 5.49607L19.7984 5.8831L19.805 5.90772C20.0638 5.86778 20.4273 5.69047 20.6958 5.50418C20.7672 5.5153 20.8404 5.51881 20.9141 5.51517C20.8825 5.57677 20.8769 5.65579 20.8996 5.7228L19.9981 6.05848L20.0056 6.08303L20.0061 6.08287L20.0061 6.08289L20.0064 6.08279C20.3032 5.99091 20.6907 5.8486 20.9095 5.74727C20.9363 5.8044 20.9864 5.84886 21.0613 5.85927L20.1574 6.27526L20.1654 6.29958C20.3766 6.24206 20.7953 6.04994 21.116 5.86446C21.208 5.86978 21.3096 5.85938 21.4143 5.8367C21.3948 5.87924 21.3833 5.92119 21.3794 5.96106L20.5158 6.3866L20.524 6.41079C20.7856 6.34032 21.0219 6.21614 21.378 5.99242C21.3782 6.05264 21.3969 6.10687 21.4327 6.14948L20.6426 6.56802L20.6506 6.59218C20.7365 6.57325 20.8389 6.53244 20.9552 6.47316C21.019 6.44067 21.0858 6.40316 21.1556 6.36122C21.2552 6.30135 21.3335 6.25003 21.4518 6.16953C21.4918 6.20683 21.5477 6.23246 21.6184 6.2414C21.6265 6.24242 21.6347 6.24318 21.6431 6.24369L20.9964 6.56208L21.0041 6.58639C21.1477 6.55436 21.2849 6.49531 21.4327 6.40987C21.466 6.3906 21.534 6.34809 21.5946 6.31018L21.5946 6.31018L21.5946 6.31015L21.5946 6.31015L21.5947 6.31011L21.5947 6.31008C21.6418 6.28062 21.6845 6.25396 21.7029 6.24315C21.7767 6.23774 21.8589 6.21548 21.9457 6.17802C21.907 6.24188 21.8863 6.29298 21.883 6.33793L21.2225 6.68495L21.2319 6.70869C21.348 6.66608 21.6836 6.48619 21.8835 6.36778C21.8869 6.39774 21.8988 6.42541 21.9194 6.45309C21.94 6.48083 21.9644 6.49583 21.9966 6.49839L21.5473 6.71817L21.5436 6.71974L21.5437 6.71993L21.543 6.72023L21.5528 6.74391C21.709 6.67767 21.922 6.57384 22.1019 6.47673C22.1499 6.45813 22.2089 6.42783 22.2826 6.38612C22.3413 6.35299 22.4103 6.30599 22.4895 6.24637C22.5103 6.23073 22.5317 6.21429 22.5538 6.197C22.5369 6.26137 22.5362 6.31688 22.5495 6.36316L21.8235 6.82594L21.8342 6.84903C22.0287 6.77055 22.3888 6.53375 22.5592 6.38978C22.5778 6.43185 22.6099 6.46484 22.6534 6.48841L22.1487 6.8261L22.1601 6.84888C22.3523 6.76329 22.5747 6.61232 22.682 6.50188L22.6866 6.50376C22.7988 6.54771 22.9117 6.54903 23.0175 6.4905L22.5843 6.83242L22.5979 6.85385L22.5989 6.85325L22.599 6.85348L22.601 6.85191C22.8116 6.72021 23.0603 6.52689 23.1422 6.42389L23.1255 6.40527L23.1243 6.40616L23.1209 6.3863L22.6104 6.15206C22.6385 6.12943 22.6678 6.10553 22.6998 6.07911L22.8033 5.99305L22.7935 5.97022L22.4594 6.03526L22.693 5.84714L22.6788 5.82617C22.604 5.87899 22.4909 5.96529 22.3851 6.0497L22.0826 6.10859C22.2619 6.00444 22.4518 5.8441 22.6229 5.64049L22.612 5.61916L22.1706 5.68534L22.2293 5.64447L22.3631 5.5503C22.4139 5.51473 22.4545 5.48694 22.493 5.4615L22.4803 5.43945L22.4801 5.43956L22.4801 5.43953L22.479 5.44028L22.0571 5.70234L21.6676 5.76074C21.9077 5.66952 22.1367 5.52887 22.277 5.37929C22.3369 5.37057 22.3988 5.35833 22.4618 5.34229L22.4641 5.34276L22.4641 5.34171L22.4695 5.34032L22.4688 5.31512L21.7344 5.16692C21.7815 5.16326 21.83 5.15734 21.8794 5.14897L21.8809 5.12384L21.0398 4.86475L21.0241 4.87651C21.0237 4.88547 21.0241 4.89432 21.0251 4.90305L20.1417 4.45017L20.1241 4.4611C20.1236 4.47107 20.1235 4.48104 20.1236 4.491L19.7316 4.1748L19.7141 4.19237ZM20.1239 4.50181L20.1236 4.491L20.1476 4.51029L20.137 4.53301L20.1258 4.52961L20.1254 4.52503L20.1325 4.53078L20.1431 4.50806C20.1369 4.50634 20.1305 4.50425 20.1239 4.50181ZM20.0559 4.46896L19.8094 4.27014C19.7787 4.23778 19.7526 4.20604 19.7341 4.17773L19.7166 4.1953L19.8094 4.27014C19.8797 4.34433 19.974 4.42183 20.0559 4.46896ZM20.0559 4.46896C20.08 4.48282 20.1029 4.49406 20.1239 4.50181C20.1242 4.50956 20.1247 4.5173 20.1254 4.52503L20.0559 4.46896ZM21.0527 4.9172L21.0251 4.90305C21.0259 4.90888 21.0269 4.91465 21.0283 4.92037L21.0115 4.92475L20.1481 4.48212C20.1481 4.47556 20.1483 4.469 20.1486 4.46243L20.131 4.47337L20.1481 4.48212C20.1474 4.66287 20.2585 4.84206 20.4602 4.90588C20.6384 4.96224 20.8131 4.96943 20.961 4.93956C20.9236 4.95141 20.8862 4.96516 20.8497 4.98039C20.7262 4.98893 20.5906 4.97408 20.4532 4.93059C20.3847 4.90895 20.3262 4.87464 20.2782 4.83169L20.2839 4.82691L20.28 4.80458L20.2374 4.79025C20.2445 4.79841 20.2519 4.80636 20.2596 4.81407L20.2501 4.82136L19.669 4.62564C19.6666 4.61809 19.6644 4.61039 19.6624 4.60254L19.6468 4.61817L19.669 4.62564C19.6943 4.70447 19.7422 4.76718 19.8021 4.81166L19.7453 4.79655L19.7446 4.79592L19.7499 4.79422L19.7509 4.76992L19.7052 4.75043C19.7114 4.75887 19.718 4.76701 19.7248 4.77484L19.709 4.77958L19.23 4.57563L19.2314 4.57225C19.2533 4.57639 19.2773 4.57876 19.3032 4.57928L19.2282 4.54736L19.2125 4.55385C19.2106 4.55819 19.2088 4.5625 19.2072 4.56679C19.2117 4.56799 19.2163 4.5691 19.221 4.57013L19.219 4.57094L19.23 4.57563C19.2191 4.60371 19.2143 4.63066 19.2156 4.65573L19.2101 4.65427L19.2094 4.65411L19.1905 4.65031C19.1905 4.6593 19.1912 4.66808 19.1926 4.67664C18.8986 4.6177 18.7092 4.59817 18.6376 4.63131C18.5476 4.67324 18.5385 4.75419 18.6346 4.83182C18.6596 4.85196 18.6907 4.87102 18.7272 4.88899L18.7241 4.88818L18.7173 4.88846C18.708 4.89173 18.6994 4.89538 18.6915 4.89938C18.7002 4.90411 18.7093 4.90876 18.7187 4.91335L18.7181 4.91337L18.7194 4.91369L18.7211 4.91451C18.6247 4.95067 18.6206 5.03659 18.7084 5.1106L18.7061 5.11026L18.6957 5.11394C18.6926 5.11724 18.6896 5.12059 18.6869 5.12398C18.6929 5.12945 18.6993 5.13484 18.7061 5.14013C18.654 5.20309 18.6721 5.28351 18.7458 5.35333C19.0283 5.62171 19.7296 5.62178 20.4022 5.38576L20.4495 5.39271L20.4507 5.3955L20.459 5.39246L20.4566 5.3675L20.4564 5.36746L20.458 5.34444L20.4442 5.34081C20.4473 5.31514 20.4577 5.2855 20.4754 5.25106C20.5024 5.19861 20.5629 5.14229 20.6414 5.0902C20.6641 5.0862 20.6857 5.08187 20.7061 5.07722L20.7065 5.0521L20.7044 5.05153C20.7497 5.02572 20.7989 5.00161 20.8497 4.98039C20.8913 4.97751 20.9315 4.97198 20.97 4.964C20.7602 5.03013 20.5514 5.15782 20.497 5.26367C20.4404 5.37367 20.4645 5.41845 20.5778 5.45176C20.9075 5.54912 21.3 5.46069 21.5998 5.23999L21.6121 5.24649C21.614 5.25022 21.6161 5.25388 21.6184 5.25748C21.4956 5.34866 21.3574 5.41799 21.214 5.46188L20.934 5.49047L20.9251 5.49606C20.9211 5.50221 20.9175 5.50859 20.9141 5.51517L20.9396 5.51362L20.9362 5.51575L20.9421 5.51516C20.8758 5.62508 20.9111 5.81286 21.0655 5.83344C21.0794 5.83529 21.0937 5.83671 21.1082 5.83773L21.0613 5.85927L21.0626 5.85944L21.0714 5.86055C20.9649 5.92107 20.849 5.98181 20.7344 6.0378L20.4696 6.15969C20.3474 6.21214 20.2384 6.25299 20.1592 6.27454L20.1672 6.29886L20.4696 6.15969C20.5534 6.1237 20.6435 6.08224 20.7344 6.0378L21.1116 5.8642L21.116 5.86446L21.1346 5.85367L21.1276 5.83884C21.2206 5.84297 21.3236 5.83098 21.4295 5.80652C21.424 5.8166 21.4189 5.82667 21.4143 5.8367C21.4247 5.83446 21.435 5.83211 21.4454 5.82963C21.3492 6.01671 21.4172 6.19012 21.6214 6.21592C21.6447 6.21888 21.6694 6.21954 21.6953 6.21799L21.6431 6.24369L21.6526 6.24415L21.5809 6.28891C21.5441 6.31188 21.505 6.33638 21.4726 6.3563L21.1366 6.5217C21.091 6.53776 21.0453 6.55096 20.9991 6.56128L21.0068 6.58559L21.1366 6.5217C21.2299 6.48884 21.323 6.44402 21.421 6.38738C21.4337 6.37999 21.4518 6.36909 21.4726 6.3563L21.7023 6.24319L21.7029 6.24315L21.7061 6.24133L21.708 6.24041L21.7079 6.24029L21.7084 6.24002L21.698 6.21783C21.7793 6.2125 21.8721 6.18544 21.9705 6.13906C21.9616 6.15257 21.9533 6.16554 21.9457 6.17802C21.9593 6.17216 21.973 6.16592 21.9869 6.15932C21.8983 6.29442 21.8858 6.36581 21.9386 6.43708C21.9674 6.47583 22.0094 6.48249 22.0837 6.45577L21.9966 6.49839C21.9995 6.49861 22.0024 6.49874 22.0054 6.49877C21.8485 6.58067 21.6782 6.66247 21.5473 6.71817L21.5437 6.71993L21.5533 6.74341L22.088 6.4819L22.1019 6.47673L22.1279 6.46261L22.1183 6.44199C22.1598 6.42399 22.21 6.3978 22.271 6.36326C22.3286 6.33074 22.3969 6.28429 22.4753 6.22526C22.5027 6.20463 22.5311 6.18259 22.5609 6.15902L22.5669 6.15432C22.5617 6.16895 22.5574 6.18318 22.5538 6.197L22.5757 6.17976L22.5876 6.1702C22.533 6.33278 22.5789 6.43444 22.6953 6.47973C22.8331 6.53376 22.9706 6.51989 23.0942 6.4023L23.1113 6.41013L23.1077 6.38904C23.1032 6.3936 23.0987 6.39802 23.0942 6.4023L22.5879 6.17L22.6104 6.15206L22.5855 6.14062L22.5822 6.14206C22.6144 6.11636 22.6477 6.08922 22.6846 6.05869L22.7493 6.00495L22.7979 5.99548L22.7881 5.97266L22.7493 6.00495L22.4166 6.06971L22.4594 6.03526L22.4391 6.0392C22.5325 5.96551 22.6273 5.89364 22.6924 5.84763L22.6781 5.82666L22.4062 6.04561L22.3851 6.0497L22.3422 6.08419L22.0071 6.14939C22.032 6.13694 22.0572 6.12333 22.0826 6.10859L22 6.12466C22.1886 6.02949 22.3956 5.86575 22.5822 5.64986L22.6156 5.64486L22.6047 5.62354L22.5822 5.64986L22.1214 5.71894L22.1706 5.68534L22.1206 5.69283L22.4928 5.46158L22.4801 5.43956L22.479 5.44028C22.4405 5.46565 22.4001 5.49336 22.3496 5.5287L22.2158 5.62288C22.1795 5.64834 22.1453 5.67198 22.1129 5.69398L22.0571 5.70234L22.0015 5.73692L21.5266 5.8081C21.5736 5.79439 21.6208 5.7785 21.6676 5.76074L21.5197 5.78291C21.791 5.70377 22.0682 5.5511 22.236 5.38473C22.2496 5.3831 22.2632 5.38129 22.277 5.37929L22.2801 5.37587L22.2714 5.35653C22.3155 5.35007 22.3608 5.34163 22.407 5.33107L22.4618 5.34229L22.4641 5.34171L22.4635 5.31718C22.4445 5.32217 22.4257 5.32679 22.407 5.33107L21.6274 5.17144C21.6622 5.17123 21.6979 5.16975 21.7344 5.16692L21.6301 5.14588C21.6906 5.14537 21.7541 5.14098 21.8199 5.13216L21.874 5.14884L21.8755 5.12371C21.8568 5.12688 21.8383 5.12969 21.8199 5.13216L21.0489 4.89466C21.0485 4.88914 21.0484 4.88358 21.0486 4.87798L21.033 4.88974L21.0489 4.89466C21.0495 4.90226 21.0508 4.90977 21.0527 4.9172ZM21.0545 4.92035L21.0547 4.91819L21.0527 4.9172L21.0534 4.91977L21.0502 4.91806L21.0457 4.91746L21.042 4.91699L21.0283 4.92037L21.0289 4.9227L21.0152 4.92663L21.0115 4.92475C20.9947 4.92927 20.9778 4.93422 20.961 4.93956C20.9795 4.93582 20.9976 4.9315 21.0152 4.92663L21.0327 4.93563C21.0338 4.93884 21.035 4.94203 21.0363 4.94519C21.0143 4.95071 20.9921 4.95701 20.97 4.964C20.993 4.95922 21.0154 4.95356 21.0371 4.94706C21.074 5.03355 21.1862 5.10395 21.3447 5.14161L20.8469 5.31353L20.8521 5.33947C21.0772 5.3095 21.2056 5.25907 21.3937 5.15247L21.3934 5.15188C21.4123 5.15537 21.4317 5.15842 21.4516 5.16101L21.5998 5.23999L21.6068 5.23479C21.6083 5.23875 21.6101 5.24265 21.6121 5.24649L21.618 5.24964L21.6163 5.22766L21.6068 5.23479C21.6038 5.22708 21.6016 5.21915 21.6003 5.211L21.629 5.22629L21.6306 5.24827L21.6184 5.25748C21.6487 5.30506 21.7126 5.3423 21.8001 5.36613L21.7041 5.41182L21.214 5.46188C21.1249 5.48915 21.0338 5.5066 20.9432 5.51337L20.9452 5.51016L20.9396 5.51362L20.9432 5.51337L20.9421 5.51516L21.6359 5.44429L21.2186 5.64292L21.2186 5.64294L21.2186 5.64295L21.2172 5.64362L21.2259 5.66769C21.3937 5.61206 21.5787 5.52561 21.7419 5.43347L22.1272 5.39411C22.1625 5.39232 22.1988 5.38921 22.236 5.38473L22.238 5.3828L22.2724 5.37929L22.2626 5.35779L22.2714 5.35653L22.2702 5.354L22.0886 5.37255C21.8015 5.37997 21.6024 5.29565 21.625 5.17145L21.6274 5.17144L21.6251 5.17097C21.6258 5.16724 21.6267 5.16347 21.6278 5.15967L21.6138 5.16866L21.6251 5.17097L21.625 5.17145L21.6003 5.17135C21.6012 5.16513 21.6027 5.15882 21.6046 5.15241L21.6148 5.14592L21.6301 5.14588L21.6186 5.14355L21.6148 5.14592C21.5606 5.14579 21.5089 5.14251 21.4604 5.1365L21.0545 4.92035ZM21.0543 4.92287L21.0545 4.92035L21.0534 4.91977L21.0543 4.92287ZM21.0702 4.95792C21.0633 4.94653 21.058 4.93483 21.0543 4.92287L21.0529 4.94213L21.0452 4.94459L21.0432 4.94351L21.0475 4.94247L21.0392 4.94141L21.0432 4.94351L21.0363 4.94519L21.0371 4.94706L21.0452 4.94459L21.0702 4.95792ZM21.3818 5.12384C21.4069 5.12888 21.4331 5.13312 21.4604 5.1365L21.5193 5.16787C21.4961 5.16617 21.4735 5.16387 21.4516 5.16101L21.3818 5.12384ZM21.0702 4.95792L21.3818 5.12384C21.2276 5.09295 21.1153 5.03219 21.0702 4.95792ZM21.5193 5.16787L21.6003 5.211C21.5982 5.19829 21.5981 5.18506 21.6003 5.17135C21.5726 5.17099 21.5456 5.16981 21.5193 5.16787ZM22.262 5.35787L22.2625 5.35742L22.2626 5.35779L22.262 5.35787ZM22.262 5.35787C22.2017 5.36636 22.1435 5.37113 22.0886 5.37255L21.9256 5.3892C21.8955 5.38587 21.8669 5.38136 21.8401 5.37573L21.843 5.37398L21.8318 5.35107L21.8307 5.35159L21.8307 5.35156L21.8304 5.35173L21.8001 5.36613L21.8047 5.36734C21.7815 5.38124 21.7577 5.39509 21.7335 5.40882L21.7041 5.41182L21.6359 5.44429L21.677 5.4401C21.5288 5.52026 21.3668 5.5938 21.2186 5.64292L21.2186 5.64295L21.2273 5.66701L21.7114 5.43659L21.7419 5.43347C21.7601 5.4232 21.778 5.41286 21.7956 5.40248L21.9256 5.3892C21.987 5.39596 22.0548 5.3978 22.1272 5.39411L22.238 5.3828C22.2463 5.37452 22.2543 5.36621 22.262 5.35787ZM21.7796 5.40411L21.7956 5.40248C21.8107 5.39358 21.8255 5.38466 21.8401 5.37573L21.8395 5.3756L21.8419 5.37447L21.8307 5.35159L21.8304 5.35173L21.8047 5.36734C21.8159 5.37032 21.8275 5.37307 21.8395 5.3756L21.7796 5.40411ZM21.7796 5.40411L21.7335 5.40882C21.7149 5.41933 21.6961 5.42977 21.677 5.4401L21.7114 5.43659L21.7796 5.40411ZM21.3907 5.15136L21.3934 5.15188L21.3843 5.12793L21.3447 5.14161L21.3551 5.14403C21.3075 5.17044 21.2635 5.19306 21.2203 5.21257L21.0188 5.28215C20.9675 5.29464 20.9121 5.30468 20.8489 5.3131L20.854 5.33905L21.0188 5.28215C21.0909 5.26458 21.1547 5.24216 21.2203 5.21257L21.3914 5.15344L21.3907 5.15136ZM21.3907 5.15136C21.3786 5.1491 21.3667 5.14665 21.3551 5.14403L21.3821 5.12891L21.3907 5.15136ZM21.0327 4.93563C21.0313 4.93136 21.03 4.92705 21.0289 4.9227L21.0457 4.91746L21.044 4.9414L21.0327 4.93563ZM21.4508 5.81947L21.4454 5.82963C21.4724 5.82322 21.4995 5.81602 21.5266 5.8081L21.4508 5.81947ZM21.4508 5.81947L21.4538 5.81414L21.4449 5.82035L21.4508 5.81947ZM22.0625 5.72777L22.0015 5.73692L21.6798 5.93679L21.6903 5.95999C21.8231 5.9076 21.9475 5.83667 22.1214 5.71894L22.0649 5.7274L22.1206 5.69283L22.1129 5.69398C22.0956 5.7057 22.0789 5.71695 22.0625 5.72777ZM22.0289 5.74982L22.0625 5.72777L22.0649 5.7274L22.0289 5.74982ZM22.0289 5.74982C21.9904 5.77479 21.9542 5.79726 21.9197 5.81765L22.0289 5.74982ZM21.9197 5.81765C21.8351 5.86757 21.7598 5.90496 21.6818 5.93573L21.6923 5.95893L21.9197 5.81765ZM21.9914 6.15246L21.9869 6.15932L22.0071 6.14939L21.9914 6.15246ZM21.9914 6.15246L21.9942 6.14816L21.9865 6.15342L21.9914 6.15246ZM22.3634 6.08006L22.3422 6.08419C22.2448 6.16288 22.1595 6.23555 22.1248 6.27227L22.1409 6.29163L22.4166 6.06971L22.3955 6.07381L22.4391 6.0392L22.4062 6.04561L22.3634 6.08006ZM22.3634 6.08006L22.126 6.27115L22.1421 6.29051C22.1805 6.24987 22.2835 6.16327 22.3955 6.07381L22.3634 6.08006ZM22.5877 6.16992L22.5876 6.1702L22.5879 6.17L22.5877 6.16992ZM22.5877 6.16992L22.5922 6.15723L22.5758 6.16446L22.5877 6.16992ZM22.5822 6.14206L22.5669 6.15432L22.5691 6.14786L22.5822 6.14206ZM22.1178 6.44219L22.1183 6.44199L22.1171 6.43945L22.1166 6.43967L22.1166 6.43948L22.1122 6.44187L22.0837 6.45577L22.0926 6.45246C22.0643 6.46779 22.0351 6.48328 22.0054 6.49877C22.0286 6.499 22.0557 6.49335 22.088 6.4819L22.1273 6.46264L22.1178 6.44219ZM22.1178 6.44219C22.1091 6.44598 22.1007 6.4494 22.0926 6.45246L22.1122 6.44187L22.1166 6.43967L22.1178 6.44219ZM22 6.12466C21.9901 6.12965 21.9803 6.13445 21.9705 6.13906L21.9742 6.13341L21.982 6.12815L22 6.12466ZM21.6974 6.21786L21.7079 6.24029L21.7061 6.24133L21.7023 6.24319C21.6853 6.24442 21.6687 6.24475 21.6526 6.24415C21.6726 6.23181 21.6881 6.22237 21.6959 6.21796L21.6974 6.21786ZM21.6974 6.21786L21.698 6.21783L21.6975 6.21689L21.6953 6.21799L21.6959 6.21796L21.6971 6.21729L21.6974 6.21786ZM21.5197 5.78291C21.4895 5.79172 21.4594 5.79962 21.4295 5.80652L21.4326 5.80086L21.4414 5.79465L21.5197 5.78291ZM21.1262 5.83876L21.1335 5.85416L21.1116 5.8642C21.098 5.86334 21.0846 5.86212 21.0714 5.86055L21.1109 5.83789L21.1262 5.83876ZM21.1226 5.83107L21.1237 5.83057L21.1276 5.83884L21.1262 5.83876L21.1226 5.83107ZM21.1225 5.83113L21.1226 5.83105L21.1226 5.83107L21.1225 5.83113ZM21.1225 5.83113L21.1082 5.83773L21.1109 5.83789L21.1225 5.83113ZM20.7006 5.05366L20.7044 5.05153L20.1412 4.90181C20.1902 4.88851 20.237 4.86535 20.2782 4.83169L20.2721 4.82613L20.2686 4.80663L20.2596 4.81407C20.2637 4.81816 20.2678 4.82218 20.2721 4.82613L20.2726 4.82896L20.2501 4.82136C20.2004 4.85799 20.1431 4.87935 20.084 4.88661L19.8021 4.81166C19.8305 4.83276 19.8616 4.84976 19.8942 4.86241L19.7902 4.83478C19.7744 4.82322 19.7594 4.81046 19.7453 4.79655L19.7438 4.79617L19.7446 4.79592L19.7417 4.79303L19.7427 4.7692L19.7248 4.77484C19.7303 4.7811 19.7359 4.78716 19.7417 4.79303L19.7417 4.7935L19.709 4.77958L19.6958 4.78339L19.2156 4.65573C19.216 4.66511 19.2173 4.67423 19.2195 4.68304L19.2042 4.67898L19.2045 4.67905L19.2039 4.67889L19.2042 4.67898L19.1926 4.67664C19.214 4.81327 19.3987 4.89181 19.6971 4.81002L19.7902 4.83478C19.875 4.89678 19.9816 4.92453 20.0837 4.9128L20.647 5.06256C20.3298 5.12058 19.777 5.11273 19.3208 5.04518L18.7272 4.88899C18.8654 4.95712 19.0796 5.00949 19.3208 5.04518L19.5141 5.09605C19.4472 5.0889 19.3813 5.08056 19.3173 5.07103L18.7217 4.91429L18.725 4.91309L18.7187 4.91335L18.7194 4.91369L18.7217 4.91429L18.7211 4.91451C18.8622 4.98281 19.0767 5.03525 19.3173 5.07103L20.3787 5.35033L20.3506 5.35192L18.7084 5.1106C18.7219 5.12202 18.7377 5.13316 18.7556 5.14378L18.7088 5.13692L18.713 5.13232L18.7026 5.136L18.7088 5.13692L18.7061 5.14013C18.7342 5.16194 18.7691 5.18213 18.8105 5.19927C19.0961 5.31726 19.8862 5.40039 20.3478 5.37775L20.4022 5.38576L20.4432 5.37108L20.444 5.371C20.445 5.37865 20.4469 5.38587 20.4495 5.39271L20.4532 5.39324L20.451 5.37032L20.4562 5.36981L20.4564 5.36746L20.4522 5.36685L20.4538 5.34426L20.4437 5.34526L20.4442 5.34081L19.5141 5.09605C19.9218 5.13967 20.365 5.13884 20.6414 5.0902C20.6518 5.08327 20.6626 5.07641 20.6737 5.06965L20.7003 5.07672L20.7006 5.05366ZM20.7006 5.05366C20.6915 5.05892 20.6825 5.06426 20.6737 5.06965L20.647 5.06256C20.6658 5.05914 20.6837 5.05548 20.7007 5.0516L20.7006 5.05366ZM20.4435 5.36557C20.443 5.3591 20.4431 5.35233 20.4437 5.34526C20.423 5.34724 20.4013 5.34892 20.3787 5.35033L20.4279 5.36328L20.3506 5.35192C20.3031 5.35432 20.252 5.35558 20.1982 5.35578L18.7556 5.14378C18.7744 5.15497 18.7957 5.1656 18.8194 5.17539C19.0728 5.28009 19.7343 5.35751 20.1982 5.35578L20.3478 5.37775C20.3814 5.3761 20.4134 5.37388 20.4432 5.37108L20.444 5.37078L20.444 5.371L20.451 5.37032L20.4509 5.36933L20.452 5.36962L20.4522 5.36685L20.4435 5.36557ZM20.4436 5.36742L20.4435 5.36557L20.4279 5.36328L20.4436 5.36742ZM20.4492 5.36888L20.444 5.37078L20.4436 5.36742L20.4492 5.36888ZM20.4492 5.36888L20.4509 5.36933L20.4508 5.36829L20.4492 5.36888ZM19.9793 4.88505L19.8942 4.86241C19.9217 4.87309 19.9503 4.88068 19.9793 4.88505ZM19.9793 4.88505L20.0837 4.9128C20.1031 4.91057 20.1223 4.90692 20.1412 4.90181L20.084 4.88661C20.0493 4.89087 20.014 4.89027 19.9793 4.88505ZM19.6454 4.79628C19.6618 4.79251 19.6786 4.78822 19.6958 4.78339L19.7438 4.79617C19.728 4.80122 19.7124 4.80583 19.6971 4.81002L19.6454 4.79628ZM19.6454 4.79628L19.2195 4.68304C19.2456 4.79139 19.3961 4.85381 19.6454 4.79628ZM19.221 4.57013L19.2314 4.57225L19.2347 4.56445L19.221 4.57013ZM23.1238 6.40814L23.1402 6.42633L22.601 6.85191L22.5989 6.85325L22.5855 6.83205C22.7914 6.70359 23.0361 6.51399 23.1198 6.41215L23.1238 6.40814ZM23.1238 6.40814L23.1234 6.40771L23.1198 6.41215C23.0867 6.44523 23.0525 6.47114 23.0175 6.4905L23.1243 6.40616L23.1246 6.4074L23.1238 6.40814ZM22.6801 6.50114L22.682 6.50188L22.6885 6.49512L22.6732 6.47513L22.6534 6.48841L22.6577 6.49073C22.6152 6.53319 22.556 6.58147 22.4884 6.62944L22.3898 6.69547C22.3116 6.74478 22.2285 6.7905 22.1505 6.82523L22.1618 6.84801L22.3898 6.69547C22.4239 6.67394 22.457 6.65172 22.4884 6.62944L22.6801 6.50114ZM22.6801 6.50114L22.6863 6.49704L22.671 6.47705L22.6577 6.49073C22.6649 6.49445 22.6724 6.49792 22.6801 6.50114ZM22.5583 6.38766L22.5592 6.38978L22.5719 6.37892L22.5578 6.35791L22.5495 6.36316L22.5499 6.36442C22.4813 6.42308 22.3787 6.49859 22.2682 6.57253L22.0968 6.68176C21.9954 6.7431 21.8984 6.79539 21.8254 6.82483L21.8361 6.84792L22.0968 6.68176C22.1537 6.64738 22.212 6.61016 22.2682 6.57253L22.5583 6.38766ZM22.5583 6.38766C22.555 6.38019 22.5523 6.37245 22.5499 6.36442L22.5563 6.35889L22.5704 6.37989L22.5583 6.38766ZM21.8834 6.36662L21.8835 6.36778L21.9011 6.35734L21.9013 6.35724L21.9012 6.35723L21.9021 6.35675L21.8905 6.33398L21.883 6.33793L21.883 6.33851C21.6859 6.45595 21.3402 6.6417 21.2237 6.68448L21.2332 6.70821L21.8834 6.36662ZM21.8834 6.36662C21.8825 6.35749 21.8823 6.34814 21.883 6.33851L21.8897 6.33447L21.9012 6.35723L21.9011 6.35734L21.8834 6.36662ZM21.4508 6.16861L21.4518 6.16953L21.4608 6.16344L21.4486 6.14108L21.4475 6.14168L21.4474 6.1416L21.4468 6.14206L21.4327 6.14948L21.4339 6.15083C21.3534 6.20557 21.2914 6.24673 21.2281 6.28658L20.7754 6.52637C20.7285 6.54445 20.6851 6.55803 20.6456 6.56676L20.6536 6.59091L20.7754 6.52637C20.8276 6.50625 20.8841 6.48055 20.9445 6.44976C21.0077 6.41755 21.0741 6.3803 21.1434 6.33864C21.173 6.32087 21.2007 6.30385 21.2281 6.28658L21.4508 6.16861ZM21.4508 6.16861C21.4448 6.16294 21.4392 6.15701 21.4339 6.15083L21.4468 6.14206L21.4475 6.14168L21.4596 6.16397L21.4508 6.16861ZM21.378 5.99018L21.378 5.99242L21.3942 5.98221L21.3827 5.95945L21.3816 5.95998L21.3816 5.95996L21.3815 5.96005L21.3794 5.96106L21.3794 5.96136C21.2936 6.01544 21.2148 6.06376 21.141 6.10696L20.6812 6.33346C20.627 6.3536 20.573 6.37086 20.5179 6.38568L20.5262 6.40987L20.6812 6.33346C20.824 6.28049 20.9689 6.20764 21.141 6.10696L21.378 5.99018ZM21.378 5.99018L21.3931 5.98272L21.3816 5.95998L21.3815 5.96005L21.3794 5.96136C21.3785 5.9711 21.378 5.98072 21.378 5.99018ZM20.9092 5.74664L20.9095 5.74727L20.9181 5.74324L20.9091 5.71928L20.8996 5.7228L20.8999 5.72354C20.6821 5.82446 20.2947 5.96671 19.9986 6.05834L20.0061 6.08287L20.0064 6.08279L20.9092 5.74664ZM20.9092 5.74664L20.9171 5.74369L20.9081 5.71973L20.8999 5.72354C20.9026 5.73143 20.9057 5.73914 20.9092 5.74664ZM20.6956 5.50414L20.6958 5.50418L20.6965 5.50371L20.6968 5.50358L20.6968 5.50352L20.6988 5.50211L20.6872 5.47949L20.6507 5.49607L20.6604 5.498C20.6231 5.52337 20.584 5.54851 20.5437 5.57308L19.9176 5.85741C19.877 5.86839 19.8381 5.8769 19.8013 5.88257L19.8079 5.90719L19.9176 5.85741C20.1116 5.8049 20.3423 5.69606 20.5437 5.57308L20.6956 5.50414ZM20.6956 5.50414C20.6838 5.5023 20.6721 5.50025 20.6604 5.498L20.6852 5.48096L20.6968 5.50352L20.6965 5.50371L20.6956 5.50414ZM18.6577 5.26145L18.6585 5.26421L18.6704 5.26219L18.6698 5.23576C18.6644 5.23514 18.6586 5.23473 18.6525 5.23453L18.6529 5.23818L18.4708 5.26912L18.4773 5.29466C18.5274 5.27261 18.6065 5.25835 18.6577 5.26145ZM18.6577 5.26145C18.6555 5.25369 18.6539 5.24592 18.6529 5.23818L18.6667 5.23584L18.6673 5.26227L18.6577 5.26145ZM18.6351 5.0578L18.6355 5.05879L18.6397 5.05917L18.6406 5.05946L18.6407 5.05927L18.6428 5.05947L18.6472 5.0342L18.6239 5.02727L18.6252 5.03229C18.5831 5.02817 18.5423 5.02355 18.5026 5.0184L17.7892 4.80624C17.7607 4.79021 17.7332 4.77326 17.7064 4.75537L17.6965 4.77869L17.7892 4.80624C17.9801 4.91389 18.21 4.98047 18.5026 5.0184L18.6351 5.0578ZM18.6351 5.0578C18.6309 5.04927 18.6276 5.04074 18.6252 5.03229L18.645 5.03419L18.6407 5.05927L18.6397 5.05917L18.6351 5.0578ZM18.5426 4.71041L18.5426 4.71068L18.5458 4.71174L18.551 4.71387L18.5511 4.71346L18.552 4.71374L18.5599 4.68851L18.549 4.68404L18.5486 4.68528L18.0951 4.5376L18.0884 4.56274L18.1155 4.57158C18.1909 4.59455 18.3291 4.63534 18.3156 4.63127C18.3414 4.63903 18.3637 4.64598 18.3852 4.65292C18.44 4.67066 18.4898 4.68872 18.5426 4.71041ZM18.5426 4.71041C18.5435 4.7018 18.5455 4.6934 18.5486 4.68528L18.5589 4.68864L18.5511 4.71346L18.5458 4.71174L18.5426 4.71041ZM19.0652 4.45474L19.0661 4.45679L19.0669 4.45694L19.0731 4.43206L19.071 4.43128L19.071 4.43127L19.071 4.43127L19.0544 4.42506L19.0554 4.4284C19.0046 4.41899 18.9564 4.40907 18.9107 4.39847L18.5091 4.24819C18.4826 4.23142 18.4584 4.21351 18.4362 4.19434L18.4244 4.21646L18.5091 4.24819C18.6105 4.31235 18.7442 4.35988 18.9107 4.39847L19.0648 4.45615L19.0652 4.45474ZM19.0652 4.45474C19.0613 4.44625 19.058 4.43744 19.0554 4.4284L19.071 4.43127L19.071 4.43128L19.0652 4.45474ZM19.0902 4.23799L19.073 4.241C19.0701 4.24639 19.0675 4.25201 19.0651 4.2578L19.0816 4.26242L19.0876 4.26813C19.0643 4.3236 19.0627 4.3991 19.0925 4.45383C19.1335 4.52916 19.2279 4.56626 19.3831 4.54961L19.4031 4.56867L19.4097 4.5463C19.4007 4.54758 19.3918 4.54867 19.3831 4.54961L19.0876 4.26813L19.0891 4.26447C19.1031 4.26823 19.1172 4.27178 19.1312 4.27512L19.093 4.23875C19.1335 4.24969 19.1743 4.25889 19.2152 4.26626L19.2804 4.3016L19.2875 4.27732C19.2634 4.27428 19.2393 4.27058 19.2152 4.26626L18.2464 3.74117C18.2237 3.71999 18.2012 3.69835 18.1791 3.67627L18.1651 3.69711L18.2464 3.74117C18.4999 3.97754 18.7885 4.15594 19.0902 4.23799ZM19.0902 4.23799L19.0919 4.23769L19.093 4.23875L19.0902 4.23799ZM19.0891 4.26447L19.0816 4.26242L19.0756 4.25672L19.0945 4.25342C19.0926 4.25699 19.0908 4.26068 19.0891 4.26447ZM22.8767 6.91998L22.875 6.92186L22.8751 6.92194L22.8748 6.92237L22.8931 6.93952C22.9746 6.84729 23.1024 6.68867 23.1535 6.61659L23.1344 6.60051L23.1339 6.60114L23.1338 6.60107L23.1328 6.60248L22.8767 6.91998ZM22.8767 6.91998C22.9572 6.82873 23.0819 6.67391 23.1328 6.60248L23.1339 6.60114L23.1529 6.61715L22.8933 6.93901L22.8751 6.92194L22.8767 6.91998Z" fill="black"/>
<path fill-rule="evenodd" clip-rule="evenodd" d="M22.5034 4.48226C22.5404 4.46166 22.5588 4.45584 22.6002 4.44753C22.6105 4.44547 22.6168 4.444 22.6235 4.44194C22.6497 4.43396 22.6723 4.41859 22.7024 4.38637C22.8966 4.17781 23.2083 3.94529 23.392 3.86207L23.3934 3.86548C23.4001 3.86218 23.4048 3.86384 23.413 3.87254C23.4164 3.87624 23.4283 3.89149 23.4333 3.89785L23.4355 3.90061C23.4719 3.94516 23.5118 3.95971 23.5767 3.93421C23.6175 3.91807 23.638 3.88687 23.6461 3.84196C23.6484 3.82915 23.6491 3.82094 23.6508 3.79731C23.6529 3.76783 23.6553 3.76036 23.66 3.75991L23.66 3.75944L23.661 3.75922C23.6947 3.75176 23.7276 3.74864 23.7646 3.74961L23.7652 3.72381C23.727 3.72281 23.6927 3.72597 23.6579 3.73354L23.6579 3.7334C23.6535 3.73381 23.6498 3.73469 23.6467 3.73611C23.6165 3.74343 23.5849 3.75413 23.5443 3.77029C23.5172 3.78106 23.4003 3.8305 23.4015 3.83C23.2175 3.90665 22.8881 4.15011 22.6849 4.36829C22.6576 4.39753 22.6386 4.4105 22.6167 4.41716C22.6109 4.41893 22.6052 4.42025 22.5956 4.42218C22.552 4.43093 22.5315 4.43742 22.492 4.45945L22.5034 4.48226ZM23.6297 3.76563C23.6326 3.74937 23.6373 3.74033 23.6467 3.73611L23.656 3.73396L23.6579 3.73354L23.66 3.75944C23.6523 3.76112 23.6468 3.76218 23.6421 3.76307L23.6329 3.76489L23.6297 3.76563ZM23.4246 3.84813L23.4634 3.83194C23.5888 3.7796 23.6118 3.76998 23.6297 3.76563C23.6282 3.77365 23.6273 3.78343 23.6264 3.79525C23.6248 3.8178 23.6241 3.82544 23.622 3.83687C23.6155 3.87332 23.6002 3.89659 23.5683 3.90919C23.5137 3.93068 23.4839 3.91985 23.4538 3.88293L23.4532 3.8822L23.4532 3.8822C23.4501 3.87815 23.4349 3.85864 23.4301 3.85357C23.4283 3.85159 23.4264 3.84977 23.4246 3.84813ZM23.4246 3.84813C23.4117 3.83683 23.3986 3.83378 23.3833 3.8412L23.392 3.86207C23.3983 3.8592 23.4045 3.85651 23.4105 3.854L23.4246 3.84813ZM27.7976 5.09335L27.7859 5.09789L27.7774 5.07368L27.7973 5.06595C27.798 5.07476 27.798 5.08391 27.7976 5.09335ZM27.7043 5.32267C27.7415 5.27494 27.7758 5.20676 27.7901 5.1447C27.7942 5.12678 27.7967 5.10962 27.7976 5.09335C28.3318 4.88556 28.6299 4.75191 28.9883 4.53422C29.1736 4.4217 29.3457 4.30017 29.5045 4.16769L29.4893 4.14746C29.3315 4.27912 29.1604 4.39995 28.9761 4.51186C28.621 4.7275 28.3251 4.86046 27.7973 5.06595C27.7934 5.01374 27.7693 4.97307 27.7233 4.94935C28.1908 4.78944 28.6278 4.57422 28.7952 4.40124L28.778 4.38281C28.561 4.60708 27.8732 4.90767 27.2666 5.05778C27.2344 5.04149 27.1954 5.02769 27.1494 5.01665C26.8568 4.94648 26.4163 5.02078 26.1471 5.1842C26.1108 5.17458 26.0748 5.16575 26.0395 5.15783C26.1214 5.08113 26.1644 4.98263 26.1311 4.89014L26.1082 4.8993C26.1758 5.08665 25.8764 5.31316 25.6196 5.26212L25.615 5.28748C25.7566 5.31562 25.9106 5.26422 26.0154 5.17888C26.1452 5.207 26.2872 5.24852 26.4144 5.29534L26.4146 5.29677L26.417 5.29632C26.5663 5.35149 26.6947 5.4139 26.7578 5.47032C26.8307 5.53527 26.869 5.59304 26.8667 5.63717C26.8642 5.68558 26.811 5.72286 26.6974 5.74403C26.5558 5.77055 26.4649 5.77721 26.3387 5.76271L26.2658 5.74805L26.265 5.75256C26.2182 5.74522 26.1659 5.73557 26.1049 5.72355C25.9313 5.59463 25.6649 5.46784 25.3897 5.36816L25.3817 5.39257C25.6527 5.49071 25.9158 5.61582 26.0869 5.74177L26.0862 5.74609L26.0952 5.74787C26.144 5.78445 26.1849 5.82106 26.2159 5.85707C26.2912 5.94453 26.2817 6.00258 26.1992 6.03605C26.1177 6.06906 25.9731 6.0728 25.8072 6.04643C25.4954 5.99668 24.9775 5.71764 24.7146 5.47025L24.6983 5.4895C24.8571 5.63891 25.1068 5.79926 25.3498 5.91509L25.3492 5.91564C25.4092 5.97924 25.4649 6.07192 25.4899 6.15627C25.5132 6.23533 25.483 6.27395 25.4142 6.2682C25.3217 6.26076 25.2534 6.24388 25.1643 6.19921L25.1606 6.20743C25.118 6.15609 25.0606 6.10716 24.9882 6.06554C24.7904 5.95166 24.5326 5.71239 24.4127 5.53689L24.3929 5.55197C24.5149 5.73061 24.7754 5.97247 24.9765 6.08819C25.2039 6.21896 25.2735 6.4197 25.2042 6.52581C25.143 6.61968 24.9385 6.63198 24.7347 6.50448C24.4911 6.35192 24.2096 5.86699 24.1718 5.52539L24.1475 5.52838C24.1861 5.87773 24.4718 6.36986 24.7222 6.52667C24.763 6.55219 24.8039 6.57235 24.844 6.58754C24.8624 6.64127 24.87 6.7083 24.8653 6.81289C24.8594 6.94438 24.7676 7.0332 24.6555 6.98868C24.5449 6.94478 24.4597 6.84716 24.4026 6.72581L24.3807 6.73727C24.4402 6.86395 24.5296 6.96627 24.6469 7.01282C24.6777 7.02507 24.7072 7.02859 24.7344 7.02488C24.8006 7.1728 24.8369 7.28133 24.8323 7.32082C24.8253 7.38033 24.8106 7.39847 24.7589 7.38581L24.7533 7.41095C24.8227 7.42793 24.8481 7.39665 24.8566 7.32398C24.862 7.27807 24.826 7.16974 24.759 7.01936C24.7726 7.01506 24.7855 7.00883 24.7975 7.00089C24.8908 7.13068 24.9591 7.22312 25.0432 7.33002C25.0685 7.36207 25.093 7.39259 25.1168 7.42142C25.2051 7.52846 25.2803 7.60919 25.3392 7.6575L25.3542 7.63714C25.2969 7.5901 25.2227 7.51037 25.1353 7.40449C25.1116 7.37582 25.0872 7.34545 25.0621 7.31355C24.9783 7.20709 24.9102 7.11494 24.8172 6.98558C24.8594 6.94763 24.8865 6.88616 24.8897 6.8141C24.8926 6.75084 24.891 6.70046 24.8853 6.65806C25.1282 6.95348 25.6982 7.5075 25.868 7.60863L25.88 7.58616C25.7063 7.48268 25.0977 6.88838 24.8758 6.60645L24.8754 6.60679L24.873 6.5977C25.0152 6.64371 25.1427 6.62658 25.2056 6.56349C25.3482 6.7592 25.7912 7.03369 26.0198 7.07969L26.0244 7.05434C25.7999 7.00915 25.357 6.73403 25.2222 6.54374L25.2244 6.54044C25.266 6.47681 25.2643 6.38579 25.2179 6.29382C25.3795 6.43621 25.6513 6.64616 25.903 6.83017L25.9169 6.80897C25.6476 6.61199 25.3545 6.38482 25.2001 6.24408C25.2713 6.27448 25.3335 6.2876 25.4123 6.29393C25.4485 6.29695 25.4772 6.28879 25.4961 6.27109C25.6672 6.45851 26.107 6.83568 26.2817 6.92649L26.2925 6.90335C26.12 6.81368 25.6791 6.43521 25.5115 6.25072C25.5244 6.22588 25.5258 6.19121 25.5132 6.1486C25.4922 6.07743 25.4507 6.00129 25.4027 5.93966C25.5486 6.00556 25.6894 6.05373 25.8035 6.07194C25.8378 6.07738 25.8711 6.08157 25.9033 6.0845L25.9019 6.08622C26.117 6.28687 26.5156 6.56148 26.7495 6.67886L26.76 6.65556C26.536 6.54314 26.1582 6.28424 25.9404 6.08736C26.0054 6.09143 26.0646 6.09004 26.1149 6.08316C26.1816 6.13987 26.3052 6.21929 26.4824 6.32257C26.5053 6.33594 26.5291 6.3497 26.554 6.36396C26.6146 6.39871 26.7604 6.48055 26.8508 6.53126L26.8508 6.53128L26.9255 6.57324L26.9371 6.55054L26.8621 6.50839C26.7718 6.45766 26.6262 6.37595 26.5657 6.34129C26.5409 6.32706 26.5171 6.31332 26.4942 6.29999C26.3331 6.20608 26.2166 6.13198 26.148 6.07759C26.1703 6.07305 26.1904 6.06723 26.208 6.06013C26.226 6.05281 26.2412 6.04419 26.2535 6.03437C26.7067 6.33522 26.9952 6.494 27.2903 6.56614L27.2958 6.541C27.0055 6.47003 26.7197 6.31307 26.2719 6.01609C26.294 5.9882 26.2976 5.95328 26.2813 5.91311C26.3327 5.93475 26.3932 5.96132 26.47 5.99581L26.6664 6.08453L26.7225 6.10991L26.7718 6.13211C27.0544 6.25894 27.2318 6.33128 27.3536 6.36419L27.3596 6.3392C27.2396 6.30673 27.0628 6.23465 26.7814 6.10836L26.7321 6.08619L26.6759 6.06075L26.4796 5.97207C26.3883 5.9311 26.32 5.90125 26.2626 5.87753C26.2547 5.8653 26.2452 5.85268 26.2341 5.83973C26.2109 5.81279 26.1824 5.78562 26.1496 5.75843C26.2217 5.77213 26.2814 5.78204 26.3349 5.78823C26.8029 5.88415 27.2548 6.01023 27.3652 6.10994L27.3811 6.09034C27.2784 5.99754 26.9081 5.88717 26.4928 5.79549C26.5565 5.79328 26.6211 5.78453 26.7016 5.76944C26.7691 5.75688 26.8183 5.7381 26.8498 5.71324L26.85 5.71519C26.8686 5.71318 26.8869 5.71095 26.9049 5.70849C27.1167 5.80469 27.4566 5.83104 27.6207 5.7482C27.6723 5.85653 27.5923 6.01971 27.5001 6.05077L27.5075 6.07535C27.5584 6.05823 27.6052 6.00776 27.6335 5.94625C27.8745 6.00542 28.416 6.01683 28.6786 5.95614L28.6735 5.93006C28.4162 5.98953 27.8836 5.97873 27.6437 5.92141C27.6542 5.89246 27.6605 5.86187 27.6614 5.83167C28.0213 5.86595 28.4548 5.83742 28.6757 5.72636L28.6655 5.70215C28.4489 5.811 28.0172 5.83915 27.6606 5.80483C27.6585 5.78087 27.6526 5.75758 27.6423 5.73601L27.6503 5.73071C27.6781 5.71137 27.701 5.68981 27.719 5.66691C28.162 5.60002 28.4887 5.49189 28.7869 5.33493C28.8514 5.30096 28.9864 5.22097 29.0956 5.15632L29.0956 5.15631L29.0956 5.15629L29.0956 5.15627L29.0957 5.15625C29.1682 5.11327 29.2293 5.07709 29.2506 5.06572C29.2895 5.04498 29.3258 5.02739 29.3616 5.01222L29.3525 4.98828C29.316 5.00374 29.279 5.02164 29.2395 5.0427C29.2178 5.05432 29.1558 5.09101 29.0826 5.1344L29.0826 5.13441L29.0824 5.13448L29.0824 5.13449C28.9735 5.19902 28.8397 5.2783 28.7759 5.31184C28.4854 5.46481 28.1674 5.57106 27.7388 5.6378C27.7587 5.6036 27.7687 5.5674 27.7691 5.53174C28.5141 5.33514 29.1595 5.04186 29.5933 4.66693L29.5777 4.64697C29.1481 5.01834 28.5076 5.30977 27.7676 5.50552C27.7607 5.44905 27.7294 5.39563 27.675 5.35578C28.0686 5.26733 28.3272 5.14599 28.8253 4.85384L28.8579 4.83475C28.9993 4.75181 29.0756 4.7081 29.1636 4.66067L29.1525 4.6377C29.0641 4.6853 28.9876 4.72912 28.846 4.8122L28.8134 4.83129C28.3319 5.11367 28.0759 5.23549 27.7043 5.32267ZM27.6747 5.35552C27.6845 5.34629 27.6945 5.33518 27.7043 5.32267L27.6685 5.33087L27.6733 5.3545C27.6693 5.35166 27.6653 5.34889 27.6611 5.34619L27.6483 5.3682L27.6549 5.37259C27.4432 5.55013 27.2342 5.65509 26.9537 5.70117C26.9401 5.69589 26.9268 5.69035 26.9141 5.68455L26.9044 5.70824L26.9049 5.70849C26.9214 5.70624 26.9377 5.7038 26.9537 5.70117C27.1743 5.78636 27.5041 5.80126 27.6368 5.70915C27.7777 5.61136 27.7771 5.45676 27.6549 5.37259L27.6681 5.36142L27.6742 5.35598L27.675 5.35578L27.6747 5.35552ZM27.6747 5.35552L27.6733 5.3545L27.6736 5.35611L27.6742 5.35598L27.6747 5.35552ZM27.7676 5.50552L27.7495 5.51028L27.7554 5.53533L27.7691 5.53174C27.7692 5.52295 27.7687 5.5142 27.7676 5.50552ZM27.7388 5.6378L27.7063 5.64275L27.7097 5.6683L27.719 5.66691C27.7264 5.65742 27.733 5.64769 27.7388 5.6378ZM27.6606 5.80483C27.6614 5.8137 27.6616 5.82267 27.6614 5.83167L27.648 5.83036L27.6502 5.8038L27.6606 5.80483ZM27.6437 5.92141L27.6299 5.91797L27.6242 5.94391L27.6335 5.94625C27.6373 5.93814 27.6407 5.92985 27.6437 5.92141ZM27.6423 5.73601C27.6354 5.74031 27.6282 5.74437 27.6207 5.7482L27.6165 5.74007L27.6376 5.72705L27.6423 5.73601ZM26.8752 5.68633L26.8475 5.68952L26.8498 5.71324C26.8602 5.70494 26.8687 5.69597 26.8752 5.68633ZM26.8197 5.49545C26.8682 5.54772 26.8934 5.5958 26.8912 5.63858C26.8903 5.65599 26.885 5.67191 26.8752 5.68633C27.1959 5.6472 27.4213 5.53861 27.6527 5.34137C27.6977 5.30292 27.7487 5.21522 27.7663 5.13862C27.7871 5.04848 27.7631 4.98537 27.6861 4.96195L27.7233 4.94935C27.7121 4.94354 27.6995 4.93875 27.6855 4.93506L27.6795 4.96009L27.6861 4.96195C27.5571 5.00512 27.4263 5.04391 27.2986 5.07628C27.2888 5.0698 27.2782 5.06363 27.2666 5.05778L27.2654 5.05807L27.271 5.08319L27.2986 5.07628C27.3435 5.10599 27.37 5.14219 27.3788 5.18367C27.3918 5.24544 27.3628 5.31349 27.3097 5.36626C27.2187 5.45659 27.0227 5.50957 26.8197 5.49545ZM26.7916 5.46714C26.8017 5.4767 26.8111 5.48614 26.8197 5.49545C26.8087 5.49468 26.7976 5.49372 26.7866 5.49255L26.789 5.46687L26.7916 5.46714ZM26.4669 5.28777C26.4493 5.29062 26.4327 5.29348 26.417 5.29632L26.4144 5.29534L26.4105 5.27047L26.4177 5.26918C26.4343 5.27529 26.4508 5.28149 26.4669 5.28777ZM26.1815 5.19353C26.447 5.04242 26.8654 4.97499 27.144 5.04181C27.274 5.073 27.3413 5.12512 27.3549 5.18927C27.3658 5.24076 27.3404 5.30035 27.2929 5.34748C27.2032 5.43652 26.9988 5.48842 26.7916 5.46714C26.7858 5.46168 26.7799 5.45617 26.7736 5.45063C26.7142 5.39745 26.6008 5.33992 26.4669 5.28777C26.6643 5.2557 26.9713 5.22442 27.1302 5.22442V5.19775C26.9571 5.19775 26.6113 5.23439 26.4177 5.26918C26.3421 5.24148 26.2615 5.21574 26.1815 5.19353ZM26.1815 5.19353L26.1471 5.1842L26.1412 5.1878L26.1535 5.21007C26.1626 5.20445 26.1719 5.19893 26.1815 5.19353ZM26.4928 5.79549C26.4422 5.79724 26.3921 5.79486 26.3349 5.78823L26.2612 5.77341L26.265 5.75256C26.2911 5.75667 26.3155 5.76004 26.3387 5.76271C26.3905 5.77331 26.442 5.78426 26.4928 5.79549ZM26.2626 5.87753L26.2624 5.87744L26.2534 5.90147L26.2813 5.91311C26.2767 5.90166 26.2704 5.88978 26.2626 5.87753ZM26.2719 6.01609C26.2667 6.02257 26.2606 6.02867 26.2535 6.03437L26.2456 6.02915L26.2587 6.00732L26.2719 6.01609ZM26.148 6.07759C26.1406 6.07168 26.1337 6.06599 26.1274 6.06055L26.1119 6.08052L26.1149 6.08316C26.1264 6.08159 26.1375 6.07973 26.148 6.07759ZM25.9404 6.08736C25.9282 6.0866 25.9159 6.08565 25.9033 6.0845L25.9181 6.06689L25.9404 6.08736ZM25.5115 6.25072L25.5047 6.24316L25.4869 6.26085L25.4961 6.27109C25.5023 6.2653 25.5075 6.25849 25.5115 6.25072ZM25.1831 6.23655L25.2001 6.24408C25.1883 6.23332 25.1773 6.22307 25.1672 6.21338L25.1663 6.21442L25.1606 6.20743L25.1538 6.22252L25.1577 6.22444L25.1508 6.23246C25.1701 6.25103 25.1927 6.2716 25.2179 6.29382C25.2082 6.27469 25.1966 6.25552 25.1831 6.23655ZM25.1831 6.23655C25.1748 6.23276 25.1663 6.22873 25.1577 6.22444L25.1663 6.21442C25.1722 6.22176 25.1778 6.22914 25.1831 6.23655ZM25.2222 6.54374C25.2173 6.55075 25.2118 6.55734 25.2056 6.56349C25.2018 6.55824 25.1982 6.55305 25.1948 6.54792L25.215 6.5332L25.2222 6.54374ZM24.8754 6.60679C24.8795 6.62263 24.8828 6.63959 24.8853 6.65806C24.8752 6.64589 24.8658 6.63416 24.8569 6.62292L24.8754 6.60679ZM24.8172 6.98558L24.8101 6.97559L24.7905 6.99115L24.7975 7.00089C24.8044 6.99633 24.811 6.99121 24.8172 6.98558ZM24.759 7.01936L24.7507 7.00098L24.7286 7.01208L24.7344 7.02488C24.7428 7.02372 24.751 7.02187 24.759 7.01936ZM24.873 6.5977C24.8634 6.5946 24.8537 6.59122 24.844 6.58754L24.8425 6.5833L24.8655 6.57422C24.8682 6.5818 24.8707 6.58961 24.873 6.5977ZM25.4027 5.93966C25.3851 5.93172 25.3675 5.92353 25.3498 5.91509L25.3666 5.89746C25.3789 5.91048 25.391 5.92464 25.4027 5.93966ZM26.1496 5.75843C26.1355 5.7468 26.1206 5.73517 26.1049 5.72355L26.0907 5.72073L26.0869 5.74177L26.0952 5.74787L26.1496 5.75843ZM26.0154 5.17888C26.0238 5.17207 26.0318 5.16505 26.0395 5.15783L26.0099 5.15137L26.0051 5.17667L26.0154 5.17888ZM24.5208 4.91748C24.4181 4.94813 24.3606 4.97913 24.2525 5.05213L24.2654 5.07479C24.3717 5.00303 24.4273 4.97303 24.5273 4.9432L24.5208 4.91748ZM24.9984 5.4502C25.2804 5.61819 25.6593 5.807 25.9225 5.90736L25.9308 5.88309C25.6691 5.78326 25.2913 5.59505 25.0105 5.42773L24.9984 5.4502ZM26.0233 5.46493C25.8199 5.42085 25.6442 5.39199 25.4672 5.37581L25.4693 5.3501C25.6474 5.36637 25.824 5.39538 26.0283 5.43965C26.1102 5.45741 26.1948 5.47715 26.3032 5.50349L26.4058 5.5286L26.5861 5.57272L26.5806 5.59787L26.4002 5.55373L26.2977 5.52864C26.1895 5.50234 26.1051 5.48264 26.0233 5.46493ZM24.2693 5.55404C24.3191 5.71178 24.6715 6.17628 24.8377 6.28636L24.8507 6.26451C24.6893 6.15757 24.3405 5.69788 24.2926 5.5459L24.2693 5.55404ZM24.5791 6.67229C24.5242 6.53125 24.1835 5.99695 24.001 5.74515L24.0205 5.72949C24.2043 5.98317 24.5458 6.51859 24.6018 6.66249L24.5791 6.67229ZM24.4927 5.51756C24.6065 5.6534 24.979 5.95211 25.1488 6.02412L25.1579 6.00018C24.992 5.9298 24.6225 5.63351 24.5111 5.50049L24.4927 5.51756ZM23.8008 4.07031C23.7323 4.10774 23.6823 4.16246 23.641 4.23866L23.6621 4.2522C23.7011 4.18018 23.7478 4.12911 23.8118 4.09415L23.8008 4.07031ZM22.6623 4.91306C22.6556 4.81593 22.6651 4.68947 22.6902 4.59863L22.7137 4.60584C22.6895 4.69349 22.6802 4.81693 22.6868 4.91118L22.6623 4.91306ZM22.679 5.07324C22.6589 5.16329 22.6738 5.37283 22.7012 5.48871L22.7249 5.48246C22.6984 5.37021 22.6838 5.16448 22.7028 5.07914L22.679 5.07324ZM22.7658 5.76634C22.7545 5.74734 22.7459 5.72943 22.7403 5.71262L22.7634 5.70361C22.7682 5.71827 22.7759 5.7344 22.7863 5.75179C22.7994 5.77357 22.8162 5.79676 22.8365 5.82155C22.8532 5.84204 22.8669 5.85745 22.893 5.88602L22.8756 5.90483C22.8492 5.87592 22.8353 5.86025 22.8182 5.83928C22.7972 5.81357 22.7796 5.78938 22.7658 5.76634ZM22.861 5.22754C22.8498 5.37724 22.928 5.66137 23.0076 5.7577C23.025 5.91706 23.1302 6.14514 23.2787 6.30233L23.296 6.28413C23.1514 6.13098 23.0486 5.90815 23.0289 5.74758C22.951 5.64993 22.8747 5.37267 22.8854 5.22957L22.861 5.22754ZM22.8281 5.06031C22.8154 4.9657 22.8124 4.87083 22.8227 4.81055L22.8468 4.81511C22.8371 4.87213 22.84 4.96458 22.8523 5.0567L22.8281 5.06031ZM23.0386 4.22314C22.9898 4.35246 22.9625 4.62607 22.9771 4.73287C22.9798 4.75333 22.9795 4.7585 22.9709 4.84442C22.9552 5.00109 22.9614 5.11991 23.0107 5.2734L23.0339 5.26512C22.9859 5.11572 22.9799 5.00041 22.9952 4.84712C23.0042 4.75732 23.0045 4.75297 23.0013 4.72923C22.9874 4.62676 23.0141 4.35769 23.0613 4.23268L23.0386 4.22314ZM23.2094 5.21434C23.1571 5.03008 23.1552 4.58762 23.2092 4.35352L23.233 4.35961C23.18 4.58944 23.1819 5.02728 23.2328 5.20696L23.2094 5.21434ZM23.1427 5.28418C23.1132 5.42162 23.1163 5.58075 23.1542 5.70051L23.1774 5.69234C23.141 5.57732 23.138 5.42295 23.1666 5.28988L23.1427 5.28418ZM23.5874 5.07306C23.4406 4.90092 23.3517 4.64425 23.3578 4.44385L23.3823 4.44467C23.3764 4.63842 23.463 4.88862 23.6056 5.05582L23.5874 5.07306ZM23.3192 5.08691C23.3023 5.30927 23.3144 5.5135 23.353 5.6302C23.3629 5.66031 23.3699 5.69691 23.3797 5.76396L23.3892 5.82925C23.3931 5.85497 23.3966 5.87663 23.4004 5.89739C23.4189 5.99863 23.4432 6.07313 23.4817 6.13073L23.5017 6.11587C23.4656 6.0619 23.4423 5.99047 23.4244 5.89251C23.4207 5.87207 23.4172 5.85068 23.4134 5.82522L23.4039 5.76002C23.3938 5.69143 23.3867 5.65381 23.3761 5.62172C23.3389 5.50907 23.3269 5.30807 23.3436 5.08898L23.3192 5.08691ZM23.5165 5.44944L23.5073 5.41288L23.531 5.40625L23.5402 5.44296C23.5529 5.49469 23.5605 5.53369 23.5639 5.57262C23.569 5.62883 23.5642 5.67734 23.5471 5.71882L23.5246 5.70852C23.5398 5.67156 23.5442 5.62726 23.5396 5.57504C23.5362 5.53776 23.5289 5.49994 23.5165 5.44944ZM23.6509 5.24386C23.6916 5.3844 23.717 5.55635 23.7112 5.63109L23.7356 5.63321C23.7417 5.55472 23.7159 5.37972 23.6743 5.23633L23.6509 5.24386ZM23.8234 6.38141C23.773 6.28828 23.7273 6.13951 23.7169 6.01944L23.7413 6.01709C23.7514 6.13341 23.796 6.27863 23.8447 6.36862L23.8234 6.38141ZM23.5352 6.37289C23.5815 6.51925 23.6609 6.67036 23.7327 6.72992L23.7478 6.70965C23.6807 6.65396 23.6033 6.50672 23.5585 6.36475L23.5352 6.37289ZM24.2145 6.78287C24.1655 6.62692 24.1333 6.55116 24.0559 6.43527L24.0759 6.42041C24.155 6.53877 24.188 6.61661 24.2378 6.77475L24.2145 6.78287Z" fill="black"/>
<path fill-rule="evenodd" clip-rule="evenodd" d="M23.1591 6.46951C23.1744 6.47122 23.1839 6.47186 23.2102 6.47324C23.2712 6.47644 23.2926 6.48297 23.3201 6.51353C23.3382 6.53368 23.3562 6.56413 23.3756 6.60846C23.4433 6.76314 23.6284 6.99958 23.7367 7.07339C23.88 7.33819 23.9437 7.68767 23.8993 7.8754C23.8865 7.79298 23.8419 7.72953 23.7733 7.67755C23.7466 7.65733 23.7296 7.64704 23.6832 7.62109C23.6219 7.67744 23.5324 7.74228 23.4872 7.75241L23.4923 7.77765C23.5433 7.76621 23.6368 7.69846 23.6865 7.6412C23.7091 7.66193 23.724 7.67277 23.7405 7.68479L23.759 7.69851C23.823 7.74697 23.8637 7.80511 23.8752 7.88023L23.8991 7.87616L23.8975 7.88256L23.9212 7.8893C23.9687 7.70419 23.9112 7.3639 23.7759 7.09491C23.9428 7.17563 24.0495 7.2666 24.0703 7.39491L24.0936 7.39801L24.1056 7.36976C24.1612 7.23808 24.1824 7.14758 24.1612 7.05414L24.1633 7.0568L24.1829 7.08157L24.1829 7.08157L24.1829 7.08158C24.2443 7.15924 24.2895 7.2164 24.323 7.2596L24.3207 7.25994C24.324 7.28452 24.3271 7.32195 24.3307 7.37903C24.3314 7.38922 24.3332 7.41872 24.3352 7.45225C24.3379 7.49781 24.3411 7.55082 24.3425 7.5729C24.3513 7.70847 24.3602 7.79878 24.3722 7.85769L24.3961 7.85227C24.3844 7.795 24.3757 7.70545 24.367 7.57114C24.3656 7.54915 24.3624 7.4963 24.3596 7.45078C24.3576 7.41716 24.3558 7.38754 24.3552 7.37729C24.3529 7.34276 24.3509 7.31534 24.3489 7.29344C24.401 7.36197 24.4147 7.3861 24.4218 7.41204C24.4239 7.41993 24.4255 7.42798 24.4273 7.43749L24.4273 7.43749L24.4273 7.4375L24.4293 7.44803C24.4498 7.55063 24.5283 7.69134 24.6071 7.78174L24.6251 7.76429C24.5491 7.67703 24.4727 7.54021 24.4533 7.44273L24.4507 7.42921C24.4488 7.41889 24.4471 7.41023 24.4448 7.40174C24.4325 7.35697 24.4012 7.3174 24.2048 7.06898L24.1821 7.04028C24.1654 7.01912 24.1503 6.99975 24.136 6.98104L24.1154 6.99451C24.1641 7.10604 24.1504 7.19874 24.0859 7.35288C24.0496 7.22995 23.938 7.14304 23.7728 7.06508C23.6773 7.02014 23.4691 6.76044 23.3978 6.59765C23.3774 6.55098 23.3581 6.51826 23.3378 6.49578C23.3049 6.45912 23.2782 6.45097 23.2114 6.44746C23.1856 6.44611 23.1764 6.44549 23.1617 6.44385L23.1591 6.46951ZM24.3489 7.29344C24.3476 7.27874 24.3463 7.26652 24.3449 7.25632L24.323 7.2596C24.3325 7.27197 24.3412 7.2832 24.3489 7.29344ZM23.8991 7.87616L23.8994 7.87611L23.8993 7.8754L23.8991 7.87616ZM23.7759 7.09491L23.7628 7.08864C23.7547 7.08486 23.746 7.07972 23.7367 7.07339L23.7367 7.07333L23.758 7.06055C23.7641 7.07186 23.7701 7.08332 23.7759 7.09491ZM23.3308 6.86065C23.3737 6.99681 23.4078 7.1603 23.4113 7.25491L23.4358 7.25391C23.4322 7.15649 23.3976 6.99079 23.354 6.85251L23.3308 6.86065ZM23.702 7.53213C23.6982 7.45576 23.6526 7.25575 23.6071 7.1225L23.6302 7.11377C23.6763 7.24919 23.7225 7.45149 23.7265 7.53077L23.702 7.53213ZM24.1299 7.48542C24.1654 7.57568 24.1879 7.71815 24.1807 7.80305L24.2051 7.80534C24.2126 7.71617 24.1895 7.56954 24.1525 7.47553L24.1299 7.48542Z" fill="black"/>
</g>
</svg>
