<svg width="16" height="16" viewBox="0 0 16 16" fill="none" xmlns="http://www.w3.org/2000/svg">
<path d="M14.8638 6.62902H14.2999V6.59997H7.99997V9.39996H11.956C11.3788 11.0299 9.82801 12.1999 7.99997 12.1999C5.68053 12.1999 3.79999 10.3194 3.79999 7.99996C3.79999 5.68053 5.68053 3.79999 7.99997 3.79999C9.07061 3.79999 10.0447 4.20388 10.7863 4.86363L12.7662 2.88369C11.516 1.71855 9.84376 1 7.99997 1C4.13423 1 1 4.13423 1 7.99996C1 11.8657 4.13423 14.9999 7.99997 14.9999C11.8657 14.9999 14.9999 11.8657 14.9999 7.99996C14.9999 7.53062 14.9516 7.07247 14.8638 6.62902Z" fill="#D7D7D7"/>
<path d="M1.80713 4.74183L4.10697 6.42847C4.72926 4.88778 6.23636 3.79999 8 3.79999C9.07064 3.79999 10.0447 4.20388 10.7863 4.86363L12.7663 2.88369C11.5161 1.71855 9.84379 1 8 1C5.31131 1 2.97962 2.51794 1.80713 4.74183Z" fill="#EDEDED"/>
<path d="M7.99991 15C9.808 15 11.4509 14.3081 12.693 13.1828L10.5265 11.3495C9.80014 11.902 8.91251 12.2008 7.99991 12.2C6.17922 12.2 4.63327 11.0391 4.05088 9.41895L1.76819 11.1777C2.92668 13.4446 5.27937 15 7.99991 15Z" fill="#7C7B7B"/>
<path d="M14.8637 6.62866H14.2998V6.59961H7.99988V9.3996H11.9559C11.6798 10.1753 11.1825 10.8532 10.5255 11.3494L10.5265 11.3487L12.693 13.182C12.5397 13.3213 14.9998 11.4996 14.9998 7.9996C14.9998 7.53025 14.9515 7.07211 14.8637 6.62866Z" fill="#747474"/>
</svg>
