<svg width="16" height="16" viewBox="0 0 16 16" fill="none" xmlns="http://www.w3.org/2000/svg">
<path d="M7.99813 5.66567C6.71276 5.66567 5.6638 6.71463 5.6638 8C5.6638 9.28537 6.71276 10.3343 7.99813 10.3343C9.28349 10.3343 10.3325 9.28537 10.3325 8C10.3325 6.71463 9.28349 5.66567 7.99813 5.66567ZM14.9994 8C14.9994 7.03335 15.0081 6.07545 14.9538 5.11055C14.8995 3.98979 14.6439 2.99512 13.8243 2.17556C13.003 1.35426 12.0101 1.10034 10.8893 1.04605C9.92268 0.991765 8.96478 1.00052 7.99988 1.00052C7.03322 1.00052 6.07533 0.991765 5.11043 1.04605C3.98967 1.10034 2.995 1.35601 2.17544 2.17556C1.35414 2.99687 1.10022 3.98979 1.04593 5.11055C0.991643 6.0772 1.0004 7.0351 1.0004 8C1.0004 8.9649 0.991643 9.92455 1.04593 10.8895C1.10022 12.0102 1.35589 13.0049 2.17544 13.8244C2.99675 14.6457 3.98967 14.8997 5.11043 14.9539C6.07708 15.0082 7.03498 14.9995 7.99988 14.9995C8.96653 14.9995 9.92443 15.0082 10.8893 14.9539C12.0101 14.8997 13.0048 14.644 13.8243 13.8244C14.6456 13.0031 14.8995 12.0102 14.9538 10.8895C15.0099 9.92455 14.9994 8.96665 14.9994 8ZM7.99813 11.5917C6.01053 11.5917 4.40645 9.98759 4.40645 8C4.40645 6.01241 6.01053 4.40832 7.99813 4.40832C9.98572 4.40832 11.5898 6.01241 11.5898 8C11.5898 9.98759 9.98572 11.5917 7.99813 11.5917ZM11.7369 5.10004C11.2728 5.10004 10.8981 4.72529 10.8981 4.26122C10.8981 3.79716 11.2728 3.42241 11.7369 3.42241C12.201 3.42241 12.5757 3.79716 12.5757 4.26122C12.5759 4.37142 12.5543 4.48056 12.5121 4.58239C12.47 4.68422 12.4083 4.77675 12.3303 4.85467C12.2524 4.93258 12.1599 4.99437 12.0581 5.03647C11.9562 5.07858 11.8471 5.10018 11.7369 5.10004Z" fill="url(#paint0_linear_92_5581)"/>
<defs>
<linearGradient id="paint0_linear_92_5581" x1="2.8749" y1="1.5954" x2="13.1218" y2="14.4041" gradientUnits="userSpaceOnUse">
<stop stop-color="#CE00D2"/>
<stop offset="0.557292" stop-color="#E6758D"/>
<stop offset="1" stop-color="#FFC364"/>
</linearGradient>
</defs>
</svg>
