<svg width="16" height="16" viewBox="0 0 16 16" fill="none" xmlns="http://www.w3.org/2000/svg">
<path fill-rule="evenodd" clip-rule="evenodd" d="M11.6959 4.61783C11.6959 6.6159 10.0409 8.23566 7.99946 8.23566C5.95798 8.23566 4.30303 6.6159 4.30303 4.61783C4.30303 2.61976 5.95798 1 7.99946 1C10.0409 1 11.6959 2.61976 11.6959 4.61783ZM9.60739 4.61838C9.60739 5.48711 8.88785 6.19135 8.00025 6.19135C7.11265 6.19135 6.3931 5.48711 6.3931 4.61838C6.3931 3.74965 7.11265 3.04541 8.00025 3.04541C8.88785 3.04541 9.60739 3.74965 9.60739 4.61838ZM5.09854 8.36898C4.35562 8.07038 3.5 8.57778 3.5 9.37847C3.5 9.78662 3.73362 10.1611 4.10731 10.3252C4.97311 10.7055 5.7527 10.9692 6.50303 11.1169L4.4561 13.1203C4.01676 13.5503 4.01676 14.2475 4.4561 14.6775C4.89544 15.1074 5.60775 15.1075 6.04709 14.6775L8.03011 12.7366L10.0131 14.6775C10.4525 15.1074 11.1648 15.1074 11.6041 14.6775C12.0435 14.2475 12.0435 13.5503 11.6041 13.1203L9.52201 11.0825C10.2431 10.9295 11.0054 10.6769 11.8547 10.3251C12.2497 10.1614 12.5 9.77132 12.5 9.3438C12.5 8.54229 11.6601 8.0209 10.9123 8.30939C8.70053 9.16264 7.09133 9.16994 5.09854 8.36898Z" fill="#F58220"/>
</svg>
