<svg width="16" height="16" viewBox="0 0 16 16" fill="none" xmlns="http://www.w3.org/2000/svg">
<path d="M15 2.42506L12.7857 13.5005C12.7857 13.5005 12.4761 14.2685 11.6245 13.8999L6.51479 10.0135L4.6568 9.12263L1.5291 8.07801C1.5291 8.07801 1.0491 7.9091 1.00262 7.54043C0.956128 7.17176 1.54459 6.9721 1.54459 6.9721L13.9779 2.13335C13.9779 2.13335 14.9999 1.68791 14.9999 2.42525" fill="#40B3E0"/>
<path d="M6.12087 13.3761C6.12087 13.3761 5.97172 13.3623 5.78577 12.7785C5.6001 12.1948 4.65552 9.12259 4.65552 9.12259L12.1651 4.39146C12.1651 4.39146 12.5987 4.13031 12.5833 4.39146C12.5833 4.39146 12.6606 4.43758 12.4283 4.65261C12.1961 4.86774 6.5291 9.92142 6.5291 9.92142" fill="white"/>
<path d="M8.47366 11.5036L6.45267 13.3317C6.45267 13.3317 6.29461 13.4506 6.12183 13.376L6.50884 9.98047" fill="#B5CFE4"/>
</svg>
