<svg width="16" height="16" viewBox="0 0 16 16" fill="none" xmlns="http://www.w3.org/2000/svg">
<path d="M10.8933 6.0537C11.7689 6.69956 12.8415 7.07957 14 7.07957V4.77927C13.7807 4.77932 13.562 4.7557 13.3475 4.7088V6.51947C12.1892 6.51947 11.1167 6.13951 10.2409 5.4937V10.188C10.2409 12.5364 8.39607 14.4399 6.12051 14.4399C5.27144 14.4399 4.48223 14.175 3.82666 13.7207C4.5749 14.5102 5.61837 14.9999 6.77275 14.9999C9.0485 14.9999 10.8934 13.0964 10.8934 10.7479V6.0537H10.8933ZM11.6982 3.73298C11.2507 3.22854 10.9569 2.57663 10.8933 1.85591V1.56006H10.2751C10.4307 2.47606 10.9615 3.25864 11.6981 3.73298H11.6982ZM5.26595 11.9187C5.01596 11.5805 4.88082 11.1667 4.88143 10.7412C4.88143 9.6672 5.72525 8.79635 6.76632 8.79635C6.96031 8.79625 7.15315 8.82698 7.33807 8.88748V6.53573C7.12197 6.50519 6.90391 6.49218 6.68593 6.49697V8.32743C6.50092 8.26689 6.30798 8.23617 6.1139 8.23635C5.07287 8.23635 4.22909 9.1071 4.22909 10.1813C4.22909 10.9408 4.65084 11.5984 5.26595 11.9187Z" fill="#FF004F"/>
<path d="M10.241 5.49365C11.1168 6.13946 12.1892 6.51942 13.3476 6.51942V4.70875C12.7009 4.56661 12.1285 4.21796 11.6982 3.73298C10.9615 3.25859 10.4307 2.47602 10.2751 1.56006H8.65116V10.7479C8.64746 11.819 7.80509 12.6862 6.76626 12.6862C6.15415 12.6862 5.61029 12.3852 5.26589 11.9187C4.65087 11.5984 4.22908 10.9408 4.22908 10.1813C4.22908 9.10725 5.07285 8.2364 6.11388 8.2364C6.31334 8.2364 6.50558 8.26844 6.68591 8.32748V6.49702C4.45029 6.54469 2.65234 8.42964 2.65234 10.7479C2.65234 11.9052 3.10006 12.9543 3.82674 13.7208C4.4823 14.175 5.27147 14.44 6.12058 14.44C8.3962 14.44 10.241 12.5363 10.241 10.188V5.4937L10.241 5.49365Z" fill="black"/>
<path d="M13.3476 4.70865V4.21916C12.7645 4.22007 12.1929 4.05157 11.6982 3.73292C12.1361 4.22764 12.7128 4.56879 13.3476 4.70874V4.70865ZM10.2751 1.55995C10.2603 1.47243 10.2489 1.38432 10.241 1.29585V1H7.99867V10.1879C7.99511 11.2589 7.15274 12.1262 6.11387 12.1262C5.81936 12.1266 5.52887 12.0556 5.26588 11.9187C5.61028 12.3851 6.15414 12.6861 6.76625 12.6861C7.80503 12.6861 8.64749 11.819 8.65115 10.7478V1.56H10.2751V1.55995ZM6.68604 6.49691V5.97572C6.49867 5.94928 6.30978 5.93605 6.12067 5.93613C3.84482 5.93613 2 7.83977 2 10.1879C2 11.6601 2.72504 12.9575 3.82682 13.7207C3.10014 12.9542 2.65243 11.905 2.65243 10.7478C2.65243 8.42958 4.45032 6.54463 6.68604 6.49696V6.49691Z" fill="#00F2EA"/>
</svg>
