<svg width="16" height="16" viewBox="0 0 16 16" fill="none" xmlns="http://www.w3.org/2000/svg">
<path d="M15 3.80215C14.4758 4.02669 13.9197 4.17408 13.3503 4.23941C13.9434 3.89574 14.3988 3.35152 14.6132 2.70308C14.0494 3.02655 13.4326 3.25446 12.7893 3.37695C12.2654 2.83728 11.5189 2.5 10.6928 2.5C9.10649 2.5 7.82041 3.74336 7.82041 5.27689C7.82041 5.49456 7.84584 5.70648 7.89478 5.90977C5.50767 5.79393 3.39127 4.68841 1.97459 3.00832C1.7274 3.41846 1.58576 3.89553 1.58576 4.40438C1.58576 5.36783 2.09288 6.21776 2.86353 6.71577C2.40741 6.70196 1.96132 6.58285 1.56252 6.36839C1.56235 6.38003 1.56235 6.39166 1.56235 6.40334C1.56235 7.7488 2.55241 8.87119 3.86634 9.1263C3.44338 9.23751 2.99972 9.25379 2.56926 9.17388C2.93473 10.2771 3.99551 11.08 5.25234 11.1024C4.26933 11.8472 3.03082 12.2912 1.68518 12.2912C1.4533 12.2912 1.22471 12.278 1 12.2524C2.2711 13.0403 3.78086 13.5 5.40289 13.5C10.6861 13.5 13.5751 9.26853 13.5751 5.59894C13.5751 5.47849 13.5723 5.35873 13.5668 5.23966C14.1291 4.84665 14.6144 4.35987 15 3.80215Z" fill="#7C7B7B"/>
</svg>
