<svg width="16" height="16" viewBox="0 0 16 16" fill="none" xmlns="http://www.w3.org/2000/svg">
<path d="M13.3353 11.7902C12.7076 12.3457 11.7979 12.7441 10.6062 12.9854C9.41455 13.2267 8.18648 13.2972 6.92203 13.1971L4.52047 15V12.7463C3.72904 12.5005 3.11046 12.1818 2.66472 11.7902C2.1371 11.3259 1.72775 10.6589 1.43665 9.78927C1.14555 8.91967 1 8.03187 1 7.12585C1 6.21984 1.14555 5.33203 1.43665 4.46244C1.72775 3.59285 2.13938 2.92358 2.67154 2.45463C3.2037 1.98569 3.96556 1.62602 4.95711 1.37561C5.94867 1.1252 6.96296 1 8 1C9.03704 1 10.0513 1.1252 11.0429 1.37561C12.0344 1.62602 12.7963 1.98569 13.3285 2.45463C13.8606 2.92358 14.2723 3.59285 14.5634 4.46244C14.8545 5.33203 15 6.21984 15 7.12585C15 8.03187 14.8545 8.91967 14.5634 9.78927C14.2723 10.6589 13.8629 11.3259 13.3353 11.7902ZM9.7193 8.4439L10.6062 8.59415C10.5335 7.50146 10.1127 6.56813 9.34405 5.79415C8.57537 5.02016 7.64522 4.59675 6.55361 4.5239L6.7037 5.41171C7.48603 5.51187 8.15919 5.84423 8.7232 6.40878C9.2872 6.97333 9.61923 7.65171 9.7193 8.4439ZM6.8538 6.32683L7.01754 7.31024C7.38142 7.49236 7.64977 7.76098 7.82261 8.1161L8.80507 8.28C8.69591 7.7974 8.46394 7.38081 8.10916 7.03024C7.75439 6.67967 7.33593 6.4452 6.8538 6.32683ZM5.39376 7.13268V6.25854C5.39376 6.10374 5.33691 5.94894 5.2232 5.79415C5.10949 5.63935 4.98895 5.5278 4.8616 5.45951C4.73424 5.39122 4.63873 5.38439 4.57505 5.43902L3.94737 6.08098C3.59259 6.4361 3.54029 6.98927 3.79045 7.74049C4.04061 8.49171 4.51819 9.22016 5.2232 9.92585C5.9282 10.6315 6.65595 11.1096 7.40643 11.36C8.15692 11.6104 8.705 11.558 9.05068 11.2029L9.69201 10.561C9.75569 10.5063 9.75341 10.413 9.68519 10.281C9.61696 10.1489 9.50552 10.0283 9.35088 9.91902C9.19623 9.80976 9.04159 9.75512 8.88694 9.75512H8.01365L7.50877 10.1922C7.10851 10.0829 6.61046 9.73008 6.01462 9.13366C5.41878 8.53724 5.06628 8.03415 4.95711 7.62439L5.39376 7.13268ZM6.26706 2.76195L6.40351 3.64976C7.31319 3.66797 8.15465 3.90699 8.92788 4.36683C9.70111 4.82667 10.3151 5.4413 10.77 6.21073C11.2248 6.98016 11.4659 7.82016 11.4932 8.73073L12.3801 8.88098C12.3801 8.05236 12.2186 7.26016 11.8957 6.50439C11.5728 5.74862 11.1384 5.09756 10.5926 4.55122C10.0468 4.00488 9.39636 3.57008 8.64133 3.24683C7.88629 2.92358 7.09487 2.76195 6.26706 2.76195Z" fill="#6E3DAD"/>
</svg>
