<svg width="16" height="16" viewBox="0 0 16 16" fill="none" xmlns="http://www.w3.org/2000/svg">
<g clip-path="url(#clip0_92_5719)">
<path fill-rule="evenodd" clip-rule="evenodd" d="M15.6335 3.96501C15.7441 3.60101 15.6335 3.33301 15.1035 3.33301H13.3535C12.9081 3.33301 12.7028 3.56434 12.5915 3.81967C12.5915 3.81967 11.7015 5.95034 10.4408 7.33434C10.0328 7.73567 9.84746 7.86301 9.62479 7.86301C9.51346 7.86301 9.34612 7.73567 9.34612 7.37101V3.96501C9.34612 3.52767 9.22346 3.33301 8.85279 3.33301H6.10079C5.82279 3.33301 5.65546 3.53567 5.65546 3.72834C5.65546 4.14234 6.28612 4.23834 6.35079 5.40367V7.93567C6.35079 8.49101 6.24879 8.59167 6.02612 8.59167C5.43279 8.59167 3.98946 6.45101 3.13279 4.00167C2.96679 3.52501 2.79879 3.33301 2.35146 3.33301H0.600122C0.100122 3.33301 0.00012207 3.56434 0.00012207 3.81967C0.00012207 4.27434 0.593455 6.53301 2.76346 9.52034C4.21012 11.5603 6.24679 12.6663 8.10212 12.6663C9.21479 12.6663 9.35212 12.421 9.35212 11.9977V10.4557C9.35212 9.96434 9.45746 9.86634 9.81012 9.86634C10.0701 9.86634 10.5148 9.99434 11.5535 10.9777C12.7401 12.1437 12.9355 12.6663 13.6035 12.6663H15.3535C15.8535 12.6663 16.1041 12.421 15.9601 11.9357C15.8015 11.453 15.2348 10.7523 14.4835 9.92101C14.0755 9.44767 13.4635 8.93767 13.2775 8.68234C13.0181 8.35501 13.0921 8.20901 13.2775 7.91767C13.2775 7.91767 15.4108 4.96701 15.6328 3.96501H15.6335Z" fill="#7C7B7B"/>
</g>
<defs>
<clipPath id="clip0_92_5719">
<rect width="16" height="16" fill="white"/>
</clipPath>
</defs>
</svg>
