<svg width="16" height="16" viewBox="0 0 16 16" fill="none" xmlns="http://www.w3.org/2000/svg">
<path d="M4.70059 13.0323L4.92945 13.1458C5.88319 13.7133 6.95127 13.9782 8.01941 13.9782C11.3764 13.9782 14.1229 11.2539 14.1229 7.92417C14.1229 6.335 13.4744 4.78364 12.33 3.64849C11.1856 2.51333 9.65968 1.87012 8.01941 1.87012C4.66247 1.87012 1.91584 4.59444 1.95401 7.96203C1.95401 9.09713 2.29733 10.1945 2.86952 11.1404L3.02209 11.3674L2.41179 13.5999L4.70059 13.0323Z" fill="#7C7B7B"/>
<path d="M12.9782 3.04324C11.6812 1.71894 9.88828 1 8.0572 1C4.16625 1 1.03817 4.14053 1.07629 7.96214C1.07629 9.17296 1.41961 10.346 1.99185 11.4054L1 15L4.70026 14.054C5.73023 14.6217 6.8746 14.8865 8.01909 14.8865C11.8719 14.8865 15 11.7459 15 7.92438C15 6.07029 14.2752 4.32973 12.9782 3.04324H12.9782ZM8.0572 13.7136C7.02723 13.7136 5.99727 13.4487 5.11987 12.919L4.89101 12.8055L2.6785 13.373L3.25068 11.2163L3.09811 10.9892C1.41961 8.30279 2.22072 4.74594 4.9673 3.08105C7.71388 1.41621 11.2616 2.21082 12.9401 4.93514C14.6185 7.65946 13.8174 11.1784 11.0709 12.8433C10.1934 13.4108 9.12534 13.7135 8.0572 13.7135V13.7136ZM11.4141 9.51361L10.9945 9.32441C10.9945 9.32441 10.3842 9.05954 10.0027 8.87034C9.96456 8.87034 9.92645 8.83247 9.88828 8.83247C9.77382 8.83247 9.69753 8.87034 9.62124 8.9082C9.62124 8.9082 9.58312 8.946 9.04905 9.55142C9.01088 9.62708 8.9346 9.66495 8.85831 9.66495H8.82014C8.78202 9.66495 8.70573 9.62708 8.66756 9.58928L8.47681 9.51361C8.0572 9.32441 7.67576 9.09734 7.37056 8.79467C7.29427 8.719 7.17981 8.64333 7.10352 8.56766C6.83649 8.30279 6.56945 8.00005 6.37876 7.65951L6.34059 7.58384C6.30247 7.54598 6.30247 7.50818 6.2643 7.43251C6.2643 7.35684 6.2643 7.28117 6.30247 7.2433C6.30247 7.2433 6.45505 7.0541 6.56945 6.94063C6.64579 6.8649 6.68391 6.75143 6.7602 6.67576C6.83649 6.56222 6.87466 6.41089 6.83649 6.29735C6.79837 6.10815 6.34059 5.08653 6.22618 4.85953C6.14984 4.74599 6.07361 4.70819 5.95915 4.67032H5.53954C5.4632 4.67032 5.38696 4.70819 5.31062 4.70819L5.27245 4.74599C5.19616 4.78386 5.11987 4.85952 5.04359 4.89733C4.9673 4.97306 4.92913 5.04867 4.85284 5.1244C4.5858 5.46494 4.43323 5.88115 4.43323 6.29735C4.43323 6.60003 4.50952 6.90276 4.62397 7.16764L4.66215 7.28117C5.00547 8.00005 5.4632 8.64333 6.07361 9.21088L6.22618 9.36221C6.34059 9.47575 6.45505 9.55141 6.53134 9.66489C7.33244 10.346 8.24795 10.8379 9.27792 11.1028C9.39238 11.1406 9.54495 11.1406 9.65941 11.1784H10.0409C10.2316 11.1784 10.4605 11.1028 10.6131 11.0271C10.7275 10.9514 10.8038 10.9514 10.8801 10.8758L10.9564 10.8C11.0327 10.7244 11.109 10.6866 11.1853 10.6109C11.2616 10.5352 11.3379 10.4596 11.376 10.3838C11.4523 10.2325 11.4904 10.0433 11.5286 9.85415V9.58928C11.5286 9.58928 11.4904 9.55141 11.4141 9.51361Z" fill="white"/>
</svg>
