<svg width="16" height="16" viewBox="0 0 16 16" fill="none" xmlns="http://www.w3.org/2000/svg">
<g clip-path="url(#clip0_92_5736)">
<path fill-rule="evenodd" clip-rule="evenodd" d="M7.85492 1.78271C11.3006 1.78271 14.096 4.56274 14.096 7.99384C14.096 11.4249 11.3206 14.2709 7.85492 14.205C6.58062 14.181 5.70967 14.0891 4.76047 13.3881C4.03602 12.8509 1.17435 15.4232 2.58913 11.2112C1.98509 10.2566 1.62588 9.16018 1.61183 7.99384C1.5737 4.57872 4.40727 1.78271 7.85492 1.78271Z" fill="#7C7B7B"/>
<path fill-rule="evenodd" clip-rule="evenodd" d="M12.9627 3.03509C11.6443 1.72496 9.89434 1.002 8.03004 1C4.18706 1 1.05849 4.11355 1.05649 7.93809C1.05649 9.16034 1.37757 10.3526 1.98763 11.4051L0.998291 15L4.69478 14.0354C5.71667 14.59 6.86208 14.8804 8.02603 14.8802H8.03004C11.873 14.8802 14.9996 11.7686 15.0016 7.94208C15.0036 6.08873 14.2792 4.34722 12.9627 3.03509ZM5.69215 11.2973C5.74031 11.3272 5.84065 11.3272 6.07344 11.3272C7.05475 11.3252 7.90161 11.3233 8.50364 11.3233C11.3171 11.3233 11.2429 8.37546 9.92846 8.00799C10.1211 7.66847 10.9981 7.02939 10.4562 5.71127C9.91842 4.40713 7.61063 4.70271 6.03129 4.70271C5.44732 4.70271 5.53361 5.13409 5.53763 5.80114C5.54164 6.85963 5.53763 9.72354 5.53763 10.9618C5.53763 11.2114 5.61388 11.2514 5.69215 11.2973ZM6.90826 10.2168H8.33909C8.94714 10.2148 9.48897 9.93324 9.47493 9.3301C9.46489 8.76291 9.08561 8.57518 8.55783 8.52325C8.05613 8.52924 7.48219 8.52924 6.90826 8.52924V10.2168ZM6.90826 7.38887C7.96784 7.37489 8.37521 7.43081 8.95316 7.28702C9.35051 7.06334 9.52309 6.23053 8.95517 5.94893C8.55983 5.75321 7.3939 5.81912 6.90826 5.83909V7.38887ZM8.03004 13.7078H8.02603C6.98652 13.7078 5.96708 13.4302 5.07807 12.905L4.86535 12.7792L2.67194 13.3524L3.25792 11.2254L3.11946 11.0057C2.53958 10.0867 2.23277 9.02324 2.23447 7.93809C2.23447 4.75863 4.83525 2.17233 8.03205 2.17233C9.57928 2.17233 11.0342 2.77347 12.1279 3.86391C13.2236 4.95235 13.8256 6.40228 13.8256 7.94208C13.8236 11.1215 11.2228 13.7078 8.03004 13.7078Z" fill="#FEFEFE" stroke="#7C7B7B" stroke-width="0.175021" stroke-miterlimit="22.926"/>
<path fill-rule="evenodd" clip-rule="evenodd" d="M5.66344 11.2918C5.71161 11.3217 5.81395 11.3217 6.04473 11.3217C7.02605 11.3198 7.87291 11.3178 8.47494 11.3178C11.2884 11.3178 11.2162 8.36997 9.89976 8.00249C10.0924 7.66298 10.9694 7.02389 10.4275 5.70577C9.88972 4.40164 7.58193 4.69721 6.00259 4.69721C5.41862 4.69721 5.50692 5.1286 5.50892 5.79564C5.51294 6.85413 5.51093 9.71804 5.50892 10.9563C5.50892 11.2059 5.58518 11.2459 5.66344 11.2918ZM6.88156 10.2113H8.31039C8.91844 10.2093 9.46027 9.92774 9.44622 9.3246C9.43619 8.75741 9.05691 8.56968 8.52913 8.51775C8.02944 8.52375 7.4555 8.52375 6.88156 8.52375V10.2113ZM6.88156 7.38337C7.93913 7.36939 8.34651 7.42532 8.92446 7.28152C9.3218 7.05784 9.49439 6.22503 8.92647 5.94343C8.53314 5.74771 7.36519 5.81362 6.88156 5.83359V7.38337Z" fill="#FEFEFE"/>
</g>
<defs>
<clipPath id="clip0_92_5736">
<rect width="16" height="16" fill="white"/>
</clipPath>
</defs>
</svg>
