<svg width="16" height="16" viewBox="0 0 16 16" fill="none" xmlns="http://www.w3.org/2000/svg">
<path d="M15.6468 3.87913C15.555 3.51593 15.376 3.1848 15.1275 2.91873C14.8791 2.65267 14.5699 2.46094 14.2308 2.36264C12.9891 2 7.99201 2 7.99201 2C7.99201 2 2.99463 2.01098 1.75301 2.37362C1.41385 2.47192 1.10466 2.66366 0.856224 2.92974C0.607787 3.19582 0.428773 3.52696 0.337009 3.89017C-0.0385534 6.25276 -0.184241 9.85279 0.347322 12.1209C0.439095 12.4841 0.618113 12.8152 0.86655 13.0813C1.11499 13.3473 1.42417 13.5391 1.76332 13.6374C3.00495 14 8.0022 14 8.0022 14C8.0022 14 12.9994 14 14.2409 13.6374C14.5801 13.5391 14.8893 13.3473 15.1378 13.0813C15.3862 12.8152 15.5652 12.4841 15.657 12.1209C16.0531 9.75494 16.1752 6.15718 15.6468 3.8792V3.87913Z" fill="#7C7B7B"/>
<path d="M6 10L10 8L6.00006 6L6 10Z" fill="white"/>
</svg>
